<?xml version="1.0" standalone="no"?>
<!DOCTYPE svg PUBLIC "-//W3C//DTD SVG 1.1//EN"
"http://www.w3.org/Graphics/SVG/1.1/DTD/svg11.dtd">
<svg height="600" version="1.1" width="800" xmlns="http://www.w3.org/2000/svg"><g><rect fill="#f9f9f9" height="600" width="800" x="0" y="0" /><g transform="translate(40 40)"><g transform="translate(78 0)"><text fill="#333" font-family="Monaco" font-size="16" x="0" y="0">Bars</text></g><g transform="translate(0 20)"><g transform="translate(78 0)"><g class="axis bottom"><text dy="1em" fill="#666" font-family="Monaco" text-anchor="middle" transform="" x="321.0" y="486.0">None</text><g class="tick"><line stroke="#eee" stroke-width="1" x1="160.50" x2="160.50" y1="0" y2="452.0" /><text dy="1em" fill="#9c9c9c" font-family="Monaco" text-anchor="middle" x="160.50" y="456.0">2.5</text></g><g class="tick"><line stroke="#eee" stroke-width="1" x1="321.0" x2="321.0" y1="0" y2="452.0" /><text dy="1em" fill="#9c9c9c" font-family="Monaco" text-anchor="middle" x="321.0" y="456.0">5</text></g><g class="tick"><line stroke="#eee" stroke-width="1" x1="481.50" x2="481.50" y1="0" y2="452.0" /><text dy="1em" fill="#9c9c9c" font-family="Monaco" text-anchor="middle" x="481.50" y="456.0">7.5</text></g><g class="tick"><line stroke="#eee" stroke-width="1" x1="642" x2="642" y1="0" y2="452.0" /><text dy="1em" fill="#9c9c9c" font-family="Monaco" text-anchor="middle" x="642" y="456.0">10</text></g><g class="tick"><line stroke="#a8a8a8" stroke-width="1" x1="0" x2="0" y1="0" y2="452.0" /><text dy="1em" fill="#9c9c9c" font-family="Monaco" text-anchor="middle" x="0" y="456.0">0</text></g></g><g class="axis left"><text dy="" fill="#666" font-family="Monaco" text-anchor="middle" transform="rotate(270 -56 224)" x="-56" y="224.0">None</text><g class="tick"><line stroke="#eee" stroke-width="1" x1="-4" x2="642.0" y1="392" y2="392" /><text dy="0.32em" fill="#9c9c9c" font-family="Monaco" text-anchor="end" x="-8" y="392">Hello</text></g><g class="tick"><line stroke="#eee" stroke-width="1" x1="-4" x2="642.0" y1="280" y2="280" /><text dy="0.32em" fill="#9c9c9c" font-family="Monaco" text-anchor="end" x="-8" y="280">How</text></g><g class="tick"><line stroke="#eee" stroke-width="1" x1="-4" x2="642.0" y1="168" y2="168" /><text dy="0.32em" fill="#9c9c9c" font-family="Monaco" text-anchor="end" x="-8" y="168">Are</text></g><g class="tick"><line stroke="#eee" stroke-width="1" x1="-4" x2="642.0" y1="56" y2="56" /><text dy="0.32em" fill="#9c9c9c" font-family="Monaco" text-anchor="end" x="-8" y="56">You</text></g></g><g><g class="series bars"><rect fill="#d190b6" height="100.8" width="256.8" x="0" y="5.6" /><rect fill="#d190b6" height="100.8" width="577.8" x="0" y="117.6" /><rect fill="#d190b6" height="100.8" width="321.0" x="0" y="229.6" /><rect fill="#d190b6" height="100.8" width="192.6" x="0" y="341.6" /></g></g></g></g></g></g></svg>