<?xml version="1.0" standalone="no"?>
<!DOCTYPE svg PUBLIC "-//W3C//DTD SVG 1.1//EN"
"http://www.w3.org/Graphics/SVG/1.1/DTD/svg11.dtd">
<svg height="600" version="1.1" width="800" xmlns="http://www.w3.org/2000/svg"><g><rect fill="#f9f9f9" height="600" width="800" x="0" y="0" /><g transform="translate(40 40)"><g transform="translate(48 0)"><text fill="#333" font-family="Monaco" font-size="16" x="0" y="0">Bars</text></g><g transform="translate(0 20)"><g transform="translate(48 0)"><g class="axis bottom"><text dy="1em" fill="#333" font-family="Monaco" text-anchor="middle" transform="" x="336.0" y="508.0" /><g class="tick"><line stroke="#a8a8a8" stroke-width="1" x1="0.0" x2="0.0" y1="0" y2="482.0" /><text dy="1em" fill="#9c9c9c" font-family="Monaco" text-anchor="middle" x="0.0" y="486.0">0.0</text></g><g class="tick"><line stroke="#eee" stroke-width="1" x1="168.0" x2="168.0" y1="0" y2="482.0" /><text dy="1em" fill="#9c9c9c" font-family="Monaco" text-anchor="middle" x="168.0" y="486.0">2.25</text></g><g class="tick"><line stroke="#eee" stroke-width="1" x1="336.0" x2="336.0" y1="0" y2="482.0" /><text dy="1em" fill="#9c9c9c" font-family="Monaco" text-anchor="middle" x="336.0" y="486.0">4.5</text></g><g class="tick"><line stroke="#eee" stroke-width="1" x1="504.0" x2="504.0" y1="0" y2="482.0" /><text dy="1em" fill="#9c9c9c" font-family="Monaco" text-anchor="middle" x="504.0" y="486.0">6.75</text></g><g class="tick"><line stroke="#eee" stroke-width="1" x1="672.0" x2="672.0" y1="0" y2="482.0" /><text dy="1em" fill="#9c9c9c" font-family="Monaco" text-anchor="middle" x="672.0" y="486.0">9.0</text></g></g><g class="axis left"><text dy="" fill="#333" font-family="Monaco" text-anchor="middle" transform="rotate(270 -48 239)" x="-48" y="239.0" /><g class="tick"><line stroke="#eee" stroke-width="1" x1="-4" x2="672.0" y1="418.25" y2="418.25" /><text dy="0.32em" fill="#9c9c9c" font-family="Monaco" text-anchor="end" x="-8" y="418.25">You</text></g><g class="tick"><line stroke="#eee" stroke-width="1" x1="-4" x2="672.0" y1="298.75" y2="298.75" /><text dy="0.32em" fill="#9c9c9c" font-family="Monaco" text-anchor="end" x="-8" y="298.75">Are</text></g><g class="tick"><line stroke="#eee" stroke-width="1" x1="-4" x2="672.0" y1="179.25" y2="179.25" /><text dy="0.32em" fill="#9c9c9c" font-family="Monaco" text-anchor="end" x="-8" y="179.25">How</text></g><g class="tick"><line stroke="#eee" stroke-width="1" x1="-4" x2="672.0" y1="59.75" y2="59.75" /><text dy="0.32em" fill="#9c9c9c" font-family="Monaco" text-anchor="end" x="-8" y="59.75">Hello</text></g></g><g><g class="series bars"><rect fill="#d190b6" height="107.54999999999995" width="298.66666666666663" x="0" y="364.475" /><rect fill="#d190b6" height="107.54999999999998" width="672.0" x="0" y="244.975" /><rect fill="#d190b6" height="107.55000000000001" width="373.33333333333337" x="0" y="125.475" /><rect fill="#d190b6" height="107.55000000000001" width="224.0" x="0" y="5.9750000000000005" /></g></g></g></g></g></g></svg>