<?xml version="1.0" standalone="no"?>
<!DOCTYPE svg PUBLIC "-//W3C//DTD SVG 1.1//EN"
"http://www.w3.org/Graphics/SVG/1.1/DTD/svg11.dtd">
<svg height="600" version="1.1" width="800" xmlns="http://www.w3.org/2000/svg"><g><rect fill="#f9f9f9" height="600" width="800" x="0" y="0" /><g transform="translate(40 40)"><g transform="translate(56 0)"><text fill="#333" font-family="Monaco" font-size="16" x="0" y="0">Colorized dots</text></g><g transform="translate(0 20)"><g transform="translate(56 0)"><g class="axis bottom"><text dy="1em" fill="#666" font-family="Monaco" text-anchor="middle" transform="" x="332.0" y="508.0" /><g class="tick"><line stroke="#eee" stroke-width="1" x1="166.0" x2="166.0" y1="0" y2="482.0" /><text dy="1em" fill="#9c9c9c" font-family="Monaco" text-anchor="middle" x="166.0" y="486.0">62.25</text></g><g class="tick"><line stroke="#eee" stroke-width="1" x1="332.0" x2="332.0" y1="0" y2="482.0" /><text dy="1em" fill="#9c9c9c" font-family="Monaco" text-anchor="middle" x="332.0" y="486.0">124.5</text></g><g class="tick"><line stroke="#eee" stroke-width="1" x1="498.0" x2="498.0" y1="0" y2="482.0" /><text dy="1em" fill="#9c9c9c" font-family="Monaco" text-anchor="middle" x="498.0" y="486.0">186.75</text></g><g class="tick"><line stroke="#eee" stroke-width="1" x1="664.0" x2="664.0" y1="0" y2="482.0" /><text dy="1em" fill="#9c9c9c" font-family="Monaco" text-anchor="middle" x="664.0" y="486.0">249.0</text></g><g class="tick"><line stroke="#a8a8a8" stroke-width="1" x1="0.0" x2="0.0" y1="0" y2="482.0" /><text dy="1em" fill="#9c9c9c" font-family="Monaco" text-anchor="middle" x="0.0" y="486.0">0.0</text></g></g><g class="axis left"><text dy="" fill="#666" font-family="Monaco" text-anchor="middle" transform="rotate(270 -56 239)" x="-56" y="239.0" /><g class="tick"><line stroke="#eee" stroke-width="1" x1="-4" x2="664.0" y1="478.0" y2="478.0" /><text dy="0.32em" fill="#9c9c9c" font-family="Monaco" text-anchor="end" x="-8" y="478.0">1.0</text></g><g class="tick"><line stroke="#eee" stroke-width="1" x1="-4" x2="664.0" y1="358.5" y2="358.5" /><text dy="0.32em" fill="#9c9c9c" font-family="Monaco" text-anchor="end" x="-8" y="358.5">62.75</text></g><g class="tick"><line stroke="#eee" stroke-width="1" x1="-4" x2="664.0" y1="239.0" y2="239.0" /><text dy="0.32em" fill="#9c9c9c" font-family="Monaco" text-anchor="end" x="-8" y="239.0">124.5</text></g><g class="tick"><line stroke="#eee" stroke-width="1" x1="-4" x2="664.0" y1="119.5" y2="119.5" /><text dy="0.32em" fill="#9c9c9c" font-family="Monaco" text-anchor="end" x="-8" y="119.5">186.25</text></g><g class="tick"><line stroke="#eee" stroke-width="1" x1="-4" x2="664.0" y1="0.0" y2="0.0" /><text dy="0.32em" fill="#9c9c9c" font-family="Monaco" text-anchor="end" x="-8" y="0.0">248.0</text></g></g><g><g class="series dots"><circle cx="285.33333333333337" cy="464.45344129554655" fill="rgb(107, 8, 150)" r="3" /><circle cx="61.33333333333333" cy="170.29959514170042" fill="rgb(23, 160, 150)" r="3" /><circle cx="176.0" cy="106.43724696356276" fill="rgb(66, 193, 150)" r="3" /><circle cx="26.666666666666668" cy="255.4493927125506" fill="rgb(10, 116, 150)" r="3" /><circle cx="117.33333333333334" cy="375.4331983805668" fill="rgb(44, 54, 150)" r="3" /><circle cx="354.66666666666663" cy="441.2307692307692" fill="rgb(133, 20, 150)" r="3" /><circle cx="466.66666666666663" cy="203.19838056680163" fill="rgb(175, 143, 150)" r="3" /><circle cx="152.0" cy="23.222672064777328" fill="rgb(57, 236, 150)" r="3" /><circle cx="536.0" cy="255.4493927125506" fill="rgb(201, 116, 150)" r="3" /><circle cx="101.33333333333334" cy="255.4493927125506" fill="rgb(38, 116, 150)" r="3" /><circle cx="440.0" cy="216.74493927125502" fill="rgb(165, 136, 150)" r="3" /><circle cx="552.0" cy="383.1740890688259" fill="rgb(207, 50, 150)" r="3" /><circle cx="5.333333333333333" cy="259.31983805668017" fill="rgb(2, 114, 150)" r="3" /><circle cx="48.0" cy="282.5425101214575" fill="rgb(18, 102, 150)" r="3" /><circle cx="306.6666666666667" cy="268.99595141700405" fill="rgb(115, 109, 150)" r="3" /><circle cx="405.33333333333337" cy="100.63157894736844" fill="rgb(152, 196, 150)" r="3" /><circle cx="357.33333333333337" cy="478.0" fill="rgb(134, 1, 150)" r="3" /><circle cx="434.6666666666667" cy="9.676113360323882" fill="rgb(163, 243, 150)" r="3" /><circle cx="456.0" cy="59.9919028340081" fill="rgb(171, 217, 150)" r="3" /><circle cx="389.3333333333333" cy="141.27125506072878" fill="rgb(146, 175, 150)" r="3" /><circle cx="528.0" cy="270.9311740890688" fill="rgb(198, 108, 150)" r="3" /><circle cx="416.0" cy="321.2469635627531" fill="rgb(156, 82, 150)" r="3" /><circle cx="282.6666666666667" cy="330.9230769230769" fill="rgb(106, 77, 150)" r="3" /><circle cx="138.66666666666666" cy="137.4008097165992" fill="rgb(52, 177, 150)" r="3" /><circle cx="128.0" cy="131.5951417004049" fill="rgb(48, 180, 150)" r="3" /><circle cx="458.6666666666667" cy="462.5182186234818" fill="rgb(172, 9, 150)" r="3" /><circle cx="664.0" cy="34.83400809716602" fill="rgb(249, 230, 150)" r="3" /><circle cx="362.6666666666667" cy="456.7125506072874" fill="rgb(136, 12, 150)" r="3" /><circle cx="621.3333333333334" cy="245.77327935222672" fill="rgb(233, 121, 150)" r="3" /><circle cx="157.33333333333334" cy="377.36842105263156" fill="rgb(59, 53, 150)" r="3" /><circle cx="194.66666666666666" cy="404.46153846153845" fill="rgb(73, 39, 150)" r="3" /><circle cx="605.3333333333334" cy="98.69635627530363" fill="rgb(227, 197, 150)" r="3" /><circle cx="509.3333333333333" cy="327.0526315789474" fill="rgb(191, 79, 150)" r="3" /><circle cx="34.666666666666664" cy="359.9514170040486" fill="rgb(13, 62, 150)" r="3" /><circle cx="474.6666666666667" cy="207.06882591093114" fill="rgb(178, 141, 150)" r="3" /><circle cx="234.66666666666669" cy="13.546558704453446" fill="rgb(88, 241, 150)" r="3" /><circle cx="400.00000000000006" cy="288.3481781376518" fill="rgb(150, 99, 150)" r="3" /><circle cx="610.6666666666666" cy="228.3562753036437" fill="rgb(229, 130, 150)" r="3" /><circle cx="410.6666666666667" cy="174.17004048583" fill="rgb(154, 158, 150)" r="3" /><circle cx="130.66666666666666" cy="29.028340080971645" fill="rgb(49, 233, 150)" r="3" /><circle cx="304.0" cy="303.82995951417" fill="rgb(114, 91, 150)" r="3" /><circle cx="562.6666666666666" cy="323.1821862348178" fill="rgb(211, 81, 150)" r="3" /><circle cx="384.0" cy="336.7287449392712" fill="rgb(144, 74, 150)" r="3" /><circle cx="429.33333333333337" cy="220.61538461538464" fill="rgb(161, 134, 150)" r="3" /><circle cx="392.0" cy="352.2105263157895" fill="rgb(147, 66, 150)" r="3" /><circle cx="610.6666666666666" cy="27.093117408906892" fill="rgb(229, 234, 150)" r="3" /><circle cx="402.6666666666667" cy="19.35222672064782" fill="rgb(151, 238, 150)" r="3" /><circle cx="205.33333333333334" cy="336.7287449392712" fill="rgb(77, 74, 150)" r="3" /><circle cx="592.0" cy="123.85425101214577" fill="rgb(222, 184, 150)" r="3" /><circle cx="290.6666666666667" cy="150.9473684210526" fill="rgb(109, 170, 150)" r="3" /><circle cx="306.6666666666667" cy="203.19838056680163" fill="rgb(115, 143, 150)" r="3" /><circle cx="26.666666666666668" cy="96.76113360323887" fill="rgb(10, 198, 150)" r="3" /><circle cx="600.0" cy="383.1740890688259" fill="rgb(225, 50, 150)" r="3" /><circle cx="637.3333333333333" cy="452.8421052631579" fill="rgb(239, 14, 150)" r="3" /><circle cx="565.3333333333334" cy="234.16194331983803" fill="rgb(212, 127, 150)" r="3" /><circle cx="613.3333333333334" cy="253.51417004048582" fill="rgb(230, 117, 150)" r="3" /><circle cx="61.33333333333333" cy="346.40485829959516" fill="rgb(23, 69, 150)" r="3" /><circle cx="501.3333333333333" cy="108.37246963562757" fill="rgb(188, 192, 150)" r="3" /><circle cx="397.3333333333333" cy="369.6275303643725" fill="rgb(149, 57, 150)" r="3" /><circle cx="389.3333333333333" cy="222.55060728744937" fill="rgb(146, 133, 150)" r="3" /><circle cx="32.0" cy="361.88663967611336" fill="rgb(12, 61, 150)" r="3" /><circle cx="160.0" cy="92.89068825910931" fill="rgb(60, 200, 150)" r="3" /><circle cx="608.0" cy="404.46153846153845" fill="rgb(228, 39, 150)" r="3" /><circle cx="192.0" cy="11.611336032388692" fill="rgb(72, 242, 150)" r="3" /><circle cx="101.33333333333334" cy="243.83805668016194" fill="rgb(38, 122, 150)" r="3" /><circle cx="360.0" cy="377.36842105263156" fill="rgb(135, 53, 150)" r="3" /><circle cx="466.66666666666663" cy="468.3238866396761" fill="rgb(175, 6, 150)" r="3" /><circle cx="82.66666666666666" cy="3.870445344129564" fill="rgb(31, 246, 150)" r="3" /><circle cx="469.33333333333337" cy="1.9352226720648105" fill="rgb(176, 247, 150)" r="3" /><circle cx="400.00000000000006" cy="61.927125506072855" fill="rgb(150, 216, 150)" r="3" /><circle cx="346.6666666666667" cy="127.72469635627527" fill="rgb(130, 182, 150)" r="3" /><circle cx="325.3333333333333" cy="0.0" fill="rgb(122, 248, 150)" r="3" /><circle cx="632.0" cy="319.31174089068827" fill="rgb(237, 83, 150)" r="3" /><circle cx="98.66666666666666" cy="116.11336032388664" fill="rgb(37, 188, 150)" r="3" /><circle cx="114.66666666666667" cy="36.76923076923072" fill="rgb(43, 229, 150)" r="3" /><circle cx="410.6666666666667" cy="452.8421052631579" fill="rgb(154, 14, 150)" r="3" /><circle cx="336.0" cy="147.0769230769231" fill="rgb(126, 172, 150)" r="3" /><circle cx="93.33333333333333" cy="425.748987854251" fill="rgb(35, 28, 150)" r="3" /><circle cx="24.0" cy="87.085020242915" fill="rgb(9, 203, 150)" r="3" /><circle cx="408.0" cy="340.59919028340084" fill="rgb(153, 72, 150)" r="3" /><circle cx="610.6666666666666" cy="307.70040485829963" fill="rgb(229, 89, 150)" r="3" /><circle cx="440.0" cy="270.9311740890688" fill="rgb(165, 108, 150)" r="3" /><circle cx="197.33333333333331" cy="210.9392712550607" fill="rgb(74, 139, 150)" r="3" /><circle cx="0.0" cy="404.46153846153845" fill="rgb(0, 39, 150)" r="3" /><circle cx="277.3333333333333" cy="421.87854251012146" fill="rgb(104, 30, 150)" r="3" /><circle cx="37.333333333333336" cy="342.53441295546554" fill="rgb(14, 71, 150)" r="3" /><circle cx="223.99999999999997" cy="164.4939271255061" fill="rgb(84, 163, 150)" r="3" /><circle cx="642.6666666666667" cy="458.64777327935224" fill="rgb(241, 11, 150)" r="3" /><circle cx="392.0" cy="239.9676113360324" fill="rgb(147, 124, 150)" r="3" /><circle cx="48.0" cy="369.6275303643725" fill="rgb(18, 57, 150)" r="3" /><circle cx="0.0" cy="125.78947368421052" fill="rgb(0, 183, 150)" r="3" /><circle cx="205.33333333333334" cy="176.10526315789474" fill="rgb(77, 157, 150)" r="3" /><circle cx="250.66666666666666" cy="313.50607287449395" fill="rgb(94, 86, 150)" r="3" /><circle cx="421.3333333333333" cy="321.2469635627531" fill="rgb(158, 82, 150)" r="3" /><circle cx="480.0" cy="414.13765182186233" fill="rgb(180, 34, 150)" r="3" /><circle cx="557.3333333333334" cy="123.85425101214577" fill="rgb(209, 184, 150)" r="3" /><circle cx="346.6666666666667" cy="85.14979757085018" fill="rgb(130, 204, 150)" r="3" /><circle cx="2.6666666666666665" cy="265.1255060728745" fill="rgb(1, 111, 150)" r="3" /><circle cx="5.333333333333333" cy="334.79352226720647" fill="rgb(2, 75, 150)" r="3" /><circle cx="5.333333333333333" cy="205.13360323886644" fill="rgb(2, 142, 150)" r="3" /></g></g></g></g></g></g></svg>