<?xml version="1.0" standalone="no"?>
<!DOCTYPE svg PUBLIC "-//W3C//DTD SVG 1.1//EN"
"http://www.w3.org/Graphics/SVG/1.1/DTD/svg11.dtd">
<svg height="600" version="1.1" width="800" xmlns="http://www.w3.org/2000/svg"><g><rect fill="#f9f9f9" height="600" width="800" x="0" y="0" /><g transform="translate(40 40)"><g transform="translate(32 0)"><text fill="#333" font-family="Monaco" font-size="16" x="0" y="0">Colorized dots</text></g><g transform="translate(0 20)"><g transform="translate(32 0)"><g class="axis bottom"><g class="tick"><line stroke="#eee" stroke-width="1" x1="229.3333333333333333333333333" x2="229.3333333333333333333333333" y1="0" y2="482.0" /><text dy="1em" fill="#9c9c9c" font-family="Monaco" text-anchor="middle" x="229.3333333333333333333333333" y="486.0">100</text></g><g class="tick"><line stroke="#eee" stroke-width="1" x1="458.6666666666666666666666667" x2="458.6666666666666666666666667" y1="0" y2="482.0" /><text dy="1em" fill="#9c9c9c" font-family="Monaco" text-anchor="middle" x="458.6666666666666666666666667" y="486.0">200</text></g><g class="tick"><line stroke="#eee" stroke-width="1" x1="688" x2="688" y1="0" y2="482.0" /><text dy="1em" fill="#9c9c9c" font-family="Monaco" text-anchor="middle" x="688" y="486.0">300</text></g><g class="tick"><line stroke="#a8a8a8" stroke-width="1" x1="0" x2="0" y1="0" y2="482.0" /><text dy="1em" fill="#9c9c9c" font-family="Monaco" text-anchor="middle" x="0" y="486.0">0</text></g></g><g class="axis left"><g class="tick"><line stroke="#eee" stroke-width="1" x1="-4" x2="688.0" y1="318.6666666666666666666666667" y2="318.6666666666666666666666667" /><text dy="0.32em" fill="#9c9c9c" font-family="Monaco" text-anchor="end" x="-8" y="318.6666666666666666666666667">100</text></g><g class="tick"><line stroke="#eee" stroke-width="1" x1="-4" x2="688.0" y1="159.3333333333333333333333333" y2="159.3333333333333333333333333" /><text dy="0.32em" fill="#9c9c9c" font-family="Monaco" text-anchor="end" x="-8" y="159.3333333333333333333333333">200</text></g><g class="tick"><line stroke="#eee" stroke-width="1" x1="-4" x2="688.0" y1="0" y2="0" /><text dy="0.32em" fill="#9c9c9c" font-family="Monaco" text-anchor="end" x="-8" y="0">300</text></g><g class="tick"><line stroke="#a8a8a8" stroke-width="1" x1="-4" x2="688.0" y1="478" y2="478" /><text dy="0.32em" fill="#9c9c9c" font-family="Monaco" text-anchor="end" x="-8" y="478">0</text></g></g><g><g class="series dots"><circle cx="227.04" cy="347.3466666666666666666666667" fill="rgb(99, 82, 150)" r="3" /><circle cx="483.8933333333333333333333333" cy="235.8133333333333333333333333" fill="rgb(211, 152, 150)" r="3" /><circle cx="167.4133333333333333333333333" cy="474.8133333333333333333333333" fill="rgb(73, 2, 150)" r="3" /><circle cx="240.80" cy="369.6533333333333333333333333" fill="rgb(105, 68, 150)" r="3" /><circle cx="483.8933333333333333333333333" cy="86.04" fill="rgb(211, 246, 150)" r="3" /><circle cx="272.9066666666666666666666667" cy="235.8133333333333333333333333" fill="rgb(119, 152, 150)" r="3" /><circle cx="36.69333333333333333333333333" cy="275.6466666666666666666666667" fill="rgb(16, 127, 150)" r="3" /><circle cx="133.0133333333333333333333333" cy="340.9733333333333333333333333" fill="rgb(58, 86, 150)" r="3" /><circle cx="75.68" cy="334.6" fill="rgb(33, 90, 150)" r="3" /><circle cx="217.8666666666666666666666667" cy="360.0933333333333333333333333" fill="rgb(95, 74, 150)" r="3" /><circle cx="167.4133333333333333333333333" cy="117.9066666666666666666666667" fill="rgb(73, 226, 150)" r="3" /><circle cx="133.0133333333333333333333333" cy="417.4533333333333333333333333" fill="rgb(58, 38, 150)" r="3" /><circle cx="497.6533333333333333333333333" cy="447.7266666666666666666666667" fill="rgb(217, 19, 150)" r="3" /><circle cx="197.2266666666666666666666667" cy="462.0666666666666666666666667" fill="rgb(86, 10, 150)" r="3" /><circle cx="470.1333333333333333333333333" cy="478" fill="rgb(205, 0, 150)" r="3" /><circle cx="268.32" cy="84.4466666666666666666666667" fill="rgb(117, 247, 150)" r="3" /><circle cx="126.1333333333333333333333333" cy="478" fill="rgb(55, 0, 150)" r="3" /><circle cx="561.8666666666666666666666667" cy="280.4266666666666666666666667" fill="rgb(245, 124, 150)" r="3" /><circle cx="355.4666666666666666666666667" cy="159.3333333333333333333333333" fill="rgb(155, 200, 150)" r="3" /><circle cx="305.0133333333333333333333333" cy="363.28" fill="rgb(133, 72, 150)" r="3" /><circle cx="279.7866666666666666666666667" cy="167.30" fill="rgb(122, 195, 150)" r="3" /><circle cx="548.1066666666666666666666667" cy="283.6133333333333333333333333" fill="rgb(239, 122, 150)" r="3" /><circle cx="559.5733333333333333333333333" cy="92.4133333333333333333333333" fill="rgb(244, 242, 150)" r="3" /><circle cx="314.1866666666666666666666667" cy="299.5466666666666666666666667" fill="rgb(137, 112, 150)" r="3" /><circle cx="504.5333333333333333333333333" cy="121.0933333333333333333333333" fill="rgb(220, 224, 150)" r="3" /><circle cx="13.76" cy="347.3466666666666666666666667" fill="rgb(6, 82, 150)" r="3" /><circle cx="29.81333333333333333333333333" cy="275.6466666666666666666666667" fill="rgb(13, 127, 150)" r="3" /><circle cx="405.92" cy="476.4066666666666666666666667" fill="rgb(177, 1, 150)" r="3" /><circle cx="215.5733333333333333333333333" cy="173.6733333333333333333333333" fill="rgb(94, 191, 150)" r="3" /><circle cx="4.586666666666666666666666667" cy="168.8933333333333333333333333" fill="rgb(2, 194, 150)" r="3" /><circle cx="201.8133333333333333333333333" cy="231.0333333333333333333333333" fill="rgb(88, 155, 150)" r="3" /><circle cx="80.26666666666666666666666669" cy="116.3133333333333333333333333" fill="rgb(35, 227, 150)" r="3" /><circle cx="233.92" cy="285.2066666666666666666666667" fill="rgb(102, 121, 150)" r="3" /><circle cx="490.7733333333333333333333333" cy="144.9933333333333333333333333" fill="rgb(214, 209, 150)" r="3" /><circle cx="286.6666666666666666666666667" cy="372.84" fill="rgb(125, 66, 150)" r="3" /><circle cx="495.36" cy="406.30" fill="rgb(216, 45, 150)" r="3" /><circle cx="50.45333333333333333333333333" cy="372.84" fill="rgb(22, 66, 150)" r="3" /><circle cx="311.8933333333333333333333333" cy="90.82" fill="rgb(136, 243, 150)" r="3" /><circle cx="77.97333333333333333333333331" cy="474.8133333333333333333333333" fill="rgb(34, 2, 150)" r="3" /><circle cx="382.9866666666666666666666667" cy="243.78" fill="rgb(167, 147, 150)" r="3" /><circle cx="41.28" cy="248.56" fill="rgb(18, 144, 150)" r="3" /><circle cx="330.24" cy="133.84" fill="rgb(144, 216, 150)" r="3" /><circle cx="456.3733333333333333333333333" cy="430.2" fill="rgb(199, 30, 150)" r="3" /><circle cx="293.5466666666666666666666667" cy="280.4266666666666666666666667" fill="rgb(128, 124, 150)" r="3" /><circle cx="348.5866666666666666666666667" cy="113.1266666666666666666666667" fill="rgb(152, 229, 150)" r="3" /><circle cx="13.76" cy="186.42" fill="rgb(6, 183, 150)" r="3" /><circle cx="527.4666666666666666666666667" cy="360.0933333333333333333333333" fill="rgb(230, 74, 150)" r="3" /><circle cx="64.21333333333333333333333333" cy="430.2" fill="rgb(28, 30, 150)" r="3" /><circle cx="231.6266666666666666666666667" cy="186.42" fill="rgb(101, 183, 150)" r="3" /><circle cx="18.34666666666666666666666667" cy="474.8133333333333333333333333" fill="rgb(8, 2, 150)" r="3" /><circle cx="48.16" cy="363.28" fill="rgb(21, 72, 150)" r="3" /><circle cx="29.81333333333333333333333333" cy="331.4133333333333333333333333" fill="rgb(13, 92, 150)" r="3" /><circle cx="394.4533333333333333333333333" cy="86.04" fill="rgb(172, 246, 150)" r="3" /><circle cx="188.0533333333333333333333333" cy="267.68" fill="rgb(82, 132, 150)" r="3" /><circle cx="486.1866666666666666666666667" cy="79.6666666666666666666666667" fill="rgb(212, 250, 150)" r="3" /><circle cx="142.1866666666666666666666667" cy="109.94" fill="rgb(62, 231, 150)" r="3" /><circle cx="119.2533333333333333333333333" cy="90.82" fill="rgb(52, 243, 150)" r="3" /><circle cx="13.76" cy="393.5533333333333333333333333" fill="rgb(6, 53, 150)" r="3" /><circle cx="463.2533333333333333333333333" cy="390.3666666666666666666666667" fill="rgb(202, 55, 150)" r="3" /><circle cx="545.8133333333333333333333333" cy="167.30" fill="rgb(238, 195, 150)" r="3" /><circle cx="261.44" cy="253.34" fill="rgb(114, 141, 150)" r="3" /><circle cx="568.7466666666666666666666667" cy="293.1733333333333333333333333" fill="rgb(248, 116, 150)" r="3" /><circle cx="231.6266666666666666666666667" cy="103.5666666666666666666666667" fill="rgb(101, 235, 150)" r="3" /><circle cx="376.1066666666666666666666667" cy="345.7533333333333333333333333" fill="rgb(164, 83, 150)" r="3" /><circle cx="243.0933333333333333333333333" cy="321.8533333333333333333333333" fill="rgb(106, 98, 150)" r="3" /><circle cx="158.24" cy="312.2933333333333333333333333" fill="rgb(69, 104, 150)" r="3" /><circle cx="465.5466666666666666666666667" cy="270.8666666666666666666666667" fill="rgb(203, 130, 150)" r="3" /><circle cx="220.16" cy="329.82" fill="rgb(96, 93, 150)" r="3" /><circle cx="472.4266666666666666666666667" cy="195.98" fill="rgb(206, 177, 150)" r="3" /><circle cx="300.4266666666666666666666667" cy="474.8133333333333333333333333" fill="rgb(131, 2, 150)" r="3" /><circle cx="38.98666666666666666666666667" cy="262.90" fill="rgb(17, 135, 150)" r="3" /><circle cx="178.88" cy="116.3133333333333333333333333" fill="rgb(78, 227, 150)" r="3" /><circle cx="545.8133333333333333333333333" cy="229.44" fill="rgb(238, 156, 150)" r="3" /><circle cx="447.20" cy="116.3133333333333333333333333" fill="rgb(195, 227, 150)" r="3" /><circle cx="220.16" cy="372.84" fill="rgb(96, 66, 150)" r="3" /><circle cx="107.7866666666666666666666667" cy="385.5866666666666666666666667" fill="rgb(47, 58, 150)" r="3" /><circle cx="522.88" cy="117.9066666666666666666666667" fill="rgb(228, 226, 150)" r="3" /><circle cx="444.9066666666666666666666667" cy="340.9733333333333333333333333" fill="rgb(194, 86, 150)" r="3" /><circle cx="344.0" cy="274.0533333333333333333333333" fill="rgb(150, 128, 150)" r="3" /><circle cx="311.8933333333333333333333333" cy="466.8466666666666666666666667" fill="rgb(136, 7, 150)" r="3" /><circle cx="266.0266666666666666666666667" cy="361.6866666666666666666666667" fill="rgb(116, 73, 150)" r="3" /><circle cx="206.4" cy="320.26" fill="rgb(90, 99, 150)" r="3" /><circle cx="61.92" cy="175.2666666666666666666666667" fill="rgb(27, 190, 150)" r="3" /><circle cx="467.84" cy="219.88" fill="rgb(204, 162, 150)" r="3" /><circle cx="103.20" cy="447.7266666666666666666666667" fill="rgb(45, 19, 150)" r="3" /><circle cx="149.0666666666666666666666667" cy="344.16" fill="rgb(65, 84, 150)" r="3" /><circle cx="300.4266666666666666666666667" cy="242.1866666666666666666666667" fill="rgb(131, 148, 150)" r="3" /><circle cx="169.7066666666666666666666667" cy="463.66" fill="rgb(74, 9, 150)" r="3" /><circle cx="364.64" cy="90.82" fill="rgb(159, 243, 150)" r="3" /><circle cx="231.6266666666666666666666667" cy="240.5933333333333333333333333" fill="rgb(101, 149, 150)" r="3" /><circle cx="96.32" cy="245.3733333333333333333333333" fill="rgb(42, 146, 150)" r="3" /><circle cx="490.7733333333333333333333333" cy="210.32" fill="rgb(214, 168, 150)" r="3" /><circle cx="419.68" cy="259.7133333333333333333333333" fill="rgb(183, 137, 150)" r="3" /><circle cx="238.5066666666666666666666667" cy="188.0133333333333333333333333" fill="rgb(104, 182, 150)" r="3" /><circle cx="149.0666666666666666666666667" cy="261.3066666666666666666666667" fill="rgb(65, 136, 150)" r="3" /><circle cx="165.12" cy="215.10" fill="rgb(72, 165, 150)" r="3" /><circle cx="552.6933333333333333333333333" cy="401.52" fill="rgb(241, 48, 150)" r="3" /><circle cx="208.6933333333333333333333333" cy="385.5866666666666666666666667" fill="rgb(91, 58, 150)" r="3" /><circle cx="527.4666666666666666666666667" cy="90.82" fill="rgb(230, 243, 150)" r="3" /><circle cx="323.36" cy="313.8866666666666666666666667" fill="rgb(141, 103, 150)" r="3" /></g></g></g></g></g></g></svg>