<?xml version="1.0" standalone="no"?>
<!DOCTYPE svg PUBLIC "-//W3C//DTD SVG 1.1//EN"
"http://www.w3.org/Graphics/SVG/1.1/DTD/svg11.dtd">
<svg height="600" version="1.1" width="800" xmlns="http://www.w3.org/2000/svg"><g><rect fill="#f9f9f9" height="600" width="800" x="0" y="0" /><g transform="translate(40 40)"><g transform="translate(32 0)"><text fill="#333" font-family="Monaco" font-size="16" x="0" y="0">Colorized dots</text></g><g transform="translate(0 20)"><g transform="translate(32 0)"><g class="axis bottom"><g class="tick"><line stroke="#eee" stroke-width="1" x1="229.3333333333333333333333333" x2="229.3333333333333333333333333" y1="0" y2="482.0" /><text dy="1em" fill="#9c9c9c" font-family="Monaco" text-anchor="middle" x="229.3333333333333333333333333" y="486.0">100</text></g><g class="tick"><line stroke="#eee" stroke-width="1" x1="458.6666666666666666666666667" x2="458.6666666666666666666666667" y1="0" y2="482.0" /><text dy="1em" fill="#9c9c9c" font-family="Monaco" text-anchor="middle" x="458.6666666666666666666666667" y="486.0">200</text></g><g class="tick"><line stroke="#eee" stroke-width="1" x1="688" x2="688" y1="0" y2="482.0" /><text dy="1em" fill="#9c9c9c" font-family="Monaco" text-anchor="middle" x="688" y="486.0">300</text></g><g class="tick"><line stroke="#a8a8a8" stroke-width="1" x1="0" x2="0" y1="0" y2="482.0" /><text dy="1em" fill="#9c9c9c" font-family="Monaco" text-anchor="middle" x="0" y="486.0">0</text></g></g><g class="axis left"><g class="tick"><line stroke="#eee" stroke-width="1" x1="-4" x2="688.0" y1="318.6666666666666666666666667" y2="318.6666666666666666666666667" /><text dy="0.32em" fill="#9c9c9c" font-family="Monaco" text-anchor="end" x="-8" y="318.6666666666666666666666667">100</text></g><g class="tick"><line stroke="#eee" stroke-width="1" x1="-4" x2="688.0" y1="159.3333333333333333333333333" y2="159.3333333333333333333333333" /><text dy="0.32em" fill="#9c9c9c" font-family="Monaco" text-anchor="end" x="-8" y="159.3333333333333333333333333">200</text></g><g class="tick"><line stroke="#eee" stroke-width="1" x1="-4" x2="688.0" y1="0" y2="0" /><text dy="0.32em" fill="#9c9c9c" font-family="Monaco" text-anchor="end" x="-8" y="0">300</text></g><g class="tick"><line stroke="#a8a8a8" stroke-width="1" x1="-4" x2="688.0" y1="478" y2="478" /><text dy="0.32em" fill="#9c9c9c" font-family="Monaco" text-anchor="end" x="-8" y="478">0</text></g></g><g><g class="series dots"><circle cx="522.88" cy="258.12" fill="rgb(228, 138, 150)" r="3" /><circle cx="405.92" cy="89.2266666666666666666666667" fill="rgb(177, 244, 150)" r="3" /><circle cx="112.3733333333333333333333333" cy="364.8733333333333333333333333" fill="rgb(49, 71, 150)" r="3" /><circle cx="116.96" cy="320.26" fill="rgb(51, 99, 150)" r="3" /><circle cx="233.92" cy="210.32" fill="rgb(102, 168, 150)" r="3" /><circle cx="472.4266666666666666666666667" cy="138.62" fill="rgb(206, 213, 150)" r="3" /><circle cx="55.04" cy="363.28" fill="rgb(24, 72, 150)" r="3" /><circle cx="479.3066666666666666666666667" cy="478" fill="rgb(209, 0, 150)" r="3" /><circle cx="486.1866666666666666666666667" cy="320.26" fill="rgb(212, 99, 150)" r="3" /><circle cx="149.0666666666666666666666667" cy="227.8466666666666666666666667" fill="rgb(65, 157, 150)" r="3" /><circle cx="435.7333333333333333333333333" cy="256.5266666666666666666666667" fill="rgb(190, 139, 150)" r="3" /><circle cx="538.9333333333333333333333333" cy="364.8733333333333333333333333" fill="rgb(235, 71, 150)" r="3" /><circle cx="279.7866666666666666666666667" cy="398.3333333333333333333333333" fill="rgb(122, 50, 150)" r="3" /><circle cx="176.5866666666666666666666667" cy="434.98" fill="rgb(77, 27, 150)" r="3" /><circle cx="137.6" cy="100.38" fill="rgb(60, 237, 150)" r="3" /><circle cx="137.6" cy="183.2333333333333333333333333" fill="rgb(60, 185, 150)" r="3" /><circle cx="158.24" cy="191.2" fill="rgb(69, 180, 150)" r="3" /><circle cx="57.33333333333333333333333333" cy="138.62" fill="rgb(25, 213, 150)" r="3" /><circle cx="32.10666666666666666666666667" cy="168.8933333333333333333333333" fill="rgb(14, 194, 150)" r="3" /><circle cx="64.21333333333333333333333333" cy="275.6466666666666666666666667" fill="rgb(28, 127, 150)" r="3" /><circle cx="392.16" cy="211.9133333333333333333333333" fill="rgb(171, 167, 150)" r="3" /><circle cx="208.6933333333333333333333333" cy="127.4666666666666666666666667" fill="rgb(91, 220, 150)" r="3" /><circle cx="38.98666666666666666666666667" cy="321.8533333333333333333333333" fill="rgb(17, 98, 150)" r="3" /><circle cx="160.5333333333333333333333333" cy="227.8466666666666666666666667" fill="rgb(70, 157, 150)" r="3" /><circle cx="183.4666666666666666666666667" cy="81.26" fill="rgb(80, 249, 150)" r="3" /><circle cx="474.72" cy="395.1466666666666666666666667" fill="rgb(207, 52, 150)" r="3" /><circle cx="520.5866666666666666666666667" cy="269.2733333333333333333333333" fill="rgb(227, 131, 150)" r="3" /><circle cx="499.9466666666666666666666667" cy="122.6866666666666666666666667" fill="rgb(218, 223, 150)" r="3" /><circle cx="396.7466666666666666666666667" cy="355.3133333333333333333333333" fill="rgb(173, 77, 150)" r="3" /><circle cx="465.5466666666666666666666667" cy="258.12" fill="rgb(203, 138, 150)" r="3" /><circle cx="362.3466666666666666666666667" cy="92.4133333333333333333333333" fill="rgb(158, 242, 150)" r="3" /><circle cx="27.52" cy="304.3266666666666666666666667" fill="rgb(12, 109, 150)" r="3" /><circle cx="64.21333333333333333333333333" cy="431.7933333333333333333333333" fill="rgb(28, 29, 150)" r="3" /><circle cx="442.6133333333333333333333333" cy="202.3533333333333333333333333" fill="rgb(193, 173, 150)" r="3" /><circle cx="298.1333333333333333333333333" cy="434.98" fill="rgb(130, 27, 150)" r="3" /><circle cx="332.5333333333333333333333333" cy="404.7066666666666666666666667" fill="rgb(145, 46, 150)" r="3" /><circle cx="438.0266666666666666666666667" cy="188.0133333333333333333333333" fill="rgb(191, 182, 150)" r="3" /><circle cx="323.36" cy="165.7066666666666666666666667" fill="rgb(141, 196, 150)" r="3" /><circle cx="185.76" cy="369.6533333333333333333333333" fill="rgb(81, 68, 150)" r="3" /><circle cx="543.52" cy="188.0133333333333333333333333" fill="rgb(237, 182, 150)" r="3" /><circle cx="341.7066666666666666666666667" cy="307.5133333333333333333333333" fill="rgb(149, 107, 150)" r="3" /><circle cx="167.4133333333333333333333333" cy="328.2266666666666666666666667" fill="rgb(73, 94, 150)" r="3" /><circle cx="139.8933333333333333333333333" cy="79.6666666666666666666666667" fill="rgb(61, 250, 150)" r="3" /><circle cx="291.2533333333333333333333333" cy="399.9266666666666666666666667" fill="rgb(127, 49, 150)" r="3" /><circle cx="529.76" cy="345.7533333333333333333333333" fill="rgb(231, 83, 150)" r="3" /><circle cx="449.4933333333333333333333333" cy="412.6733333333333333333333333" fill="rgb(196, 41, 150)" r="3" /><circle cx="353.1733333333333333333333333" cy="189.6066666666666666666666667" fill="rgb(154, 181, 150)" r="3" /><circle cx="73.38666666666666666666666669" cy="234.22" fill="rgb(32, 153, 150)" r="3" /><circle cx="183.4666666666666666666666667" cy="433.3866666666666666666666667" fill="rgb(80, 28, 150)" r="3" /><circle cx="25.22666666666666666666666667" cy="237.4066666666666666666666667" fill="rgb(11, 151, 150)" r="3" /><circle cx="259.1466666666666666666666667" cy="269.2733333333333333333333333" fill="rgb(113, 131, 150)" r="3" /><circle cx="77.97333333333333333333333331" cy="259.7133333333333333333333333" fill="rgb(34, 137, 150)" r="3" /><circle cx="75.68" cy="291.58" fill="rgb(33, 117, 150)" r="3" /><circle cx="22.93333333333333333333333333" cy="114.72" fill="rgb(10, 228, 150)" r="3" /><circle cx="158.24" cy="219.88" fill="rgb(69, 162, 150)" r="3" /><circle cx="339.4133333333333333333333333" cy="356.9066666666666666666666667" fill="rgb(148, 76, 150)" r="3" /><circle cx="142.1866666666666666666666667" cy="380.8066666666666666666666667" fill="rgb(62, 61, 150)" r="3" /><circle cx="172.00" cy="278.8333333333333333333333333" fill="rgb(75, 125, 150)" r="3" /><circle cx="263.7333333333333333333333333" cy="269.2733333333333333333333333" fill="rgb(115, 131, 150)" r="3" /><circle cx="34.40" cy="454.10" fill="rgb(15, 15, 150)" r="3" /><circle cx="34.40" cy="81.26" fill="rgb(15, 249, 150)" r="3" /><circle cx="45.86666666666666666666666667" cy="211.9133333333333333333333333" fill="rgb(20, 167, 150)" r="3" /><circle cx="421.9733333333333333333333333" cy="312.2933333333333333333333333" fill="rgb(184, 104, 150)" r="3" /><circle cx="516.00" cy="111.5333333333333333333333333" fill="rgb(225, 230, 150)" r="3" /><circle cx="554.9866666666666666666666667" cy="380.8066666666666666666666667" fill="rgb(242, 61, 150)" r="3" /><circle cx="240.80" cy="159.3333333333333333333333333" fill="rgb(105, 200, 150)" r="3" /><circle cx="483.8933333333333333333333333" cy="189.6066666666666666666666667" fill="rgb(211, 181, 150)" r="3" /><circle cx="162.8266666666666666666666667" cy="275.6466666666666666666666667" fill="rgb(71, 127, 150)" r="3" /><circle cx="382.9866666666666666666666667" cy="385.5866666666666666666666667" fill="rgb(167, 58, 150)" r="3" /><circle cx="66.50666666666666666666666667" cy="192.7933333333333333333333333" fill="rgb(29, 179, 150)" r="3" /><circle cx="4.586666666666666666666666667" cy="449.32" fill="rgb(2, 18, 150)" r="3" /><circle cx="243.0933333333333333333333333" cy="84.4466666666666666666666667" fill="rgb(106, 247, 150)" r="3" /><circle cx="146.7733333333333333333333333" cy="444.54" fill="rgb(64, 21, 150)" r="3" /><circle cx="107.7866666666666666666666667" cy="358.50" fill="rgb(47, 75, 150)" r="3" /><circle cx="438.0266666666666666666666667" cy="313.8866666666666666666666667" fill="rgb(191, 103, 150)" r="3" /><circle cx="495.36" cy="450.9133333333333333333333333" fill="rgb(216, 17, 150)" r="3" /><circle cx="114.6666666666666666666666667" cy="170.4866666666666666666666667" fill="rgb(50, 193, 150)" r="3" /><circle cx="511.4133333333333333333333333" cy="188.0133333333333333333333333" fill="rgb(223, 182, 150)" r="3" /><circle cx="87.14666666666666666666666669" cy="90.82" fill="rgb(38, 243, 150)" r="3" /><circle cx="116.96" cy="307.5133333333333333333333333" fill="rgb(51, 107, 150)" r="3" /><circle cx="121.5466666666666666666666667" cy="162.52" fill="rgb(53, 198, 150)" r="3" /><circle cx="467.84" cy="415.86" fill="rgb(204, 39, 150)" r="3" /><circle cx="419.68" cy="208.7266666666666666666666667" fill="rgb(183, 169, 150)" r="3" /><circle cx="215.5733333333333333333333333" cy="133.84" fill="rgb(94, 216, 150)" r="3" /><circle cx="380.6933333333333333333333333" cy="458.88" fill="rgb(166, 12, 150)" r="3" /><circle cx="525.1733333333333333333333333" cy="106.7533333333333333333333333" fill="rgb(229, 233, 150)" r="3" /><circle cx="527.4666666666666666666666667" cy="106.7533333333333333333333333" fill="rgb(230, 233, 150)" r="3" /><circle cx="181.1733333333333333333333333" cy="293.1733333333333333333333333" fill="rgb(79, 116, 150)" r="3" /><circle cx="192.64" cy="285.2066666666666666666666667" fill="rgb(84, 121, 150)" r="3" /><circle cx="52.74666666666666666666666667" cy="398.3333333333333333333333333" fill="rgb(23, 50, 150)" r="3" /><circle cx="504.5333333333333333333333333" cy="364.8733333333333333333333333" fill="rgb(220, 71, 150)" r="3" /><circle cx="305.0133333333333333333333333" cy="446.1333333333333333333333333" fill="rgb(133, 20, 150)" r="3" /><circle cx="126.1333333333333333333333333" cy="175.2666666666666666666666667" fill="rgb(55, 190, 150)" r="3" /><circle cx="495.36" cy="156.1466666666666666666666667" fill="rgb(216, 202, 150)" r="3" /><circle cx="55.04" cy="325.04" fill="rgb(24, 96, 150)" r="3" /><circle cx="272.9066666666666666666666667" cy="297.9533333333333333333333333" fill="rgb(119, 113, 150)" r="3" /><circle cx="305.0133333333333333333333333" cy="256.5266666666666666666666667" fill="rgb(133, 139, 150)" r="3" /><circle cx="192.64" cy="353.72" fill="rgb(84, 78, 150)" r="3" /><circle cx="431.1466666666666666666666667" cy="411.08" fill="rgb(188, 42, 150)" r="3" /><circle cx="261.44" cy="412.6733333333333333333333333" fill="rgb(114, 41, 150)" r="3" /></g></g></g></g></g></g></svg>