<?xml version="1.0" standalone="no"?>
<!DOCTYPE svg PUBLIC "-//W3C//DTD SVG 1.1//EN"
"http://www.w3.org/Graphics/SVG/1.1/DTD/svg11.dtd">
<svg height="600" version="1.1" width="800" xmlns="http://www.w3.org/2000/svg"><g><rect fill="#f9f9f9" height="600" width="800" x="0" y="0" /><g transform="translate(40 40)"><g transform="translate(48 0)"><text fill="#333" font-family="Monaco" font-size="16" x="0" y="0">Colorized dots</text></g><g transform="translate(0 20)"><g transform="translate(48 0)"><g class="axis bottom"><text dy="1em" fill="#eee" font-family="Monaco" text-anchor="middle" transform="" x="336.0" y="508.0" /><g class="tick"><line stroke="#eee" stroke-width="1" x1="0.0" x2="0.0" y1="0" y2="482.0" /><text dy="1em" fill="#9c9c9c" font-family="Monaco" text-anchor="middle" x="0.0" y="486.0">1.0</text></g><g class="tick"><line stroke="#eee" stroke-width="1" x1="168.0" x2="168.0" y1="0" y2="482.0" /><text dy="1em" fill="#9c9c9c" font-family="Monaco" text-anchor="middle" x="168.0" y="486.0">63.0</text></g><g class="tick"><line stroke="#eee" stroke-width="1" x1="336.0" x2="336.0" y1="0" y2="482.0" /><text dy="1em" fill="#9c9c9c" font-family="Monaco" text-anchor="middle" x="336.0" y="486.0">125.0</text></g><g class="tick"><line stroke="#eee" stroke-width="1" x1="504.0" x2="504.0" y1="0" y2="482.0" /><text dy="1em" fill="#9c9c9c" font-family="Monaco" text-anchor="middle" x="504.0" y="486.0">187.0</text></g><g class="tick"><line stroke="#eee" stroke-width="1" x1="672.0" x2="672.0" y1="0" y2="482.0" /><text dy="1em" fill="#9c9c9c" font-family="Monaco" text-anchor="middle" x="672.0" y="486.0">249.0</text></g></g><g class="axis left"><text dy="" fill="#eee" font-family="Monaco" text-anchor="middle" transform="rotate(270 -48 239)" x="-48" y="239.0" /><g class="tick"><line stroke="#a8a8a8" stroke-width="1" x1="-4" x2="672.0" y1="478.0" y2="478.0" /><text dy="0.32em" fill="#9c9c9c" font-family="Monaco" text-anchor="end" x="-8" y="478.0">0.0</text></g><g class="tick"><line stroke="#eee" stroke-width="1" x1="-4" x2="672.0" y1="358.5" y2="358.5" /><text dy="0.32em" fill="#9c9c9c" font-family="Monaco" text-anchor="end" x="-8" y="358.5">62.0</text></g><g class="tick"><line stroke="#eee" stroke-width="1" x1="-4" x2="672.0" y1="239.0" y2="239.0" /><text dy="0.32em" fill="#9c9c9c" font-family="Monaco" text-anchor="end" x="-8" y="239.0">124.0</text></g><g class="tick"><line stroke="#eee" stroke-width="1" x1="-4" x2="672.0" y1="119.5" y2="119.5" /><text dy="0.32em" fill="#9c9c9c" font-family="Monaco" text-anchor="end" x="-8" y="119.5">186.0</text></g><g class="tick"><line stroke="#eee" stroke-width="1" x1="-4" x2="672.0" y1="0.0" y2="0.0" /><text dy="0.32em" fill="#9c9c9c" font-family="Monaco" text-anchor="end" x="-8" y="0.0">248.0</text></g></g><g><g class="series dots"><circle cx="314.3225806451613" cy="476.0725806451613" fill="rgb(117, 1, 150)" r="3" /><circle cx="414.5806451612903" cy="90.58870967741939" fill="rgb(154, 201, 150)" r="3" /><circle cx="452.51612903225805" cy="144.55645161290323" fill="rgb(168, 173, 150)" r="3" /><circle cx="165.29032258064515" cy="287.18548387096774" fill="rgb(62, 99, 150)" r="3" /><circle cx="189.67741935483872" cy="439.4516129032258" fill="rgb(71, 20, 150)" r="3" /><circle cx="211.3548387096774" cy="381.6290322580645" fill="rgb(79, 50, 150)" r="3" /><circle cx="308.9032258064516" cy="63.60483870967744" fill="rgb(115, 215, 150)" r="3" /><circle cx="86.70967741935483" cy="44.33064516129036" fill="rgb(33, 225, 150)" r="3" /><circle cx="303.48387096774195" cy="408.61290322580646" fill="rgb(113, 36, 150)" r="3" /><circle cx="287.2258064516129" cy="341.1532258064516" fill="rgb(107, 71, 150)" r="3" /><circle cx="322.4516129032258" cy="113.7177419354839" fill="rgb(120, 189, 150)" r="3" /><circle cx="463.35483870967744" cy="277.54838709677415" fill="rgb(172, 104, 150)" r="3" /><circle cx="165.29032258064515" cy="292.9677419354839" fill="rgb(62, 96, 150)" r="3" /><circle cx="382.0645161290323" cy="318.0241935483871" fill="rgb(142, 83, 150)" r="3" /><circle cx="455.22580645161287" cy="308.38709677419354" fill="rgb(169, 88, 150)" r="3" /><circle cx="81.29032258064517" cy="152.2661290322581" fill="rgb(31, 169, 150)" r="3" /><circle cx="308.9032258064516" cy="281.4032258064516" fill="rgb(115, 102, 150)" r="3" /><circle cx="371.22580645161287" cy="435.5967741935484" fill="rgb(138, 22, 150)" r="3" /><circle cx="154.4516129032258" cy="271.76612903225805" fill="rgb(58, 107, 150)" r="3" /><circle cx="590.7096774193549" cy="371.991935483871" fill="rgb(219, 55, 150)" r="3" /><circle cx="270.96774193548384" cy="194.66935483870964" fill="rgb(101, 147, 150)" r="3" /><circle cx="341.4193548387097" cy="281.4032258064516" fill="rgb(127, 102, 150)" r="3" /><circle cx="533.8064516129032" cy="11.564516129032256" fill="rgb(198, 242, 150)" r="3" /><circle cx="306.19354838709677" cy="294.89516129032256" fill="rgb(114, 95, 150)" r="3" /><circle cx="121.93548387096774" cy="55.89516129032256" fill="rgb(46, 219, 150)" r="3" /><circle cx="37.935483870967744" cy="190.81451612903226" fill="rgb(15, 149, 150)" r="3" /><circle cx="498.5806451612903" cy="244.78225806451613" fill="rgb(185, 121, 150)" r="3" /><circle cx="287.2258064516129" cy="192.74193548387098" fill="rgb(107, 148, 150)" r="3" /><circle cx="422.7096774193548" cy="165.75806451612902" fill="rgb(157, 162, 150)" r="3" /><circle cx="631.3548387096774" cy="312.241935483871" fill="rgb(234, 86, 150)" r="3" /><circle cx="628.6451612903226" cy="21.201612903225794" fill="rgb(233, 237, 150)" r="3" /><circle cx="438.96774193548384" cy="454.8709677419355" fill="rgb(163, 12, 150)" r="3" /><circle cx="593.4193548387096" cy="364.2822580645161" fill="rgb(220, 59, 150)" r="3" /><circle cx="661.1612903225806" cy="121.42741935483872" fill="rgb(245, 185, 150)" r="3" /><circle cx="32.516129032258064" cy="98.2983870967742" fill="rgb(13, 197, 150)" r="3" /><circle cx="490.4516129032258" cy="198.52419354838707" fill="rgb(182, 145, 150)" r="3" /><circle cx="552.7741935483871" cy="325.73387096774195" fill="rgb(205, 79, 150)" r="3" /><circle cx="138.19354838709677" cy="294.89516129032256" fill="rgb(52, 95, 150)" r="3" /><circle cx="382.0645161290323" cy="25.05645161290323" fill="rgb(142, 235, 150)" r="3" /><circle cx="569.0322580645161" cy="327.6612903225806" fill="rgb(211, 78, 150)" r="3" /><circle cx="563.6129032258065" cy="92.5161290322581" fill="rgb(209, 200, 150)" r="3" /><circle cx="653.0322580645161" cy="186.95967741935482" fill="rgb(242, 151, 150)" r="3" /><circle cx="563.6129032258065" cy="362.35483870967744" fill="rgb(209, 60, 150)" r="3" /><circle cx="54.193548387096776" cy="88.66129032258061" fill="rgb(21, 202, 150)" r="3" /><circle cx="406.4516129032258" cy="0.0" fill="rgb(151, 248, 150)" r="3" /><circle cx="541.9354838709677" cy="371.991935483871" fill="rgb(201, 55, 150)" r="3" /><circle cx="447.09677419354836" cy="111.79032258064518" fill="rgb(166, 190, 150)" r="3" /><circle cx="371.22580645161287" cy="478.0" fill="rgb(138, 0, 150)" r="3" /><circle cx="265.5483870967742" cy="123.35483870967744" fill="rgb(99, 184, 150)" r="3" /><circle cx="325.16129032258067" cy="404.758064516129" fill="rgb(121, 38, 150)" r="3" /><circle cx="200.51612903225808" cy="418.25" fill="rgb(75, 31, 150)" r="3" /><circle cx="70.45161290322581" cy="144.55645161290323" fill="rgb(27, 173, 150)" r="3" /><circle cx="550.0645161290323" cy="260.20161290322585" fill="rgb(204, 113, 150)" r="3" /><circle cx="436.258064516129" cy="204.30645161290323" fill="rgb(162, 142, 150)" r="3" /><circle cx="401.03225806451616" cy="464.508064516129" fill="rgb(149, 7, 150)" r="3" /><circle cx="512.1290322580645" cy="318.0241935483871" fill="rgb(190, 83, 150)" r="3" /><circle cx="116.51612903225808" cy="337.29838709677415" fill="rgb(44, 73, 150)" r="3" /><circle cx="596.1290322580645" cy="109.86290322580646" fill="rgb(221, 191, 150)" r="3" /><circle cx="143.61290322580646" cy="470.2903225806452" fill="rgb(54, 4, 150)" r="3" /><circle cx="368.51612903225805" cy="190.81451612903226" fill="rgb(137, 149, 150)" r="3" /><circle cx="132.7741935483871" cy="158.0483870967742" fill="rgb(50, 166, 150)" r="3" /><circle cx="533.8064516129032" cy="13.491935483870975" fill="rgb(198, 241, 150)" r="3" /><circle cx="65.03225806451613" cy="161.90322580645164" fill="rgb(25, 164, 150)" r="3" /><circle cx="672.0" cy="250.56451612903226" fill="rgb(249, 118, 150)" r="3" /><circle cx="634.0645161290323" cy="283.3306451612903" fill="rgb(235, 101, 150)" r="3" /><circle cx="558.1935483870968" cy="117.57258064516128" fill="rgb(207, 187, 150)" r="3" /><circle cx="10.838709677419354" cy="50.11290322580646" fill="rgb(5, 222, 150)" r="3" /><circle cx="414.5806451612903" cy="341.1532258064516" fill="rgb(154, 71, 150)" r="3" /><circle cx="130.06451612903226" cy="414.39516129032256" fill="rgb(49, 33, 150)" r="3" /><circle cx="417.2903225806452" cy="265.98387096774195" fill="rgb(155, 110, 150)" r="3" /><circle cx="200.51612903225808" cy="121.42741935483872" fill="rgb(75, 185, 150)" r="3" /><circle cx="606.9677419354839" cy="478.0" fill="rgb(225, 0, 150)" r="3" /><circle cx="308.9032258064516" cy="138.77419354838707" fill="rgb(115, 176, 150)" r="3" /><circle cx="121.93548387096774" cy="148.4112903225806" fill="rgb(46, 171, 150)" r="3" /><circle cx="387.48387096774195" cy="219.72580645161293" fill="rgb(144, 134, 150)" r="3" /><circle cx="541.9354838709677" cy="9.637096774193537" fill="rgb(201, 243, 150)" r="3" /><circle cx="67.74193548387096" cy="104.08064516129036" fill="rgb(26, 194, 150)" r="3" /><circle cx="669.2903225806451" cy="44.33064516129036" fill="rgb(248, 225, 150)" r="3" /><circle cx="495.8709677419355" cy="129.13709677419354" fill="rgb(184, 181, 150)" r="3" /><circle cx="560.9032258064516" cy="142.6290322580645" fill="rgb(208, 174, 150)" r="3" /><circle cx="170.70967741935485" cy="364.2822580645161" fill="rgb(64, 59, 150)" r="3" /><circle cx="0.0" cy="452.94354838709677" fill="rgb(1, 13, 150)" r="3" /><circle cx="666.5806451612904" cy="15.419354838709637" fill="rgb(247, 240, 150)" r="3" /><circle cx="173.41935483870967" cy="113.7177419354839" fill="rgb(65, 189, 150)" r="3" /><circle cx="59.612903225806456" cy="248.63709677419354" fill="rgb(23, 119, 150)" r="3" /><circle cx="371.22580645161287" cy="400.9032258064516" fill="rgb(138, 40, 150)" r="3" /><circle cx="81.29032258064517" cy="169.61290322580646" fill="rgb(31, 160, 150)" r="3" /><circle cx="401.03225806451616" cy="279.4758064516129" fill="rgb(149, 103, 150)" r="3" /><circle cx="184.25806451612902" cy="292.9677419354839" fill="rgb(69, 96, 150)" r="3" /><circle cx="300.7741935483871" cy="192.74193548387098" fill="rgb(112, 148, 150)" r="3" /><circle cx="227.61290322580643" cy="194.66935483870964" fill="rgb(85, 147, 150)" r="3" /><circle cx="509.4193548387097" cy="248.63709677419354" fill="rgb(189, 119, 150)" r="3" /><circle cx="536.516129032258" cy="373.9193548387097" fill="rgb(199, 54, 150)" r="3" /><circle cx="650.3225806451613" cy="175.39516129032256" fill="rgb(241, 157, 150)" r="3" /><circle cx="32.516129032258064" cy="50.11290322580646" fill="rgb(13, 222, 150)" r="3" /><circle cx="73.16129032258064" cy="389.3387096774194" fill="rgb(28, 46, 150)" r="3" /><circle cx="373.9354838709677" cy="260.20161290322585" fill="rgb(139, 113, 150)" r="3" /><circle cx="363.09677419354836" cy="138.77419354838707" fill="rgb(135, 176, 150)" r="3" /><circle cx="482.32258064516134" cy="206.2338709677419" fill="rgb(179, 141, 150)" r="3" /><circle cx="119.22580645161291" cy="431.741935483871" fill="rgb(45, 24, 150)" r="3" /></g></g></g></g></g></g></svg>