<?xml version="1.0" standalone="no"?>
<!DOCTYPE svg PUBLIC "-//W3C//DTD SVG 1.1//EN"
"http://www.w3.org/Graphics/SVG/1.1/DTD/svg11.dtd">
<svg height="600" version="1.1" width="800" xmlns="http://www.w3.org/2000/svg"><g><rect fill="#f9f9f9" height="600" width="800" x="0" y="0" /><g transform="translate(40 40)"><g transform="translate(48 0)"><text fill="#333" font-family="Monaco" font-size="16" x="0" y="0">Colorized dots</text></g><g transform="translate(0 20)"><g transform="translate(48 0)"><g class="axis bottom"><text dy="1em" fill="#666" font-family="Monaco" text-anchor="middle" transform="" x="336.0" y="508.0" /><g class="tick"><line stroke="#eee" stroke-width="1" x1="0.00" x2="0.00" y1="0" y2="482.0" /><text dy="1em" fill="#9c9c9c" font-family="Monaco" text-anchor="middle" x="0.00" y="486.0">2.00</text></g><g class="tick"><line stroke="#eee" stroke-width="1" x1="168.00" x2="168.00" y1="0" y2="482.0" /><text dy="1em" fill="#9c9c9c" font-family="Monaco" text-anchor="middle" x="168.00" y="486.0">62.75</text></g><g class="tick"><line stroke="#eee" stroke-width="1" x1="336.00" x2="336.00" y1="0" y2="482.0" /><text dy="1em" fill="#9c9c9c" font-family="Monaco" text-anchor="middle" x="336.00" y="486.0">123.50</text></g><g class="tick"><line stroke="#eee" stroke-width="1" x1="504.00" x2="504.00" y1="0" y2="482.0" /><text dy="1em" fill="#9c9c9c" font-family="Monaco" text-anchor="middle" x="504.00" y="486.0">184.25</text></g><g class="tick"><line stroke="#eee" stroke-width="1" x1="672.00" x2="672.00" y1="0" y2="482.0" /><text dy="1em" fill="#9c9c9c" font-family="Monaco" text-anchor="middle" x="672.00" y="486.0">245.00</text></g></g><g class="axis left"><text dy="" fill="#666" font-family="Monaco" text-anchor="middle" transform="rotate(270 -48 239)" x="-48" y="239.0" /><g class="tick"><line stroke="#eee" stroke-width="1" x1="-4" x2="672.0" y1="358.50" y2="358.50" /><text dy="0.32em" fill="#9c9c9c" font-family="Monaco" text-anchor="end" x="-8" y="358.50">60.5</text></g><g class="tick"><line stroke="#eee" stroke-width="1" x1="-4" x2="672.0" y1="239.0" y2="239.0" /><text dy="0.32em" fill="#9c9c9c" font-family="Monaco" text-anchor="end" x="-8" y="239.0">121.0</text></g><g class="tick"><line stroke="#eee" stroke-width="1" x1="-4" x2="672.0" y1="119.50" y2="119.50" /><text dy="0.32em" fill="#9c9c9c" font-family="Monaco" text-anchor="end" x="-8" y="119.50">181.5</text></g><g class="tick"><line stroke="#eee" stroke-width="1" x1="-4" x2="672.0" y1="0.0" y2="0.0" /><text dy="0.32em" fill="#9c9c9c" font-family="Monaco" text-anchor="end" x="-8" y="0.0">242.0</text></g><g class="tick"><line stroke="#a8a8a8" stroke-width="1" x1="-4" x2="672.0" y1="478.0" y2="478.0" /><text dy="0.32em" fill="#9c9c9c" font-family="Monaco" text-anchor="end" x="-8" y="478.0">0.0</text></g></g><g><g class="series dots"><circle cx="506.0740740740740740740740741" cy="215.2975206611570247933884297" fill="rgb(185, 133, 150)" r="3" /><circle cx="190.8148148148148148148148148" cy="80.9834710743801652892561983" fill="rgb(71, 201, 150)" r="3" /><circle cx="423.1111111111111111111111111" cy="468.1239669421487603305785124" fill="rgb(155, 5, 150)" r="3" /><circle cx="235.0617283950617283950617284" cy="450.3471074380165289256198347" fill="rgb(87, 14, 150)" r="3" /><circle cx="121.6790123456790123456790124" cy="126.4132231404958677685950413" fill="rgb(46, 178, 150)" r="3" /><circle cx="262.7160493827160493827160494" cy="90.8595041322314049586776860" fill="rgb(97, 196, 150)" r="3" /><circle cx="312.4938271604938271604938272" cy="146.1652892561983471074380165" fill="rgb(115, 168, 150)" r="3" /><circle cx="353.9753086419753086419753086" cy="173.8181818181818181818181818" fill="rgb(130, 154, 150)" r="3" /><circle cx="35.95061728395061728395061728" cy="47.4049586776859504132231405" fill="rgb(15, 218, 150)" r="3" /><circle cx="85.72839506172839506172839504" cy="90.8595041322314049586776860" fill="rgb(33, 196, 150)" r="3" /><circle cx="215.7037037037037037037037037" cy="430.5950413223140495867768595" fill="rgb(80, 24, 150)" r="3" /><circle cx="470.1234567901234567901234568" cy="331.8347107438016528925619835" fill="rgb(172, 74, 150)" r="3" /><circle cx="542.0246913580246913580246914" cy="75.0578512396694214876033058" fill="rgb(198, 204, 150)" r="3" /><circle cx="420.3456790123456790123456790" cy="260.7272727272727272727272727" fill="rgb(154, 110, 150)" r="3" /><circle cx="257.1851851851851851851851852" cy="223.1983471074380165289256198" fill="rgb(95, 129, 150)" r="3" /><circle cx="406.5185185185185185185185185" cy="406.8925619834710743801652893" fill="rgb(149, 36, 150)" r="3" /><circle cx="561.3827160493827160493827160" cy="150.1157024793388429752066116" fill="rgb(205, 166, 150)" r="3" /><circle cx="176.9876543209876543209876543" cy="422.6942148760330578512396694" fill="rgb(66, 28, 150)" r="3" /><circle cx="201.8765432098765432098765432" cy="316.0330578512396694214876033" fill="rgb(75, 82, 150)" r="3" /><circle cx="229.5308641975308641975308642" cy="355.5371900826446280991735537" fill="rgb(85, 62, 150)" r="3" /><circle cx="608.3950617283950617283950617" cy="191.5950413223140495867768595" fill="rgb(222, 145, 150)" r="3" /><circle cx="44.24691358024691358024691358" cy="272.5785123966942148760330579" fill="rgb(18, 104, 150)" r="3" /><circle cx="295.9012345679012345679012345" cy="53.3305785123966942148760330" fill="rgb(109, 215, 150)" r="3" /><circle cx="298.6666666666666666666666666" cy="110.6115702479338842975206612" fill="rgb(110, 186, 150)" r="3" /><circle cx="298.6666666666666666666666666" cy="165.9173553719008264462809917" fill="rgb(110, 158, 150)" r="3" /><circle cx="326.3209876543209876543209877" cy="0" fill="rgb(120, 242, 150)" r="3" /><circle cx="481.1851851851851851851851852" cy="132.3388429752066115702479339" fill="rgb(176, 175, 150)" r="3" /><circle cx="107.8518518518518518518518519" cy="140.2396694214876033057851239" fill="rgb(41, 171, 150)" r="3" /><circle cx="157.6296296296296296296296296" cy="177.7685950413223140495867769" fill="rgb(59, 152, 150)" r="3" /><circle cx="506.0740740740740740740740741" cy="379.2396694214876033057851240" fill="rgb(185, 50, 150)" r="3" /><circle cx="517.1358024691358024691358025" cy="110.6115702479338842975206612" fill="rgb(189, 186, 150)" r="3" /><circle cx="370.5679012345679012345679013" cy="106.6611570247933884297520661" fill="rgb(136, 188, 150)" r="3" /><circle cx="633.2839506172839506172839506" cy="286.4049586776859504132231405" fill="rgb(231, 97, 150)" r="3" /><circle cx="124.4444444444444444444444445" cy="341.7107438016528925619834711" fill="rgb(47, 69, 150)" r="3" /><circle cx="503.3086419753086419753086419" cy="357.5123966942148760330578512" fill="rgb(184, 61, 150)" r="3" /><circle cx="320.7901234567901234567901235" cy="274.5537190082644628099173554" fill="rgb(118, 103, 150)" r="3" /><circle cx="409.2839506172839506172839506" cy="468.1239669421487603305785124" fill="rgb(150, 5, 150)" r="3" /><circle cx="660.9382716049382716049382716" cy="15.8016528925619834710743802" fill="rgb(241, 234, 150)" r="3" /><circle cx="666.4691358024691358024691358" cy="424.6694214876033057851239670" fill="rgb(243, 27, 150)" r="3" /><circle cx="279.3086419753086419753086420" cy="424.6694214876033057851239670" fill="rgb(103, 27, 150)" r="3" /><circle cx="475.6543209876543209876543210" cy="454.2975206611570247933884298" fill="rgb(174, 12, 150)" r="3" /><circle cx="528.1975308641975308641975309" cy="142.2148760330578512396694215" fill="rgb(193, 170, 150)" r="3" /><circle cx="188.0493827160493827160493827" cy="266.6528925619834710743801653" fill="rgb(70, 107, 150)" r="3" /><circle cx="378.8641975308641975308641976" cy="9.8760330578512396694214876" fill="rgb(139, 237, 150)" r="3" /><circle cx="461.8271604938271604938271605" cy="402.9421487603305785123966942" fill="rgb(169, 38, 150)" r="3" /><circle cx="110.6172839506172839506172840" cy="88.8842975206611570247933884" fill="rgb(42, 197, 150)" r="3" /><circle cx="259.9506172839506172839506173" cy="308.1322314049586776859504132" fill="rgb(96, 86, 150)" r="3" /><circle cx="633.2839506172839506172839506" cy="73.0826446280991735537190083" fill="rgb(231, 205, 150)" r="3" /><circle cx="500.5432098765432098765432098" cy="110.6115702479338842975206612" fill="rgb(183, 186, 150)" r="3" /><circle cx="204.6419753086419753086419753" cy="47.4049586776859504132231405" fill="rgb(76, 218, 150)" r="3" /><circle cx="323.5555555555555555555555556" cy="227.1487603305785123966942149" fill="rgb(119, 127, 150)" r="3" /><circle cx="672" cy="183.6942148760330578512396694" fill="rgb(245, 149, 150)" r="3" /><circle cx="436.9382716049382716049382716" cy="100.7355371900826446280991736" fill="rgb(160, 191, 150)" r="3" /><circle cx="434.1728395061728395061728395" cy="428.6198347107438016528925620" fill="rgb(159, 25, 150)" r="3" /><circle cx="243.3580246913580246913580247" cy="57.2809917355371900826446281" fill="rgb(90, 213, 150)" r="3" /><circle cx="165.9259259259259259259259259" cy="367.3884297520661157024793388" fill="rgb(62, 56, 150)" r="3" /><circle cx="652.6419753086419753086419753" cy="274.5537190082644628099173554" fill="rgb(238, 103, 150)" r="3" /><circle cx="525.4320987654320987654320988" cy="29.6280991735537190082644628" fill="rgb(192, 227, 150)" r="3" /><circle cx="448.0000000000000000000000000" cy="260.7272727272727272727272727" fill="rgb(164, 110, 150)" r="3" /><circle cx="630.5185185185185185185185185" cy="468.1239669421487603305785124" fill="rgb(230, 5, 150)" r="3" /><circle cx="544.7901234567901234567901234" cy="329.8595041322314049586776860" fill="rgb(199, 75, 150)" r="3" /><circle cx="575.2098765432098765432098766" cy="278.5041322314049586776859504" fill="rgb(210, 101, 150)" r="3" /><circle cx="11.06172839506172839506172840" cy="420.7190082644628099173553719" fill="rgb(6, 29, 150)" r="3" /><circle cx="257.1851851851851851851851852" cy="53.3305785123966942148760330" fill="rgb(95, 215, 150)" r="3" /><circle cx="519.9012345679012345679012346" cy="260.7272727272727272727272727" fill="rgb(190, 110, 150)" r="3" /><circle cx="669.2345679012345679012345679" cy="333.8099173553719008264462810" fill="rgb(244, 73, 150)" r="3" /><circle cx="591.8024691358024691358024691" cy="33.5785123966942148760330579" fill="rgb(216, 225, 150)" r="3" /><circle cx="453.5308641975308641975308642" cy="270.6033057851239669421487603" fill="rgb(166, 105, 150)" r="3" /><circle cx="511.6049382716049382716049383" cy="367.3884297520661157024793388" fill="rgb(187, 56, 150)" r="3" /><circle cx="273.7777777777777777777777778" cy="474.0495867768595041322314050" fill="rgb(101, 2, 150)" r="3" /><circle cx="475.6543209876543209876543210" cy="434.5454545454545454545454546" fill="rgb(174, 22, 150)" r="3" /><circle cx="0" cy="458.2479338842975206611570248" fill="rgb(2, 10, 150)" r="3" /><circle cx="47.01234567901234567901234568" cy="440.4710743801652892561983471" fill="rgb(19, 19, 150)" r="3" /><circle cx="547.5555555555555555555555555" cy="318.0082644628099173553719008" fill="rgb(200, 81, 150)" r="3" /><circle cx="431.4074074074074074074074074" cy="288.3801652892561983471074380" fill="rgb(158, 96, 150)" r="3" /><circle cx="110.6172839506172839506172840" cy="110.6115702479338842975206612" fill="rgb(42, 186, 150)" r="3" /><circle cx="315.2592592592592592592592593" cy="92.8347107438016528925619835" fill="rgb(116, 195, 150)" r="3" /><circle cx="575.2098765432098765432098766" cy="278.5041322314049586776859504" fill="rgb(210, 101, 150)" r="3" /><circle cx="387.1604938271604938271604938" cy="79.0082644628099173553719008" fill="rgb(142, 202, 150)" r="3" /><circle cx="165.9259259259259259259259259" cy="248.8760330578512396694214876" fill="rgb(62, 116, 150)" r="3" /><circle cx="149.3333333333333333333333333" cy="199.4958677685950413223140496" fill="rgb(56, 141, 150)" r="3" /><circle cx="315.2592592592592592592592593" cy="1.9752066115702479338842975" fill="rgb(116, 241, 150)" r="3" /><circle cx="77.43209876543209876543209876" cy="369.3636363636363636363636364" fill="rgb(30, 55, 150)" r="3" /><circle cx="500.5432098765432098765432098" cy="314.0578512396694214876033058" fill="rgb(183, 83, 150)" r="3" /><circle cx="105.0864197530864197530864198" cy="310.1074380165289256198347107" fill="rgb(40, 85, 150)" r="3" /><circle cx="251.6543209876543209876543210" cy="229.1239669421487603305785124" fill="rgb(93, 126, 150)" r="3" /><circle cx="572.4444444444444444444444445" cy="49.3801652892561983471074380" fill="rgb(209, 217, 150)" r="3" /><circle cx="580.7407407407407407407407408" cy="438.4958677685950413223140496" fill="rgb(212, 20, 150)" r="3" /><circle cx="478.4197530864197530864197531" cy="150.1157024793388429752066116" fill="rgb(175, 166, 150)" r="3" /><circle cx="312.4938271604938271604938272" cy="156.0413223140495867768595041" fill="rgb(115, 163, 150)" r="3" /><circle cx="143.8024691358024691358024691" cy="478" fill="rgb(54, 0, 150)" r="3" /><circle cx="340.1481481481481481481481481" cy="450.3471074380165289256198347" fill="rgb(125, 14, 150)" r="3" /><circle cx="293.1358024691358024691358024" cy="308.1322314049586776859504132" fill="rgb(108, 86, 150)" r="3" /><circle cx="254.4197530864197530864197531" cy="148.1404958677685950413223140" fill="rgb(94, 167, 150)" r="3" /><circle cx="221.2345679012345679012345679" cy="47.4049586776859504132231405" fill="rgb(82, 218, 150)" r="3" /><circle cx="237.8271604938271604938271605" cy="316.0330578512396694214876033" fill="rgb(88, 82, 150)" r="3" /><circle cx="116.1481481481481481481481482" cy="430.5950413223140495867768595" fill="rgb(44, 24, 150)" r="3" /><circle cx="448.0000000000000000000000000" cy="377.2644628099173553719008264" fill="rgb(164, 51, 150)" r="3" /><circle cx="652.6419753086419753086419753" cy="454.2975206611570247933884298" fill="rgb(238, 12, 150)" r="3" /><circle cx="80.19753086419753086419753085" cy="351.5867768595041322314049587" fill="rgb(31, 64, 150)" r="3" /></g></g></g></g></g></g></svg>