<?xml version="1.0" standalone="no"?>
<!DOCTYPE svg PUBLIC "-//W3C//DTD SVG 1.1//EN"
"http://www.w3.org/Graphics/SVG/1.1/DTD/svg11.dtd">
<svg height="600" version="1.1" width="800" xmlns="http://www.w3.org/2000/svg"><g><rect fill="#f9f9f9" height="600" width="800" x="0" y="0" /><g transform="translate(40 40)"><g transform="translate(56 0)"><text fill="#333" font-family="Monaco" font-size="16" x="0" y="0">Colorized dots</text></g><g transform="translate(0 20)"><g transform="translate(56 0)"><g class="axis bottom"><text dy="1em" fill="#666" font-family="Monaco" text-anchor="middle" transform="" x="332.0" y="508.0" /><g class="tick"><line stroke="#eee" stroke-width="1" x1="0.0" x2="0.0" y1="0" y2="482.0" /><text dy="1em" fill="#9c9c9c" font-family="Monaco" text-anchor="middle" x="0.0" y="486.0">3.0</text></g><g class="tick"><line stroke="#eee" stroke-width="1" x1="166.00" x2="166.00" y1="0" y2="482.0" /><text dy="1em" fill="#9c9c9c" font-family="Monaco" text-anchor="middle" x="166.00" y="486.0">64.5</text></g><g class="tick"><line stroke="#eee" stroke-width="1" x1="332.0" x2="332.0" y1="0" y2="482.0" /><text dy="1em" fill="#9c9c9c" font-family="Monaco" text-anchor="middle" x="332.0" y="486.0">126.0</text></g><g class="tick"><line stroke="#eee" stroke-width="1" x1="498.00" x2="498.00" y1="0" y2="482.0" /><text dy="1em" fill="#9c9c9c" font-family="Monaco" text-anchor="middle" x="498.00" y="486.0">187.5</text></g><g class="tick"><line stroke="#eee" stroke-width="1" x1="664.0" x2="664.0" y1="0" y2="482.0" /><text dy="1em" fill="#9c9c9c" font-family="Monaco" text-anchor="middle" x="664.0" y="486.0">249.0</text></g></g><g class="axis left"><text dy="" fill="#666" font-family="Monaco" text-anchor="middle" transform="rotate(270 -56 239)" x="-56" y="239.0" /><g class="tick"><line stroke="#eee" stroke-width="1" x1="-4" x2="664.0" y1="478.00" y2="478.00" /><text dy="0.32em" fill="#9c9c9c" font-family="Monaco" text-anchor="end" x="-8" y="478.00">3.00</text></g><g class="tick"><line stroke="#eee" stroke-width="1" x1="-4" x2="664.0" y1="358.50" y2="358.50" /><text dy="0.32em" fill="#9c9c9c" font-family="Monaco" text-anchor="end" x="-8" y="358.50">64.25</text></g><g class="tick"><line stroke="#eee" stroke-width="1" x1="-4" x2="664.0" y1="239.00" y2="239.00" /><text dy="0.32em" fill="#9c9c9c" font-family="Monaco" text-anchor="end" x="-8" y="239.00">125.50</text></g><g class="tick"><line stroke="#eee" stroke-width="1" x1="-4" x2="664.0" y1="119.50" y2="119.50" /><text dy="0.32em" fill="#9c9c9c" font-family="Monaco" text-anchor="end" x="-8" y="119.50">186.75</text></g><g class="tick"><line stroke="#eee" stroke-width="1" x1="-4" x2="664.0" y1="0.00" y2="0.00" /><text dy="0.32em" fill="#9c9c9c" font-family="Monaco" text-anchor="end" x="-8" y="0.00">248.00</text></g></g><g><g class="series dots"><circle cx="161.9512195121951219512195122" cy="290.7020408163265306122448979" fill="rgb(63, 99, 150)" r="3" /><circle cx="647.8048780487804878048780488" cy="21.4612244897959183673469388" fill="rgb(243, 237, 150)" r="3" /><circle cx="97.17073170731707317073170729" cy="314.1142857142857142857142857" fill="rgb(39, 87, 150)" r="3" /><circle cx="48.58536585365853658536585366" cy="230.2204081632653061224489796" fill="rgb(21, 130, 150)" r="3" /><circle cx="437.2682926829268292682926830" cy="224.3673469387755102040816326" fill="rgb(165, 133, 150)" r="3" /><circle cx="13.49593495934959349593495935" cy="189.2489795918367346938775510" fill="rgb(8, 151, 150)" r="3" /><circle cx="16.19512195121951219512195122" cy="76.0897959183673469387755102" fill="rgb(9, 209, 150)" r="3" /><circle cx="99.86991869918699186991869916" cy="415.5673469387755102040816326" fill="rgb(40, 35, 150)" r="3" /><circle cx="361.6910569105691056910569106" cy="124.8653061224489795918367347" fill="rgb(137, 184, 150)" r="3" /><circle cx="601.9186991869918699186991870" cy="7.8040816326530612244897959" fill="rgb(226, 244, 150)" r="3" /><circle cx="456.1626016260162601626016260" cy="280.9469387755102040816326531" fill="rgb(172, 104, 150)" r="3" /><circle cx="429.1707317073170731707317073" cy="476.0489795918367346938775510" fill="rgb(162, 4, 150)" r="3" /><circle cx="37.78861788617886178861788618" cy="150.2285714285714285714285714" fill="rgb(17, 171, 150)" r="3" /><circle cx="377.8861788617886178861788618" cy="208.7591836734693877551020408" fill="rgb(143, 141, 150)" r="3" /><circle cx="229.4308943089430894308943090" cy="460.4408163265306122448979592" fill="rgb(88, 12, 150)" r="3" /><circle cx="588.4227642276422764227642276" cy="15.6081632653061224489795918" fill="rgb(221, 240, 150)" r="3" /><circle cx="585.7235772357723577235772358" cy="403.8612244897959183673469388" fill="rgb(220, 41, 150)" r="3" /><circle cx="493.9512195121951219512195122" cy="419.4693877551020408163265306" fill="rgb(186, 33, 150)" r="3" /><circle cx="429.1707317073170731707317073" cy="370.6938775510204081632653061" fill="rgb(162, 58, 150)" r="3" /><circle cx="5.398373983739837398373983740" cy="163.8857142857142857142857143" fill="rgb(5, 164, 150)" r="3" /><circle cx="218.6341463414634146341463414" cy="79.9918367346938775510204082" fill="rgb(84, 207, 150)" r="3" /><circle cx="531.7398373983739837398373984" cy="81.9428571428571428571428571" fill="rgb(200, 206, 150)" r="3" /><circle cx="480.4552845528455284552845529" cy="220.4653061224489795918367347" fill="rgb(181, 135, 150)" r="3" /><circle cx="664" cy="156.0816326530612244897959184" fill="rgb(249, 168, 150)" r="3" /><circle cx="350.8943089430894308943089431" cy="372.6448979591836734693877551" fill="rgb(133, 57, 150)" r="3" /><circle cx="547.9349593495934959349593496" cy="411.6653061224489795918367347" fill="rgb(206, 37, 150)" r="3" /><circle cx="26.99186991869918699186991870" cy="19.5102040816326530612244898" fill="rgb(13, 238, 150)" r="3" /><circle cx="78.27642276422764227642276424" cy="79.9918367346938775510204082" fill="rgb(32, 207, 150)" r="3" /><circle cx="245.6260162601626016260162602" cy="362.8897959183673469387755102" fill="rgb(94, 62, 150)" r="3" /><circle cx="650.5040650406504065040650407" cy="27.3142857142857142857142857" fill="rgb(244, 234, 150)" r="3" /><circle cx="175.4471544715447154471544715" cy="117.0612244897959183673469388" fill="rgb(68, 188, 150)" r="3" /><circle cx="229.4308943089430894308943090" cy="17.5591836734693877551020408" fill="rgb(88, 239, 150)" r="3" /><circle cx="472.3577235772357723577235772" cy="314.1142857142857142857142857" fill="rgb(178, 87, 150)" r="3" /><circle cx="332.0" cy="23.4122448979591836734693878" fill="rgb(126, 236, 150)" r="3" /><circle cx="394.0813008130081300813008130" cy="103.4040816326530612244897959" fill="rgb(149, 195, 150)" r="3" /><circle cx="56.68292682926829268292682927" cy="33.1673469387755102040816326" fill="rgb(24, 231, 150)" r="3" /><circle cx="348.1951219512195121951219512" cy="462.3918367346938775510204082" fill="rgb(132, 11, 150)" r="3" /><circle cx="13.49593495934959349593495935" cy="21.4612244897959183673469388" fill="rgb(8, 237, 150)" r="3" /><circle cx="607.3170731707317073170731708" cy="478" fill="rgb(228, 3, 150)" r="3" /><circle cx="283.4146341463414634146341464" cy="269.2408163265306122448979592" fill="rgb(108, 110, 150)" r="3" /><circle cx="356.2926829268292682926829269" cy="99.5020408163265306122448979" fill="rgb(135, 197, 150)" r="3" /><circle cx="45.88617886178861788617886179" cy="218.5142857142857142857142857" fill="rgb(20, 136, 150)" r="3" /><circle cx="372.4878048780487804878048781" cy="292.6530612244897959183673469" fill="rgb(141, 98, 150)" r="3" /><circle cx="159.2520325203252032520325203" cy="48.7755102040816326530612245" fill="rgb(62, 223, 150)" r="3" /><circle cx="526.3414634146341463414634147" cy="405.8122448979591836734693878" fill="rgb(198, 40, 150)" r="3" /><circle cx="604.6178861788617886178861789" cy="9.7551020408163265306122449" fill="rgb(227, 243, 150)" r="3" /><circle cx="410.2764227642276422764227642" cy="335.5755102040816326530612245" fill="rgb(155, 76, 150)" r="3" /><circle cx="483.1544715447154471544715447" cy="239.9755102040816326530612245" fill="rgb(182, 125, 150)" r="3" /><circle cx="32.39024390243902439024390244" cy="421.4204081632653061224489796" fill="rgb(15, 32, 150)" r="3" /><circle cx="445.3658536585365853658536586" cy="355.0857142857142857142857143" fill="rgb(168, 66, 150)" r="3" /><circle cx="35.08943089430894308943089431" cy="76.0897959183673469387755102" fill="rgb(16, 209, 150)" r="3" /><circle cx="388.6829268292682926829268292" cy="360.9387755102040816326530612" fill="rgb(147, 63, 150)" r="3" /><circle cx="372.4878048780487804878048781" cy="9.7551020408163265306122449" fill="rgb(141, 243, 150)" r="3" /><circle cx="70.17886178861788617886178864" cy="79.9918367346938775510204082" fill="rgb(29, 207, 150)" r="3" /><circle cx="18.89430894308943089430894309" cy="66.3346938775510204081632653" fill="rgb(10, 214, 150)" r="3" /><circle cx="35.08943089430894308943089431" cy="476.0489795918367346938775510" fill="rgb(16, 4, 150)" r="3" /><circle cx="439.9674796747967479674796748" cy="431.1755102040816326530612245" fill="rgb(166, 27, 150)" r="3" /><circle cx="453.4634146341463414634146342" cy="56.5795918367346938775510204" fill="rgb(171, 219, 150)" r="3" /><circle cx="566.8292682926829268292682927" cy="310.2122448979591836734693878" fill="rgb(213, 89, 150)" r="3" /><circle cx="269.9186991869918699186991870" cy="103.4040816326530612244897959" fill="rgb(103, 195, 150)" r="3" /><circle cx="64.78048780487804878048780488" cy="456.5387755102040816326530612" fill="rgb(27, 14, 150)" r="3" /><circle cx="102.5691056910569105691056910" cy="0" fill="rgb(41, 248, 150)" r="3" /><circle cx="167.3495934959349593495934959" cy="462.3918367346938775510204082" fill="rgb(65, 11, 150)" r="3" /><circle cx="418.3739837398373983739837398" cy="204.8571428571428571428571429" fill="rgb(158, 143, 150)" r="3" /><circle cx="377.8861788617886178861788618" cy="124.8653061224489795918367347" fill="rgb(143, 184, 150)" r="3" /><circle cx="62.08130081300813008130081301" cy="58.5306122448979591836734694" fill="rgb(26, 218, 150)" r="3" /><circle cx="426.4715447154471544715447154" cy="401.9102040816326530612244898" fill="rgb(161, 42, 150)" r="3" /><circle cx="372.4878048780487804878048781" cy="458.4897959183673469387755102" fill="rgb(141, 13, 150)" r="3" /><circle cx="110.6666666666666666666666667" cy="154.1306122448979591836734694" fill="rgb(44, 169, 150)" r="3" /><circle cx="102.5691056910569105691056910" cy="460.4408163265306122448979592" fill="rgb(41, 12, 150)" r="3" /><circle cx="588.4227642276422764227642276" cy="435.0775510204081632653061224" fill="rgb(221, 25, 150)" r="3" /><circle cx="199.7398373983739837398373984" cy="316.0653061224489795918367347" fill="rgb(77, 86, 150)" r="3" /><circle cx="342.7967479674796747967479675" cy="202.9061224489795918367346939" fill="rgb(130, 144, 150)" r="3" /><circle cx="159.2520325203252032520325203" cy="300.4571428571428571428571429" fill="rgb(62, 94, 150)" r="3" /><circle cx="97.17073170731707317073170729" cy="224.3673469387755102040816326" fill="rgb(39, 133, 150)" r="3" /><circle cx="574.9268292682926829268292683" cy="187.2979591836734693877551021" fill="rgb(216, 152, 150)" r="3" /><circle cx="143.0569105691056910569105691" cy="325.8204081632653061224489796" fill="rgb(56, 81, 150)" r="3" /><circle cx="105.2682926829268292682926830" cy="79.9918367346938775510204082" fill="rgb(42, 207, 150)" r="3" /><circle cx="348.1951219512195121951219512" cy="15.6081632653061224489795918" fill="rgb(132, 240, 150)" r="3" /><circle cx="213.2357723577235772357723577" cy="399.9591836734693877551020408" fill="rgb(82, 43, 150)" r="3" /><circle cx="442.6666666666666666666666667" cy="435.0775510204081632653061224" fill="rgb(167, 25, 150)" r="3" /><circle cx="645.1056910569105691056910569" cy="360.9387755102040816326530612" fill="rgb(242, 63, 150)" r="3" /><circle cx="348.1951219512195121951219512" cy="405.8122448979591836734693878" fill="rgb(132, 40, 150)" r="3" /><circle cx="407.5772357723577235772357724" cy="442.8816326530612244897959184" fill="rgb(154, 21, 150)" r="3" /><circle cx="24.29268292682926829268292683" cy="111.2081632653061224489795918" fill="rgb(12, 191, 150)" r="3" /><circle cx="191.6422764227642276422764228" cy="156.0816326530612244897959184" fill="rgb(74, 168, 150)" r="3" /><circle cx="0" cy="259.4857142857142857142857143" fill="rgb(3, 115, 150)" r="3" /><circle cx="588.4227642276422764227642276" cy="399.9591836734693877551020408" fill="rgb(221, 43, 150)" r="3" /><circle cx="167.3495934959349593495934959" cy="296.5551020408163265306122449" fill="rgb(65, 96, 150)" r="3" /><circle cx="16.19512195121951219512195122" cy="462.3918367346938775510204082" fill="rgb(9, 11, 150)" r="3" /><circle cx="520.9430894308943089430894309" cy="452.6367346938775510204081633" fill="rgb(196, 16, 150)" r="3" /><circle cx="526.3414634146341463414634147" cy="339.4775510204081632653061224" fill="rgb(198, 74, 150)" r="3" /><circle cx="326.6016260162601626016260163" cy="275.0938775510204081632653061" fill="rgb(124, 107, 150)" r="3" /><circle cx="278.0162601626016260162601626" cy="456.5387755102040816326530612" fill="rgb(106, 14, 150)" r="3" /><circle cx="453.4634146341463414634146342" cy="74.1387755102040816326530612" fill="rgb(171, 210, 150)" r="3" /><circle cx="288.8130081300813008130081301" cy="446.7836734693877551020408163" fill="rgb(110, 19, 150)" r="3" /><circle cx="658.6016260162601626016260163" cy="95.6" fill="rgb(247, 199, 150)" r="3" /><circle cx="248.3252032520325203252032520" cy="163.8857142857142857142857143" fill="rgb(95, 164, 150)" r="3" /><circle cx="221.3333333333333333333333333" cy="7.8040816326530612244897959" fill="rgb(85, 244, 150)" r="3" /><circle cx="464.2601626016260162601626016" cy="68.2857142857142857142857143" fill="rgb(175, 213, 150)" r="3" /></g></g></g></g></g></g></svg>