<?xml version="1.0" standalone="no"?>
<!DOCTYPE svg PUBLIC "-//W3C//DTD SVG 1.1//EN"
"http://www.w3.org/Graphics/SVG/1.1/DTD/svg11.dtd">
<svg height="600" version="1.1" width="800" xmlns="http://www.w3.org/2000/svg"><g><rect fill="#f9f9f9" height="600" width="800" x="0" y="0" /><g transform="translate(40 40)"><g transform="translate(32 0)"><text fill="#333" font-family="Monaco" font-size="16" x="0" y="0">Colorized dots</text></g><g transform="translate(0 20)"><g transform="translate(32 0)"><g class="axis bottom"><g class="tick"><line stroke="#eee" stroke-width="1" x1="229.3333333333333333333333333" x2="229.3333333333333333333333333" y1="0" y2="482.0" /><text dy="1em" fill="#9c9c9c" font-family="Monaco" text-anchor="middle" x="229.3333333333333333333333333" y="486.0">100</text></g><g class="tick"><line stroke="#eee" stroke-width="1" x1="458.6666666666666666666666667" x2="458.6666666666666666666666667" y1="0" y2="482.0" /><text dy="1em" fill="#9c9c9c" font-family="Monaco" text-anchor="middle" x="458.6666666666666666666666667" y="486.0">200</text></g><g class="tick"><line stroke="#eee" stroke-width="1" x1="688" x2="688" y1="0" y2="482.0" /><text dy="1em" fill="#9c9c9c" font-family="Monaco" text-anchor="middle" x="688" y="486.0">300</text></g><g class="tick"><line stroke="#a8a8a8" stroke-width="1" x1="0" x2="0" y1="0" y2="482.0" /><text dy="1em" fill="#9c9c9c" font-family="Monaco" text-anchor="middle" x="0" y="486.0">0</text></g></g><g class="axis left"><g class="tick"><line stroke="#eee" stroke-width="1" x1="-4" x2="688.0" y1="318.6666666666666666666666667" y2="318.6666666666666666666666667" /><text dy="0.32em" fill="#9c9c9c" font-family="Monaco" text-anchor="end" x="-8" y="318.6666666666666666666666667">100</text></g><g class="tick"><line stroke="#eee" stroke-width="1" x1="-4" x2="688.0" y1="159.3333333333333333333333333" y2="159.3333333333333333333333333" /><text dy="0.32em" fill="#9c9c9c" font-family="Monaco" text-anchor="end" x="-8" y="159.3333333333333333333333333">200</text></g><g class="tick"><line stroke="#eee" stroke-width="1" x1="-4" x2="688.0" y1="0" y2="0" /><text dy="0.32em" fill="#9c9c9c" font-family="Monaco" text-anchor="end" x="-8" y="0">300</text></g><g class="tick"><line stroke="#a8a8a8" stroke-width="1" x1="-4" x2="688.0" y1="478" y2="478" /><text dy="0.32em" fill="#9c9c9c" font-family="Monaco" text-anchor="end" x="-8" y="478">0</text></g></g><g><g class="series dots"><circle cx="110.08" cy="404.7066666666666666666666667" fill="rgb(48, 46, 150)" r="3" /><circle cx="80.26666666666666666666666669" cy="140.2133333333333333333333333" fill="rgb(35, 212, 150)" r="3" /><circle cx="261.44" cy="385.5866666666666666666666667" fill="rgb(114, 58, 150)" r="3" /><circle cx="341.7066666666666666666666667" cy="132.2466666666666666666666667" fill="rgb(149, 217, 150)" r="3" /><circle cx="472.4266666666666666666666667" cy="293.1733333333333333333333333" fill="rgb(206, 116, 150)" r="3" /><circle cx="568.7466666666666666666666667" cy="331.4133333333333333333333333" fill="rgb(248, 92, 150)" r="3" /><circle cx="181.1733333333333333333333333" cy="420.64" fill="rgb(79, 36, 150)" r="3" /><circle cx="522.88" cy="231.0333333333333333333333333" fill="rgb(228, 155, 150)" r="3" /><circle cx="32.10666666666666666666666667" cy="401.52" fill="rgb(14, 48, 150)" r="3" /><circle cx="249.9733333333333333333333333" cy="229.44" fill="rgb(109, 156, 150)" r="3" /><circle cx="261.44" cy="382.4" fill="rgb(114, 60, 150)" r="3" /><circle cx="293.5466666666666666666666667" cy="141.8066666666666666666666667" fill="rgb(128, 211, 150)" r="3" /><circle cx="204.1066666666666666666666667" cy="465.2533333333333333333333333" fill="rgb(89, 8, 150)" r="3" /><circle cx="357.76" cy="184.8266666666666666666666667" fill="rgb(156, 184, 150)" r="3" /><circle cx="417.3866666666666666666666667" cy="137.0266666666666666666666667" fill="rgb(182, 214, 150)" r="3" /><circle cx="424.2666666666666666666666667" cy="345.7533333333333333333333333" fill="rgb(185, 83, 150)" r="3" /><circle cx="415.0933333333333333333333333" cy="262.90" fill="rgb(181, 135, 150)" r="3" /><circle cx="511.4133333333333333333333333" cy="356.9066666666666666666666667" fill="rgb(223, 76, 150)" r="3" /><circle cx="130.72" cy="323.4466666666666666666666667" fill="rgb(57, 97, 150)" r="3" /><circle cx="119.2533333333333333333333333" cy="374.4333333333333333333333333" fill="rgb(52, 65, 150)" r="3" /><circle cx="543.52" cy="239.0" fill="rgb(237, 150, 150)" r="3" /><circle cx="217.8666666666666666666666667" cy="446.1333333333333333333333333" fill="rgb(95, 20, 150)" r="3" /><circle cx="438.0266666666666666666666667" cy="329.82" fill="rgb(191, 93, 150)" r="3" /><circle cx="362.3466666666666666666666667" cy="356.9066666666666666666666667" fill="rgb(158, 76, 150)" r="3" /><circle cx="305.0133333333333333333333333" cy="388.7733333333333333333333333" fill="rgb(133, 56, 150)" r="3" /><circle cx="204.1066666666666666666666667" cy="264.4933333333333333333333333" fill="rgb(89, 134, 150)" r="3" /><circle cx="107.7866666666666666666666667" cy="358.50" fill="rgb(47, 75, 150)" r="3" /><circle cx="415.0933333333333333333333333" cy="114.72" fill="rgb(181, 228, 150)" r="3" /><circle cx="126.1333333333333333333333333" cy="423.8266666666666666666666667" fill="rgb(55, 34, 150)" r="3" /><circle cx="266.0266666666666666666666667" cy="307.5133333333333333333333333" fill="rgb(116, 107, 150)" r="3" /><circle cx="204.1066666666666666666666667" cy="121.0933333333333333333333333" fill="rgb(89, 224, 150)" r="3" /><circle cx="309.60" cy="254.9333333333333333333333333" fill="rgb(135, 140, 150)" r="3" /><circle cx="309.60" cy="428.6066666666666666666666667" fill="rgb(135, 31, 150)" r="3" /><circle cx="252.2666666666666666666666667" cy="221.4733333333333333333333333" fill="rgb(110, 161, 150)" r="3" /><circle cx="112.3733333333333333333333333" cy="127.4666666666666666666666667" fill="rgb(49, 220, 150)" r="3" /><circle cx="32.10666666666666666666666667" cy="463.66" fill="rgb(14, 9, 150)" r="3" /><circle cx="275.2" cy="404.7066666666666666666666667" fill="rgb(120, 46, 150)" r="3" /><circle cx="144.48" cy="476.4066666666666666666666667" fill="rgb(63, 1, 150)" r="3" /><circle cx="525.1733333333333333333333333" cy="425.42" fill="rgb(229, 33, 150)" r="3" /><circle cx="61.92" cy="301.14" fill="rgb(27, 111, 150)" r="3" /><circle cx="493.0666666666666666666666667" cy="101.9733333333333333333333333" fill="rgb(215, 236, 150)" r="3" /><circle cx="490.7733333333333333333333333" cy="460.4733333333333333333333333" fill="rgb(214, 11, 150)" r="3" /><circle cx="197.2266666666666666666666667" cy="476.4066666666666666666666667" fill="rgb(86, 1, 150)" r="3" /><circle cx="112.3733333333333333333333333" cy="471.6266666666666666666666667" fill="rgb(49, 4, 150)" r="3" /><circle cx="571.04" cy="240.5933333333333333333333333" fill="rgb(249, 149, 150)" r="3" /><circle cx="571.04" cy="455.6933333333333333333333333" fill="rgb(249, 14, 150)" r="3" /><circle cx="160.5333333333333333333333333" cy="101.9733333333333333333333333" fill="rgb(70, 236, 150)" r="3" /><circle cx="483.8933333333333333333333333" cy="208.7266666666666666666666667" fill="rgb(211, 169, 150)" r="3" /><circle cx="321.0666666666666666666666667" cy="329.82" fill="rgb(140, 93, 150)" r="3" /><circle cx="360.0533333333333333333333333" cy="121.0933333333333333333333333" fill="rgb(157, 224, 150)" r="3" /><circle cx="431.1466666666666666666666667" cy="79.6666666666666666666666667" fill="rgb(188, 250, 150)" r="3" /><circle cx="504.5333333333333333333333333" cy="156.1466666666666666666666667" fill="rgb(220, 202, 150)" r="3" /><circle cx="263.7333333333333333333333333" cy="267.68" fill="rgb(115, 132, 150)" r="3" /><circle cx="153.6533333333333333333333333" cy="89.2266666666666666666666667" fill="rgb(67, 244, 150)" r="3" /><circle cx="490.7733333333333333333333333" cy="411.08" fill="rgb(214, 42, 150)" r="3" /><circle cx="344.0" cy="135.4333333333333333333333333" fill="rgb(150, 215, 150)" r="3" /><circle cx="204.1066666666666666666666667" cy="253.34" fill="rgb(89, 141, 150)" r="3" /><circle cx="481.6" cy="162.52" fill="rgb(210, 198, 150)" r="3" /><circle cx="68.8" cy="87.6333333333333333333333333" fill="rgb(30, 245, 150)" r="3" /><circle cx="522.88" cy="84.4466666666666666666666667" fill="rgb(228, 247, 150)" r="3" /><circle cx="247.68" cy="407.8933333333333333333333333" fill="rgb(108, 44, 150)" r="3" /><circle cx="146.7733333333333333333333333" cy="371.2466666666666666666666667" fill="rgb(64, 67, 150)" r="3" /><circle cx="80.26666666666666666666666669" cy="202.3533333333333333333333333" fill="rgb(35, 173, 150)" r="3" /><circle cx="554.9866666666666666666666667" cy="176.86" fill="rgb(242, 189, 150)" r="3" /><circle cx="442.6133333333333333333333333" cy="396.74" fill="rgb(193, 51, 150)" r="3" /><circle cx="346.2933333333333333333333333" cy="368.06" fill="rgb(151, 69, 150)" r="3" /><circle cx="252.2666666666666666666666667" cy="270.8666666666666666666666667" fill="rgb(110, 130, 150)" r="3" /><circle cx="438.0266666666666666666666667" cy="428.6066666666666666666666667" fill="rgb(191, 31, 150)" r="3" /><circle cx="573.3333333333333333333333333" cy="245.3733333333333333333333333" fill="rgb(250, 146, 150)" r="3" /><circle cx="302.72" cy="176.86" fill="rgb(132, 189, 150)" r="3" /><circle cx="456.3733333333333333333333333" cy="140.2133333333333333333333333" fill="rgb(199, 212, 150)" r="3" /><circle cx="105.4933333333333333333333333" cy="227.8466666666666666666666667" fill="rgb(46, 157, 150)" r="3" /><circle cx="442.6133333333333333333333333" cy="203.9466666666666666666666667" fill="rgb(193, 172, 150)" r="3" /><circle cx="346.2933333333333333333333333" cy="149.7733333333333333333333333" fill="rgb(151, 206, 150)" r="3" /><circle cx="327.9466666666666666666666667" cy="374.4333333333333333333333333" fill="rgb(143, 65, 150)" r="3" /><circle cx="550.4" cy="119.50" fill="rgb(240, 225, 150)" r="3" /><circle cx="497.6533333333333333333333333" cy="168.8933333333333333333333333" fill="rgb(217, 194, 150)" r="3" /><circle cx="210.9866666666666666666666667" cy="237.4066666666666666666666667" fill="rgb(92, 151, 150)" r="3" /><circle cx="364.64" cy="366.4666666666666666666666667" fill="rgb(159, 70, 150)" r="3" /><circle cx="357.76" cy="138.62" fill="rgb(156, 213, 150)" r="3" /><circle cx="541.2266666666666666666666667" cy="396.74" fill="rgb(236, 51, 150)" r="3" /><circle cx="227.04" cy="289.9866666666666666666666667" fill="rgb(99, 118, 150)" r="3" /><circle cx="502.24" cy="111.5333333333333333333333333" fill="rgb(219, 230, 150)" r="3" /><circle cx="245.3866666666666666666666667" cy="297.9533333333333333333333333" fill="rgb(107, 113, 150)" r="3" /><circle cx="185.76" cy="79.6666666666666666666666667" fill="rgb(81, 250, 150)" r="3" /><circle cx="208.6933333333333333333333333" cy="454.10" fill="rgb(91, 15, 150)" r="3" /><circle cx="208.6933333333333333333333333" cy="417.4533333333333333333333333" fill="rgb(91, 38, 150)" r="3" /><circle cx="467.84" cy="203.9466666666666666666666667" fill="rgb(204, 172, 150)" r="3" /><circle cx="167.4133333333333333333333333" cy="297.9533333333333333333333333" fill="rgb(73, 113, 150)" r="3" /><circle cx="52.74666666666666666666666667" cy="388.7733333333333333333333333" fill="rgb(23, 56, 150)" r="3" /><circle cx="403.6266666666666666666666667" cy="127.4666666666666666666666667" fill="rgb(176, 220, 150)" r="3" /><circle cx="295.84" cy="184.8266666666666666666666667" fill="rgb(129, 184, 150)" r="3" /><circle cx="243.0933333333333333333333333" cy="396.74" fill="rgb(106, 51, 150)" r="3" /><circle cx="217.8666666666666666666666667" cy="455.6933333333333333333333333" fill="rgb(95, 14, 150)" r="3" /><circle cx="293.5466666666666666666666667" cy="235.8133333333333333333333333" fill="rgb(128, 152, 150)" r="3" /><circle cx="295.84" cy="288.3933333333333333333333333" fill="rgb(129, 119, 150)" r="3" /><circle cx="204.1066666666666666666666667" cy="372.84" fill="rgb(89, 66, 150)" r="3" /><circle cx="483.8933333333333333333333333" cy="105.16" fill="rgb(211, 234, 150)" r="3" /><circle cx="295.84" cy="446.1333333333333333333333333" fill="rgb(129, 20, 150)" r="3" /><circle cx="238.5066666666666666666666667" cy="436.5733333333333333333333333" fill="rgb(104, 26, 150)" r="3" /></g></g></g></g></g></g></svg>