<?xml version="1.0" standalone="no"?>
<!DOCTYPE svg PUBLIC "-//W3C//DTD SVG 1.1//EN"
"http://www.w3.org/Graphics/SVG/1.1/DTD/svg11.dtd">
<svg height="600" version="1.1" width="800" xmlns="http://www.w3.org/2000/svg"><g><rect fill="#f9f9f9" height="600" width="800" x="0" y="0" /><g transform="translate(40 40)"><g transform="translate(56 0)"><text fill="#333" font-family="Monaco" font-size="16" x="0" y="0">Colorized dots</text></g><g transform="translate(0 20)"><g transform="translate(56 0)"><g class="axis bottom"><text dy="1em" fill="#666" font-family="Monaco" text-anchor="middle" transform="" x="332.0" y="508.0" /><g class="tick"><line stroke="#a8a8a8" stroke-width="1" x1="0.0" x2="0.0" y1="0" y2="482.0" /><text dy="1em" fill="#9c9c9c" font-family="Monaco" text-anchor="middle" x="0.0" y="486.0">0.0</text></g><g class="tick"><line stroke="#eee" stroke-width="1" x1="166.0" x2="166.0" y1="0" y2="482.0" /><text dy="1em" fill="#9c9c9c" font-family="Monaco" text-anchor="middle" x="166.0" y="486.0">62.5</text></g><g class="tick"><line stroke="#eee" stroke-width="1" x1="332.0" x2="332.0" y1="0" y2="482.0" /><text dy="1em" fill="#9c9c9c" font-family="Monaco" text-anchor="middle" x="332.0" y="486.0">125.0</text></g><g class="tick"><line stroke="#eee" stroke-width="1" x1="498.0" x2="498.0" y1="0" y2="482.0" /><text dy="1em" fill="#9c9c9c" font-family="Monaco" text-anchor="middle" x="498.0" y="486.0">187.5</text></g><g class="tick"><line stroke="#eee" stroke-width="1" x1="664.0" x2="664.0" y1="0" y2="482.0" /><text dy="1em" fill="#9c9c9c" font-family="Monaco" text-anchor="middle" x="664.0" y="486.0">250.0</text></g></g><g class="axis left"><text dy="" fill="#666" font-family="Monaco" text-anchor="middle" transform="rotate(270 -56 239)" x="-56" y="239.0" /><g class="tick"><line stroke="#eee" stroke-width="1" x1="-4" x2="664.0" y1="478.0" y2="478.0" /><text dy="0.32em" fill="#9c9c9c" font-family="Monaco" text-anchor="end" x="-8" y="478.0">4.0</text></g><g class="tick"><line stroke="#eee" stroke-width="1" x1="-4" x2="664.0" y1="358.5" y2="358.5" /><text dy="0.32em" fill="#9c9c9c" font-family="Monaco" text-anchor="end" x="-8" y="358.5">65.25</text></g><g class="tick"><line stroke="#eee" stroke-width="1" x1="-4" x2="664.0" y1="239.0" y2="239.0" /><text dy="0.32em" fill="#9c9c9c" font-family="Monaco" text-anchor="end" x="-8" y="239.0">126.5</text></g><g class="tick"><line stroke="#eee" stroke-width="1" x1="-4" x2="664.0" y1="119.5" y2="119.5" /><text dy="0.32em" fill="#9c9c9c" font-family="Monaco" text-anchor="end" x="-8" y="119.5">187.75</text></g><g class="tick"><line stroke="#eee" stroke-width="1" x1="-4" x2="664.0" y1="0.0" y2="0.0" /><text dy="0.32em" fill="#9c9c9c" font-family="Monaco" text-anchor="end" x="-8" y="0.0">249.0</text></g></g><g><g class="series dots"><circle cx="138.112" cy="132.66938775510204" fill="rgb(52, 181, 150)" r="3" /><circle cx="571.04" cy="284.8489795918367" fill="rgb(215, 103, 150)" r="3" /><circle cx="233.72799999999998" cy="173.64081632653063" fill="rgb(88, 160, 150)" r="3" /><circle cx="626.8159999999999" cy="431.17551020408166" fill="rgb(236, 28, 150)" r="3" /><circle cx="640.096" cy="54.62857142857143" fill="rgb(241, 221, 150)" r="3" /><circle cx="416.992" cy="446.78367346938774" fill="rgb(157, 20, 150)" r="3" /><circle cx="103.584" cy="304.3591836734694" fill="rgb(39, 93, 150)" r="3" /><circle cx="318.71999999999997" cy="144.3755102040816" fill="rgb(120, 175, 150)" r="3" /><circle cx="531.2" cy="150.2285714285714" fill="rgb(200, 172, 150)" r="3" /><circle cx="294.81600000000003" cy="39.0204081632653" fill="rgb(111, 229, 150)" r="3" /><circle cx="169.984" cy="325.8204081632653" fill="rgb(64, 82, 150)" r="3" /><circle cx="185.92000000000002" cy="200.95510204081637" fill="rgb(70, 146, 150)" r="3" /><circle cx="478.08" cy="318.0163265306122" fill="rgb(180, 86, 150)" r="3" /><circle cx="29.215999999999998" cy="9.755102040816325" fill="rgb(11, 244, 150)" r="3" /><circle cx="411.68" cy="1.9510204081632878" fill="rgb(155, 248, 150)" r="3" /><circle cx="220.448" cy="294.6040816326531" fill="rgb(83, 98, 150)" r="3" /><circle cx="162.016" cy="388.2530612244898" fill="rgb(61, 50, 150)" r="3" /><circle cx="167.328" cy="263.38775510204084" fill="rgb(63, 114, 150)" r="3" /><circle cx="262.944" cy="372.64489795918365" fill="rgb(99, 58, 150)" r="3" /><circle cx="422.30400000000003" cy="29.265306122448976" fill="rgb(159, 234, 150)" r="3" /><circle cx="313.40799999999996" cy="1.9510204081632878" fill="rgb(118, 248, 150)" r="3" /><circle cx="223.104" cy="107.30612244897958" fill="rgb(84, 194, 150)" r="3" /><circle cx="584.32" cy="105.35510204081629" fill="rgb(220, 195, 150)" r="3" /><circle cx="146.08" cy="460.44081632653064" fill="rgb(55, 13, 150)" r="3" /><circle cx="584.32" cy="335.57551020408164" fill="rgb(220, 77, 150)" r="3" /><circle cx="640.096" cy="200.95510204081637" fill="rgb(241, 146, 150)" r="3" /><circle cx="69.056" cy="126.81632653061223" fill="rgb(26, 184, 150)" r="3" /><circle cx="231.07199999999997" cy="25.363265306122457" fill="rgb(87, 236, 150)" r="3" /><circle cx="332.0" cy="478.0" fill="rgb(125, 4, 150)" r="3" /><circle cx="268.25600000000003" cy="392.15510204081636" fill="rgb(101, 48, 150)" r="3" /><circle cx="143.424" cy="417.51836734693876" fill="rgb(54, 35, 150)" r="3" /><circle cx="111.552" cy="386.30204081632655" fill="rgb(42, 51, 150)" r="3" /><circle cx="541.824" cy="241.9265306122449" fill="rgb(204, 125, 150)" r="3" /><circle cx="494.016" cy="421.4204081632653" fill="rgb(186, 33, 150)" r="3" /><circle cx="143.424" cy="438.9795918367347" fill="rgb(54, 24, 150)" r="3" /><circle cx="409.024" cy="165.8367346938776" fill="rgb(154, 164, 150)" r="3" /><circle cx="363.872" cy="263.38775510204084" fill="rgb(137, 114, 150)" r="3" /><circle cx="92.96000000000001" cy="134.62040816326532" fill="rgb(35, 180, 150)" r="3" /><circle cx="334.656" cy="208.7591836734694" fill="rgb(126, 142, 150)" r="3" /><circle cx="496.672" cy="101.45306122448977" fill="rgb(187, 197, 150)" r="3" /><circle cx="276.224" cy="224.36734693877548" fill="rgb(104, 134, 150)" r="3" /><circle cx="517.9200000000001" cy="25.363265306122457" fill="rgb(195, 236, 150)" r="3" /><circle cx="273.568" cy="316.065306122449" fill="rgb(103, 87, 150)" r="3" /><circle cx="308.096" cy="144.3755102040816" fill="rgb(116, 175, 150)" r="3" /><circle cx="42.496" cy="306.31020408163266" fill="rgb(16, 92, 150)" r="3" /><circle cx="517.9200000000001" cy="183.39591836734695" fill="rgb(195, 155, 150)" r="3" /><circle cx="292.16" cy="298.50612244897957" fill="rgb(110, 96, 150)" r="3" /><circle cx="225.76000000000002" cy="245.82857142857142" fill="rgb(85, 123, 150)" r="3" /><circle cx="483.392" cy="368.74285714285713" fill="rgb(182, 60, 150)" r="3" /><circle cx="640.096" cy="165.8367346938776" fill="rgb(241, 164, 150)" r="3" /><circle cx="480.736" cy="335.57551020408164" fill="rgb(181, 77, 150)" r="3" /><circle cx="520.576" cy="310.2122448979592" fill="rgb(196, 90, 150)" r="3" /><circle cx="427.616" cy="382.4" fill="rgb(161, 53, 150)" r="3" /><circle cx="270.912" cy="81.94285714285712" fill="rgb(102, 207, 150)" r="3" /><circle cx="523.232" cy="1.9510204081632878" fill="rgb(197, 248, 150)" r="3" /><circle cx="201.856" cy="1.9510204081632878" fill="rgb(76, 248, 150)" r="3" /><circle cx="661.344" cy="218.51428571428573" fill="rgb(249, 137, 150)" r="3" /><circle cx="252.32" cy="117.06122448979596" fill="rgb(95, 189, 150)" r="3" /><circle cx="656.032" cy="269.2408163265306" fill="rgb(247, 111, 150)" r="3" /><circle cx="329.344" cy="423.37142857142857" fill="rgb(124, 32, 150)" r="3" /><circle cx="512.6080000000001" cy="452.63673469387754" fill="rgb(193, 17, 150)" r="3" /><circle cx="297.472" cy="366.7918367346939" fill="rgb(112, 61, 150)" r="3" /><circle cx="374.496" cy="105.35510204081629" fill="rgb(141, 195, 150)" r="3" /><circle cx="167.328" cy="124.865306122449" fill="rgb(63, 185, 150)" r="3" /><circle cx="159.35999999999999" cy="411.665306122449" fill="rgb(60, 38, 150)" r="3" /><circle cx="209.824" cy="403.8612244897959" fill="rgb(79, 42, 150)" r="3" /><circle cx="366.528" cy="300.45714285714286" fill="rgb(138, 95, 150)" r="3" /><circle cx="555.1039999999999" cy="425.32244897959185" fill="rgb(209, 31, 150)" r="3" /><circle cx="637.4399999999999" cy="179.49387755102038" fill="rgb(240, 157, 150)" r="3" /><circle cx="273.568" cy="378.49795918367346" fill="rgb(103, 55, 150)" r="3" /><circle cx="653.376" cy="259.48571428571427" fill="rgb(246, 116, 150)" r="3" /><circle cx="438.24" cy="171.68979591836734" fill="rgb(165, 161, 150)" r="3" /><circle cx="571.04" cy="0.0" fill="rgb(215, 249, 150)" r="3" /><circle cx="199.2" cy="450.6857142857143" fill="rgb(75, 18, 150)" r="3" /><circle cx="616.192" cy="329.72244897959183" fill="rgb(232, 80, 150)" r="3" /><circle cx="13.280000000000001" cy="425.32244897959185" fill="rgb(5, 31, 150)" r="3" /><circle cx="90.304" cy="200.95510204081637" fill="rgb(34, 146, 150)" r="3" /><circle cx="29.215999999999998" cy="282.8979591836735" fill="rgb(11, 104, 150)" r="3" /><circle cx="77.024" cy="7.804081632653038" fill="rgb(29, 245, 150)" r="3" /><circle cx="159.35999999999999" cy="435.0775510204082" fill="rgb(60, 26, 150)" r="3" /><circle cx="517.9200000000001" cy="64.38367346938776" fill="rgb(195, 216, 150)" r="3" /><circle cx="0.0" cy="243.87755102040816" fill="rgb(0, 124, 150)" r="3" /><circle cx="472.768" cy="286.79999999999995" fill="rgb(178, 102, 150)" r="3" /><circle cx="621.504" cy="224.36734693877548" fill="rgb(234, 134, 150)" r="3" /><circle cx="626.8159999999999" cy="154.13061224489797" fill="rgb(236, 170, 150)" r="3" /><circle cx="664.0" cy="146.32653061224488" fill="rgb(250, 174, 150)" r="3" /><circle cx="549.7919999999999" cy="152.1795918367347" fill="rgb(207, 171, 150)" r="3" /><circle cx="363.872" cy="378.49795918367346" fill="rgb(137, 55, 150)" r="3" /><circle cx="459.48799999999994" cy="76.08979591836737" fill="rgb(173, 210, 150)" r="3" /><circle cx="111.552" cy="419.46938775510205" fill="rgb(42, 34, 150)" r="3" /><circle cx="528.544" cy="446.78367346938774" fill="rgb(199, 20, 150)" r="3" /><circle cx="664.0" cy="323.869387755102" fill="rgb(250, 83, 150)" r="3" /><circle cx="547.136" cy="81.94285714285712" fill="rgb(206, 207, 150)" r="3" /><circle cx="204.512" cy="89.74693877551022" fill="rgb(77, 203, 150)" r="3" /><circle cx="119.52" cy="300.45714285714286" fill="rgb(45, 95, 150)" r="3" /><circle cx="549.7919999999999" cy="138.52244897959184" fill="rgb(207, 178, 150)" r="3" /><circle cx="424.96000000000004" cy="212.66122448979593" fill="rgb(160, 140, 150)" r="3" /><circle cx="241.696" cy="66.33469387755105" fill="rgb(91, 215, 150)" r="3" /><circle cx="366.528" cy="195.1020408163265" fill="rgb(138, 149, 150)" r="3" /><circle cx="74.368" cy="411.665306122449" fill="rgb(28, 38, 150)" r="3" /></g></g></g></g></g></g></svg>