<?xml version="1.0" standalone="no"?>
<!DOCTYPE svg PUBLIC "-//W3C//DTD SVG 1.1//EN"
"http://www.w3.org/Graphics/SVG/1.1/DTD/svg11.dtd">
<svg height="600" version="1.1" width="800" xmlns="http://www.w3.org/2000/svg"><g><rect fill="#f9f9f9" height="600" width="800" x="0" y="0" /><g transform="translate(40 40)"><g transform="translate(48 0)"><text fill="#333" font-family="Monaco" font-size="16" x="0" y="0">Colorized dots</text></g><g transform="translate(0 20)"><g transform="translate(48 0)"><g class="axis bottom"><text dy="1em" fill="#666" font-family="Monaco" text-anchor="middle" transform="" x="336.0" y="508.0" /><g class="tick"><line stroke="#eee" stroke-width="1" x1="168.00" x2="168.00" y1="0" y2="482.0" /><text dy="1em" fill="#9c9c9c" font-family="Monaco" text-anchor="middle" x="168.00" y="486.0">62.5</text></g><g class="tick"><line stroke="#eee" stroke-width="1" x1="336.0" x2="336.0" y1="0" y2="482.0" /><text dy="1em" fill="#9c9c9c" font-family="Monaco" text-anchor="middle" x="336.0" y="486.0">125.0</text></g><g class="tick"><line stroke="#eee" stroke-width="1" x1="504.00" x2="504.00" y1="0" y2="482.0" /><text dy="1em" fill="#9c9c9c" font-family="Monaco" text-anchor="middle" x="504.00" y="486.0">187.5</text></g><g class="tick"><line stroke="#eee" stroke-width="1" x1="672.0" x2="672.0" y1="0" y2="482.0" /><text dy="1em" fill="#9c9c9c" font-family="Monaco" text-anchor="middle" x="672.0" y="486.0">250.0</text></g><g class="tick"><line stroke="#a8a8a8" stroke-width="1" x1="0.0" x2="0.0" y1="0" y2="482.0" /><text dy="1em" fill="#9c9c9c" font-family="Monaco" text-anchor="middle" x="0.0" y="486.0">0.0</text></g></g><g class="axis left"><text dy="" fill="#666" font-family="Monaco" text-anchor="middle" transform="rotate(270 -48 239)" x="-48" y="239.0" /><g class="tick"><line stroke="#eee" stroke-width="1" x1="-4" x2="672.0" y1="358.50" y2="358.50" /><text dy="0.32em" fill="#9c9c9c" font-family="Monaco" text-anchor="end" x="-8" y="358.50">62.5</text></g><g class="tick"><line stroke="#eee" stroke-width="1" x1="-4" x2="672.0" y1="239.0" y2="239.0" /><text dy="0.32em" fill="#9c9c9c" font-family="Monaco" text-anchor="end" x="-8" y="239.0">125.0</text></g><g class="tick"><line stroke="#eee" stroke-width="1" x1="-4" x2="672.0" y1="119.50" y2="119.50" /><text dy="0.32em" fill="#9c9c9c" font-family="Monaco" text-anchor="end" x="-8" y="119.50">187.5</text></g><g class="tick"><line stroke="#eee" stroke-width="1" x1="-4" x2="672.0" y1="0.0" y2="0.0" /><text dy="0.32em" fill="#9c9c9c" font-family="Monaco" text-anchor="end" x="-8" y="0.0">250.0</text></g><g class="tick"><line stroke="#a8a8a8" stroke-width="1" x1="-4" x2="672.0" y1="478.0" y2="478.0" /><text dy="0.32em" fill="#9c9c9c" font-family="Monaco" text-anchor="end" x="-8" y="478.0">0.0</text></g></g><g><g class="series dots"><circle cx="491.904" cy="349.896" fill="rgb(183, 67, 150)" r="3" /><circle cx="658.56" cy="103.248" fill="rgb(245, 196, 150)" r="3" /><circle cx="88.704" cy="279.152" fill="rgb(33, 104, 150)" r="3" /><circle cx="201.6" cy="164.432" fill="rgb(75, 164, 150)" r="3" /><circle cx="8.064" cy="386.224" fill="rgb(3, 48, 150)" r="3" /><circle cx="319.872" cy="19.12" fill="rgb(119, 240, 150)" r="3" /><circle cx="577.92" cy="183.552" fill="rgb(215, 154, 150)" r="3" /><circle cx="384.384" cy="200.76" fill="rgb(143, 145, 150)" r="3" /><circle cx="271.488" cy="22.944" fill="rgb(101, 238, 150)" r="3" /><circle cx="599.424" cy="91.776" fill="rgb(223, 202, 150)" r="3" /><circle cx="408.576" cy="154.872" fill="rgb(152, 169, 150)" r="3" /><circle cx="620.928" cy="145.312" fill="rgb(231, 174, 150)" r="3" /><circle cx="542.976" cy="476.088" fill="rgb(202, 1, 150)" r="3" /><circle cx="553.728" cy="105.16" fill="rgb(206, 195, 150)" r="3" /><circle cx="231.168" cy="110.896" fill="rgb(86, 192, 150)" r="3" /><circle cx="499.968" cy="265.768" fill="rgb(186, 111, 150)" r="3" /><circle cx="626.304" cy="181.64" fill="rgb(233, 155, 150)" r="3" /><circle cx="290.304" cy="139.576" fill="rgb(108, 177, 150)" r="3" /><circle cx="620.928" cy="57.36" fill="rgb(231, 220, 150)" r="3" /><circle cx="626.304" cy="311.656" fill="rgb(233, 87, 150)" r="3" /><circle cx="88.704" cy="336.512" fill="rgb(33, 74, 150)" r="3" /><circle cx="212.352" cy="325.04" fill="rgb(79, 80, 150)" r="3" /><circle cx="379.008" cy="99.424" fill="rgb(141, 198, 150)" r="3" /><circle cx="346.752" cy="42.064" fill="rgb(129, 228, 150)" r="3" /><circle cx="663.936" cy="170.168" fill="rgb(247, 161, 150)" r="3" /><circle cx="330.624" cy="464.616" fill="rgb(123, 7, 150)" r="3" /><circle cx="435.456" cy="76.48" fill="rgb(162, 210, 150)" r="3" /><circle cx="249.984" cy="426.376" fill="rgb(93, 27, 150)" r="3" /><circle cx="142.464" cy="248.56" fill="rgb(53, 120, 150)" r="3" /><circle cx="516.096" cy="422.552" fill="rgb(192, 29, 150)" r="3" /><circle cx="585.984" cy="0" fill="rgb(218, 250, 150)" r="3" /><circle cx="102.144" cy="86.04" fill="rgb(38, 205, 150)" r="3" /><circle cx="462.336" cy="103.248" fill="rgb(172, 196, 150)" r="3" /><circle cx="448.896" cy="351.808" fill="rgb(167, 66, 150)" r="3" /><circle cx="0" cy="89.864" fill="rgb(0, 203, 150)" r="3" /><circle cx="153.216" cy="409.168" fill="rgb(57, 36, 150)" r="3" /><circle cx="209.664" cy="260.032" fill="rgb(78, 114, 150)" r="3" /><circle cx="642.432" cy="242.824" fill="rgb(239, 123, 150)" r="3" /><circle cx="53.76" cy="397.696" fill="rgb(20, 42, 150)" r="3" /><circle cx="672" cy="43.976" fill="rgb(250, 227, 150)" r="3" /><circle cx="169.344" cy="288.712" fill="rgb(63, 99, 150)" r="3" /><circle cx="403.2" cy="195.024" fill="rgb(150, 148, 150)" r="3" /><circle cx="196.224" cy="65.008" fill="rgb(73, 216, 150)" r="3" /><circle cx="190.848" cy="382.4" fill="rgb(71, 50, 150)" r="3" /><circle cx="422.016" cy="414.904" fill="rgb(157, 33, 150)" r="3" /><circle cx="336.0" cy="470.352" fill="rgb(125, 4, 150)" r="3" /><circle cx="502.656" cy="267.68" fill="rgb(187, 110, 150)" r="3" /><circle cx="0" cy="374.752" fill="rgb(0, 54, 150)" r="3" /><circle cx="669.312" cy="271.504" fill="rgb(249, 108, 150)" r="3" /><circle cx="489.216" cy="254.296" fill="rgb(182, 117, 150)" r="3" /><circle cx="489.216" cy="223.704" fill="rgb(182, 133, 150)" r="3" /><circle cx="188.16" cy="13.384" fill="rgb(70, 243, 150)" r="3" /><circle cx="244.608" cy="34.416" fill="rgb(91, 232, 150)" r="3" /><circle cx="620.928" cy="173.992" fill="rgb(231, 159, 150)" r="3" /><circle cx="637.056" cy="131.928" fill="rgb(237, 181, 150)" r="3" /><circle cx="454.272" cy="346.072" fill="rgb(169, 69, 150)" r="3" /><circle cx="577.92" cy="317.392" fill="rgb(215, 84, 150)" r="3" /><circle cx="615.552" cy="97.512" fill="rgb(229, 199, 150)" r="3" /><circle cx="182.784" cy="175.904" fill="rgb(68, 158, 150)" r="3" /><circle cx="279.552" cy="439.76" fill="rgb(104, 20, 150)" r="3" /><circle cx="516.096" cy="325.04" fill="rgb(192, 80, 150)" r="3" /><circle cx="596.736" cy="24.856" fill="rgb(222, 237, 150)" r="3" /><circle cx="502.656" cy="19.12" fill="rgb(187, 240, 150)" r="3" /><circle cx="327.936" cy="240.912" fill="rgb(122, 124, 150)" r="3" /><circle cx="381.696" cy="177.816" fill="rgb(142, 157, 150)" r="3" /><circle cx="486.528" cy="17.208" fill="rgb(181, 241, 150)" r="3" /><circle cx="139.776" cy="305.92" fill="rgb(52, 90, 150)" r="3" /><circle cx="158.592" cy="124.28" fill="rgb(59, 185, 150)" r="3" /><circle cx="263.424" cy="97.512" fill="rgb(98, 199, 150)" r="3" /><circle cx="545.664" cy="342.248" fill="rgb(203, 71, 150)" r="3" /><circle cx="102.144" cy="424.464" fill="rgb(38, 28, 150)" r="3" /><circle cx="21.504" cy="349.896" fill="rgb(8, 67, 150)" r="3" /><circle cx="672" cy="195.024" fill="rgb(250, 148, 150)" r="3" /><circle cx="379.008" cy="1.912" fill="rgb(141, 249, 150)" r="3" /><circle cx="190.848" cy="290.624" fill="rgb(71, 98, 150)" r="3" /><circle cx="591.36" cy="388.136" fill="rgb(220, 47, 150)" r="3" /><circle cx="645.12" cy="141.488" fill="rgb(240, 176, 150)" r="3" /><circle cx="258.048" cy="7.648" fill="rgb(96, 246, 150)" r="3" /><circle cx="602.112" cy="271.504" fill="rgb(224, 108, 150)" r="3" /><circle cx="8.064" cy="370.928" fill="rgb(3, 56, 150)" r="3" /><circle cx="190.848" cy="294.448" fill="rgb(71, 96, 150)" r="3" /><circle cx="325.248" cy="221.792" fill="rgb(121, 134, 150)" r="3" /><circle cx="255.36" cy="158.696" fill="rgb(95, 167, 150)" r="3" /><circle cx="333.312" cy="357.544" fill="rgb(124, 63, 150)" r="3" /><circle cx="94.08" cy="281.064" fill="rgb(35, 103, 150)" r="3" /><circle cx="623.616" cy="378.576" fill="rgb(232, 52, 150)" r="3" /><circle cx="231.168" cy="336.512" fill="rgb(86, 74, 150)" r="3" /><circle cx="443.52" cy="395.784" fill="rgb(165, 43, 150)" r="3" /><circle cx="637.056" cy="432.112" fill="rgb(237, 24, 150)" r="3" /><circle cx="620.928" cy="263.856" fill="rgb(231, 112, 150)" r="3" /><circle cx="634.368" cy="7.648" fill="rgb(236, 246, 150)" r="3" /><circle cx="556.416" cy="298.272" fill="rgb(207, 94, 150)" r="3" /><circle cx="653.184" cy="478" fill="rgb(243, 0, 150)" r="3" /><circle cx="51.072" cy="26.768" fill="rgb(19, 236, 150)" r="3" /><circle cx="440.832" cy="361.368" fill="rgb(164, 61, 150)" r="3" /><circle cx="486.528" cy="370.928" fill="rgb(181, 56, 150)" r="3" /><circle cx="357.504" cy="430.2" fill="rgb(133, 25, 150)" r="3" /><circle cx="336.0" cy="455.056" fill="rgb(125, 12, 150)" r="3" /><circle cx="596.736" cy="3.824" fill="rgb(222, 248, 150)" r="3" /><circle cx="290.304" cy="464.616" fill="rgb(108, 7, 150)" r="3" /></g></g></g></g></g></g></svg>