<?xml version="1.0" standalone="no"?>
<!DOCTYPE svg PUBLIC "-//W3C//DTD SVG 1.1//EN"
"http://www.w3.org/Graphics/SVG/1.1/DTD/svg11.dtd">
<svg height="600" version="1.1" width="800" xmlns="http://www.w3.org/2000/svg"><g><rect fill="#f9f9f9" height="600" width="800" x="0" y="0" /><g transform="translate(40 40)"><g transform="translate(32 0)"><text fill="#333" font-family="Monaco" font-size="16" x="0" y="0">Colorized dots</text></g><g transform="translate(0 20)"><g transform="translate(32 0)"><g class="axis bottom"><g class="tick"><line stroke="#eee" stroke-width="1" x1="229.3333333333333333333333333" x2="229.3333333333333333333333333" y1="0" y2="482.0" /><text dy="1em" fill="#9c9c9c" font-family="Monaco" text-anchor="middle" x="229.3333333333333333333333333" y="486.0">100</text></g><g class="tick"><line stroke="#eee" stroke-width="1" x1="458.6666666666666666666666667" x2="458.6666666666666666666666667" y1="0" y2="482.0" /><text dy="1em" fill="#9c9c9c" font-family="Monaco" text-anchor="middle" x="458.6666666666666666666666667" y="486.0">200</text></g><g class="tick"><line stroke="#eee" stroke-width="1" x1="688" x2="688" y1="0" y2="482.0" /><text dy="1em" fill="#9c9c9c" font-family="Monaco" text-anchor="middle" x="688" y="486.0">300</text></g><g class="tick"><line stroke="#a8a8a8" stroke-width="1" x1="0" x2="0" y1="0" y2="482.0" /><text dy="1em" fill="#9c9c9c" font-family="Monaco" text-anchor="middle" x="0" y="486.0">0</text></g></g><g class="axis left"><g class="tick"><line stroke="#eee" stroke-width="1" x1="-4" x2="688.0" y1="318.6666666666666666666666667" y2="318.6666666666666666666666667" /><text dy="0.32em" fill="#9c9c9c" font-family="Monaco" text-anchor="end" x="-8" y="318.6666666666666666666666667">100</text></g><g class="tick"><line stroke="#eee" stroke-width="1" x1="-4" x2="688.0" y1="159.3333333333333333333333333" y2="159.3333333333333333333333333" /><text dy="0.32em" fill="#9c9c9c" font-family="Monaco" text-anchor="end" x="-8" y="159.3333333333333333333333333">200</text></g><g class="tick"><line stroke="#eee" stroke-width="1" x1="-4" x2="688.0" y1="0" y2="0" /><text dy="0.32em" fill="#9c9c9c" font-family="Monaco" text-anchor="end" x="-8" y="0">300</text></g><g class="tick"><line stroke="#a8a8a8" stroke-width="1" x1="-4" x2="688.0" y1="478" y2="478" /><text dy="0.32em" fill="#9c9c9c" font-family="Monaco" text-anchor="end" x="-8" y="478">0</text></g></g><g><g class="series dots"><circle cx="80.26666666666666666666666669" cy="333.0066666666666666666666667" fill="rgb(35, 91, 150)" r="3" /><circle cx="433.44" cy="227.8466666666666666666666667" fill="rgb(189, 157, 150)" r="3" /><circle cx="272.9066666666666666666666667" cy="254.9333333333333333333333333" fill="rgb(119, 140, 150)" r="3" /><circle cx="20.64" cy="379.2133333333333333333333333" fill="rgb(9, 62, 150)" r="3" /><circle cx="94.02666666666666666666666669" cy="175.2666666666666666666666667" fill="rgb(41, 190, 150)" r="3" /><circle cx="126.1333333333333333333333333" cy="144.9933333333333333333333333" fill="rgb(55, 209, 150)" r="3" /><circle cx="566.4533333333333333333333333" cy="87.6333333333333333333333333" fill="rgb(247, 245, 150)" r="3" /><circle cx="433.44" cy="473.22" fill="rgb(189, 3, 150)" r="3" /><circle cx="527.4666666666666666666666667" cy="380.8066666666666666666666667" fill="rgb(230, 61, 150)" r="3" /><circle cx="438.0266666666666666666666667" cy="320.26" fill="rgb(191, 99, 150)" r="3" /><circle cx="350.88" cy="246.9666666666666666666666667" fill="rgb(153, 145, 150)" r="3" /><circle cx="236.2133333333333333333333333" cy="348.94" fill="rgb(103, 81, 150)" r="3" /><circle cx="284.3733333333333333333333333" cy="176.86" fill="rgb(124, 189, 150)" r="3" /><circle cx="64.21333333333333333333333333" cy="207.1333333333333333333333333" fill="rgb(28, 170, 150)" r="3" /><circle cx="126.1333333333333333333333333" cy="323.4466666666666666666666667" fill="rgb(55, 97, 150)" r="3" /><circle cx="217.8666666666666666666666667" cy="125.8733333333333333333333333" fill="rgb(95, 221, 150)" r="3" /><circle cx="433.44" cy="356.9066666666666666666666667" fill="rgb(189, 76, 150)" r="3" /><circle cx="192.64" cy="315.48" fill="rgb(84, 102, 150)" r="3" /><circle cx="288.96" cy="294.7666666666666666666666667" fill="rgb(126, 115, 150)" r="3" /><circle cx="229.3333333333333333333333333" cy="254.9333333333333333333333333" fill="rgb(100, 140, 150)" r="3" /><circle cx="135.3066666666666666666666667" cy="243.78" fill="rgb(59, 147, 150)" r="3" /><circle cx="497.6533333333333333333333333" cy="127.4666666666666666666666667" fill="rgb(217, 220, 150)" r="3" /><circle cx="499.9466666666666666666666667" cy="350.5333333333333333333333333" fill="rgb(218, 80, 150)" r="3" /><circle cx="401.3333333333333333333333333" cy="95.6" fill="rgb(175, 240, 150)" r="3" /><circle cx="110.08" cy="250.1533333333333333333333333" fill="rgb(48, 143, 150)" r="3" /><circle cx="82.56" cy="274.0533333333333333333333333" fill="rgb(36, 128, 150)" r="3" /><circle cx="568.7466666666666666666666667" cy="344.16" fill="rgb(248, 84, 150)" r="3" /><circle cx="174.2933333333333333333333333" cy="240.5933333333333333333333333" fill="rgb(76, 149, 150)" r="3" /><circle cx="357.76" cy="106.7533333333333333333333333" fill="rgb(156, 233, 150)" r="3" /><circle cx="73.38666666666666666666666669" cy="404.7066666666666666666666667" fill="rgb(32, 46, 150)" r="3" /><circle cx="323.36" cy="297.9533333333333333333333333" fill="rgb(141, 113, 150)" r="3" /><circle cx="199.52" cy="283.6133333333333333333333333" fill="rgb(87, 122, 150)" r="3" /><circle cx="499.9466666666666666666666667" cy="226.2533333333333333333333333" fill="rgb(218, 158, 150)" r="3" /><circle cx="158.24" cy="431.7933333333333333333333333" fill="rgb(69, 29, 150)" r="3" /><circle cx="194.9333333333333333333333333" cy="207.1333333333333333333333333" fill="rgb(85, 170, 150)" r="3" /><circle cx="364.64" cy="431.7933333333333333333333333" fill="rgb(159, 29, 150)" r="3" /><circle cx="190.3466666666666666666666667" cy="259.7133333333333333333333333" fill="rgb(83, 137, 150)" r="3" /><circle cx="208.6933333333333333333333333" cy="463.66" fill="rgb(91, 9, 150)" r="3" /><circle cx="45.86666666666666666666666667" cy="447.7266666666666666666666667" fill="rgb(20, 19, 150)" r="3" /><circle cx="114.6666666666666666666666667" cy="215.10" fill="rgb(50, 165, 150)" r="3" /><circle cx="43.57333333333333333333333333" cy="197.5733333333333333333333333" fill="rgb(19, 176, 150)" r="3" /><circle cx="116.96" cy="305.92" fill="rgb(51, 108, 150)" r="3" /><circle cx="477.0133333333333333333333333" cy="352.1266666666666666666666667" fill="rgb(208, 79, 150)" r="3" /><circle cx="80.26666666666666666666666669" cy="333.0066666666666666666666667" fill="rgb(35, 91, 150)" r="3" /><circle cx="59.62666666666666666666666667" cy="356.9066666666666666666666667" fill="rgb(26, 76, 150)" r="3" /><circle cx="103.20" cy="258.12" fill="rgb(45, 138, 150)" r="3" /><circle cx="245.3866666666666666666666667" cy="478" fill="rgb(107, 0, 150)" r="3" /><circle cx="330.24" cy="460.4733333333333333333333333" fill="rgb(144, 11, 150)" r="3" /><circle cx="373.8133333333333333333333333" cy="293.1733333333333333333333333" fill="rgb(163, 116, 150)" r="3" /><circle cx="442.6133333333333333333333333" cy="270.8666666666666666666666667" fill="rgb(193, 130, 150)" r="3" /><circle cx="412.8" cy="388.7733333333333333333333333" fill="rgb(180, 56, 150)" r="3" /><circle cx="75.68" cy="347.3466666666666666666666667" fill="rgb(33, 82, 150)" r="3" /><circle cx="116.96" cy="253.34" fill="rgb(51, 141, 150)" r="3" /><circle cx="158.24" cy="227.8466666666666666666666667" fill="rgb(69, 157, 150)" r="3" /><circle cx="224.7466666666666666666666667" cy="358.50" fill="rgb(98, 75, 150)" r="3" /><circle cx="77.97333333333333333333333331" cy="127.4666666666666666666666667" fill="rgb(34, 220, 150)" r="3" /><circle cx="389.8666666666666666666666667" cy="286.8" fill="rgb(170, 120, 150)" r="3" /><circle cx="548.1066666666666666666666667" cy="309.1066666666666666666666667" fill="rgb(239, 106, 150)" r="3" /><circle cx="48.16" cy="108.3466666666666666666666667" fill="rgb(21, 232, 150)" r="3" /><circle cx="387.5733333333333333333333333" cy="415.86" fill="rgb(169, 39, 150)" r="3" /><circle cx="263.7333333333333333333333333" cy="157.74" fill="rgb(115, 201, 150)" r="3" /><circle cx="396.7466666666666666666666667" cy="105.16" fill="rgb(173, 234, 150)" r="3" /><circle cx="305.0133333333333333333333333" cy="468.44" fill="rgb(133, 6, 150)" r="3" /><circle cx="483.8933333333333333333333333" cy="304.3266666666666666666666667" fill="rgb(211, 109, 150)" r="3" /><circle cx="451.7866666666666666666666667" cy="340.9733333333333333333333333" fill="rgb(197, 86, 150)" r="3" /><circle cx="532.0533333333333333333333333" cy="317.0733333333333333333333333" fill="rgb(232, 101, 150)" r="3" /><circle cx="210.9866666666666666666666667" cy="122.6866666666666666666666667" fill="rgb(92, 223, 150)" r="3" /><circle cx="169.7066666666666666666666667" cy="301.14" fill="rgb(74, 111, 150)" r="3" /><circle cx="421.9733333333333333333333333" cy="218.2866666666666666666666667" fill="rgb(184, 163, 150)" r="3" /><circle cx="373.8133333333333333333333333" cy="248.56" fill="rgb(163, 144, 150)" r="3" /><circle cx="568.7466666666666666666666667" cy="162.52" fill="rgb(248, 198, 150)" r="3" /><circle cx="350.88" cy="207.1333333333333333333333333" fill="rgb(153, 170, 150)" r="3" /><circle cx="525.1733333333333333333333333" cy="458.88" fill="rgb(229, 12, 150)" r="3" /><circle cx="454.08" cy="154.5533333333333333333333333" fill="rgb(198, 203, 150)" r="3" /><circle cx="300.4266666666666666666666667" cy="305.92" fill="rgb(131, 108, 150)" r="3" /><circle cx="29.81333333333333333333333333" cy="133.84" fill="rgb(13, 216, 150)" r="3" /><circle cx="568.7466666666666666666666667" cy="175.2666666666666666666666667" fill="rgb(248, 190, 150)" r="3" /><circle cx="458.6666666666666666666666667" cy="133.84" fill="rgb(200, 216, 150)" r="3" /><circle cx="199.52" cy="121.0933333333333333333333333" fill="rgb(87, 224, 150)" r="3" /><circle cx="311.8933333333333333333333333" cy="231.0333333333333333333333333" fill="rgb(136, 155, 150)" r="3" /><circle cx="144.48" cy="325.04" fill="rgb(63, 96, 150)" r="3" /><circle cx="224.7466666666666666666666667" cy="92.4133333333333333333333333" fill="rgb(98, 242, 150)" r="3" /><circle cx="66.50666666666666666666666667" cy="433.3866666666666666666666667" fill="rgb(29, 28, 150)" r="3" /><circle cx="493.0666666666666666666666667" cy="256.5266666666666666666666667" fill="rgb(215, 139, 150)" r="3" /><circle cx="210.9866666666666666666666667" cy="221.4733333333333333333333333" fill="rgb(92, 161, 150)" r="3" /><circle cx="518.2933333333333333333333333" cy="371.2466666666666666666666667" fill="rgb(226, 67, 150)" r="3" /><circle cx="34.40" cy="307.5133333333333333333333333" fill="rgb(15, 107, 150)" r="3" /><circle cx="360.0533333333333333333333333" cy="154.5533333333333333333333333" fill="rgb(157, 203, 150)" r="3" /><circle cx="213.28" cy="282.02" fill="rgb(93, 123, 150)" r="3" /><circle cx="6.88" cy="352.1266666666666666666666667" fill="rgb(3, 79, 150)" r="3" /><circle cx="123.84" cy="305.92" fill="rgb(54, 108, 150)" r="3" /><circle cx="321.0666666666666666666666667" cy="364.8733333333333333333333333" fill="rgb(140, 71, 150)" r="3" /><circle cx="190.3466666666666666666666667" cy="458.88" fill="rgb(83, 12, 150)" r="3" /><circle cx="41.28" cy="460.4733333333333333333333333" fill="rgb(18, 11, 150)" r="3" /><circle cx="527.4666666666666666666666667" cy="446.1333333333333333333333333" fill="rgb(230, 20, 150)" r="3" /><circle cx="548.1066666666666666666666667" cy="403.1133333333333333333333333" fill="rgb(239, 47, 150)" r="3" /><circle cx="215.5733333333333333333333333" cy="219.88" fill="rgb(94, 162, 150)" r="3" /><circle cx="403.6266666666666666666666667" cy="458.88" fill="rgb(176, 12, 150)" r="3" /><circle cx="71.09333333333333333333333331" cy="205.54" fill="rgb(31, 171, 150)" r="3" /><circle cx="334.8266666666666666666666667" cy="203.9466666666666666666666667" fill="rgb(146, 172, 150)" r="3" /></g></g></g></g></g></g></svg>