<?xml version="1.0" standalone="no"?>
<!DOCTYPE svg PUBLIC "-//W3C//DTD SVG 1.1//EN"
"http://www.w3.org/Graphics/SVG/1.1/DTD/svg11.dtd">
<svg height="600" version="1.1" width="800" xmlns="http://www.w3.org/2000/svg"><g><rect fill="#f9f9f9" height="600" width="800" x="0" y="0" /><g transform="translate(40 40)"><g transform="translate(32 0)"><text fill="#333" font-family="Monaco" font-size="16" x="0" y="0">Colorized dots</text></g><g transform="translate(0 20)"><g transform="translate(32 0)"><g class="axis bottom"><g class="tick"><line stroke="#eee" stroke-width="1" x1="229.3333333333333333333333333" x2="229.3333333333333333333333333" y1="0" y2="482.0" /><text dy="1em" fill="#9c9c9c" font-family="Monaco" text-anchor="middle" x="229.3333333333333333333333333" y="486.0">100</text></g><g class="tick"><line stroke="#eee" stroke-width="1" x1="458.6666666666666666666666667" x2="458.6666666666666666666666667" y1="0" y2="482.0" /><text dy="1em" fill="#9c9c9c" font-family="Monaco" text-anchor="middle" x="458.6666666666666666666666667" y="486.0">200</text></g><g class="tick"><line stroke="#eee" stroke-width="1" x1="688" x2="688" y1="0" y2="482.0" /><text dy="1em" fill="#9c9c9c" font-family="Monaco" text-anchor="middle" x="688" y="486.0">300</text></g><g class="tick"><line stroke="#a8a8a8" stroke-width="1" x1="0" x2="0" y1="0" y2="482.0" /><text dy="1em" fill="#9c9c9c" font-family="Monaco" text-anchor="middle" x="0" y="486.0">0</text></g></g><g class="axis left"><g class="tick"><line stroke="#eee" stroke-width="1" x1="-4" x2="688.0" y1="318.6666666666666666666666667" y2="318.6666666666666666666666667" /><text dy="0.32em" fill="#9c9c9c" font-family="Monaco" text-anchor="end" x="-8" y="318.6666666666666666666666667">100</text></g><g class="tick"><line stroke="#eee" stroke-width="1" x1="-4" x2="688.0" y1="159.3333333333333333333333333" y2="159.3333333333333333333333333" /><text dy="0.32em" fill="#9c9c9c" font-family="Monaco" text-anchor="end" x="-8" y="159.3333333333333333333333333">200</text></g><g class="tick"><line stroke="#eee" stroke-width="1" x1="-4" x2="688.0" y1="0" y2="0" /><text dy="0.32em" fill="#9c9c9c" font-family="Monaco" text-anchor="end" x="-8" y="0">300</text></g><g class="tick"><line stroke="#a8a8a8" stroke-width="1" x1="-4" x2="688.0" y1="478" y2="478" /><text dy="0.32em" fill="#9c9c9c" font-family="Monaco" text-anchor="end" x="-8" y="478">0</text></g></g><g><g class="series dots"><circle cx="288.96" cy="385.5866666666666666666666667" fill="rgb(126, 58, 150)" r="3" /><circle cx="48.16" cy="452.5066666666666666666666667" fill="rgb(21, 16, 150)" r="3" /><circle cx="50.45333333333333333333333333" cy="352.1266666666666666666666667" fill="rgb(22, 79, 150)" r="3" /><circle cx="190.3466666666666666666666667" cy="152.96" fill="rgb(83, 204, 150)" r="3" /><circle cx="240.80" cy="406.30" fill="rgb(105, 45, 150)" r="3" /><circle cx="206.4" cy="391.96" fill="rgb(90, 54, 150)" r="3" /><circle cx="460.96" cy="333.0066666666666666666666667" fill="rgb(201, 91, 150)" r="3" /><circle cx="252.2666666666666666666666667" cy="264.4933333333333333333333333" fill="rgb(110, 134, 150)" r="3" /><circle cx="497.6533333333333333333333333" cy="331.4133333333333333333333333" fill="rgb(217, 92, 150)" r="3" /><circle cx="410.5066666666666666666666667" cy="195.98" fill="rgb(179, 177, 150)" r="3" /><circle cx="94.02666666666666666666666669" cy="288.3933333333333333333333333" fill="rgb(41, 119, 150)" r="3" /><circle cx="350.88" cy="347.3466666666666666666666667" fill="rgb(153, 82, 150)" r="3" /><circle cx="527.4666666666666666666666667" cy="317.0733333333333333333333333" fill="rgb(230, 101, 150)" r="3" /><circle cx="382.9866666666666666666666667" cy="122.6866666666666666666666667" fill="rgb(167, 223, 150)" r="3" /><circle cx="277.4933333333333333333333333" cy="165.7066666666666666666666667" fill="rgb(121, 196, 150)" r="3" /><circle cx="123.84" cy="420.64" fill="rgb(54, 36, 150)" r="3" /><circle cx="151.36" cy="248.56" fill="rgb(66, 144, 150)" r="3" /><circle cx="183.4666666666666666666666667" cy="401.52" fill="rgb(80, 48, 150)" r="3" /><circle cx="279.7866666666666666666666667" cy="376.0266666666666666666666667" fill="rgb(122, 64, 150)" r="3" /><circle cx="392.16" cy="213.5066666666666666666666667" fill="rgb(171, 166, 150)" r="3" /><circle cx="61.92" cy="227.8466666666666666666666667" fill="rgb(27, 157, 150)" r="3" /><circle cx="447.20" cy="360.0933333333333333333333333" fill="rgb(195, 74, 150)" r="3" /><circle cx="71.09333333333333333333333331" cy="114.72" fill="rgb(31, 228, 150)" r="3" /><circle cx="2.293333333333333333333333333" cy="224.66" fill="rgb(1, 159, 150)" r="3" /><circle cx="327.9466666666666666666666667" cy="113.1266666666666666666666667" fill="rgb(143, 229, 150)" r="3" /><circle cx="410.5066666666666666666666667" cy="299.5466666666666666666666667" fill="rgb(179, 112, 150)" r="3" /><circle cx="316.48" cy="138.62" fill="rgb(138, 213, 150)" r="3" /><circle cx="192.64" cy="205.54" fill="rgb(84, 171, 150)" r="3" /><circle cx="165.12" cy="289.9866666666666666666666667" fill="rgb(72, 118, 150)" r="3" /><circle cx="263.7333333333333333333333333" cy="146.5866666666666666666666667" fill="rgb(115, 208, 150)" r="3" /><circle cx="105.4933333333333333333333333" cy="121.0933333333333333333333333" fill="rgb(46, 224, 150)" r="3" /><circle cx="9.173333333333333333333333331" cy="345.7533333333333333333333333" fill="rgb(4, 83, 150)" r="3" /><circle cx="371.52" cy="423.8266666666666666666666667" fill="rgb(162, 34, 150)" r="3" /><circle cx="266.0266666666666666666666667" cy="86.04" fill="rgb(116, 246, 150)" r="3" /><circle cx="346.2933333333333333333333333" cy="250.1533333333333333333333333" fill="rgb(151, 143, 150)" r="3" /><circle cx="210.9866666666666666666666667" cy="369.6533333333333333333333333" fill="rgb(92, 68, 150)" r="3" /><circle cx="114.6666666666666666666666667" cy="417.4533333333333333333333333" fill="rgb(50, 38, 150)" r="3" /><circle cx="456.3733333333333333333333333" cy="352.1266666666666666666666667" fill="rgb(199, 79, 150)" r="3" /><circle cx="571.04" cy="463.66" fill="rgb(249, 9, 150)" r="3" /><circle cx="318.7733333333333333333333333" cy="393.5533333333333333333333333" fill="rgb(139, 53, 150)" r="3" /><circle cx="128.4266666666666666666666667" cy="293.1733333333333333333333333" fill="rgb(56, 116, 150)" r="3" /><circle cx="61.92" cy="325.04" fill="rgb(27, 96, 150)" r="3" /><circle cx="538.9333333333333333333333333" cy="458.88" fill="rgb(235, 12, 150)" r="3" /><circle cx="410.5066666666666666666666667" cy="299.5466666666666666666666667" fill="rgb(179, 112, 150)" r="3" /><circle cx="536.64" cy="106.7533333333333333333333333" fill="rgb(234, 233, 150)" r="3" /><circle cx="55.04" cy="430.2" fill="rgb(24, 30, 150)" r="3" /><circle cx="84.85333333333333333333333331" cy="137.0266666666666666666666667" fill="rgb(37, 214, 150)" r="3" /><circle cx="376.1066666666666666666666667" cy="274.0533333333333333333333333" fill="rgb(164, 128, 150)" r="3" /><circle cx="277.4933333333333333333333333" cy="245.3733333333333333333333333" fill="rgb(121, 146, 150)" r="3" /><circle cx="344.0" cy="125.8733333333333333333333333" fill="rgb(150, 221, 150)" r="3" /><circle cx="204.1066666666666666666666667" cy="256.5266666666666666666666667" fill="rgb(89, 139, 150)" r="3" /><circle cx="401.3333333333333333333333333" cy="197.5733333333333333333333333" fill="rgb(175, 176, 150)" r="3" /><circle cx="490.7733333333333333333333333" cy="353.72" fill="rgb(214, 78, 150)" r="3" /><circle cx="486.1866666666666666666666667" cy="352.1266666666666666666666667" fill="rgb(212, 79, 150)" r="3" /><circle cx="277.4933333333333333333333333" cy="458.88" fill="rgb(121, 12, 150)" r="3" /><circle cx="112.3733333333333333333333333" cy="135.4333333333333333333333333" fill="rgb(49, 215, 150)" r="3" /><circle cx="80.26666666666666666666666669" cy="328.2266666666666666666666667" fill="rgb(35, 94, 150)" r="3" /><circle cx="84.85333333333333333333333331" cy="301.14" fill="rgb(37, 111, 150)" r="3" /><circle cx="144.48" cy="106.7533333333333333333333333" fill="rgb(63, 233, 150)" r="3" /><circle cx="25.22666666666666666666666667" cy="246.9666666666666666666666667" fill="rgb(11, 145, 150)" r="3" /><circle cx="431.1466666666666666666666667" cy="282.02" fill="rgb(188, 123, 150)" r="3" /><circle cx="185.76" cy="321.8533333333333333333333333" fill="rgb(81, 98, 150)" r="3" /><circle cx="373.8133333333333333333333333" cy="250.1533333333333333333333333" fill="rgb(163, 143, 150)" r="3" /><circle cx="421.9733333333333333333333333" cy="152.96" fill="rgb(184, 204, 150)" r="3" /><circle cx="112.3733333333333333333333333" cy="129.06" fill="rgb(49, 219, 150)" r="3" /><circle cx="116.96" cy="307.5133333333333333333333333" fill="rgb(51, 107, 150)" r="3" /><circle cx="389.8666666666666666666666667" cy="219.88" fill="rgb(170, 162, 150)" r="3" /><circle cx="529.76" cy="326.6333333333333333333333333" fill="rgb(231, 95, 150)" r="3" /><circle cx="100.9066666666666666666666667" cy="473.22" fill="rgb(44, 3, 150)" r="3" /><circle cx="27.52" cy="259.7133333333333333333333333" fill="rgb(12, 137, 150)" r="3" /><circle cx="463.2533333333333333333333333" cy="223.0666666666666666666666667" fill="rgb(202, 160, 150)" r="3" /><circle cx="112.3733333333333333333333333" cy="242.1866666666666666666666667" fill="rgb(49, 148, 150)" r="3" /><circle cx="217.8666666666666666666666667" cy="458.88" fill="rgb(95, 12, 150)" r="3" /><circle cx="502.24" cy="269.2733333333333333333333333" fill="rgb(219, 131, 150)" r="3" /><circle cx="243.0933333333333333333333333" cy="289.9866666666666666666666667" fill="rgb(106, 118, 150)" r="3" /><circle cx="559.5733333333333333333333333" cy="109.94" fill="rgb(244, 231, 150)" r="3" /><circle cx="499.9466666666666666666666667" cy="215.10" fill="rgb(218, 165, 150)" r="3" /><circle cx="224.7466666666666666666666667" cy="404.7066666666666666666666667" fill="rgb(98, 46, 150)" r="3" /><circle cx="318.7733333333333333333333333" cy="124.28" fill="rgb(139, 222, 150)" r="3" /><circle cx="121.5466666666666666666666667" cy="135.4333333333333333333333333" fill="rgb(53, 215, 150)" r="3" /><circle cx="282.08" cy="156.1466666666666666666666667" fill="rgb(123, 202, 150)" r="3" /><circle cx="27.52" cy="283.6133333333333333333333333" fill="rgb(12, 122, 150)" r="3" /><circle cx="360.0533333333333333333333333" cy="294.7666666666666666666666667" fill="rgb(157, 115, 150)" r="3" /><circle cx="130.72" cy="231.0333333333333333333333333" fill="rgb(57, 155, 150)" r="3" /><circle cx="506.8266666666666666666666667" cy="361.6866666666666666666666667" fill="rgb(221, 73, 150)" r="3" /><circle cx="256.8533333333333333333333333" cy="87.6333333333333333333333333" fill="rgb(112, 245, 150)" r="3" /><circle cx="472.4266666666666666666666667" cy="133.84" fill="rgb(206, 216, 150)" r="3" /><circle cx="206.4" cy="79.6666666666666666666666667" fill="rgb(90, 250, 150)" r="3" /><circle cx="545.8133333333333333333333333" cy="216.6933333333333333333333333" fill="rgb(238, 164, 150)" r="3" /><circle cx="472.4266666666666666666666667" cy="304.3266666666666666666666667" fill="rgb(206, 109, 150)" r="3" /><circle cx="224.7466666666666666666666667" cy="466.8466666666666666666666667" fill="rgb(98, 7, 150)" r="3" /><circle cx="479.3066666666666666666666667" cy="221.4733333333333333333333333" fill="rgb(209, 161, 150)" r="3" /><circle cx="149.0666666666666666666666667" cy="160.9266666666666666666666667" fill="rgb(65, 199, 150)" r="3" /><circle cx="538.9333333333333333333333333" cy="350.5333333333333333333333333" fill="rgb(235, 80, 150)" r="3" /><circle cx="155.9466666666666666666666667" cy="116.3133333333333333333333333" fill="rgb(68, 227, 150)" r="3" /><circle cx="243.0933333333333333333333333" cy="450.9133333333333333333333333" fill="rgb(106, 17, 150)" r="3" /><circle cx="357.76" cy="360.0933333333333333333333333" fill="rgb(156, 74, 150)" r="3" /><circle cx="247.68" cy="328.2266666666666666666666667" fill="rgb(108, 94, 150)" r="3" /><circle cx="300.4266666666666666666666667" cy="286.8" fill="rgb(131, 120, 150)" r="3" /><circle cx="518.2933333333333333333333333" cy="113.1266666666666666666666667" fill="rgb(226, 229, 150)" r="3" /></g></g></g></g></g></g></svg>