<?xml version="1.0" standalone="no"?>
<!DOCTYPE svg PUBLIC "-//W3C//DTD SVG 1.1//EN"
"http://www.w3.org/Graphics/SVG/1.1/DTD/svg11.dtd">
<svg height="600" version="1.1" width="800" xmlns="http://www.w3.org/2000/svg"><g><rect fill="#f9f9f9" height="600" width="800" x="0" y="0" /><g transform="translate(40 40)"><g transform="translate(32 0)"><text fill="#333" font-family="Monaco" font-size="16" x="0" y="0">Colorized dots</text></g><g transform="translate(0 20)"><g transform="translate(32 0)"><g class="axis bottom"><g class="tick"><line stroke="#eee" stroke-width="1" x1="229.3333333333333333333333333" x2="229.3333333333333333333333333" y1="0" y2="482.0" /><text dy="1em" fill="#9c9c9c" font-family="Monaco" text-anchor="middle" x="229.3333333333333333333333333" y="486.0">100</text></g><g class="tick"><line stroke="#eee" stroke-width="1" x1="458.6666666666666666666666667" x2="458.6666666666666666666666667" y1="0" y2="482.0" /><text dy="1em" fill="#9c9c9c" font-family="Monaco" text-anchor="middle" x="458.6666666666666666666666667" y="486.0">200</text></g><g class="tick"><line stroke="#eee" stroke-width="1" x1="688" x2="688" y1="0" y2="482.0" /><text dy="1em" fill="#9c9c9c" font-family="Monaco" text-anchor="middle" x="688" y="486.0">300</text></g><g class="tick"><line stroke="#a8a8a8" stroke-width="1" x1="0" x2="0" y1="0" y2="482.0" /><text dy="1em" fill="#9c9c9c" font-family="Monaco" text-anchor="middle" x="0" y="486.0">0</text></g></g><g class="axis left"><g class="tick"><line stroke="#eee" stroke-width="1" x1="-4" x2="688.0" y1="318.6666666666666666666666667" y2="318.6666666666666666666666667" /><text dy="0.32em" fill="#9c9c9c" font-family="Monaco" text-anchor="end" x="-8" y="318.6666666666666666666666667">100</text></g><g class="tick"><line stroke="#eee" stroke-width="1" x1="-4" x2="688.0" y1="159.3333333333333333333333333" y2="159.3333333333333333333333333" /><text dy="0.32em" fill="#9c9c9c" font-family="Monaco" text-anchor="end" x="-8" y="159.3333333333333333333333333">200</text></g><g class="tick"><line stroke="#eee" stroke-width="1" x1="-4" x2="688.0" y1="0" y2="0" /><text dy="0.32em" fill="#9c9c9c" font-family="Monaco" text-anchor="end" x="-8" y="0">300</text></g><g class="tick"><line stroke="#a8a8a8" stroke-width="1" x1="-4" x2="688.0" y1="478" y2="478" /><text dy="0.32em" fill="#9c9c9c" font-family="Monaco" text-anchor="end" x="-8" y="478">0</text></g></g><g><g class="series dots"><circle cx="486.1866666666666666666666667" cy="231.0333333333333333333333333" fill="rgb(212, 155, 150)" r="3" /><circle cx="158.24" cy="160.9266666666666666666666667" fill="rgb(69, 199, 150)" r="3" /><circle cx="334.8266666666666666666666667" cy="425.42" fill="rgb(146, 33, 150)" r="3" /><circle cx="472.4266666666666666666666667" cy="379.2133333333333333333333333" fill="rgb(206, 62, 150)" r="3" /><circle cx="405.92" cy="259.7133333333333333333333333" fill="rgb(177, 137, 150)" r="3" /><circle cx="107.7866666666666666666666667" cy="98.7866666666666666666666667" fill="rgb(47, 238, 150)" r="3" /><circle cx="231.6266666666666666666666667" cy="356.9066666666666666666666667" fill="rgb(101, 76, 150)" r="3" /><circle cx="149.0666666666666666666666667" cy="125.8733333333333333333333333" fill="rgb(65, 221, 150)" r="3" /><circle cx="167.4133333333333333333333333" cy="129.06" fill="rgb(73, 219, 150)" r="3" /><circle cx="440.32" cy="262.90" fill="rgb(192, 135, 150)" r="3" /><circle cx="364.64" cy="205.54" fill="rgb(159, 171, 150)" r="3" /><circle cx="142.1866666666666666666666667" cy="141.8066666666666666666666667" fill="rgb(62, 211, 150)" r="3" /><circle cx="458.6666666666666666666666667" cy="226.2533333333333333333333333" fill="rgb(200, 158, 150)" r="3" /><circle cx="552.6933333333333333333333333" cy="106.7533333333333333333333333" fill="rgb(241, 233, 150)" r="3" /><circle cx="440.32" cy="199.1666666666666666666666667" fill="rgb(192, 175, 150)" r="3" /><circle cx="463.2533333333333333333333333" cy="442.9466666666666666666666667" fill="rgb(202, 22, 150)" r="3" /><circle cx="98.61333333333333333333333331" cy="383.9933333333333333333333333" fill="rgb(43, 59, 150)" r="3" /><circle cx="55.04" cy="444.54" fill="rgb(24, 21, 150)" r="3" /><circle cx="48.16" cy="245.3733333333333333333333333" fill="rgb(21, 146, 150)" r="3" /><circle cx="87.14666666666666666666666669" cy="175.2666666666666666666666667" fill="rgb(38, 190, 150)" r="3" /><circle cx="454.08" cy="140.2133333333333333333333333" fill="rgb(198, 212, 150)" r="3" /><circle cx="348.5866666666666666666666667" cy="111.5333333333333333333333333" fill="rgb(152, 230, 150)" r="3" /><circle cx="300.4266666666666666666666667" cy="305.92" fill="rgb(131, 108, 150)" r="3" /><circle cx="552.6933333333333333333333333" cy="458.88" fill="rgb(241, 12, 150)" r="3" /><circle cx="135.3066666666666666666666667" cy="156.1466666666666666666666667" fill="rgb(59, 202, 150)" r="3" /><circle cx="247.68" cy="184.8266666666666666666666667" fill="rgb(108, 184, 150)" r="3" /><circle cx="123.84" cy="205.54" fill="rgb(54, 171, 150)" r="3" /><circle cx="2.293333333333333333333333333" cy="458.88" fill="rgb(1, 12, 150)" r="3" /><circle cx="249.9733333333333333333333333" cy="168.8933333333333333333333333" fill="rgb(109, 194, 150)" r="3" /><circle cx="155.9466666666666666666666667" cy="124.28" fill="rgb(68, 222, 150)" r="3" /><circle cx="68.8" cy="242.1866666666666666666666667" fill="rgb(30, 148, 150)" r="3" /><circle cx="428.8533333333333333333333333" cy="329.82" fill="rgb(187, 93, 150)" r="3" /><circle cx="465.5466666666666666666666667" cy="430.2" fill="rgb(203, 30, 150)" r="3" /><circle cx="314.1866666666666666666666667" cy="315.48" fill="rgb(137, 102, 150)" r="3" /><circle cx="197.2266666666666666666666667" cy="382.4" fill="rgb(86, 60, 150)" r="3" /><circle cx="215.5733333333333333333333333" cy="422.2333333333333333333333333" fill="rgb(94, 35, 150)" r="3" /><circle cx="373.8133333333333333333333333" cy="116.3133333333333333333333333" fill="rgb(163, 227, 150)" r="3" /><circle cx="172.00" cy="192.7933333333333333333333333" fill="rgb(75, 179, 150)" r="3" /><circle cx="169.7066666666666666666666667" cy="366.4666666666666666666666667" fill="rgb(74, 70, 150)" r="3" /><circle cx="552.6933333333333333333333333" cy="430.2" fill="rgb(241, 30, 150)" r="3" /><circle cx="499.9466666666666666666666667" cy="218.2866666666666666666666667" fill="rgb(218, 163, 150)" r="3" /><circle cx="401.3333333333333333333333333" cy="425.42" fill="rgb(175, 33, 150)" r="3" /><circle cx="121.5466666666666666666666667" cy="258.12" fill="rgb(53, 138, 150)" r="3" /><circle cx="364.64" cy="299.5466666666666666666666667" fill="rgb(159, 112, 150)" r="3" /><circle cx="337.12" cy="218.2866666666666666666666667" fill="rgb(147, 163, 150)" r="3" /><circle cx="456.3733333333333333333333333" cy="462.0666666666666666666666667" fill="rgb(199, 10, 150)" r="3" /><circle cx="100.9066666666666666666666667" cy="221.4733333333333333333333333" fill="rgb(44, 161, 150)" r="3" /><circle cx="133.0133333333333333333333333" cy="321.8533333333333333333333333" fill="rgb(58, 98, 150)" r="3" /><circle cx="532.0533333333333333333333333" cy="98.7866666666666666666666667" fill="rgb(232, 238, 150)" r="3" /><circle cx="27.52" cy="170.4866666666666666666666667" fill="rgb(12, 193, 150)" r="3" /><circle cx="440.32" cy="261.3066666666666666666666667" fill="rgb(192, 136, 150)" r="3" /><circle cx="369.2266666666666666666666667" cy="313.8866666666666666666666667" fill="rgb(161, 103, 150)" r="3" /><circle cx="48.16" cy="415.86" fill="rgb(21, 39, 150)" r="3" /><circle cx="516.00" cy="446.1333333333333333333333333" fill="rgb(225, 20, 150)" r="3" /><circle cx="107.7866666666666666666666667" cy="168.8933333333333333333333333" fill="rgb(47, 194, 150)" r="3" /><circle cx="149.0666666666666666666666667" cy="90.82" fill="rgb(65, 243, 150)" r="3" /><circle cx="564.16" cy="144.9933333333333333333333333" fill="rgb(246, 209, 150)" r="3" /><circle cx="123.84" cy="253.34" fill="rgb(54, 141, 150)" r="3" /><circle cx="41.28" cy="411.08" fill="rgb(18, 42, 150)" r="3" /><circle cx="373.8133333333333333333333333" cy="227.8466666666666666666666667" fill="rgb(163, 157, 150)" r="3" /><circle cx="249.9733333333333333333333333" cy="328.2266666666666666666666667" fill="rgb(109, 94, 150)" r="3" /><circle cx="495.36" cy="108.3466666666666666666666667" fill="rgb(216, 232, 150)" r="3" /><circle cx="210.9866666666666666666666667" cy="251.7466666666666666666666667" fill="rgb(92, 142, 150)" r="3" /><circle cx="536.64" cy="344.16" fill="rgb(234, 84, 150)" r="3" /><circle cx="380.6933333333333333333333333" cy="223.0666666666666666666666667" fill="rgb(166, 160, 150)" r="3" /><circle cx="204.1066666666666666666666667" cy="310.70" fill="rgb(89, 105, 150)" r="3" /><circle cx="311.8933333333333333333333333" cy="364.8733333333333333333333333" fill="rgb(136, 71, 150)" r="3" /><circle cx="373.8133333333333333333333333" cy="353.72" fill="rgb(163, 78, 150)" r="3" /><circle cx="302.72" cy="476.4066666666666666666666667" fill="rgb(132, 1, 150)" r="3" /><circle cx="474.72" cy="310.70" fill="rgb(207, 105, 150)" r="3" /><circle cx="564.16" cy="404.7066666666666666666666667" fill="rgb(246, 46, 150)" r="3" /><circle cx="36.69333333333333333333333333" cy="226.2533333333333333333333333" fill="rgb(16, 158, 150)" r="3" /><circle cx="366.9333333333333333333333333" cy="192.7933333333333333333333333" fill="rgb(160, 179, 150)" r="3" /><circle cx="236.2133333333333333333333333" cy="105.16" fill="rgb(103, 234, 150)" r="3" /><circle cx="213.28" cy="466.8466666666666666666666667" fill="rgb(93, 7, 150)" r="3" /><circle cx="493.0666666666666666666666667" cy="337.7866666666666666666666667" fill="rgb(215, 88, 150)" r="3" /><circle cx="169.7066666666666666666666667" cy="274.0533333333333333333333333" fill="rgb(74, 128, 150)" r="3" /><circle cx="472.4266666666666666666666667" cy="246.9666666666666666666666667" fill="rgb(206, 145, 150)" r="3" /><circle cx="499.9466666666666666666666667" cy="434.98" fill="rgb(218, 27, 150)" r="3" /><circle cx="68.8" cy="297.9533333333333333333333333" fill="rgb(30, 113, 150)" r="3" /><circle cx="295.84" cy="387.18" fill="rgb(129, 57, 150)" r="3" /><circle cx="71.09333333333333333333333331" cy="81.26" fill="rgb(31, 249, 150)" r="3" /><circle cx="392.16" cy="369.6533333333333333333333333" fill="rgb(171, 68, 150)" r="3" /><circle cx="341.7066666666666666666666667" cy="356.9066666666666666666666667" fill="rgb(149, 76, 150)" r="3" /><circle cx="217.8666666666666666666666667" cy="457.2866666666666666666666667" fill="rgb(95, 13, 150)" r="3" /><circle cx="511.4133333333333333333333333" cy="152.96" fill="rgb(223, 204, 150)" r="3" /><circle cx="456.3733333333333333333333333" cy="305.92" fill="rgb(199, 108, 150)" r="3" /><circle cx="568.7466666666666666666666667" cy="173.6733333333333333333333333" fill="rgb(248, 191, 150)" r="3" /><circle cx="568.7466666666666666666666667" cy="262.90" fill="rgb(248, 135, 150)" r="3" /><circle cx="376.1066666666666666666666667" cy="318.6666666666666666666666667" fill="rgb(164, 100, 150)" r="3" /><circle cx="536.64" cy="175.2666666666666666666666667" fill="rgb(234, 190, 150)" r="3" /><circle cx="277.4933333333333333333333333" cy="361.6866666666666666666666667" fill="rgb(121, 73, 150)" r="3" /><circle cx="493.0666666666666666666666667" cy="474.8133333333333333333333333" fill="rgb(215, 2, 150)" r="3" /><circle cx="25.22666666666666666666666667" cy="282.02" fill="rgb(11, 123, 150)" r="3" /><circle cx="483.8933333333333333333333333" cy="154.5533333333333333333333333" fill="rgb(211, 203, 150)" r="3" /><circle cx="389.8666666666666666666666667" cy="364.8733333333333333333333333" fill="rgb(170, 71, 150)" r="3" /><circle cx="486.1866666666666666666666667" cy="433.3866666666666666666666667" fill="rgb(212, 28, 150)" r="3" /><circle cx="16.05333333333333333333333333" cy="417.4533333333333333333333333" fill="rgb(7, 38, 150)" r="3" /><circle cx="222.4533333333333333333333333" cy="84.4466666666666666666666667" fill="rgb(97, 247, 150)" r="3" /><circle cx="185.76" cy="143.4" fill="rgb(81, 210, 150)" r="3" /></g></g></g></g></g></g></svg>