<?xml version="1.0" standalone="no"?>
<!DOCTYPE svg PUBLIC "-//W3C//DTD SVG 1.1//EN"
"http://www.w3.org/Graphics/SVG/1.1/DTD/svg11.dtd">
<svg height="600" version="1.1" width="800" xmlns="http://www.w3.org/2000/svg"><g><rect fill="#f9f9f9" height="600" width="800" x="0" y="0" /><g transform="translate(40 40)"><g transform="translate(48 0)"><text fill="#333" font-family="Monaco" font-size="16" x="0" y="0">Colorized dots</text></g><g transform="translate(0 20)"><g transform="translate(48 0)"><g class="axis bottom"><text dy="1em" fill="#333" font-family="Monaco" text-anchor="middle" transform="" x="336.0" y="508.0" /><g class="tick"><line stroke="#a8a8a8" stroke-width="1" x1="0.0" x2="0.0" y1="0" y2="482.0" /><text dy="1em" fill="#9c9c9c" font-family="Monaco" text-anchor="middle" x="0.0" y="486.0">0.0</text></g><g class="tick"><line stroke="#eee" stroke-width="1" x1="168.0" x2="168.0" y1="0" y2="482.0" /><text dy="1em" fill="#9c9c9c" font-family="Monaco" text-anchor="middle" x="168.0" y="486.0">61.5</text></g><g class="tick"><line stroke="#eee" stroke-width="1" x1="336.0" x2="336.0" y1="0" y2="482.0" /><text dy="1em" fill="#9c9c9c" font-family="Monaco" text-anchor="middle" x="336.0" y="486.0">123.0</text></g><g class="tick"><line stroke="#eee" stroke-width="1" x1="504.0" x2="504.0" y1="0" y2="482.0" /><text dy="1em" fill="#9c9c9c" font-family="Monaco" text-anchor="middle" x="504.0" y="486.0">184.5</text></g><g class="tick"><line stroke="#eee" stroke-width="1" x1="672.0" x2="672.0" y1="0" y2="482.0" /><text dy="1em" fill="#9c9c9c" font-family="Monaco" text-anchor="middle" x="672.0" y="486.0">246.0</text></g></g><g class="axis left"><text dy="" fill="#333" font-family="Monaco" text-anchor="middle" transform="rotate(270 -48 239)" x="-48" y="239.0" /><g class="tick"><line stroke="#a8a8a8" stroke-width="1" x1="-4" x2="672.0" y1="478.0" y2="478.0" /><text dy="0.32em" fill="#9c9c9c" font-family="Monaco" text-anchor="end" x="-8" y="478.0">0.0</text></g><g class="tick"><line stroke="#eee" stroke-width="1" x1="-4" x2="672.0" y1="358.5" y2="358.5" /><text dy="0.32em" fill="#9c9c9c" font-family="Monaco" text-anchor="end" x="-8" y="358.5">61.5</text></g><g class="tick"><line stroke="#eee" stroke-width="1" x1="-4" x2="672.0" y1="239.0" y2="239.0" /><text dy="0.32em" fill="#9c9c9c" font-family="Monaco" text-anchor="end" x="-8" y="239.0">123.0</text></g><g class="tick"><line stroke="#eee" stroke-width="1" x1="-4" x2="672.0" y1="119.5" y2="119.5" /><text dy="0.32em" fill="#9c9c9c" font-family="Monaco" text-anchor="end" x="-8" y="119.5">184.5</text></g><g class="tick"><line stroke="#eee" stroke-width="1" x1="-4" x2="672.0" y1="0.0" y2="0.0" /><text dy="0.32em" fill="#9c9c9c" font-family="Monaco" text-anchor="end" x="-8" y="0.0">246.0</text></g></g><g><g class="series dots"><circle cx="191.21951219512195" cy="235.11382113821136" fill="rgb(70, 125, 150)" r="3" /><circle cx="576.390243902439" cy="448.8536585365854" fill="rgb(211, 15, 150)" r="3" /><circle cx="68.29268292682927" cy="68.00813008130086" fill="rgb(25, 211, 150)" r="3" /><circle cx="308.6829268292683" cy="40.804878048780495" fill="rgb(113, 225, 150)" r="3" /><circle cx="24.585365853658534" cy="266.2032520325203" fill="rgb(9, 109, 150)" r="3" /><circle cx="106.53658536585365" cy="11.65853658536588" fill="rgb(39, 240, 150)" r="3" /><circle cx="270.4390243902439" cy="371.130081300813" fill="rgb(99, 55, 150)" r="3" /><circle cx="24.585365853658534" cy="180.7073170731707" fill="rgb(9, 153, 150)" r="3" /><circle cx="155.70731707317074" cy="458.5691056910569" fill="rgb(57, 10, 150)" r="3" /><circle cx="38.24390243902439" cy="42.7479674796748" fill="rgb(14, 224, 150)" r="3" /><circle cx="382.4390243902439" cy="167.1056910569106" fill="rgb(140, 160, 150)" r="3" /><circle cx="529.951219512195" cy="118.52845528455282" fill="rgb(194, 185, 150)" r="3" /><circle cx="114.73170731707317" cy="31.089430894308975" fill="rgb(42, 230, 150)" r="3" /><circle cx="426.1463414634146" cy="221.5121951219512" fill="rgb(156, 132, 150)" r="3" /><circle cx="311.4146341463415" cy="104.92682926829269" fill="rgb(114, 192, 150)" r="3" /><circle cx="655.609756097561" cy="194.3089430894309" fill="rgb(240, 146, 150)" r="3" /><circle cx="510.8292682926829" cy="145.7317073170732" fill="rgb(187, 171, 150)" r="3" /><circle cx="357.8536585365853" cy="285.6341463414634" fill="rgb(131, 99, 150)" r="3" /><circle cx="295.0243902439024" cy="444.9674796747968" fill="rgb(108, 17, 150)" r="3" /><circle cx="226.7317073170732" cy="256.4878048780488" fill="rgb(83, 114, 150)" r="3" /><circle cx="125.65853658536585" cy="116.58536585365852" fill="rgb(46, 186, 150)" r="3" /><circle cx="128.39024390243904" cy="390.5609756097561" fill="rgb(47, 45, 150)" r="3" /><circle cx="409.7560975609756" cy="340.040650406504" fill="rgb(150, 71, 150)" r="3" /><circle cx="617.3658536585366" cy="330.3252032520325" fill="rgb(226, 76, 150)" r="3" /><circle cx="286.8292682926829" cy="400.2764227642276" fill="rgb(105, 40, 150)" r="3" /><circle cx="180.2926829268293" cy="417.7642276422764" fill="rgb(66, 31, 150)" r="3" /><circle cx="131.1219512195122" cy="338.0975609756098" fill="rgb(48, 72, 150)" r="3" /><circle cx="196.68292682926827" cy="159.33333333333337" fill="rgb(72, 164, 150)" r="3" /><circle cx="581.8536585365854" cy="244.82926829268294" fill="rgb(213, 120, 150)" r="3" /><circle cx="308.6829268292683" cy="147.6747967479675" fill="rgb(113, 170, 150)" r="3" /><circle cx="647.4146341463414" cy="58.292682926829286" fill="rgb(237, 216, 150)" r="3" /><circle cx="204.8780487804878" cy="478.0" fill="rgb(75, 0, 150)" r="3" /><circle cx="639.219512195122" cy="332.2682926829268" fill="rgb(234, 75, 150)" r="3" /><circle cx="218.53658536585365" cy="11.65853658536588" fill="rgb(80, 240, 150)" r="3" /><circle cx="352.390243902439" cy="435.2520325203252" fill="rgb(129, 22, 150)" r="3" /><circle cx="54.63414634146341" cy="31.089430894308975" fill="rgb(20, 230, 150)" r="3" /><circle cx="620.0975609756098" cy="468.2845528455285" fill="rgb(227, 5, 150)" r="3" /><circle cx="524.4878048780488" cy="44.6910569105691" fill="rgb(192, 223, 150)" r="3" /><circle cx="565.4634146341464" cy="431.3658536585366" fill="rgb(207, 24, 150)" r="3" /><circle cx="672.0" cy="130.1869918699187" fill="rgb(246, 179, 150)" r="3" /><circle cx="431.609756097561" cy="62.178861788617894" fill="rgb(158, 214, 150)" r="3" /><circle cx="270.4390243902439" cy="134.0731707317073" fill="rgb(99, 177, 150)" r="3" /><circle cx="221.26829268292684" cy="172.9349593495935" fill="rgb(81, 157, 150)" r="3" /><circle cx="650.1463414634146" cy="394.4471544715447" fill="rgb(238, 43, 150)" r="3" /><circle cx="592.780487804878" cy="305.0650406504065" fill="rgb(217, 89, 150)" r="3" /><circle cx="84.68292682926828" cy="361.4146341463415" fill="rgb(31, 60, 150)" r="3" /><circle cx="379.70731707317077" cy="351.6991869918699" fill="rgb(139, 65, 150)" r="3" /><circle cx="163.90243902439025" cy="258.4308943089431" fill="rgb(60, 113, 150)" r="3" /><circle cx="546.3414634146342" cy="0.0" fill="rgb(200, 246, 150)" r="3" /><circle cx="60.09756097560976" cy="308.95121951219517" fill="rgb(22, 87, 150)" r="3" /><circle cx="655.609756097561" cy="231.22764227642278" fill="rgb(240, 127, 150)" r="3" /><circle cx="538.1463414634146" cy="328.3821138211382" fill="rgb(197, 77, 150)" r="3" /><circle cx="54.63414634146341" cy="170.99186991869914" fill="rgb(20, 158, 150)" r="3" /><circle cx="494.43902439024384" cy="285.6341463414634" fill="rgb(181, 99, 150)" r="3" /><circle cx="587.3170731707318" cy="435.2520325203252" fill="rgb(215, 22, 150)" r="3" /><circle cx="666.5365853658536" cy="386.6747967479675" fill="rgb(244, 47, 150)" r="3" /><circle cx="644.6829268292682" cy="295.349593495935" fill="rgb(236, 94, 150)" r="3" /><circle cx="641.9512195121952" cy="431.3658536585366" fill="rgb(235, 24, 150)" r="3" /><circle cx="661.0731707317074" cy="470.2276422764228" fill="rgb(242, 4, 150)" r="3" /><circle cx="655.609756097561" cy="64.1219512195122" fill="rgb(240, 213, 150)" r="3" /><circle cx="202.14634146341464" cy="295.349593495935" fill="rgb(74, 94, 150)" r="3" /><circle cx="5.463414634146342" cy="114.64227642276427" fill="rgb(2, 187, 150)" r="3" /><circle cx="467.12195121951214" cy="169.0487804878049" fill="rgb(171, 159, 150)" r="3" /><circle cx="570.9268292682927" cy="468.2845528455285" fill="rgb(209, 5, 150)" r="3" /><circle cx="488.9756097560976" cy="3.8861788617886646" fill="rgb(179, 244, 150)" r="3" /><circle cx="669.2682926829268" cy="58.292682926829286" fill="rgb(245, 216, 150)" r="3" /><circle cx="292.29268292682923" cy="13.601626016260184" fill="rgb(107, 239, 150)" r="3" /><circle cx="81.95121951219512" cy="1.9430894308943039" fill="rgb(30, 245, 150)" r="3" /><circle cx="49.17073170731707" cy="207.91056910569102" fill="rgb(18, 139, 150)" r="3" /><circle cx="81.95121951219512" cy="215.6829268292683" fill="rgb(30, 135, 150)" r="3" /><circle cx="398.8292682926829" cy="423.5934959349594" fill="rgb(146, 28, 150)" r="3" /><circle cx="196.68292682926827" cy="25.260162601626007" fill="rgb(72, 233, 150)" r="3" /><circle cx="152.97560975609755" cy="102.98373983739839" fill="rgb(56, 193, 150)" r="3" /><circle cx="300.4878048780488" cy="223.45528455284554" fill="rgb(110, 131, 150)" r="3" /><circle cx="505.3658536585366" cy="328.3821138211382" fill="rgb(185, 77, 150)" r="3" /><circle cx="308.6829268292683" cy="373.0731707317073" fill="rgb(113, 54, 150)" r="3" /><circle cx="595.5121951219512" cy="359.4715447154472" fill="rgb(218, 61, 150)" r="3" /><circle cx="428.8780487804878" cy="252.60162601626016" fill="rgb(157, 116, 150)" r="3" /><circle cx="393.36585365853654" cy="425.5365853658537" fill="rgb(144, 27, 150)" r="3" /><circle cx="360.5853658536586" cy="423.5934959349594" fill="rgb(132, 28, 150)" r="3" /><circle cx="84.68292682926828" cy="227.34146341463415" fill="rgb(31, 129, 150)" r="3" /><circle cx="333.2682926829268" cy="77.72357723577238" fill="rgb(122, 206, 150)" r="3" /><circle cx="442.5365853658537" cy="211.7967479674797" fill="rgb(162, 137, 150)" r="3" /><circle cx="609.170731707317" cy="106.869918699187" fill="rgb(223, 191, 150)" r="3" /><circle cx="450.7317073170732" cy="359.4715447154472" fill="rgb(165, 61, 150)" r="3" /><circle cx="631.0243902439024" cy="262.3170731707317" fill="rgb(231, 111, 150)" r="3" /><circle cx="499.9024390243902" cy="402.219512195122" fill="rgb(183, 39, 150)" r="3" /><circle cx="434.3414634146342" cy="0.0" fill="rgb(159, 246, 150)" r="3" /><circle cx="199.41463414634146" cy="472.1707317073171" fill="rgb(73, 3, 150)" r="3" /><circle cx="188.4878048780488" cy="437.1951219512195" fill="rgb(69, 21, 150)" r="3" /><circle cx="486.2439024390244" cy="240.94308943089433" fill="rgb(178, 122, 150)" r="3" /><circle cx="248.58536585365854" cy="464.3983739837398" fill="rgb(91, 7, 150)" r="3" /><circle cx="327.8048780487805" cy="308.95121951219517" fill="rgb(120, 87, 150)" r="3" /><circle cx="420.68292682926824" cy="34.975609756097526" fill="rgb(154, 228, 150)" r="3" /><circle cx="390.6341463414634" cy="409.9918699186992" fill="rgb(143, 35, 150)" r="3" /><circle cx="295.0243902439024" cy="305.0650406504065" fill="rgb(108, 89, 150)" r="3" /><circle cx="374.2439024390244" cy="283.6910569105691" fill="rgb(137, 100, 150)" r="3" /><circle cx="346.9268292682927" cy="277.8617886178862" fill="rgb(127, 103, 150)" r="3" /><circle cx="147.5121951219512" cy="444.9674796747968" fill="rgb(54, 17, 150)" r="3" /><circle cx="330.5365853658537" cy="285.6341463414634" fill="rgb(121, 99, 150)" r="3" /></g></g></g></g></g></g></svg>