<?xml version="1.0" standalone="no"?>
<!DOCTYPE svg PUBLIC "-//W3C//DTD SVG 1.1//EN"
"http://www.w3.org/Graphics/SVG/1.1/DTD/svg11.dtd">
<svg height="600" version="1.1" width="800" xmlns="http://www.w3.org/2000/svg"><g><rect fill="#f9f9f9" height="600" width="800" x="0" y="0" /><g transform="translate(40 40)"><g transform="translate(32 0)"><text fill="#333" font-family="Monaco" font-size="16" x="0" y="0">Colorized dots</text></g><g transform="translate(0 20)"><g transform="translate(32 0)"><g class="axis bottom"><g class="tick"><line stroke="#eee" stroke-width="1" x1="229.3333333333333333333333333" x2="229.3333333333333333333333333" y1="0" y2="482.0" /><text dy="1em" fill="#9c9c9c" font-family="Monaco" text-anchor="middle" x="229.3333333333333333333333333" y="486.0">100</text></g><g class="tick"><line stroke="#eee" stroke-width="1" x1="458.6666666666666666666666667" x2="458.6666666666666666666666667" y1="0" y2="482.0" /><text dy="1em" fill="#9c9c9c" font-family="Monaco" text-anchor="middle" x="458.6666666666666666666666667" y="486.0">200</text></g><g class="tick"><line stroke="#eee" stroke-width="1" x1="688" x2="688" y1="0" y2="482.0" /><text dy="1em" fill="#9c9c9c" font-family="Monaco" text-anchor="middle" x="688" y="486.0">300</text></g><g class="tick"><line stroke="#a8a8a8" stroke-width="1" x1="0" x2="0" y1="0" y2="482.0" /><text dy="1em" fill="#9c9c9c" font-family="Monaco" text-anchor="middle" x="0" y="486.0">0</text></g></g><g class="axis left"><g class="tick"><line stroke="#eee" stroke-width="1" x1="-4" x2="688.0" y1="318.6666666666666666666666667" y2="318.6666666666666666666666667" /><text dy="0.32em" fill="#9c9c9c" font-family="Monaco" text-anchor="end" x="-8" y="318.6666666666666666666666667">100</text></g><g class="tick"><line stroke="#eee" stroke-width="1" x1="-4" x2="688.0" y1="159.3333333333333333333333333" y2="159.3333333333333333333333333" /><text dy="0.32em" fill="#9c9c9c" font-family="Monaco" text-anchor="end" x="-8" y="159.3333333333333333333333333">200</text></g><g class="tick"><line stroke="#eee" stroke-width="1" x1="-4" x2="688.0" y1="0" y2="0" /><text dy="0.32em" fill="#9c9c9c" font-family="Monaco" text-anchor="end" x="-8" y="0">300</text></g><g class="tick"><line stroke="#a8a8a8" stroke-width="1" x1="-4" x2="688.0" y1="478" y2="478" /><text dy="0.32em" fill="#9c9c9c" font-family="Monaco" text-anchor="end" x="-8" y="478">0</text></g></g><g><g class="series dots"><circle cx="128.4266666666666666666666667" cy="202.3533333333333333333333333" fill="rgb(56, 173, 150)" r="3" /><circle cx="399.04" cy="172.08" fill="rgb(174, 192, 150)" r="3" /><circle cx="2.293333333333333333333333333" cy="280.4266666666666666666666667" fill="rgb(1, 124, 150)" r="3" /><circle cx="463.2533333333333333333333333" cy="449.32" fill="rgb(202, 18, 150)" r="3" /><circle cx="87.14666666666666666666666669" cy="180.0466666666666666666666667" fill="rgb(38, 187, 150)" r="3" /><circle cx="470.1333333333333333333333333" cy="246.9666666666666666666666667" fill="rgb(205, 145, 150)" r="3" /><circle cx="181.1733333333333333333333333" cy="159.3333333333333333333333333" fill="rgb(79, 200, 150)" r="3" /><circle cx="25.22666666666666666666666667" cy="318.6666666666666666666666667" fill="rgb(11, 100, 150)" r="3" /><circle cx="160.5333333333333333333333333" cy="305.92" fill="rgb(70, 108, 150)" r="3" /><circle cx="426.56" cy="388.7733333333333333333333333" fill="rgb(186, 56, 150)" r="3" /><circle cx="474.72" cy="331.4133333333333333333333333" fill="rgb(207, 92, 150)" r="3" /><circle cx="158.24" cy="337.7866666666666666666666667" fill="rgb(69, 88, 150)" r="3" /><circle cx="256.8533333333333333333333333" cy="350.5333333333333333333333333" fill="rgb(112, 80, 150)" r="3" /><circle cx="245.3866666666666666666666667" cy="474.8133333333333333333333333" fill="rgb(107, 2, 150)" r="3" /><circle cx="231.6266666666666666666666667" cy="301.14" fill="rgb(101, 111, 150)" r="3" /><circle cx="188.0533333333333333333333333" cy="339.38" fill="rgb(82, 87, 150)" r="3" /><circle cx="236.2133333333333333333333333" cy="325.04" fill="rgb(103, 96, 150)" r="3" /><circle cx="110.08" cy="227.8466666666666666666666667" fill="rgb(48, 157, 150)" r="3" /><circle cx="509.12" cy="446.1333333333333333333333333" fill="rgb(222, 20, 150)" r="3" /><circle cx="137.6" cy="172.08" fill="rgb(60, 192, 150)" r="3" /><circle cx="385.28" cy="391.96" fill="rgb(168, 54, 150)" r="3" /><circle cx="75.68" cy="262.90" fill="rgb(33, 135, 150)" r="3" /><circle cx="91.73333333333333333333333331" cy="149.7733333333333333333333333" fill="rgb(40, 206, 150)" r="3" /><circle cx="270.6133333333333333333333333" cy="286.8" fill="rgb(118, 120, 150)" r="3" /><circle cx="114.6666666666666666666666667" cy="317.0733333333333333333333333" fill="rgb(50, 101, 150)" r="3" /><circle cx="545.8133333333333333333333333" cy="360.0933333333333333333333333" fill="rgb(238, 74, 150)" r="3" /><circle cx="435.7333333333333333333333333" cy="347.3466666666666666666666667" fill="rgb(190, 82, 150)" r="3" /><circle cx="470.1333333333333333333333333" cy="423.8266666666666666666666667" fill="rgb(205, 34, 150)" r="3" /><circle cx="305.0133333333333333333333333" cy="282.02" fill="rgb(133, 123, 150)" r="3" /><circle cx="431.1466666666666666666666667" cy="360.0933333333333333333333333" fill="rgb(188, 74, 150)" r="3" /><circle cx="355.4666666666666666666666667" cy="334.6" fill="rgb(155, 90, 150)" r="3" /><circle cx="77.97333333333333333333333331" cy="81.26" fill="rgb(34, 249, 150)" r="3" /><circle cx="183.4666666666666666666666667" cy="313.8866666666666666666666667" fill="rgb(80, 103, 150)" r="3" /><circle cx="286.6666666666666666666666667" cy="223.0666666666666666666666667" fill="rgb(125, 160, 150)" r="3" /><circle cx="513.7066666666666666666666667" cy="92.4133333333333333333333333" fill="rgb(224, 242, 150)" r="3" /><circle cx="550.4" cy="431.7933333333333333333333333" fill="rgb(240, 29, 150)" r="3" /><circle cx="215.5733333333333333333333333" cy="404.7066666666666666666666667" fill="rgb(94, 46, 150)" r="3" /><circle cx="497.6533333333333333333333333" cy="372.84" fill="rgb(217, 66, 150)" r="3" /><circle cx="247.68" cy="86.04" fill="rgb(108, 246, 150)" r="3" /><circle cx="557.28" cy="407.8933333333333333333333333" fill="rgb(243, 44, 150)" r="3" /><circle cx="38.98666666666666666666666667" cy="364.8733333333333333333333333" fill="rgb(17, 71, 150)" r="3" /><circle cx="185.76" cy="293.1733333333333333333333333" fill="rgb(81, 116, 150)" r="3" /><circle cx="249.9733333333333333333333333" cy="323.4466666666666666666666667" fill="rgb(109, 97, 150)" r="3" /><circle cx="307.3066666666666666666666667" cy="224.66" fill="rgb(134, 159, 150)" r="3" /><circle cx="477.0133333333333333333333333" cy="294.7666666666666666666666667" fill="rgb(208, 115, 150)" r="3" /><circle cx="268.32" cy="262.90" fill="rgb(117, 135, 150)" r="3" /><circle cx="330.24" cy="283.6133333333333333333333333" fill="rgb(144, 122, 150)" r="3" /><circle cx="181.1733333333333333333333333" cy="178.4533333333333333333333333" fill="rgb(79, 188, 150)" r="3" /><circle cx="110.08" cy="256.5266666666666666666666667" fill="rgb(48, 139, 150)" r="3" /><circle cx="444.9066666666666666666666667" cy="348.94" fill="rgb(194, 81, 150)" r="3" /><circle cx="321.0666666666666666666666667" cy="202.3533333333333333333333333" fill="rgb(140, 173, 150)" r="3" /><circle cx="307.3066666666666666666666667" cy="157.74" fill="rgb(134, 201, 150)" r="3" /><circle cx="249.9733333333333333333333333" cy="89.2266666666666666666666667" fill="rgb(109, 244, 150)" r="3" /><circle cx="451.7866666666666666666666667" cy="172.08" fill="rgb(197, 192, 150)" r="3" /><circle cx="504.5333333333333333333333333" cy="312.2933333333333333333333333" fill="rgb(220, 104, 150)" r="3" /><circle cx="73.38666666666666666666666669" cy="242.1866666666666666666666667" fill="rgb(32, 148, 150)" r="3" /><circle cx="48.16" cy="455.6933333333333333333333333" fill="rgb(21, 14, 150)" r="3" /><circle cx="243.0933333333333333333333333" cy="202.3533333333333333333333333" fill="rgb(106, 173, 150)" r="3" /><circle cx="353.1733333333333333333333333" cy="232.6266666666666666666666667" fill="rgb(154, 154, 150)" r="3" /><circle cx="43.57333333333333333333333333" cy="127.4666666666666666666666667" fill="rgb(19, 220, 150)" r="3" /><circle cx="25.22666666666666666666666667" cy="414.2666666666666666666666667" fill="rgb(11, 40, 150)" r="3" /><circle cx="245.3866666666666666666666667" cy="415.86" fill="rgb(107, 39, 150)" r="3" /><circle cx="561.8666666666666666666666667" cy="184.8266666666666666666666667" fill="rgb(245, 184, 150)" r="3" /><circle cx="181.1733333333333333333333333" cy="294.7666666666666666666666667" fill="rgb(79, 115, 150)" r="3" /><circle cx="252.2666666666666666666666667" cy="92.4133333333333333333333333" fill="rgb(110, 242, 150)" r="3" /><circle cx="172.00" cy="340.9733333333333333333333333" fill="rgb(75, 86, 150)" r="3" /><circle cx="438.0266666666666666666666667" cy="188.0133333333333333333333333" fill="rgb(191, 182, 150)" r="3" /><circle cx="428.8533333333333333333333333" cy="372.84" fill="rgb(187, 66, 150)" r="3" /><circle cx="486.1866666666666666666666667" cy="89.2266666666666666666666667" fill="rgb(212, 244, 150)" r="3" /><circle cx="325.6533333333333333333333333" cy="178.4533333333333333333333333" fill="rgb(142, 188, 150)" r="3" /><circle cx="233.92" cy="170.4866666666666666666666667" fill="rgb(102, 193, 150)" r="3" /><circle cx="300.4266666666666666666666667" cy="404.7066666666666666666666667" fill="rgb(131, 46, 150)" r="3" /><circle cx="571.04" cy="423.8266666666666666666666667" fill="rgb(249, 34, 150)" r="3" /><circle cx="399.04" cy="342.5666666666666666666666667" fill="rgb(174, 85, 150)" r="3" /><circle cx="506.8266666666666666666666667" cy="261.3066666666666666666666667" fill="rgb(221, 136, 150)" r="3" /><circle cx="190.3466666666666666666666667" cy="129.06" fill="rgb(83, 219, 150)" r="3" /><circle cx="208.6933333333333333333333333" cy="231.0333333333333333333333333" fill="rgb(91, 155, 150)" r="3" /><circle cx="392.16" cy="377.62" fill="rgb(171, 63, 150)" r="3" /><circle cx="231.6266666666666666666666667" cy="280.4266666666666666666666667" fill="rgb(101, 124, 150)" r="3" /><circle cx="321.0666666666666666666666667" cy="111.5333333333333333333333333" fill="rgb(140, 230, 150)" r="3" /><circle cx="82.56" cy="315.48" fill="rgb(36, 102, 150)" r="3" /><circle cx="181.1733333333333333333333333" cy="463.66" fill="rgb(79, 9, 150)" r="3" /><circle cx="135.3066666666666666666666667" cy="301.14" fill="rgb(59, 111, 150)" r="3" /><circle cx="316.48" cy="355.3133333333333333333333333" fill="rgb(138, 77, 150)" r="3" /><circle cx="158.24" cy="114.72" fill="rgb(69, 228, 150)" r="3" /><circle cx="224.7466666666666666666666667" cy="423.8266666666666666666666667" fill="rgb(98, 34, 150)" r="3" /><circle cx="564.16" cy="383.9933333333333333333333333" fill="rgb(246, 59, 150)" r="3" /><circle cx="155.9466666666666666666666667" cy="430.2" fill="rgb(68, 30, 150)" r="3" /><circle cx="236.2133333333333333333333333" cy="280.4266666666666666666666667" fill="rgb(103, 124, 150)" r="3" /><circle cx="66.50666666666666666666666667" cy="328.2266666666666666666666667" fill="rgb(29, 94, 150)" r="3" /><circle cx="6.88" cy="127.4666666666666666666666667" fill="rgb(3, 220, 150)" r="3" /><circle cx="532.0533333333333333333333333" cy="344.16" fill="rgb(232, 84, 150)" r="3" /><circle cx="325.6533333333333333333333333" cy="436.5733333333333333333333333" fill="rgb(142, 26, 150)" r="3" /><circle cx="215.5733333333333333333333333" cy="121.0933333333333333333333333" fill="rgb(94, 224, 150)" r="3" /><circle cx="451.7866666666666666666666667" cy="151.3666666666666666666666667" fill="rgb(197, 205, 150)" r="3" /><circle cx="34.40" cy="106.7533333333333333333333333" fill="rgb(15, 233, 150)" r="3" /><circle cx="137.6" cy="436.5733333333333333333333333" fill="rgb(60, 26, 150)" r="3" /><circle cx="55.04" cy="297.9533333333333333333333333" fill="rgb(24, 113, 150)" r="3" /><circle cx="80.26666666666666666666666669" cy="376.0266666666666666666666667" fill="rgb(35, 64, 150)" r="3" /><circle cx="243.0933333333333333333333333" cy="172.08" fill="rgb(106, 192, 150)" r="3" /></g></g></g></g></g></g></svg>