<?xml version="1.0" standalone="no"?>
<!DOCTYPE svg PUBLIC "-//W3C//DTD SVG 1.1//EN"
"http://www.w3.org/Graphics/SVG/1.1/DTD/svg11.dtd">
<svg height="600" version="1.1" width="800" xmlns="http://www.w3.org/2000/svg"><g><rect fill="#f9f9f9" height="600" width="800" x="0" y="0" /><g transform="translate(40 40)"><g transform="translate(48 0)"><text fill="#333" font-family="Monaco" font-size="16" x="0" y="0">Colorized dots</text></g><g transform="translate(0 20)"><g transform="translate(48 0)"><g class="axis bottom"><text dy="1em" fill="#666" font-family="Monaco" text-anchor="middle" transform="" x="336.0" y="508.0" /><g class="tick"><line stroke="#a8a8a8" stroke-width="1" x1="0.0" x2="0.0" y1="0" y2="482.0" /><text dy="1em" fill="#9c9c9c" font-family="Monaco" text-anchor="middle" x="0.0" y="486.0">0.0</text></g><g class="tick"><line stroke="#eee" stroke-width="1" x1="168.0" x2="168.0" y1="0" y2="482.0" /><text dy="1em" fill="#9c9c9c" font-family="Monaco" text-anchor="middle" x="168.0" y="486.0">62.0</text></g><g class="tick"><line stroke="#eee" stroke-width="1" x1="336.0" x2="336.0" y1="0" y2="482.0" /><text dy="1em" fill="#9c9c9c" font-family="Monaco" text-anchor="middle" x="336.0" y="486.0">124.0</text></g><g class="tick"><line stroke="#eee" stroke-width="1" x1="504.0" x2="504.0" y1="0" y2="482.0" /><text dy="1em" fill="#9c9c9c" font-family="Monaco" text-anchor="middle" x="504.0" y="486.0">186.0</text></g><g class="tick"><line stroke="#eee" stroke-width="1" x1="672.0" x2="672.0" y1="0" y2="482.0" /><text dy="1em" fill="#9c9c9c" font-family="Monaco" text-anchor="middle" x="672.0" y="486.0">248.0</text></g></g><g class="axis left"><text dy="" fill="#666" font-family="Monaco" text-anchor="middle" transform="rotate(270 -48 239)" x="-48" y="239.0" /><g class="tick"><line stroke="#eee" stroke-width="1" x1="-4" x2="672.0" y1="478.0" y2="478.0" /><text dy="0.32em" fill="#9c9c9c" font-family="Monaco" text-anchor="end" x="-8" y="478.0">2.0</text></g><g class="tick"><line stroke="#eee" stroke-width="1" x1="-4" x2="672.0" y1="358.5" y2="358.5" /><text dy="0.32em" fill="#9c9c9c" font-family="Monaco" text-anchor="end" x="-8" y="358.5">64.0</text></g><g class="tick"><line stroke="#eee" stroke-width="1" x1="-4" x2="672.0" y1="239.0" y2="239.0" /><text dy="0.32em" fill="#9c9c9c" font-family="Monaco" text-anchor="end" x="-8" y="239.0">126.0</text></g><g class="tick"><line stroke="#eee" stroke-width="1" x1="-4" x2="672.0" y1="119.5" y2="119.5" /><text dy="0.32em" fill="#9c9c9c" font-family="Monaco" text-anchor="end" x="-8" y="119.5">188.0</text></g><g class="tick"><line stroke="#eee" stroke-width="1" x1="-4" x2="672.0" y1="0.0" y2="0.0" /><text dy="0.32em" fill="#9c9c9c" font-family="Monaco" text-anchor="end" x="-8" y="0.0">250.0</text></g></g><g><g class="series dots"><circle cx="354.96774193548384" cy="32.76612903225811" fill="rgb(131, 233, 150)" r="3" /><circle cx="43.354838709677416" cy="223.58064516129033" fill="rgb(16, 134, 150)" r="3" /><circle cx="620.516129032258" cy="447.16129032258067" fill="rgb(229, 18, 150)" r="3" /><circle cx="379.35483870967744" cy="456.7983870967742" fill="rgb(140, 13, 150)" r="3" /><circle cx="533.8064516129032" cy="229.36290322580646" fill="rgb(197, 131, 150)" r="3" /><circle cx="159.8709677419355" cy="281.4032258064516" fill="rgb(59, 104, 150)" r="3" /><circle cx="612.3870967741935" cy="73.24193548387098" fill="rgb(226, 212, 150)" r="3" /><circle cx="663.8709677419355" cy="237.07258064516128" fill="rgb(245, 127, 150)" r="3" /><circle cx="344.1290322580645" cy="17.346774193548356" fill="rgb(127, 241, 150)" r="3" /><circle cx="51.483870967741936" cy="17.346774193548356" fill="rgb(19, 241, 150)" r="3" /><circle cx="514.8387096774194" cy="279.4758064516129" fill="rgb(190, 105, 150)" r="3" /><circle cx="162.58064516129033" cy="213.94354838709677" fill="rgb(60, 139, 150)" r="3" /><circle cx="471.48387096774195" cy="71.31451612903226" fill="rgb(174, 213, 150)" r="3" /><circle cx="590.7096774193549" cy="256.3467741935484" fill="rgb(218, 117, 150)" r="3" /><circle cx="466.0645161290323" cy="159.97580645161293" fill="rgb(172, 167, 150)" r="3" /><circle cx="257.4193548387097" cy="366.2096774193549" fill="rgb(95, 60, 150)" r="3" /><circle cx="0.0" cy="398.9758064516129" fill="rgb(0, 43, 150)" r="3" /><circle cx="493.16129032258067" cy="117.57258064516128" fill="rgb(182, 189, 150)" r="3" /><circle cx="138.19354838709677" cy="40.475806451612925" fill="rgb(51, 229, 150)" r="3" /><circle cx="406.4516129032258" cy="36.62096774193549" fill="rgb(150, 231, 150)" r="3" /><circle cx="211.3548387096774" cy="188.88709677419354" fill="rgb(78, 152, 150)" r="3" /><circle cx="84.0" cy="294.89516129032256" fill="rgb(31, 97, 150)" r="3" /><circle cx="501.2903225806452" cy="38.548387096774206" fill="rgb(185, 230, 150)" r="3" /><circle cx="672.0" cy="354.64516129032256" fill="rgb(248, 66, 150)" r="3" /><circle cx="506.7096774193548" cy="447.16129032258067" fill="rgb(187, 18, 150)" r="3" /><circle cx="308.9032258064516" cy="383.55645161290323" fill="rgb(114, 51, 150)" r="3" /><circle cx="623.2258064516129" cy="84.80645161290323" fill="rgb(230, 206, 150)" r="3" /><circle cx="246.58064516129033" cy="156.1209677419355" fill="rgb(91, 169, 150)" r="3" /><circle cx="615.0967741935484" cy="117.57258064516128" fill="rgb(227, 189, 150)" r="3" /><circle cx="569.0322580645161" cy="337.29838709677415" fill="rgb(210, 75, 150)" r="3" /><circle cx="563.6129032258065" cy="125.2822580645161" fill="rgb(208, 185, 150)" r="3" /><circle cx="501.2903225806452" cy="451.01612903225805" fill="rgb(185, 16, 150)" r="3" /><circle cx="596.1290322580645" cy="109.86290322580646" fill="rgb(220, 193, 150)" r="3" /><circle cx="457.9354838709677" cy="106.00806451612902" fill="rgb(169, 195, 150)" r="3" /><circle cx="392.90322580645164" cy="242.8548387096774" fill="rgb(145, 124, 150)" r="3" /><circle cx="322.4516129032258" cy="395.1209677419355" fill="rgb(119, 45, 150)" r="3" /><circle cx="295.35483870967744" cy="28.911290322580612" fill="rgb(109, 235, 150)" r="3" /><circle cx="319.741935483871" cy="335.3709677419355" fill="rgb(118, 76, 150)" r="3" /><circle cx="238.45161290322582" cy="308.38709677419354" fill="rgb(88, 90, 150)" r="3" /><circle cx="270.96774193548384" cy="131.06451612903226" fill="rgb(100, 182, 150)" r="3" /><circle cx="165.29032258064515" cy="418.25" fill="rgb(61, 33, 150)" r="3" /><circle cx="452.51612903225805" cy="165.75806451612902" fill="rgb(167, 164, 150)" r="3" /><circle cx="425.4193548387097" cy="46.258064516129025" fill="rgb(157, 226, 150)" r="3" /><circle cx="539.2258064516129" cy="86.7338709677419" fill="rgb(199, 205, 150)" r="3" /><circle cx="387.48387096774195" cy="443.30645161290323" fill="rgb(143, 20, 150)" r="3" /><circle cx="205.93548387096774" cy="406.68548387096774" fill="rgb(76, 39, 150)" r="3" /><circle cx="252.0" cy="1.9274193548387188" fill="rgb(93, 249, 150)" r="3" /><circle cx="224.9032258064516" cy="188.88709677419354" fill="rgb(83, 152, 150)" r="3" /><circle cx="395.61290322580646" cy="404.758064516129" fill="rgb(146, 40, 150)" r="3" /><circle cx="168.0" cy="291.0403225806452" fill="rgb(62, 99, 150)" r="3" /><circle cx="550.0645161290323" cy="429.81451612903226" fill="rgb(203, 27, 150)" r="3" /><circle cx="596.1290322580645" cy="310.31451612903226" fill="rgb(220, 89, 150)" r="3" /><circle cx="292.64516129032256" cy="240.92741935483872" fill="rgb(108, 125, 150)" r="3" /><circle cx="292.64516129032256" cy="69.38709677419354" fill="rgb(108, 214, 150)" r="3" /><circle cx="417.2903225806452" cy="134.91935483870964" fill="rgb(154, 180, 150)" r="3" /><circle cx="327.8709677419355" cy="327.6612903225806" fill="rgb(121, 80, 150)" r="3" /><circle cx="51.483870967741936" cy="88.66129032258061" fill="rgb(19, 204, 150)" r="3" /><circle cx="634.0645161290323" cy="304.5322580645161" fill="rgb(234, 92, 150)" r="3" /><circle cx="438.96774193548384" cy="169.61290322580646" fill="rgb(162, 162, 150)" r="3" /><circle cx="254.70967741935485" cy="373.9193548387097" fill="rgb(94, 56, 150)" r="3" /><circle cx="62.32258064516129" cy="17.346774193548356" fill="rgb(23, 241, 150)" r="3" /><circle cx="184.25806451612902" cy="331.51612903225805" fill="rgb(68, 78, 150)" r="3" /><circle cx="384.77419354838713" cy="358.5" fill="rgb(142, 64, 150)" r="3" /><circle cx="550.0645161290323" cy="235.1451612903226" fill="rgb(203, 128, 150)" r="3" /><circle cx="539.2258064516129" cy="156.1209677419355" fill="rgb(199, 169, 150)" r="3" /><circle cx="658.4516129032259" cy="478.0" fill="rgb(243, 2, 150)" r="3" /><circle cx="533.8064516129032" cy="422.10483870967744" fill="rgb(197, 31, 150)" r="3" /><circle cx="222.19354838709677" cy="42.403225806451644" fill="rgb(82, 228, 150)" r="3" /><circle cx="577.1612903225806" cy="30.838709677419388" fill="rgb(213, 234, 150)" r="3" /><circle cx="634.0645161290323" cy="398.9758064516129" fill="rgb(234, 43, 150)" r="3" /><circle cx="176.1290322580645" cy="61.67741935483872" fill="rgb(65, 218, 150)" r="3" /><circle cx="97.5483870967742" cy="256.3467741935484" fill="rgb(36, 117, 150)" r="3" /><circle cx="411.8709677419355" cy="213.94354838709677" fill="rgb(152, 139, 150)" r="3" /><circle cx="270.96774193548384" cy="337.29838709677415" fill="rgb(100, 75, 150)" r="3" /><circle cx="119.22580645161291" cy="0.0" fill="rgb(44, 250, 150)" r="3" /><circle cx="230.32258064516128" cy="418.25" fill="rgb(85, 33, 150)" r="3" /><circle cx="495.8709677419355" cy="279.4758064516129" fill="rgb(183, 105, 150)" r="3" /><circle cx="517.5483870967741" cy="410.5403225806451" fill="rgb(191, 37, 150)" r="3" /><circle cx="579.8709677419355" cy="100.22580645161293" fill="rgb(214, 198, 150)" r="3" /><circle cx="51.483870967741936" cy="350.7903225806452" fill="rgb(19, 68, 150)" r="3" /><circle cx="333.2903225806452" cy="183.10483870967744" fill="rgb(123, 155, 150)" r="3" /><circle cx="501.2903225806452" cy="173.4677419354839" fill="rgb(185, 160, 150)" r="3" /><circle cx="552.7741935483871" cy="371.991935483871" fill="rgb(204, 57, 150)" r="3" /><circle cx="138.19354838709677" cy="165.75806451612902" fill="rgb(51, 164, 150)" r="3" /><circle cx="322.4516129032258" cy="150.3387096774194" fill="rgb(119, 172, 150)" r="3" /><circle cx="672.0" cy="40.475806451612925" fill="rgb(248, 229, 150)" r="3" /><circle cx="140.90322580645162" cy="395.1209677419355" fill="rgb(52, 45, 150)" r="3" /><circle cx="143.61290322580646" cy="368.13709677419354" fill="rgb(53, 59, 150)" r="3" /><circle cx="373.9354838709677" cy="373.9193548387097" fill="rgb(138, 56, 150)" r="3" /><circle cx="471.48387096774195" cy="65.5322580645161" fill="rgb(174, 216, 150)" r="3" /><circle cx="270.96774193548384" cy="370.06451612903226" fill="rgb(100, 58, 150)" r="3" /><circle cx="482.32258064516134" cy="186.95967741935482" fill="rgb(178, 153, 150)" r="3" /><circle cx="544.6451612903226" cy="132.99193548387098" fill="rgb(201, 181, 150)" r="3" /><circle cx="10.838709677419354" cy="445.23387096774195" fill="rgb(4, 19, 150)" r="3" /><circle cx="149.03225806451613" cy="312.241935483871" fill="rgb(55, 88, 150)" r="3" /><circle cx="371.22580645161287" cy="3.8548387096774377" fill="rgb(137, 248, 150)" r="3" /><circle cx="474.1935483870968" cy="173.4677419354839" fill="rgb(175, 160, 150)" r="3" /><circle cx="631.3548387096774" cy="55.89516129032256" fill="rgb(233, 221, 150)" r="3" /><circle cx="463.35483870967744" cy="233.21774193548387" fill="rgb(171, 129, 150)" r="3" /><circle cx="51.483870967741936" cy="158.0483870967742" fill="rgb(19, 168, 150)" r="3" /></g></g></g></g></g></g></svg>