<?xml version="1.0" standalone="no"?>
<!DOCTYPE svg PUBLIC "-//W3C//DTD SVG 1.1//EN"
"http://www.w3.org/Graphics/SVG/1.1/DTD/svg11.dtd">
<svg height="600" version="1.1" width="800" xmlns="http://www.w3.org/2000/svg"><g><rect fill="#f9f9f9" height="600" width="800" x="0" y="0" /><g transform="translate(40 40)"><g transform="translate(62 0)"><text fill="#333" font-family="Monaco" font-size="16" x="0" y="0">Colorized dots</text></g><g transform="translate(0 20)"><g transform="translate(62 0)"><g class="axis bottom"><text dy="1em" fill="#666" font-family="Monaco" text-anchor="middle" transform="" x="329.0" y="486.0">None</text><g class="tick"><line stroke="#eee" stroke-width="1" x1="219.3333333333333333333333333" x2="219.3333333333333333333333333" y1="0" y2="452.0" /><text dy="1em" fill="#9c9c9c" font-family="Monaco" text-anchor="middle" x="219.3333333333333333333333333" y="456.0">100</text></g><g class="tick"><line stroke="#eee" stroke-width="1" x1="438.6666666666666666666666667" x2="438.6666666666666666666666667" y1="0" y2="452.0" /><text dy="1em" fill="#9c9c9c" font-family="Monaco" text-anchor="middle" x="438.6666666666666666666666667" y="456.0">200</text></g><g class="tick"><line stroke="#eee" stroke-width="1" x1="658" x2="658" y1="0" y2="452.0" /><text dy="1em" fill="#9c9c9c" font-family="Monaco" text-anchor="middle" x="658" y="456.0">300</text></g><g class="tick"><line stroke="#a8a8a8" stroke-width="1" x1="0" x2="0" y1="0" y2="452.0" /><text dy="1em" fill="#9c9c9c" font-family="Monaco" text-anchor="middle" x="0" y="456.0">0</text></g></g><g class="axis left"><text dy="" fill="#666" font-family="Monaco" text-anchor="middle" transform="rotate(270 -40 224)" x="-40" y="224.0">None</text><g class="tick"><line stroke="#eee" stroke-width="1" x1="-4" x2="658.0" y1="298.6666666666666666666666667" y2="298.6666666666666666666666667" /><text dy="0.32em" fill="#9c9c9c" font-family="Monaco" text-anchor="end" x="-8" y="298.6666666666666666666666667">100</text></g><g class="tick"><line stroke="#eee" stroke-width="1" x1="-4" x2="658.0" y1="149.3333333333333333333333333" y2="149.3333333333333333333333333" /><text dy="0.32em" fill="#9c9c9c" font-family="Monaco" text-anchor="end" x="-8" y="149.3333333333333333333333333">200</text></g><g class="tick"><line stroke="#eee" stroke-width="1" x1="-4" x2="658.0" y1="0" y2="0" /><text dy="0.32em" fill="#9c9c9c" font-family="Monaco" text-anchor="end" x="-8" y="0">300</text></g><g class="tick"><line stroke="#a8a8a8" stroke-width="1" x1="-4" x2="658.0" y1="448" y2="448" /><text dy="0.32em" fill="#9c9c9c" font-family="Monaco" text-anchor="end" x="-8" y="448">0</text></g></g><g><g class="series dots"><circle cx="320.2266666666666666666666667" cy="410.6666666666666666666666667" fill="rgb(146, 25, 150)" r="3" /><circle cx="331.1933333333333333333333333" cy="424.1066666666666666666666667" fill="rgb(151, 16, 150)" r="3" /><circle cx="265.3933333333333333333333333" cy="280.7466666666666666666666667" fill="rgb(121, 112, 150)" r="3" /><circle cx="405.7666666666666666666666667" cy="394.24" fill="rgb(185, 36, 150)" r="3" /><circle cx="414.54" cy="350.9333333333333333333333333" fill="rgb(189, 65, 150)" r="3" /><circle cx="157.92" cy="201.60" fill="rgb(72, 165, 150)" r="3" /><circle cx="396.9933333333333333333333333" cy="95.5733333333333333333333333" fill="rgb(181, 236, 150)" r="3" /><circle cx="456.2133333333333333333333333" cy="307.6266666666666666666666667" fill="rgb(208, 94, 150)" r="3" /><circle cx="247.8466666666666666666666667" cy="201.60" fill="rgb(113, 165, 150)" r="3" /><circle cx="37.28666666666666666666666667" cy="173.2266666666666666666666667" fill="rgb(17, 184, 150)" r="3" /><circle cx="282.94" cy="315.0933333333333333333333333" fill="rgb(129, 89, 150)" r="3" /><circle cx="267.5866666666666666666666667" cy="141.8666666666666666666666667" fill="rgb(122, 205, 150)" r="3" /><circle cx="8.773333333333333333333333331" cy="219.52" fill="rgb(4, 153, 150)" r="3" /><circle cx="138.18" cy="77.6533333333333333333333333" fill="rgb(63, 248, 150)" r="3" /><circle cx="524.2066666666666666666666667" cy="206.08" fill="rgb(239, 162, 150)" r="3" /><circle cx="78.96" cy="201.60" fill="rgb(36, 165, 150)" r="3" /><circle cx="274.1666666666666666666666667" cy="207.5733333333333333333333333" fill="rgb(125, 161, 150)" r="3" /><circle cx="511.0466666666666666666666667" cy="240.4266666666666666666666667" fill="rgb(233, 139, 150)" r="3" /><circle cx="412.3466666666666666666666667" cy="198.6133333333333333333333333" fill="rgb(188, 167, 150)" r="3" /><circle cx="98.70" cy="237.44" fill="rgb(45, 141, 150)" r="3" /><circle cx="228.1066666666666666666666667" cy="307.6266666666666666666666667" fill="rgb(104, 94, 150)" r="3" /><circle cx="543.9466666666666666666666667" cy="264.32" fill="rgb(248, 123, 150)" r="3" /><circle cx="333.3866666666666666666666667" cy="271.7866666666666666666666667" fill="rgb(152, 118, 150)" r="3" /><circle cx="278.5533333333333333333333333" cy="338.9866666666666666666666667" fill="rgb(127, 73, 150)" r="3" /><circle cx="114.0533333333333333333333333" cy="94.08" fill="rgb(52, 237, 150)" r="3" /><circle cx="454.02" cy="349.44" fill="rgb(207, 66, 150)" r="3" /><circle cx="234.6866666666666666666666667" cy="129.92" fill="rgb(107, 213, 150)" r="3" /><circle cx="98.70" cy="442.0266666666666666666666667" fill="rgb(45, 4, 150)" r="3" /><circle cx="445.2466666666666666666666667" cy="419.6266666666666666666666667" fill="rgb(203, 19, 150)" r="3" /><circle cx="348.74" cy="295.68" fill="rgb(159, 102, 150)" r="3" /><circle cx="160.1133333333333333333333333" cy="231.4666666666666666666666667" fill="rgb(73, 145, 150)" r="3" /><circle cx="219.3333333333333333333333333" cy="270.2933333333333333333333333" fill="rgb(100, 119, 150)" r="3" /><circle cx="462.7933333333333333333333333" cy="76.16" fill="rgb(211, 249, 150)" r="3" /><circle cx="13.16" cy="188.16" fill="rgb(6, 174, 150)" r="3" /><circle cx="85.54" cy="183.68" fill="rgb(39, 177, 150)" r="3" /><circle cx="522.0133333333333333333333333" cy="262.8266666666666666666666667" fill="rgb(238, 124, 150)" r="3" /><circle cx="144.76" cy="186.6666666666666666666666667" fill="rgb(66, 175, 150)" r="3" /><circle cx="318.0333333333333333333333333" cy="443.52" fill="rgb(145, 3, 150)" r="3" /><circle cx="252.2333333333333333333333333" cy="270.2933333333333333333333333" fill="rgb(115, 119, 150)" r="3" /><circle cx="416.7333333333333333333333333" cy="309.12" fill="rgb(190, 93, 150)" r="3" /><circle cx="285.1333333333333333333333333" cy="315.0933333333333333333333333" fill="rgb(130, 89, 150)" r="3" /><circle cx="267.5866666666666666666666667" cy="143.36" fill="rgb(122, 204, 150)" r="3" /><circle cx="315.84" cy="135.8933333333333333333333333" fill="rgb(144, 209, 150)" r="3" /><circle cx="52.64" cy="143.36" fill="rgb(24, 204, 150)" r="3" /><circle cx="526.4" cy="440.5333333333333333333333333" fill="rgb(240, 5, 150)" r="3" /><circle cx="326.8066666666666666666666667" cy="298.6666666666666666666666667" fill="rgb(149, 100, 150)" r="3" /><circle cx="41.67333333333333333333333333" cy="120.96" fill="rgb(19, 219, 150)" r="3" /><circle cx="85.54" cy="279.2533333333333333333333333" fill="rgb(39, 113, 150)" r="3" /><circle cx="285.1333333333333333333333333" cy="122.4533333333333333333333333" fill="rgb(130, 218, 150)" r="3" /><circle cx="337.7733333333333333333333333" cy="183.68" fill="rgb(154, 177, 150)" r="3" /><circle cx="98.70" cy="222.5066666666666666666666667" fill="rgb(45, 151, 150)" r="3" /><circle cx="280.7466666666666666666666667" cy="334.5066666666666666666666667" fill="rgb(128, 76, 150)" r="3" /><circle cx="339.9666666666666666666666667" cy="365.8666666666666666666666667" fill="rgb(155, 55, 150)" r="3" /><circle cx="372.8666666666666666666666667" cy="277.76" fill="rgb(170, 114, 150)" r="3" /><circle cx="386.0266666666666666666666667" cy="109.0133333333333333333333333" fill="rgb(176, 227, 150)" r="3" /><circle cx="190.82" cy="167.2533333333333333333333333" fill="rgb(87, 188, 150)" r="3" /><circle cx="32.90" cy="268.8" fill="rgb(15, 120, 150)" r="3" /><circle cx="15.35333333333333333333333333" cy="232.96" fill="rgb(7, 144, 150)" r="3" /><circle cx="228.1066666666666666666666667" cy="79.1466666666666666666666667" fill="rgb(104, 247, 150)" r="3" /><circle cx="269.78" cy="385.28" fill="rgb(123, 42, 150)" r="3" /><circle cx="410.1533333333333333333333333" cy="403.2" fill="rgb(187, 30, 150)" r="3" /><circle cx="403.5733333333333333333333333" cy="195.6266666666666666666666667" fill="rgb(184, 169, 150)" r="3" /><circle cx="462.7933333333333333333333333" cy="295.68" fill="rgb(211, 102, 150)" r="3" /><circle cx="535.1733333333333333333333333" cy="85.12" fill="rgb(244, 243, 150)" r="3" /><circle cx="245.6533333333333333333333333" cy="347.9466666666666666666666667" fill="rgb(112, 67, 150)" r="3" /><circle cx="471.5666666666666666666666667" cy="92.5866666666666666666666667" fill="rgb(215, 238, 150)" r="3" /><circle cx="471.5666666666666666666666667" cy="247.8933333333333333333333333" fill="rgb(215, 134, 150)" r="3" /><circle cx="291.7133333333333333333333333" cy="244.9066666666666666666666667" fill="rgb(133, 136, 150)" r="3" /><circle cx="307.0666666666666666666666667" cy="304.64" fill="rgb(140, 96, 150)" r="3" /><circle cx="157.92" cy="413.6533333333333333333333333" fill="rgb(72, 23, 150)" r="3" /><circle cx="462.7933333333333333333333333" cy="304.64" fill="rgb(211, 96, 150)" r="3" /><circle cx="508.8533333333333333333333333" cy="364.3733333333333333333333333" fill="rgb(232, 56, 150)" r="3" /><circle cx="359.7066666666666666666666667" cy="185.1733333333333333333333333" fill="rgb(164, 176, 150)" r="3" /><circle cx="131.6" cy="276.2666666666666666666666667" fill="rgb(60, 115, 150)" r="3" /><circle cx="447.44" cy="171.7333333333333333333333333" fill="rgb(204, 185, 150)" r="3" /><circle cx="87.73333333333333333333333331" cy="379.3066666666666666666666667" fill="rgb(40, 46, 150)" r="3" /><circle cx="410.1533333333333333333333333" cy="349.44" fill="rgb(187, 66, 150)" r="3" /><circle cx="287.3266666666666666666666667" cy="229.9733333333333333333333333" fill="rgb(131, 146, 150)" r="3" /><circle cx="388.22" cy="286.72" fill="rgb(177, 108, 150)" r="3" /><circle cx="184.24" cy="409.1733333333333333333333333" fill="rgb(84, 26, 150)" r="3" /><circle cx="140.3733333333333333333333333" cy="280.7466666666666666666666667" fill="rgb(64, 112, 150)" r="3" /><circle cx="302.68" cy="270.2933333333333333333333333" fill="rgb(138, 119, 150)" r="3" /><circle cx="149.1466666666666666666666667" cy="392.7466666666666666666666667" fill="rgb(68, 37, 150)" r="3" /><circle cx="6.58" cy="107.52" fill="rgb(3, 228, 150)" r="3" /><circle cx="162.3066666666666666666666667" cy="180.6933333333333333333333333" fill="rgb(74, 179, 150)" r="3" /><circle cx="271.9733333333333333333333333" cy="271.7866666666666666666666667" fill="rgb(124, 118, 150)" r="3" /><circle cx="203.98" cy="340.48" fill="rgb(93, 72, 150)" r="3" /><circle cx="133.7933333333333333333333333" cy="398.72" fill="rgb(61, 33, 150)" r="3" /><circle cx="502.2733333333333333333333333" cy="379.3066666666666666666666667" fill="rgb(229, 46, 150)" r="3" /><circle cx="366.2866666666666666666666667" cy="125.44" fill="rgb(167, 216, 150)" r="3" /><circle cx="135.9866666666666666666666667" cy="386.7733333333333333333333333" fill="rgb(62, 41, 150)" r="3" /><circle cx="535.1733333333333333333333333" cy="413.6533333333333333333333333" fill="rgb(244, 23, 150)" r="3" /><circle cx="436.4733333333333333333333333" cy="439.04" fill="rgb(199, 6, 150)" r="3" /><circle cx="324.6133333333333333333333333" cy="132.9066666666666666666666667" fill="rgb(148, 211, 150)" r="3" /><circle cx="344.3533333333333333333333333" cy="183.68" fill="rgb(157, 177, 150)" r="3" /><circle cx="98.70" cy="362.88" fill="rgb(45, 57, 150)" r="3" /><circle cx="403.5733333333333333333333333" cy="373.3333333333333333333333333" fill="rgb(184, 50, 150)" r="3" /><circle cx="138.18" cy="377.8133333333333333333333333" fill="rgb(63, 47, 150)" r="3" /><circle cx="519.82" cy="424.1066666666666666666666667" fill="rgb(237, 16, 150)" r="3" /><circle cx="263.2" cy="327.04" fill="rgb(120, 81, 150)" r="3" /></g></g></g></g></g></g></svg>