<?xml version="1.0" standalone="no"?>
<!DOCTYPE svg PUBLIC "-//W3C//DTD SVG 1.1//EN"
"http://www.w3.org/Graphics/SVG/1.1/DTD/svg11.dtd">
<svg height="600" version="1.1" width="800" xmlns="http://www.w3.org/2000/svg"><g><rect fill="#f9f9f9" height="600" width="800" x="0" y="0" /><g transform="translate(40 40)"><g transform="translate(32 0)"><text fill="#333" font-family="Monaco" font-size="16" x="0" y="0">Colorized dots</text></g><g transform="translate(0 20)"><g transform="translate(32 0)"><g class="axis bottom"><g class="tick"><line stroke="#eee" stroke-width="1" x1="229.3333333333333333333333333" x2="229.3333333333333333333333333" y1="0" y2="482.0" /><text dy="1em" fill="#9c9c9c" font-family="Monaco" text-anchor="middle" x="229.3333333333333333333333333" y="486.0">100</text></g><g class="tick"><line stroke="#eee" stroke-width="1" x1="458.6666666666666666666666667" x2="458.6666666666666666666666667" y1="0" y2="482.0" /><text dy="1em" fill="#9c9c9c" font-family="Monaco" text-anchor="middle" x="458.6666666666666666666666667" y="486.0">200</text></g><g class="tick"><line stroke="#eee" stroke-width="1" x1="688" x2="688" y1="0" y2="482.0" /><text dy="1em" fill="#9c9c9c" font-family="Monaco" text-anchor="middle" x="688" y="486.0">300</text></g><g class="tick"><line stroke="#a8a8a8" stroke-width="1" x1="0" x2="0" y1="0" y2="482.0" /><text dy="1em" fill="#9c9c9c" font-family="Monaco" text-anchor="middle" x="0" y="486.0">0</text></g></g><g class="axis left"><g class="tick"><line stroke="#eee" stroke-width="1" x1="-4" x2="688.0" y1="318.6666666666666666666666667" y2="318.6666666666666666666666667" /><text dy="0.32em" fill="#9c9c9c" font-family="Monaco" text-anchor="end" x="-8" y="318.6666666666666666666666667">100</text></g><g class="tick"><line stroke="#eee" stroke-width="1" x1="-4" x2="688.0" y1="159.3333333333333333333333333" y2="159.3333333333333333333333333" /><text dy="0.32em" fill="#9c9c9c" font-family="Monaco" text-anchor="end" x="-8" y="159.3333333333333333333333333">200</text></g><g class="tick"><line stroke="#eee" stroke-width="1" x1="-4" x2="688.0" y1="0" y2="0" /><text dy="0.32em" fill="#9c9c9c" font-family="Monaco" text-anchor="end" x="-8" y="0">300</text></g><g class="tick"><line stroke="#a8a8a8" stroke-width="1" x1="-4" x2="688.0" y1="478" y2="478" /><text dy="0.32em" fill="#9c9c9c" font-family="Monaco" text-anchor="end" x="-8" y="478">0</text></g></g><g><g class="series dots"><circle cx="123.84" cy="430.2" fill="rgb(54, 30, 150)" r="3" /><circle cx="403.6266666666666666666666667" cy="339.38" fill="rgb(176, 87, 150)" r="3" /><circle cx="160.5333333333333333333333333" cy="256.5266666666666666666666667" fill="rgb(70, 139, 150)" r="3" /><circle cx="323.36" cy="449.32" fill="rgb(141, 18, 150)" r="3" /><circle cx="36.69333333333333333333333333" cy="283.6133333333333333333333333" fill="rgb(16, 122, 150)" r="3" /><circle cx="481.6" cy="342.5666666666666666666666667" fill="rgb(210, 85, 150)" r="3" /><circle cx="0" cy="180.0466666666666666666666667" fill="rgb(0, 187, 150)" r="3" /><circle cx="568.7466666666666666666666667" cy="454.10" fill="rgb(248, 15, 150)" r="3" /><circle cx="442.6133333333333333333333333" cy="377.62" fill="rgb(193, 63, 150)" r="3" /><circle cx="431.1466666666666666666666667" cy="414.2666666666666666666666667" fill="rgb(188, 40, 150)" r="3" /><circle cx="36.69333333333333333333333333" cy="293.1733333333333333333333333" fill="rgb(16, 116, 150)" r="3" /><circle cx="302.72" cy="450.9133333333333333333333333" fill="rgb(132, 17, 150)" r="3" /><circle cx="325.6533333333333333333333333" cy="372.84" fill="rgb(142, 66, 150)" r="3" /><circle cx="137.6" cy="148.18" fill="rgb(60, 207, 150)" r="3" /><circle cx="403.6266666666666666666666667" cy="350.5333333333333333333333333" fill="rgb(176, 80, 150)" r="3" /><circle cx="270.6133333333333333333333333" cy="403.1133333333333333333333333" fill="rgb(118, 47, 150)" r="3" /><circle cx="68.8" cy="132.2466666666666666666666667" fill="rgb(30, 217, 150)" r="3" /><circle cx="247.68" cy="154.5533333333333333333333333" fill="rgb(108, 203, 150)" r="3" /><circle cx="477.0133333333333333333333333" cy="325.04" fill="rgb(208, 96, 150)" r="3" /><circle cx="360.0533333333333333333333333" cy="144.9933333333333333333333333" fill="rgb(157, 209, 150)" r="3" /><circle cx="548.1066666666666666666666667" cy="383.9933333333333333333333333" fill="rgb(239, 59, 150)" r="3" /><circle cx="344.0" cy="144.9933333333333333333333333" fill="rgb(150, 209, 150)" r="3" /><circle cx="506.8266666666666666666666667" cy="398.3333333333333333333333333" fill="rgb(221, 50, 150)" r="3" /><circle cx="57.33333333333333333333333333" cy="391.96" fill="rgb(25, 54, 150)" r="3" /><circle cx="467.84" cy="336.1933333333333333333333333" fill="rgb(204, 89, 150)" r="3" /><circle cx="366.9333333333333333333333333" cy="253.34" fill="rgb(160, 141, 150)" r="3" /><circle cx="220.16" cy="79.6666666666666666666666667" fill="rgb(96, 250, 150)" r="3" /><circle cx="513.7066666666666666666666667" cy="156.1466666666666666666666667" fill="rgb(224, 202, 150)" r="3" /><circle cx="215.5733333333333333333333333" cy="178.4533333333333333333333333" fill="rgb(94, 188, 150)" r="3" /><circle cx="11.46666666666666666666666667" cy="466.8466666666666666666666667" fill="rgb(5, 7, 150)" r="3" /><circle cx="64.21333333333333333333333333" cy="288.3933333333333333333333333" fill="rgb(28, 119, 150)" r="3" /><circle cx="504.5333333333333333333333333" cy="457.2866666666666666666666667" fill="rgb(220, 13, 150)" r="3" /><circle cx="45.86666666666666666666666667" cy="355.3133333333333333333333333" fill="rgb(20, 77, 150)" r="3" /><circle cx="360.0533333333333333333333333" cy="235.8133333333333333333333333" fill="rgb(157, 152, 150)" r="3" /><circle cx="321.0666666666666666666666667" cy="438.1666666666666666666666667" fill="rgb(140, 25, 150)" r="3" /><circle cx="103.20" cy="151.3666666666666666666666667" fill="rgb(45, 205, 150)" r="3" /><circle cx="43.57333333333333333333333333" cy="463.66" fill="rgb(19, 9, 150)" r="3" /><circle cx="146.7733333333333333333333333" cy="441.3533333333333333333333333" fill="rgb(64, 23, 150)" r="3" /><circle cx="22.93333333333333333333333333" cy="254.9333333333333333333333333" fill="rgb(10, 140, 150)" r="3" /><circle cx="181.1733333333333333333333333" cy="348.94" fill="rgb(79, 81, 150)" r="3" /><circle cx="426.56" cy="152.96" fill="rgb(186, 204, 150)" r="3" /><circle cx="183.4666666666666666666666667" cy="463.66" fill="rgb(80, 9, 150)" r="3" /><circle cx="557.28" cy="219.88" fill="rgb(243, 162, 150)" r="3" /><circle cx="408.2133333333333333333333333" cy="94.0066666666666666666666667" fill="rgb(178, 241, 150)" r="3" /><circle cx="568.7466666666666666666666667" cy="188.0133333333333333333333333" fill="rgb(248, 182, 150)" r="3" /><circle cx="389.8666666666666666666666667" cy="231.0333333333333333333333333" fill="rgb(170, 155, 150)" r="3" /><circle cx="346.2933333333333333333333333" cy="117.9066666666666666666666667" fill="rgb(151, 226, 150)" r="3" /><circle cx="75.68" cy="377.62" fill="rgb(33, 63, 150)" r="3" /><circle cx="16.05333333333333333333333333" cy="312.2933333333333333333333333" fill="rgb(7, 104, 150)" r="3" /><circle cx="146.7733333333333333333333333" cy="195.98" fill="rgb(64, 177, 150)" r="3" /><circle cx="444.9066666666666666666666667" cy="345.7533333333333333333333333" fill="rgb(194, 83, 150)" r="3" /><circle cx="325.6533333333333333333333333" cy="329.82" fill="rgb(142, 93, 150)" r="3" /><circle cx="293.5466666666666666666666667" cy="133.84" fill="rgb(128, 216, 150)" r="3" /><circle cx="119.2533333333333333333333333" cy="100.38" fill="rgb(52, 237, 150)" r="3" /><circle cx="387.5733333333333333333333333" cy="294.7666666666666666666666667" fill="rgb(169, 115, 150)" r="3" /><circle cx="454.08" cy="267.68" fill="rgb(198, 132, 150)" r="3" /><circle cx="529.76" cy="455.6933333333333333333333333" fill="rgb(231, 14, 150)" r="3" /><circle cx="493.0666666666666666666666667" cy="302.7333333333333333333333333" fill="rgb(215, 110, 150)" r="3" /><circle cx="91.73333333333333333333333331" cy="352.1266666666666666666666667" fill="rgb(40, 79, 150)" r="3" /><circle cx="566.4533333333333333333333333" cy="302.7333333333333333333333333" fill="rgb(247, 110, 150)" r="3" /><circle cx="419.68" cy="431.7933333333333333333333333" fill="rgb(183, 29, 150)" r="3" /><circle cx="424.2666666666666666666666667" cy="296.36" fill="rgb(185, 114, 150)" r="3" /><circle cx="302.72" cy="234.22" fill="rgb(132, 153, 150)" r="3" /><circle cx="435.7333333333333333333333333" cy="105.16" fill="rgb(190, 234, 150)" r="3" /><circle cx="532.0533333333333333333333333" cy="277.24" fill="rgb(232, 126, 150)" r="3" /><circle cx="22.93333333333333333333333333" cy="441.3533333333333333333333333" fill="rgb(10, 23, 150)" r="3" /><circle cx="268.32" cy="348.94" fill="rgb(117, 81, 150)" r="3" /><circle cx="561.8666666666666666666666667" cy="189.6066666666666666666666667" fill="rgb(245, 181, 150)" r="3" /><circle cx="444.9066666666666666666666667" cy="403.1133333333333333333333333" fill="rgb(194, 47, 150)" r="3" /><circle cx="210.9866666666666666666666667" cy="242.1866666666666666666666667" fill="rgb(92, 148, 150)" r="3" /><circle cx="444.9066666666666666666666667" cy="458.88" fill="rgb(194, 12, 150)" r="3" /><circle cx="419.68" cy="436.5733333333333333333333333" fill="rgb(183, 26, 150)" r="3" /><circle cx="486.1866666666666666666666667" cy="283.6133333333333333333333333" fill="rgb(212, 122, 150)" r="3" /><circle cx="256.8533333333333333333333333" cy="135.4333333333333333333333333" fill="rgb(112, 215, 150)" r="3" /><circle cx="215.5733333333333333333333333" cy="347.3466666666666666666666667" fill="rgb(94, 82, 150)" r="3" /><circle cx="254.56" cy="457.2866666666666666666666667" fill="rgb(111, 13, 150)" r="3" /><circle cx="474.72" cy="207.1333333333333333333333333" fill="rgb(207, 170, 150)" r="3" /><circle cx="236.2133333333333333333333333" cy="237.4066666666666666666666667" fill="rgb(103, 151, 150)" r="3" /><circle cx="405.92" cy="106.7533333333333333333333333" fill="rgb(177, 233, 150)" r="3" /><circle cx="483.8933333333333333333333333" cy="164.1133333333333333333333333" fill="rgb(211, 197, 150)" r="3" /><circle cx="215.5733333333333333333333333" cy="289.9866666666666666666666667" fill="rgb(94, 118, 150)" r="3" /><circle cx="197.2266666666666666666666667" cy="414.2666666666666666666666667" fill="rgb(86, 40, 150)" r="3" /><circle cx="279.7866666666666666666666667" cy="291.58" fill="rgb(122, 117, 150)" r="3" /><circle cx="286.6666666666666666666666667" cy="274.0533333333333333333333333" fill="rgb(125, 128, 150)" r="3" /><circle cx="311.8933333333333333333333333" cy="229.44" fill="rgb(136, 156, 150)" r="3" /><circle cx="419.68" cy="129.06" fill="rgb(183, 219, 150)" r="3" /><circle cx="341.7066666666666666666666667" cy="152.96" fill="rgb(149, 204, 150)" r="3" /><circle cx="48.16" cy="356.9066666666666666666666667" fill="rgb(21, 76, 150)" r="3" /><circle cx="318.7733333333333333333333333" cy="388.7733333333333333333333333" fill="rgb(139, 56, 150)" r="3" /><circle cx="185.76" cy="391.96" fill="rgb(81, 54, 150)" r="3" /><circle cx="408.2133333333333333333333333" cy="261.3066666666666666666666667" fill="rgb(178, 136, 150)" r="3" /><circle cx="568.7466666666666666666666667" cy="363.28" fill="rgb(248, 72, 150)" r="3" /><circle cx="529.76" cy="465.2533333333333333333333333" fill="rgb(231, 8, 150)" r="3" /><circle cx="396.7466666666666666666666667" cy="259.7133333333333333333333333" fill="rgb(173, 137, 150)" r="3" /><circle cx="13.76" cy="160.9266666666666666666666667" fill="rgb(6, 199, 150)" r="3" /><circle cx="522.88" cy="235.8133333333333333333333333" fill="rgb(228, 152, 150)" r="3" /><circle cx="417.3866666666666666666666667" cy="460.4733333333333333333333333" fill="rgb(182, 11, 150)" r="3" /><circle cx="559.5733333333333333333333333" cy="310.70" fill="rgb(244, 105, 150)" r="3" /><circle cx="493.0666666666666666666666667" cy="151.3666666666666666666666667" fill="rgb(215, 205, 150)" r="3" /><circle cx="259.1466666666666666666666667" cy="106.7533333333333333333333333" fill="rgb(113, 233, 150)" r="3" /></g></g></g></g></g></g></svg>