<?xml version="1.0" standalone="no"?>
<!DOCTYPE svg PUBLIC "-//W3C//DTD SVG 1.1//EN"
"http://www.w3.org/Graphics/SVG/1.1/DTD/svg11.dtd">
<svg height="600" version="1.1" width="800" xmlns="http://www.w3.org/2000/svg"><g><rect fill="#f9f9f9" height="600" width="800" x="0" y="0" /><g transform="translate(40 40)"><g transform="translate(56 0)"><text fill="#333" font-family="Monaco" font-size="16" x="0" y="0">Colorized dots</text></g><g transform="translate(0 20)"><g transform="translate(56 0)"><g class="axis bottom"><text dy="1em" fill="#666" font-family="Monaco" text-anchor="middle" transform="" x="332.0" y="508.0" /><g class="tick"><line stroke="#a8a8a8" stroke-width="1" x1="0.0" x2="0.0" y1="0" y2="482.0" /><text dy="1em" fill="#9c9c9c" font-family="Monaco" text-anchor="middle" x="0.0" y="486.0">0.0</text></g><g class="tick"><line stroke="#eee" stroke-width="1" x1="166.0" x2="166.0" y1="0" y2="482.0" /><text dy="1em" fill="#9c9c9c" font-family="Monaco" text-anchor="middle" x="166.0" y="486.0">62.25</text></g><g class="tick"><line stroke="#eee" stroke-width="1" x1="332.0" x2="332.0" y1="0" y2="482.0" /><text dy="1em" fill="#9c9c9c" font-family="Monaco" text-anchor="middle" x="332.0" y="486.0">124.5</text></g><g class="tick"><line stroke="#eee" stroke-width="1" x1="498.0" x2="498.0" y1="0" y2="482.0" /><text dy="1em" fill="#9c9c9c" font-family="Monaco" text-anchor="middle" x="498.0" y="486.0">186.75</text></g><g class="tick"><line stroke="#eee" stroke-width="1" x1="664.0" x2="664.0" y1="0" y2="482.0" /><text dy="1em" fill="#9c9c9c" font-family="Monaco" text-anchor="middle" x="664.0" y="486.0">249.0</text></g></g><g class="axis left"><text dy="" fill="#666" font-family="Monaco" text-anchor="middle" transform="rotate(270 -56 239)" x="-56" y="239.0" /><g class="tick"><line stroke="#eee" stroke-width="1" x1="-4" x2="664.0" y1="478.0" y2="478.0" /><text dy="0.32em" fill="#9c9c9c" font-family="Monaco" text-anchor="end" x="-8" y="478.0">9.0</text></g><g class="tick"><line stroke="#eee" stroke-width="1" x1="-4" x2="664.0" y1="358.5" y2="358.5" /><text dy="0.32em" fill="#9c9c9c" font-family="Monaco" text-anchor="end" x="-8" y="358.5">68.75</text></g><g class="tick"><line stroke="#eee" stroke-width="1" x1="-4" x2="664.0" y1="239.0" y2="239.0" /><text dy="0.32em" fill="#9c9c9c" font-family="Monaco" text-anchor="end" x="-8" y="239.0">128.5</text></g><g class="tick"><line stroke="#eee" stroke-width="1" x1="-4" x2="664.0" y1="119.5" y2="119.5" /><text dy="0.32em" fill="#9c9c9c" font-family="Monaco" text-anchor="end" x="-8" y="119.5">188.25</text></g><g class="tick"><line stroke="#eee" stroke-width="1" x1="-4" x2="664.0" y1="0.0" y2="0.0" /><text dy="0.32em" fill="#9c9c9c" font-family="Monaco" text-anchor="end" x="-8" y="0.0">248.0</text></g></g><g><g class="series dots"><circle cx="421.3333333333333" cy="186.0" fill="rgb(158, 155, 150)" r="3" /><circle cx="565.3333333333334" cy="92.0" fill="rgb(212, 202, 150)" r="3" /><circle cx="325.3333333333333" cy="160.0" fill="rgb(122, 168, 150)" r="3" /><circle cx="237.33333333333334" cy="116.0" fill="rgb(89, 190, 150)" r="3" /><circle cx="501.3333333333333" cy="332.0" fill="rgb(188, 82, 150)" r="3" /><circle cx="210.66666666666666" cy="30.0" fill="rgb(79, 233, 150)" r="3" /><circle cx="82.66666666666666" cy="150.0" fill="rgb(31, 173, 150)" r="3" /><circle cx="280.0" cy="16.0" fill="rgb(105, 240, 150)" r="3" /><circle cx="402.6666666666667" cy="418.0" fill="rgb(151, 39, 150)" r="3" /><circle cx="21.333333333333332" cy="60.0" fill="rgb(8, 218, 150)" r="3" /><circle cx="320.0" cy="304.0" fill="rgb(120, 96, 150)" r="3" /><circle cx="55.99999999999999" cy="34.0" fill="rgb(21, 231, 150)" r="3" /><circle cx="293.3333333333333" cy="134.0" fill="rgb(110, 181, 150)" r="3" /><circle cx="72.0" cy="28.0" fill="rgb(27, 234, 150)" r="3" /><circle cx="378.66666666666663" cy="78.0" fill="rgb(142, 209, 150)" r="3" /><circle cx="48.0" cy="130.0" fill="rgb(18, 183, 150)" r="3" /><circle cx="189.33333333333331" cy="386.0" fill="rgb(71, 55, 150)" r="3" /><circle cx="296.0" cy="414.0" fill="rgb(111, 41, 150)" r="3" /><circle cx="202.66666666666669" cy="272.0" fill="rgb(76, 112, 150)" r="3" /><circle cx="360.0" cy="96.0" fill="rgb(135, 200, 150)" r="3" /><circle cx="133.33333333333334" cy="478.0" fill="rgb(50, 9, 150)" r="3" /><circle cx="266.6666666666667" cy="278.0" fill="rgb(100, 109, 150)" r="3" /><circle cx="466.66666666666663" cy="24.0" fill="rgb(175, 236, 150)" r="3" /><circle cx="466.66666666666663" cy="460.0" fill="rgb(175, 18, 150)" r="3" /><circle cx="162.66666666666666" cy="210.0" fill="rgb(61, 143, 150)" r="3" /><circle cx="661.3333333333333" cy="0.0" fill="rgb(248, 248, 150)" r="3" /><circle cx="584.0" cy="222.00000000000003" fill="rgb(219, 137, 150)" r="3" /><circle cx="386.6666666666667" cy="352.0" fill="rgb(145, 72, 150)" r="3" /><circle cx="328.0" cy="210.0" fill="rgb(123, 143, 150)" r="3" /><circle cx="472.0" cy="354.0" fill="rgb(177, 71, 150)" r="3" /><circle cx="464.0" cy="140.0" fill="rgb(174, 178, 150)" r="3" /><circle cx="423.99999999999994" cy="256.0" fill="rgb(159, 120, 150)" r="3" /><circle cx="122.66666666666666" cy="198.0" fill="rgb(46, 149, 150)" r="3" /><circle cx="445.3333333333333" cy="370.0" fill="rgb(167, 63, 150)" r="3" /><circle cx="538.6666666666666" cy="332.0" fill="rgb(202, 82, 150)" r="3" /><circle cx="77.33333333333334" cy="58.0" fill="rgb(29, 219, 150)" r="3" /><circle cx="333.33333333333337" cy="56.0" fill="rgb(125, 220, 150)" r="3" /><circle cx="152.0" cy="164.0" fill="rgb(57, 166, 150)" r="3" /><circle cx="208.0" cy="280.0" fill="rgb(78, 108, 150)" r="3" /><circle cx="114.66666666666667" cy="26.0" fill="rgb(43, 235, 150)" r="3" /><circle cx="544.0" cy="294.0" fill="rgb(204, 101, 150)" r="3" /><circle cx="440.0" cy="388.0" fill="rgb(165, 54, 150)" r="3" /><circle cx="397.3333333333333" cy="452.0" fill="rgb(149, 22, 150)" r="3" /><circle cx="32.0" cy="48.0" fill="rgb(12, 224, 150)" r="3" /><circle cx="314.6666666666667" cy="58.0" fill="rgb(118, 219, 150)" r="3" /><circle cx="512.0" cy="112.0" fill="rgb(192, 192, 150)" r="3" /><circle cx="608.0" cy="164.0" fill="rgb(228, 166, 150)" r="3" /><circle cx="429.33333333333337" cy="32.0" fill="rgb(161, 232, 150)" r="3" /><circle cx="357.33333333333337" cy="438.0" fill="rgb(134, 29, 150)" r="3" /><circle cx="664.0" cy="334.0" fill="rgb(249, 81, 150)" r="3" /><circle cx="88.0" cy="32.0" fill="rgb(33, 232, 150)" r="3" /><circle cx="349.3333333333333" cy="80.0" fill="rgb(131, 208, 150)" r="3" /><circle cx="602.6666666666666" cy="292.0" fill="rgb(226, 102, 150)" r="3" /><circle cx="223.99999999999997" cy="398.0" fill="rgb(84, 49, 150)" r="3" /><circle cx="637.3333333333333" cy="428.0" fill="rgb(239, 34, 150)" r="3" /><circle cx="296.0" cy="468.0" fill="rgb(111, 14, 150)" r="3" /><circle cx="437.3333333333333" cy="322.0" fill="rgb(164, 87, 150)" r="3" /><circle cx="45.333333333333336" cy="360.0" fill="rgb(17, 68, 150)" r="3" /><circle cx="170.66666666666666" cy="292.0" fill="rgb(64, 102, 150)" r="3" /><circle cx="314.6666666666667" cy="200.0" fill="rgb(118, 148, 150)" r="3" /><circle cx="346.6666666666667" cy="170.0" fill="rgb(130, 163, 150)" r="3" /><circle cx="40.0" cy="34.0" fill="rgb(15, 231, 150)" r="3" /><circle cx="40.0" cy="320.0" fill="rgb(15, 88, 150)" r="3" /><circle cx="120.0" cy="44.0" fill="rgb(45, 226, 150)" r="3" /><circle cx="560.0" cy="96.0" fill="rgb(210, 200, 150)" r="3" /><circle cx="208.0" cy="6.0" fill="rgb(78, 245, 150)" r="3" /><circle cx="405.33333333333337" cy="342.0" fill="rgb(152, 77, 150)" r="3" /><circle cx="61.33333333333333" cy="446.0" fill="rgb(23, 25, 150)" r="3" /><circle cx="400.00000000000006" cy="428.0" fill="rgb(150, 34, 150)" r="3" /><circle cx="200.00000000000003" cy="256.0" fill="rgb(75, 120, 150)" r="3" /><circle cx="658.6666666666666" cy="214.0" fill="rgb(247, 141, 150)" r="3" /><circle cx="221.33333333333331" cy="58.0" fill="rgb(83, 219, 150)" r="3" /><circle cx="202.66666666666669" cy="112.0" fill="rgb(76, 192, 150)" r="3" /><circle cx="256.0" cy="354.0" fill="rgb(96, 71, 150)" r="3" /><circle cx="232.0" cy="112.0" fill="rgb(87, 192, 150)" r="3" /><circle cx="357.33333333333337" cy="204.0" fill="rgb(134, 146, 150)" r="3" /><circle cx="509.3333333333333" cy="36.0" fill="rgb(191, 230, 150)" r="3" /><circle cx="573.3333333333333" cy="198.0" fill="rgb(215, 149, 150)" r="3" /><circle cx="149.33333333333334" cy="102.0" fill="rgb(56, 197, 150)" r="3" /><circle cx="354.66666666666663" cy="386.0" fill="rgb(133, 55, 150)" r="3" /><circle cx="0.0" cy="310.0" fill="rgb(0, 93, 150)" r="3" /><circle cx="122.66666666666666" cy="48.0" fill="rgb(46, 224, 150)" r="3" /><circle cx="381.33333333333337" cy="232.00000000000003" fill="rgb(143, 132, 150)" r="3" /><circle cx="330.66666666666663" cy="172.0" fill="rgb(124, 162, 150)" r="3" /><circle cx="440.0" cy="156.0" fill="rgb(165, 170, 150)" r="3" /><circle cx="557.3333333333334" cy="448.0" fill="rgb(209, 24, 150)" r="3" /><circle cx="650.6666666666666" cy="68.0" fill="rgb(244, 214, 150)" r="3" /><circle cx="504.0" cy="126.0" fill="rgb(189, 185, 150)" r="3" /><circle cx="536.0" cy="186.0" fill="rgb(201, 155, 150)" r="3" /><circle cx="133.33333333333334" cy="372.0" fill="rgb(50, 62, 150)" r="3" /><circle cx="114.66666666666667" cy="422.0" fill="rgb(43, 37, 150)" r="3" /><circle cx="496.0" cy="358.0" fill="rgb(186, 69, 150)" r="3" /><circle cx="480.0" cy="290.0" fill="rgb(180, 103, 150)" r="3" /><circle cx="525.3333333333333" cy="418.0" fill="rgb(197, 39, 150)" r="3" /><circle cx="554.6666666666666" cy="440.0" fill="rgb(208, 28, 150)" r="3" /><circle cx="280.0" cy="212.0" fill="rgb(105, 142, 150)" r="3" /><circle cx="458.6666666666667" cy="208.0" fill="rgb(172, 144, 150)" r="3" /><circle cx="613.3333333333334" cy="72.0" fill="rgb(230, 212, 150)" r="3" /><circle cx="8.0" cy="298.0" fill="rgb(3, 99, 150)" r="3" /><circle cx="8.0" cy="98.0" fill="rgb(3, 199, 150)" r="3" /></g></g></g></g></g></g></svg>