<?xml version="1.0" standalone="no"?>
<!DOCTYPE svg PUBLIC "-//W3C//DTD SVG 1.1//EN"
"http://www.w3.org/Graphics/SVG/1.1/DTD/svg11.dtd">
<svg height="600" version="1.1" width="800" xmlns="http://www.w3.org/2000/svg"><g><rect fill="#f9f9f9" height="600" width="800" x="0" y="0" /><g transform="translate(40 40)"><g transform="translate(32 0)"><text fill="#333" font-family="Monaco" font-size="16" x="0" y="0">Colorized dots</text></g><g transform="translate(0 20)"><g transform="translate(32 0)"><g class="axis bottom"><g class="tick"><line stroke="#eee" stroke-width="1" x1="229.3333333333333333333333333" x2="229.3333333333333333333333333" y1="0" y2="482.0" /><text dy="1em" fill="#9c9c9c" font-family="Monaco" text-anchor="middle" x="229.3333333333333333333333333" y="486.0">100</text></g><g class="tick"><line stroke="#eee" stroke-width="1" x1="458.6666666666666666666666667" x2="458.6666666666666666666666667" y1="0" y2="482.0" /><text dy="1em" fill="#9c9c9c" font-family="Monaco" text-anchor="middle" x="458.6666666666666666666666667" y="486.0">200</text></g><g class="tick"><line stroke="#eee" stroke-width="1" x1="688" x2="688" y1="0" y2="482.0" /><text dy="1em" fill="#9c9c9c" font-family="Monaco" text-anchor="middle" x="688" y="486.0">300</text></g><g class="tick"><line stroke="#a8a8a8" stroke-width="1" x1="0" x2="0" y1="0" y2="482.0" /><text dy="1em" fill="#9c9c9c" font-family="Monaco" text-anchor="middle" x="0" y="486.0">0</text></g></g><g class="axis left"><g class="tick"><line stroke="#eee" stroke-width="1" x1="-4" x2="688.0" y1="318.6666666666666666666666667" y2="318.6666666666666666666666667" /><text dy="0.32em" fill="#9c9c9c" font-family="Monaco" text-anchor="end" x="-8" y="318.6666666666666666666666667">100</text></g><g class="tick"><line stroke="#eee" stroke-width="1" x1="-4" x2="688.0" y1="159.3333333333333333333333333" y2="159.3333333333333333333333333" /><text dy="0.32em" fill="#9c9c9c" font-family="Monaco" text-anchor="end" x="-8" y="159.3333333333333333333333333">200</text></g><g class="tick"><line stroke="#eee" stroke-width="1" x1="-4" x2="688.0" y1="0" y2="0" /><text dy="0.32em" fill="#9c9c9c" font-family="Monaco" text-anchor="end" x="-8" y="0">300</text></g><g class="tick"><line stroke="#a8a8a8" stroke-width="1" x1="-4" x2="688.0" y1="478" y2="478" /><text dy="0.32em" fill="#9c9c9c" font-family="Monaco" text-anchor="end" x="-8" y="478">0</text></g></g><g><g class="series dots"><circle cx="295.84" cy="312.2933333333333333333333333" fill="rgb(129, 104, 150)" r="3" /><circle cx="91.73333333333333333333333331" cy="164.1133333333333333333333333" fill="rgb(40, 197, 150)" r="3" /><circle cx="277.4933333333333333333333333" cy="372.84" fill="rgb(121, 66, 150)" r="3" /><circle cx="142.1866666666666666666666667" cy="393.5533333333333333333333333" fill="rgb(62, 53, 150)" r="3" /><circle cx="410.5066666666666666666666667" cy="446.1333333333333333333333333" fill="rgb(179, 20, 150)" r="3" /><circle cx="385.28" cy="419.0466666666666666666666667" fill="rgb(168, 37, 150)" r="3" /><circle cx="527.4666666666666666666666667" cy="149.7733333333333333333333333" fill="rgb(230, 206, 150)" r="3" /><circle cx="472.4266666666666666666666667" cy="379.2133333333333333333333333" fill="rgb(206, 62, 150)" r="3" /><circle cx="128.4266666666666666666666667" cy="223.0666666666666666666666667" fill="rgb(56, 160, 150)" r="3" /><circle cx="270.6133333333333333333333333" cy="79.6666666666666666666666667" fill="rgb(118, 250, 150)" r="3" /><circle cx="291.2533333333333333333333333" cy="243.78" fill="rgb(127, 147, 150)" r="3" /><circle cx="529.76" cy="253.34" fill="rgb(231, 141, 150)" r="3" /><circle cx="518.2933333333333333333333333" cy="235.8133333333333333333333333" fill="rgb(226, 152, 150)" r="3" /><circle cx="252.2666666666666666666666667" cy="189.6066666666666666666666667" fill="rgb(110, 181, 150)" r="3" /><circle cx="309.60" cy="108.3466666666666666666666667" fill="rgb(135, 232, 150)" r="3" /><circle cx="41.28" cy="188.0133333333333333333333333" fill="rgb(18, 182, 150)" r="3" /><circle cx="169.7066666666666666666666667" cy="258.12" fill="rgb(74, 138, 150)" r="3" /><circle cx="314.1866666666666666666666667" cy="280.4266666666666666666666667" fill="rgb(137, 124, 150)" r="3" /><circle cx="142.1866666666666666666666667" cy="84.4466666666666666666666667" fill="rgb(62, 247, 150)" r="3" /><circle cx="282.08" cy="374.4333333333333333333333333" fill="rgb(123, 65, 150)" r="3" /><circle cx="96.32" cy="391.96" fill="rgb(42, 54, 150)" r="3" /><circle cx="511.4133333333333333333333333" cy="111.5333333333333333333333333" fill="rgb(223, 230, 150)" r="3" /><circle cx="525.1733333333333333333333333" cy="211.9133333333333333333333333" fill="rgb(229, 167, 150)" r="3" /><circle cx="89.44" cy="430.2" fill="rgb(39, 30, 150)" r="3" /><circle cx="488.48" cy="181.64" fill="rgb(213, 186, 150)" r="3" /><circle cx="169.7066666666666666666666667" cy="248.56" fill="rgb(74, 144, 150)" r="3" /><circle cx="369.2266666666666666666666667" cy="270.8666666666666666666666667" fill="rgb(161, 130, 150)" r="3" /><circle cx="247.68" cy="246.9666666666666666666666667" fill="rgb(108, 145, 150)" r="3" /><circle cx="98.61333333333333333333333331" cy="160.9266666666666666666666667" fill="rgb(43, 199, 150)" r="3" /><circle cx="366.9333333333333333333333333" cy="101.9733333333333333333333333" fill="rgb(160, 236, 150)" r="3" /><circle cx="522.88" cy="376.0266666666666666666666667" fill="rgb(228, 64, 150)" r="3" /><circle cx="2.293333333333333333333333333" cy="302.7333333333333333333333333" fill="rgb(1, 110, 150)" r="3" /><circle cx="36.69333333333333333333333333" cy="476.4066666666666666666666667" fill="rgb(16, 1, 150)" r="3" /><circle cx="29.81333333333333333333333333" cy="269.2733333333333333333333333" fill="rgb(13, 131, 150)" r="3" /><circle cx="133.0133333333333333333333333" cy="239.0" fill="rgb(58, 150, 150)" r="3" /><circle cx="369.2266666666666666666666667" cy="141.8066666666666666666666667" fill="rgb(161, 211, 150)" r="3" /><circle cx="566.4533333333333333333333333" cy="334.6" fill="rgb(247, 90, 150)" r="3" /><circle cx="399.04" cy="411.08" fill="rgb(174, 42, 150)" r="3" /><circle cx="229.3333333333333333333333333" cy="339.38" fill="rgb(100, 87, 150)" r="3" /><circle cx="0" cy="393.5533333333333333333333333" fill="rgb(0, 53, 150)" r="3" /><circle cx="295.84" cy="146.5866666666666666666666667" fill="rgb(129, 208, 150)" r="3" /><circle cx="6.88" cy="363.28" fill="rgb(3, 72, 150)" r="3" /><circle cx="84.85333333333333333333333331" cy="157.74" fill="rgb(37, 201, 150)" r="3" /><circle cx="479.3066666666666666666666667" cy="313.8866666666666666666666667" fill="rgb(209, 103, 150)" r="3" /><circle cx="506.8266666666666666666666667" cy="361.6866666666666666666666667" fill="rgb(221, 73, 150)" r="3" /><circle cx="571.04" cy="293.1733333333333333333333333" fill="rgb(249, 116, 150)" r="3" /><circle cx="513.7066666666666666666666667" cy="360.0933333333333333333333333" fill="rgb(224, 74, 150)" r="3" /><circle cx="268.32" cy="423.8266666666666666666666667" fill="rgb(117, 34, 150)" r="3" /><circle cx="100.9066666666666666666666667" cy="360.0933333333333333333333333" fill="rgb(44, 74, 150)" r="3" /><circle cx="557.28" cy="460.4733333333333333333333333" fill="rgb(243, 11, 150)" r="3" /><circle cx="0" cy="79.6666666666666666666666667" fill="rgb(0, 250, 150)" r="3" /><circle cx="509.12" cy="231.0333333333333333333333333" fill="rgb(222, 155, 150)" r="3" /><circle cx="20.64" cy="84.4466666666666666666666667" fill="rgb(9, 247, 150)" r="3" /><circle cx="477.0133333333333333333333333" cy="457.2866666666666666666666667" fill="rgb(208, 13, 150)" r="3" /><circle cx="534.3466666666666666666666667" cy="116.3133333333333333333333333" fill="rgb(233, 227, 150)" r="3" /><circle cx="323.36" cy="207.1333333333333333333333333" fill="rgb(141, 170, 150)" r="3" /><circle cx="188.0533333333333333333333333" cy="377.62" fill="rgb(82, 63, 150)" r="3" /><circle cx="458.6666666666666666666666667" cy="379.2133333333333333333333333" fill="rgb(200, 62, 150)" r="3" /><circle cx="160.5333333333333333333333333" cy="277.24" fill="rgb(70, 126, 150)" r="3" /><circle cx="355.4666666666666666666666667" cy="200.76" fill="rgb(155, 174, 150)" r="3" /><circle cx="259.1466666666666666666666667" cy="87.6333333333333333333333333" fill="rgb(113, 245, 150)" r="3" /><circle cx="210.9866666666666666666666667" cy="210.32" fill="rgb(92, 168, 150)" r="3" /><circle cx="472.4266666666666666666666667" cy="376.0266666666666666666666667" fill="rgb(206, 64, 150)" r="3" /><circle cx="254.56" cy="181.64" fill="rgb(111, 186, 150)" r="3" /><circle cx="538.9333333333333333333333333" cy="450.9133333333333333333333333" fill="rgb(235, 17, 150)" r="3" /><circle cx="59.62666666666666666666666667" cy="313.8866666666666666666666667" fill="rgb(26, 103, 150)" r="3" /><circle cx="412.8" cy="245.3733333333333333333333333" fill="rgb(180, 146, 150)" r="3" /><circle cx="87.14666666666666666666666669" cy="313.8866666666666666666666667" fill="rgb(38, 103, 150)" r="3" /><circle cx="176.5866666666666666666666667" cy="278.8333333333333333333333333" fill="rgb(77, 125, 150)" r="3" /><circle cx="454.08" cy="465.2533333333333333333333333" fill="rgb(198, 8, 150)" r="3" /><circle cx="330.24" cy="207.1333333333333333333333333" fill="rgb(144, 170, 150)" r="3" /><circle cx="516.00" cy="213.5066666666666666666666667" fill="rgb(225, 166, 150)" r="3" /><circle cx="348.5866666666666666666666667" cy="411.08" fill="rgb(152, 42, 150)" r="3" /><circle cx="316.48" cy="141.8066666666666666666666667" fill="rgb(138, 211, 150)" r="3" /><circle cx="286.6666666666666666666666667" cy="363.28" fill="rgb(125, 72, 150)" r="3" /><circle cx="493.0666666666666666666666667" cy="180.0466666666666666666666667" fill="rgb(215, 187, 150)" r="3" /><circle cx="89.44" cy="291.58" fill="rgb(39, 117, 150)" r="3" /><circle cx="146.7733333333333333333333333" cy="320.26" fill="rgb(64, 99, 150)" r="3" /><circle cx="29.81333333333333333333333333" cy="129.06" fill="rgb(13, 219, 150)" r="3" /><circle cx="247.68" cy="223.0666666666666666666666667" fill="rgb(108, 160, 150)" r="3" /><circle cx="435.7333333333333333333333333" cy="216.6933333333333333333333333" fill="rgb(190, 164, 150)" r="3" /><circle cx="366.9333333333333333333333333" cy="181.64" fill="rgb(160, 186, 150)" r="3" /><circle cx="490.7733333333333333333333333" cy="364.8733333333333333333333333" fill="rgb(214, 71, 150)" r="3" /><circle cx="309.60" cy="100.38" fill="rgb(135, 237, 150)" r="3" /><circle cx="417.3866666666666666666666667" cy="229.44" fill="rgb(182, 156, 150)" r="3" /><circle cx="167.4133333333333333333333333" cy="321.8533333333333333333333333" fill="rgb(73, 98, 150)" r="3" /><circle cx="220.16" cy="278.8333333333333333333333333" fill="rgb(96, 125, 150)" r="3" /><circle cx="511.4133333333333333333333333" cy="428.6066666666666666666666667" fill="rgb(223, 31, 150)" r="3" /><circle cx="178.88" cy="256.5266666666666666666666667" fill="rgb(78, 139, 150)" r="3" /><circle cx="178.88" cy="422.2333333333333333333333333" fill="rgb(78, 35, 150)" r="3" /><circle cx="543.52" cy="473.22" fill="rgb(237, 3, 150)" r="3" /><circle cx="55.04" cy="342.5666666666666666666666667" fill="rgb(24, 85, 150)" r="3" /><circle cx="75.68" cy="444.54" fill="rgb(33, 21, 150)" r="3" /><circle cx="160.5333333333333333333333333" cy="385.5866666666666666666666667" fill="rgb(70, 58, 150)" r="3" /><circle cx="479.3066666666666666666666667" cy="278.8333333333333333333333333" fill="rgb(209, 125, 150)" r="3" /><circle cx="350.88" cy="199.1666666666666666666666667" fill="rgb(153, 175, 150)" r="3" /><circle cx="229.3333333333333333333333333" cy="90.82" fill="rgb(100, 243, 150)" r="3" /><circle cx="71.09333333333333333333333331" cy="267.68" fill="rgb(31, 132, 150)" r="3" /><circle cx="20.64" cy="167.30" fill="rgb(9, 195, 150)" r="3" /><circle cx="392.16" cy="441.3533333333333333333333333" fill="rgb(171, 23, 150)" r="3" /></g></g></g></g></g></g></svg>