<?xml version="1.0" standalone="no"?>
<!DOCTYPE svg PUBLIC "-//W3C//DTD SVG 1.1//EN"
"http://www.w3.org/Graphics/SVG/1.1/DTD/svg11.dtd">
<svg height="600" version="1.1" width="800" xmlns="http://www.w3.org/2000/svg"><g><rect fill="#f9f9f9" height="600" width="800" x="0" y="0" /><g transform="translate(40 40)"><g transform="translate(56 0)"><text fill="#333" font-family="Monaco" font-size="16" x="0" y="0">Colorized dots</text></g><g transform="translate(0 20)"><g transform="translate(56 0)"><g class="axis bottom"><text dy="1em" fill="#333" font-family="Monaco" text-anchor="middle" transform="" x="332.0" y="508.0" /><g class="tick"><line stroke="#a8a8a8" stroke-width="1" x1="0.0" x2="0.0" y1="0" y2="482.0" /><text dy="1em" fill="#9c9c9c" font-family="Monaco" text-anchor="middle" x="0.0" y="486.0">0.0</text></g><g class="tick"><line stroke="#eee" stroke-width="1" x1="166.0" x2="166.0" y1="0" y2="482.0" /><text dy="1em" fill="#9c9c9c" font-family="Monaco" text-anchor="middle" x="166.0" y="486.0">62.0</text></g><g class="tick"><line stroke="#eee" stroke-width="1" x1="332.0" x2="332.0" y1="0" y2="482.0" /><text dy="1em" fill="#9c9c9c" font-family="Monaco" text-anchor="middle" x="332.0" y="486.0">124.0</text></g><g class="tick"><line stroke="#eee" stroke-width="1" x1="498.0" x2="498.0" y1="0" y2="482.0" /><text dy="1em" fill="#9c9c9c" font-family="Monaco" text-anchor="middle" x="498.0" y="486.0">186.0</text></g><g class="tick"><line stroke="#eee" stroke-width="1" x1="664.0" x2="664.0" y1="0" y2="482.0" /><text dy="1em" fill="#9c9c9c" font-family="Monaco" text-anchor="middle" x="664.0" y="486.0">248.0</text></g></g><g class="axis left"><text dy="" fill="#333" font-family="Monaco" text-anchor="middle" transform="rotate(270 -56 239)" x="-56" y="239.0" /><g class="tick"><line stroke="#a8a8a8" stroke-width="1" x1="-4" x2="664.0" y1="478.0" y2="478.0" /><text dy="0.32em" fill="#9c9c9c" font-family="Monaco" text-anchor="end" x="-8" y="478.0">0.0</text></g><g class="tick"><line stroke="#eee" stroke-width="1" x1="-4" x2="664.0" y1="358.5" y2="358.5" /><text dy="0.32em" fill="#9c9c9c" font-family="Monaco" text-anchor="end" x="-8" y="358.5">60.75</text></g><g class="tick"><line stroke="#eee" stroke-width="1" x1="-4" x2="664.0" y1="239.0" y2="239.0" /><text dy="0.32em" fill="#9c9c9c" font-family="Monaco" text-anchor="end" x="-8" y="239.0">121.5</text></g><g class="tick"><line stroke="#eee" stroke-width="1" x1="-4" x2="664.0" y1="119.5" y2="119.5" /><text dy="0.32em" fill="#9c9c9c" font-family="Monaco" text-anchor="end" x="-8" y="119.5">182.25</text></g><g class="tick"><line stroke="#eee" stroke-width="1" x1="-4" x2="664.0" y1="0.0" y2="0.0" /><text dy="0.32em" fill="#9c9c9c" font-family="Monaco" text-anchor="end" x="-8" y="0.0">243.0</text></g></g><g><g class="series dots"><circle cx="406.9677419354839" cy="149.4979423868313" fill="rgb(152, 167, 150)" r="3" /><circle cx="235.61290322580646" cy="399.3168724279835" fill="rgb(88, 40, 150)" r="3" /><circle cx="265.06451612903226" cy="210.47736625514403" fill="rgb(99, 136, 150)" r="3" /><circle cx="589.0322580645161" cy="0.0" fill="rgb(220, 243, 150)" r="3" /><circle cx="174.03225806451613" cy="206.54320987654324" fill="rgb(65, 138, 150)" r="3" /><circle cx="56.2258064516129" cy="424.8888888888889" fill="rgb(21, 27, 150)" r="3" /><circle cx="235.61290322580646" cy="9.83539094650206" fill="rgb(88, 238, 150)" r="3" /><circle cx="115.12903225806453" cy="29.506172839506178" fill="rgb(43, 228, 150)" r="3" /><circle cx="318.61290322580646" cy="9.83539094650206" fill="rgb(119, 238, 150)" r="3" /><circle cx="326.64516129032256" cy="287.1934156378601" fill="rgb(122, 97, 150)" r="3" /><circle cx="66.93548387096774" cy="114.09053497942386" fill="rgb(25, 185, 150)" r="3" /><circle cx="174.03225806451613" cy="51.14403292181066" fill="rgb(65, 217, 150)" r="3" /><circle cx="364.1290322580645" cy="324.5679012345679" fill="rgb(136, 78, 150)" r="3" /><circle cx="211.51612903225805" cy="125.89300411522635" fill="rgb(79, 179, 150)" r="3" /><circle cx="492.64516129032256" cy="279.32510288065845" fill="rgb(184, 101, 150)" r="3" /><circle cx="404.2903225806452" cy="78.68312757201647" fill="rgb(151, 203, 150)" r="3" /><circle cx="607.7741935483871" cy="35.40740740740739" fill="rgb(227, 225, 150)" r="3" /><circle cx="650.6129032258065" cy="255.7201646090535" fill="rgb(243, 113, 150)" r="3" /><circle cx="187.4193548387097" cy="405.2181069958848" fill="rgb(70, 37, 150)" r="3" /><circle cx="551.5483870967743" cy="348.17283950617286" fill="rgb(206, 66, 150)" r="3" /><circle cx="522.0967741935484" cy="320.63374485596705" fill="rgb(195, 80, 150)" r="3" /><circle cx="200.80645161290323" cy="405.2181069958848" fill="rgb(75, 37, 150)" r="3" /><circle cx="610.4516129032257" cy="23.604938271604965" fill="rgb(228, 231, 150)" r="3" /><circle cx="21.419354838709676" cy="43.27572016460908" fill="rgb(8, 221, 150)" r="3" /><circle cx="91.03225806451613" cy="167.20164609053495" fill="rgb(34, 158, 150)" r="3" /><circle cx="484.61290322580646" cy="245.88477366255142" fill="rgb(181, 118, 150)" r="3" /><circle cx="514.0645161290322" cy="29.506172839506178" fill="rgb(192, 228, 150)" r="3" /><circle cx="179.38709677419354" cy="114.09053497942386" fill="rgb(67, 185, 150)" r="3" /><circle cx="382.8709677419355" cy="247.85185185185188" fill="rgb(143, 117, 150)" r="3" /><circle cx="182.06451612903226" cy="236.04938271604937" fill="rgb(68, 123, 150)" r="3" /><circle cx="615.8064516129032" cy="110.15637860082302" fill="rgb(230, 187, 150)" r="3" /><circle cx="642.5806451612904" cy="74.74897119341563" fill="rgb(240, 205, 150)" r="3" /><circle cx="232.93548387096774" cy="383.58024691358025" fill="rgb(87, 48, 150)" r="3" /><circle cx="396.258064516129" cy="269.4897119341564" fill="rgb(148, 106, 150)" r="3" /><circle cx="653.2903225806451" cy="383.58024691358025" fill="rgb(244, 48, 150)" r="3" /><circle cx="460.5161290322581" cy="31.4732510288066" fill="rgb(172, 227, 150)" r="3" /><circle cx="83.0" cy="204.57613168724282" fill="rgb(31, 139, 150)" r="3" /><circle cx="548.8709677419355" cy="377.679012345679" fill="rgb(205, 51, 150)" r="3" /><circle cx="42.83870967741935" cy="94.41975308641975" fill="rgb(16, 195, 150)" r="3" /><circle cx="500.6774193548387" cy="125.89300411522635" fill="rgb(187, 179, 150)" r="3" /><circle cx="583.6774193548387" cy="7.868312757201636" fill="rgb(218, 239, 150)" r="3" /><circle cx="211.51612903225805" cy="208.5102880658436" fill="rgb(79, 137, 150)" r="3" /><circle cx="463.1935483870968" cy="112.1234567901235" fill="rgb(173, 186, 150)" r="3" /><circle cx="123.16129032258064" cy="98.35390946502054" fill="rgb(46, 193, 150)" r="3" /><circle cx="340.0322580645161" cy="177.037037037037" fill="rgb(127, 153, 150)" r="3" /><circle cx="664.0" cy="241.95061728395063" fill="rgb(248, 120, 150)" r="3" /><circle cx="286.48387096774195" cy="167.20164609053495" fill="rgb(107, 158, 150)" r="3" /><circle cx="481.93548387096774" cy="310.79835390946505" fill="rgb(180, 85, 150)" r="3" /><circle cx="471.2258064516129" cy="179.00411522633743" fill="rgb(176, 152, 150)" r="3" /><circle cx="240.96774193548387" cy="418.98765432098764" fill="rgb(90, 30, 150)" r="3" /><circle cx="80.3225806451613" cy="241.95061728395063" fill="rgb(30, 120, 150)" r="3" /><circle cx="149.93548387096774" cy="430.7901234567901" fill="rgb(56, 24, 150)" r="3" /><circle cx="141.90322580645162" cy="139.6625514403292" fill="rgb(53, 172, 150)" r="3" /><circle cx="147.25806451612902" cy="102.28806584362144" fill="rgb(55, 191, 150)" r="3" /><circle cx="83.0" cy="11.802469135802482" fill="rgb(31, 237, 150)" r="3" /><circle cx="42.83870967741935" cy="422.9218106995885" fill="rgb(16, 28, 150)" r="3" /><circle cx="372.1612903225806" cy="188.8395061728395" fill="rgb(139, 147, 150)" r="3" /><circle cx="388.2258064516129" cy="151.46502057613168" fill="rgb(145, 166, 150)" r="3" /><circle cx="297.19354838709677" cy="192.77366255144034" fill="rgb(111, 145, 150)" r="3" /><circle cx="556.9032258064516" cy="129.82716049382714" fill="rgb(208, 177, 150)" r="3" /><circle cx="372.1612903225806" cy="358.00823045267487" fill="rgb(139, 61, 150)" r="3" /><circle cx="575.6451612903226" cy="352.10699588477365" fill="rgb(215, 64, 150)" r="3" /><circle cx="607.7741935483871" cy="411.119341563786" fill="rgb(227, 34, 150)" r="3" /><circle cx="591.7096774193549" cy="444.55967078189303" fill="rgb(221, 17, 150)" r="3" /><circle cx="460.5161290322581" cy="51.14403292181066" fill="rgb(172, 217, 150)" r="3" /><circle cx="216.8709677419355" cy="476.0329218106996" fill="rgb(81, 1, 150)" r="3" /><circle cx="302.5483870967742" cy="422.9218106995885" fill="rgb(113, 28, 150)" r="3" /><circle cx="653.2903225806451" cy="403.2510288065844" fill="rgb(244, 38, 150)" r="3" /><circle cx="524.7741935483871" cy="452.42798353909467" fill="rgb(196, 13, 150)" r="3" /><circle cx="61.58064516129032" cy="336.3703703703704" fill="rgb(23, 72, 150)" r="3" /><circle cx="297.19354838709677" cy="125.89300411522635" fill="rgb(111, 179, 150)" r="3" /><circle cx="594.3870967741935" cy="312.7654320987655" fill="rgb(222, 84, 150)" r="3" /><circle cx="13.387096774193548" cy="291.12757201646093" fill="rgb(5, 95, 150)" r="3" /><circle cx="350.741935483871" cy="415.0534979423868" fill="rgb(131, 32, 150)" r="3" /><circle cx="139.2258064516129" cy="202.60905349794234" fill="rgb(52, 140, 150)" r="3" /><circle cx="380.1935483870968" cy="21.63786008230454" fill="rgb(142, 232, 150)" r="3" /><circle cx="323.9677419354839" cy="86.55144032921811" fill="rgb(121, 199, 150)" r="3" /><circle cx="353.41935483870964" cy="62.946502057613145" fill="rgb(132, 211, 150)" r="3" /><circle cx="24.096774193548388" cy="155.39917695473247" fill="rgb(9, 164, 150)" r="3" /><circle cx="283.80645161290323" cy="184.9053497942387" fill="rgb(106, 149, 150)" r="3" /><circle cx="332.0" cy="448.4938271604938" fill="rgb(124, 15, 150)" r="3" /><circle cx="441.7741935483871" cy="464.2304526748971" fill="rgb(165, 7, 150)" r="3" /><circle cx="230.25806451612905" cy="214.41152263374482" fill="rgb(86, 134, 150)" r="3" /><circle cx="498.0" cy="428.8230452674897" fill="rgb(186, 25, 150)" r="3" /><circle cx="393.58064516129036" cy="381.61316872427983" fill="rgb(147, 49, 150)" r="3" /><circle cx="498.0" cy="352.10699588477365" fill="rgb(186, 64, 150)" r="3" /><circle cx="436.41935483870964" cy="98.35390946502054" fill="rgb(163, 193, 150)" r="3" /><circle cx="455.1612903225806" cy="295.0617283950618" fill="rgb(170, 93, 150)" r="3" /><circle cx="607.7741935483871" cy="202.60905349794234" fill="rgb(227, 140, 150)" r="3" /><circle cx="519.4193548387096" cy="438.65843621399176" fill="rgb(194, 20, 150)" r="3" /><circle cx="291.83870967741933" cy="25.57201646090533" fill="rgb(109, 230, 150)" r="3" /><circle cx="96.38709677419355" cy="312.7654320987655" fill="rgb(36, 84, 150)" r="3" /><circle cx="535.483870967742" cy="214.41152263374482" fill="rgb(200, 134, 150)" r="3" /><circle cx="147.25806451612902" cy="330.46913580246917" fill="rgb(55, 75, 150)" r="3" /><circle cx="232.93548387096774" cy="92.45267489711932" fill="rgb(87, 196, 150)" r="3" /><circle cx="206.16129032258064" cy="0.0" fill="rgb(77, 243, 150)" r="3" /><circle cx="484.61290322580646" cy="356.0411522633745" fill="rgb(181, 62, 150)" r="3" /><circle cx="176.70967741935482" cy="379.6460905349794" fill="rgb(66, 50, 150)" r="3" /><circle cx="85.6774193548387" cy="446.5267489711934" fill="rgb(32, 16, 150)" r="3" /><circle cx="546.1935483870968" cy="346.20576131687244" fill="rgb(204, 67, 150)" r="3" /></g></g></g></g></g></g></svg>