<?xml version="1.0" standalone="no"?>
<!DOCTYPE svg PUBLIC "-//W3C//DTD SVG 1.1//EN"
"http://www.w3.org/Graphics/SVG/1.1/DTD/svg11.dtd">
<svg height="600" version="1.1" width="800" xmlns="http://www.w3.org/2000/svg"><g><rect fill="#f9f9f9" height="600" width="800" x="0" y="0" /><g transform="translate(40 40)"><g transform="translate(32 0)"><text fill="#333" font-family="Monaco" font-size="16" x="0" y="0">Colorized dots</text></g><g transform="translate(0 20)"><g transform="translate(32 0)"><g class="axis bottom"><g class="tick"><line stroke="#eee" stroke-width="1" x1="229.3333333333333333333333333" x2="229.3333333333333333333333333" y1="0" y2="482.0" /><text dy="1em" fill="#9c9c9c" font-family="Monaco" text-anchor="middle" x="229.3333333333333333333333333" y="486.0">100</text></g><g class="tick"><line stroke="#eee" stroke-width="1" x1="458.6666666666666666666666667" x2="458.6666666666666666666666667" y1="0" y2="482.0" /><text dy="1em" fill="#9c9c9c" font-family="Monaco" text-anchor="middle" x="458.6666666666666666666666667" y="486.0">200</text></g><g class="tick"><line stroke="#eee" stroke-width="1" x1="688" x2="688" y1="0" y2="482.0" /><text dy="1em" fill="#9c9c9c" font-family="Monaco" text-anchor="middle" x="688" y="486.0">300</text></g><g class="tick"><line stroke="#a8a8a8" stroke-width="1" x1="0" x2="0" y1="0" y2="482.0" /><text dy="1em" fill="#9c9c9c" font-family="Monaco" text-anchor="middle" x="0" y="486.0">0</text></g></g><g class="axis left"><g class="tick"><line stroke="#eee" stroke-width="1" x1="-4" x2="688.0" y1="318.6666666666666666666666667" y2="318.6666666666666666666666667" /><text dy="0.32em" fill="#9c9c9c" font-family="Monaco" text-anchor="end" x="-8" y="318.6666666666666666666666667">100</text></g><g class="tick"><line stroke="#eee" stroke-width="1" x1="-4" x2="688.0" y1="159.3333333333333333333333333" y2="159.3333333333333333333333333" /><text dy="0.32em" fill="#9c9c9c" font-family="Monaco" text-anchor="end" x="-8" y="159.3333333333333333333333333">200</text></g><g class="tick"><line stroke="#eee" stroke-width="1" x1="-4" x2="688.0" y1="0" y2="0" /><text dy="0.32em" fill="#9c9c9c" font-family="Monaco" text-anchor="end" x="-8" y="0">300</text></g><g class="tick"><line stroke="#a8a8a8" stroke-width="1" x1="-4" x2="688.0" y1="478" y2="478" /><text dy="0.32em" fill="#9c9c9c" font-family="Monaco" text-anchor="end" x="-8" y="478">0</text></g></g><g><g class="series dots"><circle cx="536.64" cy="178.4533333333333333333333333" fill="rgb(234, 188, 150)" r="3" /><circle cx="451.7866666666666666666666667" cy="149.7733333333333333333333333" fill="rgb(197, 206, 150)" r="3" /><circle cx="162.8266666666666666666666667" cy="355.3133333333333333333333333" fill="rgb(71, 77, 150)" r="3" /><circle cx="431.1466666666666666666666667" cy="398.3333333333333333333333333" fill="rgb(188, 50, 150)" r="3" /><circle cx="451.7866666666666666666666667" cy="202.3533333333333333333333333" fill="rgb(197, 173, 150)" r="3" /><circle cx="433.44" cy="137.0266666666666666666666667" fill="rgb(189, 214, 150)" r="3" /><circle cx="488.48" cy="251.7466666666666666666666667" fill="rgb(213, 142, 150)" r="3" /><circle cx="428.8533333333333333333333333" cy="216.6933333333333333333333333" fill="rgb(187, 164, 150)" r="3" /><circle cx="80.26666666666666666666666669" cy="267.68" fill="rgb(35, 132, 150)" r="3" /><circle cx="369.2266666666666666666666667" cy="135.4333333333333333333333333" fill="rgb(161, 215, 150)" r="3" /><circle cx="16.05333333333333333333333333" cy="356.9066666666666666666666667" fill="rgb(7, 76, 150)" r="3" /><circle cx="0" cy="278.8333333333333333333333333" fill="rgb(0, 125, 150)" r="3" /><circle cx="270.6133333333333333333333333" cy="339.38" fill="rgb(118, 87, 150)" r="3" /><circle cx="13.76" cy="312.2933333333333333333333333" fill="rgb(6, 104, 150)" r="3" /><circle cx="337.12" cy="474.8133333333333333333333333" fill="rgb(147, 2, 150)" r="3" /><circle cx="110.08" cy="183.2333333333333333333333333" fill="rgb(48, 185, 150)" r="3" /><circle cx="559.5733333333333333333333333" cy="146.5866666666666666666666667" fill="rgb(244, 208, 150)" r="3" /><circle cx="107.7866666666666666666666667" cy="372.84" fill="rgb(47, 66, 150)" r="3" /><circle cx="34.40" cy="186.42" fill="rgb(15, 183, 150)" r="3" /><circle cx="178.88" cy="167.30" fill="rgb(78, 195, 150)" r="3" /><circle cx="456.3733333333333333333333333" cy="82.8533333333333333333333333" fill="rgb(199, 248, 150)" r="3" /><circle cx="479.3066666666666666666666667" cy="369.6533333333333333333333333" fill="rgb(209, 68, 150)" r="3" /><circle cx="2.293333333333333333333333333" cy="253.34" fill="rgb(1, 141, 150)" r="3" /><circle cx="0" cy="353.72" fill="rgb(0, 78, 150)" r="3" /><circle cx="405.92" cy="227.8466666666666666666666667" fill="rgb(177, 157, 150)" r="3" /><circle cx="538.9333333333333333333333333" cy="376.0266666666666666666666667" fill="rgb(235, 64, 150)" r="3" /><circle cx="268.32" cy="213.5066666666666666666666667" fill="rgb(117, 166, 150)" r="3" /><circle cx="75.68" cy="366.4666666666666666666666667" fill="rgb(33, 70, 150)" r="3" /><circle cx="490.7733333333333333333333333" cy="396.74" fill="rgb(214, 51, 150)" r="3" /><circle cx="444.9066666666666666666666667" cy="254.9333333333333333333333333" fill="rgb(194, 140, 150)" r="3" /><circle cx="87.14666666666666666666666669" cy="168.8933333333333333333333333" fill="rgb(38, 194, 150)" r="3" /><circle cx="327.9466666666666666666666667" cy="436.5733333333333333333333333" fill="rgb(143, 26, 150)" r="3" /><circle cx="96.32" cy="137.0266666666666666666666667" fill="rgb(42, 214, 150)" r="3" /><circle cx="568.7466666666666666666666667" cy="294.7666666666666666666666667" fill="rgb(248, 115, 150)" r="3" /><circle cx="227.04" cy="148.18" fill="rgb(99, 207, 150)" r="3" /><circle cx="378.40" cy="438.1666666666666666666666667" fill="rgb(165, 25, 150)" r="3" /><circle cx="80.26666666666666666666666669" cy="376.0266666666666666666666667" fill="rgb(35, 64, 150)" r="3" /><circle cx="305.0133333333333333333333333" cy="454.10" fill="rgb(133, 15, 150)" r="3" /><circle cx="66.50666666666666666666666667" cy="246.9666666666666666666666667" fill="rgb(29, 145, 150)" r="3" /><circle cx="399.04" cy="293.1733333333333333333333333" fill="rgb(174, 116, 150)" r="3" /><circle cx="298.1333333333333333333333333" cy="317.0733333333333333333333333" fill="rgb(130, 101, 150)" r="3" /><circle cx="323.36" cy="340.9733333333333333333333333" fill="rgb(141, 86, 150)" r="3" /><circle cx="16.05333333333333333333333333" cy="87.6333333333333333333333333" fill="rgb(7, 245, 150)" r="3" /><circle cx="513.7066666666666666666666667" cy="474.8133333333333333333333333" fill="rgb(224, 2, 150)" r="3" /><circle cx="36.69333333333333333333333333" cy="302.7333333333333333333333333" fill="rgb(16, 110, 150)" r="3" /><circle cx="534.3466666666666666666666667" cy="197.5733333333333333333333333" fill="rgb(233, 176, 150)" r="3" /><circle cx="408.2133333333333333333333333" cy="439.76" fill="rgb(178, 24, 150)" r="3" /><circle cx="121.5466666666666666666666667" cy="388.7733333333333333333333333" fill="rgb(53, 56, 150)" r="3" /><circle cx="504.5333333333333333333333333" cy="127.4666666666666666666666667" fill="rgb(220, 220, 150)" r="3" /><circle cx="438.0266666666666666666666667" cy="353.72" fill="rgb(191, 78, 150)" r="3" /><circle cx="103.20" cy="412.6733333333333333333333333" fill="rgb(45, 41, 150)" r="3" /><circle cx="107.7866666666666666666666667" cy="363.28" fill="rgb(47, 72, 150)" r="3" /><circle cx="424.2666666666666666666666667" cy="226.2533333333333333333333333" fill="rgb(185, 158, 150)" r="3" /><circle cx="32.10666666666666666666666667" cy="309.1066666666666666666666667" fill="rgb(14, 106, 150)" r="3" /><circle cx="522.88" cy="313.8866666666666666666666667" fill="rgb(228, 103, 150)" r="3" /><circle cx="277.4933333333333333333333333" cy="275.6466666666666666666666667" fill="rgb(121, 127, 150)" r="3" /><circle cx="119.2533333333333333333333333" cy="122.6866666666666666666666667" fill="rgb(52, 223, 150)" r="3" /><circle cx="497.6533333333333333333333333" cy="433.3866666666666666666666667" fill="rgb(217, 28, 150)" r="3" /><circle cx="236.2133333333333333333333333" cy="399.9266666666666666666666667" fill="rgb(103, 49, 150)" r="3" /><circle cx="401.3333333333333333333333333" cy="243.78" fill="rgb(175, 147, 150)" r="3" /><circle cx="472.4266666666666666666666667" cy="113.1266666666666666666666667" fill="rgb(206, 229, 150)" r="3" /><circle cx="98.61333333333333333333333331" cy="154.5533333333333333333333333" fill="rgb(43, 203, 150)" r="3" /><circle cx="181.1733333333333333333333333" cy="240.5933333333333333333333333" fill="rgb(79, 149, 150)" r="3" /><circle cx="516.00" cy="151.3666666666666666666666667" fill="rgb(225, 205, 150)" r="3" /><circle cx="548.1066666666666666666666667" cy="383.9933333333333333333333333" fill="rgb(239, 59, 150)" r="3" /><circle cx="36.69333333333333333333333333" cy="86.04" fill="rgb(16, 246, 150)" r="3" /><circle cx="66.50666666666666666666666667" cy="240.5933333333333333333333333" fill="rgb(29, 149, 150)" r="3" /><circle cx="488.48" cy="162.52" fill="rgb(213, 198, 150)" r="3" /><circle cx="249.9733333333333333333333333" cy="114.72" fill="rgb(109, 228, 150)" r="3" /><circle cx="123.84" cy="391.96" fill="rgb(54, 54, 150)" r="3" /><circle cx="321.0666666666666666666666667" cy="122.6866666666666666666666667" fill="rgb(140, 223, 150)" r="3" /><circle cx="73.38666666666666666666666669" cy="355.3133333333333333333333333" fill="rgb(32, 77, 150)" r="3" /><circle cx="314.1866666666666666666666667" cy="462.0666666666666666666666667" fill="rgb(137, 10, 150)" r="3" /><circle cx="66.50666666666666666666666667" cy="138.62" fill="rgb(29, 213, 150)" r="3" /><circle cx="121.5466666666666666666666667" cy="401.52" fill="rgb(53, 48, 150)" r="3" /><circle cx="167.4133333333333333333333333" cy="404.7066666666666666666666667" fill="rgb(73, 46, 150)" r="3" /><circle cx="110.08" cy="460.4733333333333333333333333" fill="rgb(48, 11, 150)" r="3" /><circle cx="197.2266666666666666666666667" cy="152.96" fill="rgb(86, 204, 150)" r="3" /><circle cx="408.2133333333333333333333333" cy="334.6" fill="rgb(178, 90, 150)" r="3" /><circle cx="509.12" cy="205.54" fill="rgb(222, 171, 150)" r="3" /><circle cx="57.33333333333333333333333333" cy="191.2" fill="rgb(25, 180, 150)" r="3" /><circle cx="52.74666666666666666666666667" cy="192.7933333333333333333333333" fill="rgb(23, 179, 150)" r="3" /><circle cx="545.8133333333333333333333333" cy="336.1933333333333333333333333" fill="rgb(238, 89, 150)" r="3" /><circle cx="323.36" cy="347.3466666666666666666666667" fill="rgb(141, 82, 150)" r="3" /><circle cx="57.33333333333333333333333333" cy="156.1466666666666666666666667" fill="rgb(25, 202, 150)" r="3" /><circle cx="454.08" cy="293.1733333333333333333333333" fill="rgb(198, 116, 150)" r="3" /><circle cx="357.76" cy="259.7133333333333333333333333" fill="rgb(156, 137, 150)" r="3" /><circle cx="529.76" cy="415.86" fill="rgb(231, 39, 150)" r="3" /><circle cx="34.40" cy="180.0466666666666666666666667" fill="rgb(15, 187, 150)" r="3" /><circle cx="309.60" cy="427.0133333333333333333333333" fill="rgb(135, 32, 150)" r="3" /><circle cx="128.4266666666666666666666667" cy="470.0333333333333333333333333" fill="rgb(56, 5, 150)" r="3" /><circle cx="119.2533333333333333333333333" cy="246.9666666666666666666666667" fill="rgb(52, 145, 150)" r="3" /><circle cx="80.26666666666666666666666669" cy="395.1466666666666666666666667" fill="rgb(35, 52, 150)" r="3" /><circle cx="135.3066666666666666666666667" cy="471.6266666666666666666666667" fill="rgb(59, 4, 150)" r="3" /><circle cx="467.84" cy="377.62" fill="rgb(204, 63, 150)" r="3" /><circle cx="87.14666666666666666666666669" cy="325.04" fill="rgb(38, 96, 150)" r="3" /><circle cx="268.32" cy="227.8466666666666666666666667" fill="rgb(117, 157, 150)" r="3" /><circle cx="518.2933333333333333333333333" cy="160.9266666666666666666666667" fill="rgb(226, 199, 150)" r="3" /><circle cx="463.2533333333333333333333333" cy="242.1866666666666666666666667" fill="rgb(202, 148, 150)" r="3" /><circle cx="41.28" cy="224.66" fill="rgb(18, 159, 150)" r="3" /></g></g></g></g></g></g></svg>