<?xml version="1.0" standalone="no"?>
<!DOCTYPE svg PUBLIC "-//W3C//DTD SVG 1.1//EN"
"http://www.w3.org/Graphics/SVG/1.1/DTD/svg11.dtd">
<svg height="600" version="1.1" width="800" xmlns="http://www.w3.org/2000/svg"><g><rect fill="#f9f9f9" height="600" width="800" x="0" y="0" /><g transform="translate(40 40)"><g transform="translate(32 0)"><text fill="#333" font-family="Monaco" font-size="16" x="0" y="0">Colorized dots</text></g><g transform="translate(0 20)"><g transform="translate(32 0)"><g class="axis bottom"><g class="tick"><line stroke="#eee" stroke-width="1" x1="229.3333333333333333333333333" x2="229.3333333333333333333333333" y1="0" y2="482.0" /><text dy="1em" fill="#9c9c9c" font-family="Monaco" text-anchor="middle" x="229.3333333333333333333333333" y="486.0">100</text></g><g class="tick"><line stroke="#eee" stroke-width="1" x1="458.6666666666666666666666667" x2="458.6666666666666666666666667" y1="0" y2="482.0" /><text dy="1em" fill="#9c9c9c" font-family="Monaco" text-anchor="middle" x="458.6666666666666666666666667" y="486.0">200</text></g><g class="tick"><line stroke="#eee" stroke-width="1" x1="688" x2="688" y1="0" y2="482.0" /><text dy="1em" fill="#9c9c9c" font-family="Monaco" text-anchor="middle" x="688" y="486.0">300</text></g><g class="tick"><line stroke="#a8a8a8" stroke-width="1" x1="0" x2="0" y1="0" y2="482.0" /><text dy="1em" fill="#9c9c9c" font-family="Monaco" text-anchor="middle" x="0" y="486.0">0</text></g></g><g class="axis left"><g class="tick"><line stroke="#eee" stroke-width="1" x1="-4" x2="688.0" y1="318.6666666666666666666666667" y2="318.6666666666666666666666667" /><text dy="0.32em" fill="#9c9c9c" font-family="Monaco" text-anchor="end" x="-8" y="318.6666666666666666666666667">100</text></g><g class="tick"><line stroke="#eee" stroke-width="1" x1="-4" x2="688.0" y1="159.3333333333333333333333333" y2="159.3333333333333333333333333" /><text dy="0.32em" fill="#9c9c9c" font-family="Monaco" text-anchor="end" x="-8" y="159.3333333333333333333333333">200</text></g><g class="tick"><line stroke="#eee" stroke-width="1" x1="-4" x2="688.0" y1="0" y2="0" /><text dy="0.32em" fill="#9c9c9c" font-family="Monaco" text-anchor="end" x="-8" y="0">300</text></g><g class="tick"><line stroke="#a8a8a8" stroke-width="1" x1="-4" x2="688.0" y1="478" y2="478" /><text dy="0.32em" fill="#9c9c9c" font-family="Monaco" text-anchor="end" x="-8" y="478">0</text></g></g><g><g class="series dots"><circle cx="435.7333333333333333333333333" cy="393.5533333333333333333333333" fill="rgb(190, 53, 150)" r="3" /><circle cx="112.3733333333333333333333333" cy="239.0" fill="rgb(49, 150, 150)" r="3" /><circle cx="36.69333333333333333333333333" cy="382.4" fill="rgb(16, 60, 150)" r="3" /><circle cx="493.0666666666666666666666667" cy="170.4866666666666666666666667" fill="rgb(215, 193, 150)" r="3" /><circle cx="479.3066666666666666666666667" cy="232.6266666666666666666666667" fill="rgb(209, 154, 150)" r="3" /><circle cx="357.76" cy="144.9933333333333333333333333" fill="rgb(156, 209, 150)" r="3" /><circle cx="73.38666666666666666666666669" cy="197.5733333333333333333333333" fill="rgb(32, 176, 150)" r="3" /><circle cx="323.36" cy="251.7466666666666666666666667" fill="rgb(141, 142, 150)" r="3" /><circle cx="387.5733333333333333333333333" cy="398.3333333333333333333333333" fill="rgb(169, 50, 150)" r="3" /><circle cx="89.44" cy="137.0266666666666666666666667" fill="rgb(39, 214, 150)" r="3" /><circle cx="41.28" cy="301.14" fill="rgb(18, 111, 150)" r="3" /><circle cx="481.6" cy="328.2266666666666666666666667" fill="rgb(210, 94, 150)" r="3" /><circle cx="231.6266666666666666666666667" cy="124.28" fill="rgb(101, 222, 150)" r="3" /><circle cx="433.44" cy="213.5066666666666666666666667" fill="rgb(189, 166, 150)" r="3" /><circle cx="201.8133333333333333333333333" cy="264.4933333333333333333333333" fill="rgb(88, 134, 150)" r="3" /><circle cx="399.04" cy="280.4266666666666666666666667" fill="rgb(174, 124, 150)" r="3" /><circle cx="52.74666666666666666666666667" cy="154.5533333333333333333333333" fill="rgb(23, 203, 150)" r="3" /><circle cx="133.0133333333333333333333333" cy="101.9733333333333333333333333" fill="rgb(58, 236, 150)" r="3" /><circle cx="318.7733333333333333333333333" cy="285.2066666666666666666666667" fill="rgb(139, 121, 150)" r="3" /><circle cx="210.9866666666666666666666667" cy="447.7266666666666666666666667" fill="rgb(92, 19, 150)" r="3" /><circle cx="451.7866666666666666666666667" cy="186.42" fill="rgb(197, 183, 150)" r="3" /><circle cx="224.7466666666666666666666667" cy="323.4466666666666666666666667" fill="rgb(98, 97, 150)" r="3" /><circle cx="571.04" cy="130.6533333333333333333333333" fill="rgb(249, 218, 150)" r="3" /><circle cx="249.9733333333333333333333333" cy="442.9466666666666666666666667" fill="rgb(109, 22, 150)" r="3" /><circle cx="73.38666666666666666666666669" cy="325.04" fill="rgb(32, 96, 150)" r="3" /><circle cx="169.7066666666666666666666667" cy="407.8933333333333333333333333" fill="rgb(74, 44, 150)" r="3" /><circle cx="245.3866666666666666666666667" cy="398.3333333333333333333333333" fill="rgb(107, 50, 150)" r="3" /><circle cx="204.1066666666666666666666667" cy="369.6533333333333333333333333" fill="rgb(89, 68, 150)" r="3" /><circle cx="162.8266666666666666666666667" cy="246.9666666666666666666666667" fill="rgb(71, 145, 150)" r="3" /><circle cx="50.45333333333333333333333333" cy="250.1533333333333333333333333" fill="rgb(22, 143, 150)" r="3" /><circle cx="100.9066666666666666666666667" cy="285.2066666666666666666666667" fill="rgb(44, 121, 150)" r="3" /><circle cx="541.2266666666666666666666667" cy="425.42" fill="rgb(236, 33, 150)" r="3" /><circle cx="183.4666666666666666666666667" cy="345.7533333333333333333333333" fill="rgb(80, 83, 150)" r="3" /><circle cx="41.28" cy="398.3333333333333333333333333" fill="rgb(18, 50, 150)" r="3" /><circle cx="249.9733333333333333333333333" cy="391.96" fill="rgb(109, 54, 150)" r="3" /><circle cx="116.96" cy="307.5133333333333333333333333" fill="rgb(51, 107, 150)" r="3" /><circle cx="89.44" cy="285.2066666666666666666666667" fill="rgb(39, 121, 150)" r="3" /><circle cx="275.2" cy="113.1266666666666666666666667" fill="rgb(120, 229, 150)" r="3" /><circle cx="52.74666666666666666666666667" cy="301.14" fill="rgb(23, 111, 150)" r="3" /><circle cx="110.08" cy="414.2666666666666666666666667" fill="rgb(48, 40, 150)" r="3" /><circle cx="89.44" cy="122.6866666666666666666666667" fill="rgb(39, 223, 150)" r="3" /><circle cx="369.2266666666666666666666667" cy="207.1333333333333333333333333" fill="rgb(161, 170, 150)" r="3" /><circle cx="183.4666666666666666666666667" cy="280.4266666666666666666666667" fill="rgb(80, 124, 150)" r="3" /><circle cx="334.8266666666666666666666667" cy="328.2266666666666666666666667" fill="rgb(146, 94, 150)" r="3" /><circle cx="208.6933333333333333333333333" cy="119.50" fill="rgb(91, 225, 150)" r="3" /><circle cx="107.7866666666666666666666667" cy="313.8866666666666666666666667" fill="rgb(47, 103, 150)" r="3" /><circle cx="263.7333333333333333333333333" cy="116.3133333333333333333333333" fill="rgb(115, 227, 150)" r="3" /><circle cx="472.4266666666666666666666667" cy="89.2266666666666666666666667" fill="rgb(206, 244, 150)" r="3" /><circle cx="554.9866666666666666666666667" cy="419.0466666666666666666666667" fill="rgb(242, 37, 150)" r="3" /><circle cx="133.0133333333333333333333333" cy="393.5533333333333333333333333" fill="rgb(58, 53, 150)" r="3" /><circle cx="279.7866666666666666666666667" cy="449.32" fill="rgb(122, 18, 150)" r="3" /><circle cx="438.0266666666666666666666667" cy="396.74" fill="rgb(191, 51, 150)" r="3" /><circle cx="470.1333333333333333333333333" cy="468.44" fill="rgb(205, 6, 150)" r="3" /><circle cx="206.4" cy="156.1466666666666666666666667" fill="rgb(90, 202, 150)" r="3" /><circle cx="247.68" cy="438.1666666666666666666666667" fill="rgb(108, 25, 150)" r="3" /><circle cx="96.32" cy="109.94" fill="rgb(42, 231, 150)" r="3" /><circle cx="564.16" cy="407.8933333333333333333333333" fill="rgb(246, 44, 150)" r="3" /><circle cx="295.84" cy="98.7866666666666666666666667" fill="rgb(129, 238, 150)" r="3" /><circle cx="213.28" cy="164.1133333333333333333333333" fill="rgb(93, 197, 150)" r="3" /><circle cx="16.05333333333333333333333333" cy="313.8866666666666666666666667" fill="rgb(7, 103, 150)" r="3" /><circle cx="213.28" cy="181.64" fill="rgb(93, 186, 150)" r="3" /><circle cx="64.21333333333333333333333333" cy="434.98" fill="rgb(28, 27, 150)" r="3" /><circle cx="213.28" cy="231.0333333333333333333333333" fill="rgb(93, 155, 150)" r="3" /><circle cx="538.9333333333333333333333333" cy="280.4266666666666666666666667" fill="rgb(235, 124, 150)" r="3" /><circle cx="509.12" cy="211.9133333333333333333333333" fill="rgb(222, 167, 150)" r="3" /><circle cx="130.72" cy="446.1333333333333333333333333" fill="rgb(57, 20, 150)" r="3" /><circle cx="332.5333333333333333333333333" cy="84.4466666666666666666666667" fill="rgb(145, 247, 150)" r="3" /><circle cx="557.28" cy="430.2" fill="rgb(243, 30, 150)" r="3" /><circle cx="371.52" cy="246.9666666666666666666666667" fill="rgb(162, 145, 150)" r="3" /><circle cx="502.24" cy="376.0266666666666666666666667" fill="rgb(219, 64, 150)" r="3" /><circle cx="330.24" cy="326.6333333333333333333333333" fill="rgb(144, 95, 150)" r="3" /><circle cx="82.56" cy="95.6" fill="rgb(36, 240, 150)" r="3" /><circle cx="96.32" cy="130.6533333333333333333333333" fill="rgb(42, 218, 150)" r="3" /><circle cx="91.73333333333333333333333331" cy="237.4066666666666666666666667" fill="rgb(40, 151, 150)" r="3" /><circle cx="94.02666666666666666666666669" cy="162.52" fill="rgb(41, 198, 150)" r="3" /><circle cx="447.20" cy="325.04" fill="rgb(195, 96, 150)" r="3" /><circle cx="107.7866666666666666666666667" cy="157.74" fill="rgb(47, 201, 150)" r="3" /><circle cx="252.2666666666666666666666667" cy="119.50" fill="rgb(110, 225, 150)" r="3" /><circle cx="217.8666666666666666666666667" cy="95.6" fill="rgb(95, 240, 150)" r="3" /><circle cx="233.92" cy="288.3933333333333333333333333" fill="rgb(102, 119, 150)" r="3" /><circle cx="192.64" cy="234.22" fill="rgb(84, 153, 150)" r="3" /><circle cx="309.60" cy="211.9133333333333333333333333" fill="rgb(135, 167, 150)" r="3" /><circle cx="57.33333333333333333333333333" cy="382.4" fill="rgb(25, 60, 150)" r="3" /><circle cx="385.28" cy="301.14" fill="rgb(168, 111, 150)" r="3" /><circle cx="454.08" cy="103.5666666666666666666666667" fill="rgb(198, 235, 150)" r="3" /><circle cx="27.52" cy="417.4533333333333333333333333" fill="rgb(12, 38, 150)" r="3" /><circle cx="130.72" cy="254.9333333333333333333333333" fill="rgb(57, 140, 150)" r="3" /><circle cx="43.57333333333333333333333333" cy="286.8" fill="rgb(19, 120, 150)" r="3" /><circle cx="20.64" cy="291.58" fill="rgb(9, 117, 150)" r="3" /><circle cx="513.7066666666666666666666667" cy="318.6666666666666666666666667" fill="rgb(224, 100, 150)" r="3" /><circle cx="41.28" cy="114.72" fill="rgb(18, 228, 150)" r="3" /><circle cx="410.5066666666666666666666667" cy="95.6" fill="rgb(179, 240, 150)" r="3" /><circle cx="399.04" cy="159.3333333333333333333333333" fill="rgb(174, 200, 150)" r="3" /><circle cx="339.4133333333333333333333333" cy="406.30" fill="rgb(148, 45, 150)" r="3" /><circle cx="403.6266666666666666666666667" cy="172.08" fill="rgb(176, 192, 150)" r="3" /><circle cx="373.8133333333333333333333333" cy="130.6533333333333333333333333" fill="rgb(163, 218, 150)" r="3" /><circle cx="477.0133333333333333333333333" cy="208.7266666666666666666666667" fill="rgb(208, 169, 150)" r="3" /><circle cx="64.21333333333333333333333333" cy="419.0466666666666666666666667" fill="rgb(28, 37, 150)" r="3" /><circle cx="185.76" cy="419.0466666666666666666666667" fill="rgb(81, 37, 150)" r="3" /><circle cx="176.5866666666666666666666667" cy="409.4866666666666666666666667" fill="rgb(77, 43, 150)" r="3" /></g></g></g></g></g></g></svg>