<?xml version="1.0" standalone="no"?>
<!DOCTYPE svg PUBLIC "-//W3C//DTD SVG 1.1//EN"
"http://www.w3.org/Graphics/SVG/1.1/DTD/svg11.dtd">
<svg height="600" version="1.1" width="800" xmlns="http://www.w3.org/2000/svg"><g><rect fill="#f9f9f9" height="600" width="800" x="0" y="0" /><g transform="translate(40 40)"><g transform="translate(62 0)"><text fill="#333" font-family="Monaco" font-size="16" x="0" y="0">Columns</text></g><g transform="translate(0 20)"><g transform="translate(62 0)"><g class="axis bottom"><text dy="1em" fill="#666" font-family="Monaco" text-anchor="middle" transform="" x="329.0" y="486.0">None</text><g class="tick"><line stroke="#eee" stroke-width="1" x1="82.25" x2="82.25" y1="0" y2="452.0" /><text dy="1em" fill="#9c9c9c" font-family="Monaco" text-anchor="middle" x="82.25" y="456.0">Hello</text></g><g class="tick"><line stroke="#eee" stroke-width="1" x1="246.75" x2="246.75" y1="0" y2="452.0" /><text dy="1em" fill="#9c9c9c" font-family="Monaco" text-anchor="middle" x="246.75" y="456.0">How</text></g><g class="tick"><line stroke="#eee" stroke-width="1" x1="411.25" x2="411.25" y1="0" y2="452.0" /><text dy="1em" fill="#9c9c9c" font-family="Monaco" text-anchor="middle" x="411.25" y="456.0">Are</text></g><g class="tick"><line stroke="#eee" stroke-width="1" x1="575.75" x2="575.75" y1="0" y2="452.0" /><text dy="1em" fill="#9c9c9c" font-family="Monaco" text-anchor="middle" x="575.75" y="456.0">You</text></g></g><g class="axis left"><text dy="" fill="#666" font-family="Monaco" text-anchor="middle" transform="rotate(270 -40 224)" x="-40" y="224.0">None</text><g class="tick"><line stroke="#eee" stroke-width="1" x1="-4" x2="658.0" y1="336.00" y2="336.00" /><text dy="0.32em" fill="#9c9c9c" font-family="Monaco" text-anchor="end" x="-8" y="336.00">2.5</text></g><g class="tick"><line stroke="#eee" stroke-width="1" x1="-4" x2="658.0" y1="224.0" y2="224.0" /><text dy="0.32em" fill="#9c9c9c" font-family="Monaco" text-anchor="end" x="-8" y="224.0">5</text></g><g class="tick"><line stroke="#eee" stroke-width="1" x1="-4" x2="658.0" y1="112.00" y2="112.00" /><text dy="0.32em" fill="#9c9c9c" font-family="Monaco" text-anchor="end" x="-8" y="112.00">7.5</text></g><g class="tick"><line stroke="#eee" stroke-width="1" x1="-4" x2="658.0" y1="0" y2="0" /><text dy="0.32em" fill="#9c9c9c" font-family="Monaco" text-anchor="end" x="-8" y="0">10</text></g><g class="tick"><line stroke="#a8a8a8" stroke-width="1" x1="-4" x2="658.0" y1="448" y2="448" /><text dy="0.32em" fill="#9c9c9c" font-family="Monaco" text-anchor="end" x="-8" y="448">0</text></g></g><g><g class="series columns"><rect fill="#d190b6" height="134.4" width="148.050" x="8.225" y="313.6" /><rect fill="#d190b6" height="224.0" width="148.050" x="172.725" y="224.0" /><rect fill="#d190b6" height="403.2" width="148.050" x="337.225" y="44.8" /><rect fill="#d190b6" height="179.2" width="148.050" x="501.725" y="268.8" /></g></g></g></g></g></g></svg>