<?xml version="1.0" standalone="no"?>
<!DOCTYPE svg PUBLIC "-//W3C//DTD SVG 1.1//EN"
"http://www.w3.org/Graphics/SVG/1.1/DTD/svg11.dtd">
<svg height="600" version="1.1" width="800" xmlns="http://www.w3.org/2000/svg"><g><rect fill="#f9f9f9" height="600" width="800" x="0" y="0" /><g transform="translate(40 40)"><g transform="translate(40 0)"><text fill="#333" font-family="Monaco" font-size="16" x="0" y="0">Columns</text></g><g transform="translate(0 20)"><g transform="translate(40 0)"><g class="axis bottom"><text dy="1em" fill="#666" font-family="Monaco" text-anchor="middle" transform="" x="340.0" y="508.0" /><g class="tick"><line stroke="#eee" stroke-width="1" x1="85" x2="85" y1="0" y2="482.0" /><text dy="1em" fill="#9c9c9c" font-family="Monaco" text-anchor="middle" x="85" y="486.0">Hello</text></g><g class="tick"><line stroke="#eee" stroke-width="1" x1="255" x2="255" y1="0" y2="482.0" /><text dy="1em" fill="#9c9c9c" font-family="Monaco" text-anchor="middle" x="255" y="486.0">How</text></g><g class="tick"><line stroke="#eee" stroke-width="1" x1="425" x2="425" y1="0" y2="482.0" /><text dy="1em" fill="#9c9c9c" font-family="Monaco" text-anchor="middle" x="425" y="486.0">Are</text></g><g class="tick"><line stroke="#eee" stroke-width="1" x1="595" x2="595" y1="0" y2="482.0" /><text dy="1em" fill="#9c9c9c" font-family="Monaco" text-anchor="middle" x="595" y="486.0">You</text></g></g><g class="axis left"><text dy="" fill="#666" font-family="Monaco" text-anchor="middle" transform="rotate(270 -40 239)" x="-40" y="239.0" /><g class="tick"><line stroke="#eee" stroke-width="1" x1="-4" x2="680.0" y1="358.50" y2="358.50" /><text dy="0.32em" fill="#9c9c9c" font-family="Monaco" text-anchor="end" x="-8" y="358.50">2.25</text></g><g class="tick"><line stroke="#eee" stroke-width="1" x1="-4" x2="680.0" y1="239.00" y2="239.00" /><text dy="0.32em" fill="#9c9c9c" font-family="Monaco" text-anchor="end" x="-8" y="239.00">4.50</text></g><g class="tick"><line stroke="#eee" stroke-width="1" x1="-4" x2="680.0" y1="119.50" y2="119.50" /><text dy="0.32em" fill="#9c9c9c" font-family="Monaco" text-anchor="end" x="-8" y="119.50">6.75</text></g><g class="tick"><line stroke="#eee" stroke-width="1" x1="-4" x2="680.0" y1="0.00" y2="0.00" /><text dy="0.32em" fill="#9c9c9c" font-family="Monaco" text-anchor="end" x="-8" y="0.00">9.00</text></g><g class="tick"><line stroke="#a8a8a8" stroke-width="1" x1="-4" x2="680.0" y1="478.00" y2="478.00" /><text dy="0.32em" fill="#9c9c9c" font-family="Monaco" text-anchor="end" x="-8" y="478.00">0.00</text></g></g><g><g class="series columns"><rect fill="#d190b6" height="159.3333333333333333333333333" width="153.0" x="8.5" y="318.6666666666666666666666667" /><rect fill="#d190b6" height="265.5555555555555555555555556" width="153.0" x="178.5" y="212.4444444444444444444444444" /><rect fill="#d190b6" height="478" width="153.0" x="348.5" y="0" /><rect fill="#d190b6" height="212.4444444444444444444444444" width="153.0" x="518.5" y="265.5555555555555555555555556" /></g></g></g></g></g></g></svg>