<?xml version="1.0" standalone="no"?>
<!DOCTYPE svg PUBLIC "-//W3C//DTD SVG 1.1//EN"
"http://www.w3.org/Graphics/SVG/1.1/DTD/svg11.dtd">
<svg height="600" version="1.1" width="800" xmlns="http://www.w3.org/2000/svg"><g><rect fill="#f9f9f9" height="600" width="800" x="0" y="0" /><g transform="translate(40 40)"><g transform="translate(112 0)"><text fill="#333" font-family="Monaco" font-size="16" x="0" y="0">Data from CSV reader</text></g><g transform="translate(0 20)"><g transform="translate(112 0)"><g class="axis bottom"><text dy="1em" fill="#666" font-family="Monaco" text-anchor="middle" transform="" x="304.0" y="508.0" /><g class="tick"><line stroke="#eee" stroke-width="1" x1="152.00" x2="152.00" y1="0" y2="482.0" /><text dy="1em" fill="#9c9c9c" font-family="Monaco" text-anchor="middle" x="152.00" y="486.0">7</text></g><g class="tick"><line stroke="#eee" stroke-width="1" x1="304.0" x2="304.0" y1="0" y2="482.0" /><text dy="1em" fill="#9c9c9c" font-family="Monaco" text-anchor="middle" x="304.0" y="486.0">14</text></g><g class="tick"><line stroke="#eee" stroke-width="1" x1="456.00" x2="456.00" y1="0" y2="482.0" /><text dy="1em" fill="#9c9c9c" font-family="Monaco" text-anchor="middle" x="456.00" y="486.0">21</text></g><g class="tick"><line stroke="#eee" stroke-width="1" x1="608" x2="608" y1="0" y2="482.0" /><text dy="1em" fill="#9c9c9c" font-family="Monaco" text-anchor="middle" x="608" y="486.0">28</text></g><g class="tick"><line stroke="#a8a8a8" stroke-width="1" x1="0" x2="0" y1="0" y2="482.0" /><text dy="1em" fill="#9c9c9c" font-family="Monaco" text-anchor="middle" x="0" y="486.0">0</text></g></g><g class="axis left"><text dy="" fill="#666" font-family="Monaco" text-anchor="middle" transform="rotate(270 -112 239)" x="-112" y="239.0" /><g class="tick"><line stroke="#eee" stroke-width="1" x1="-4" x2="608.0" y1="454.1" y2="454.1" /><text dy="0.32em" fill="#9c9c9c" font-family="Monaco" text-anchor="end" x="-8" y="454.1">Norway</text></g><g class="tick"><line stroke="#eee" stroke-width="1" x1="-4" x2="608.0" y1="406.3" y2="406.3" /><text dy="0.32em" fill="#9c9c9c" font-family="Monaco" text-anchor="end" x="-8" y="406.3">Australia</text></g><g class="tick"><line stroke="#eee" stroke-width="1" x1="-4" x2="608.0" y1="358.5" y2="358.5" /><text dy="0.32em" fill="#9c9c9c" font-family="Monaco" text-anchor="end" x="-8" y="358.5">Switzerland</text></g><g class="tick"><line stroke="#eee" stroke-width="1" x1="-4" x2="608.0" y1="310.7" y2="310.7" /><text dy="0.32em" fill="#9c9c9c" font-family="Monaco" text-anchor="end" x="-8" y="310.7">Denmark</text></g><g class="tick"><line stroke="#eee" stroke-width="1" x1="-4" x2="608.0" y1="262.9" y2="262.9" /><text dy="0.32em" fill="#9c9c9c" font-family="Monaco" text-anchor="end" x="-8" y="262.9">Netherlands</text></g><g class="tick"><line stroke="#eee" stroke-width="1" x1="-4" x2="608.0" y1="215.1" y2="215.1" /><text dy="0.32em" fill="#9c9c9c" font-family="Monaco" text-anchor="end" x="-8" y="215.1">Germany</text></g><g class="tick"><line stroke="#eee" stroke-width="1" x1="-4" x2="608.0" y1="167.3" y2="167.3" /><text dy="0.32em" fill="#9c9c9c" font-family="Monaco" text-anchor="end" x="-8" y="167.3">Ireland</text></g><g class="tick"><line stroke="#eee" stroke-width="1" x1="-4" x2="608.0" y1="119.5" y2="119.5" /><text dy="0.32em" fill="#9c9c9c" font-family="Monaco" text-anchor="end" x="-8" y="119.5">United States</text></g><g class="tick"><line stroke="#eee" stroke-width="1" x1="-4" x2="608.0" y1="71.7" y2="71.7" /><text dy="0.32em" fill="#9c9c9c" font-family="Monaco" text-anchor="end" x="-8" y="71.7">Canada</text></g><g class="tick"><line stroke="#eee" stroke-width="1" x1="-4" x2="608.0" y1="23.9" y2="23.9" /><text dy="0.32em" fill="#9c9c9c" font-family="Monaco" text-anchor="end" x="-8" y="23.9">New Zealand</text></g></g><g><g class="series bars"><rect fill="#d190b6" height="43.02" width="173.7142857142857142857142857" x="0" y="2.39" /><rect fill="#d190b6" height="43.02" width="238.8571428571428571428571429" x="0" y="50.19" /><rect fill="#d190b6" height="43.02" width="608" x="0" y="97.99" /><rect fill="#d190b6" height="43.02" width="195.4285714285714285714285714" x="0" y="145.79" /><rect fill="#d190b6" height="43.02" width="152.00" x="0" y="193.59" /><rect fill="#d190b6" height="43.02" width="130.2857142857142857142857143" x="0" y="241.39" /><rect fill="#d190b6" height="43.02" width="108.5714285714285714285714286" x="0" y="289.19" /><rect fill="#d190b6" height="43.02" width="130.2857142857142857142857143" x="0" y="336.99" /><rect fill="#d190b6" height="43.02" width="130.2857142857142857142857143" x="0" y="384.79" /><rect fill="#d190b6" height="43.02" width="86.85714285714285714285714288" x="0" y="432.59" /></g></g></g></g></g></g></svg>