<?xml version="1.0" standalone="no"?>
<!DOCTYPE svg PUBLIC "-//W3C//DTD SVG 1.1//EN"
"http://www.w3.org/Graphics/SVG/1.1/DTD/svg11.dtd">
<svg height="600" version="1.1" width="800" xmlns="http://www.w3.org/2000/svg"><g><rect fill="#f9f9f9" height="600" width="800" x="0" y="0" /><g transform="translate(40 40)"><g transform="translate(112 0)"><text fill="#333" font-family="Monaco" font-size="16" x="0" y="0">Data from CSV reader</text></g><g transform="translate(0 20)"><g transform="translate(112 0)"><g class="axis bottom"><g class="tick"><line stroke="#eee" stroke-width="1" x1="202.6666666666666666666666666" x2="202.6666666666666666666666666" y1="0" y2="482.0" /><text dy="1em" fill="#9c9c9c" font-family="Monaco" text-anchor="middle" x="202.6666666666666666666666666" y="486.0">0.1</text></g><g class="tick"><line stroke="#eee" stroke-width="1" x1="405.3333333333333333333333334" x2="405.3333333333333333333333334" y1="0" y2="482.0" /><text dy="1em" fill="#9c9c9c" font-family="Monaco" text-anchor="middle" x="405.3333333333333333333333334" y="486.0">0.2</text></g><g class="tick"><line stroke="#eee" stroke-width="1" x1="608" x2="608" y1="0" y2="482.0" /><text dy="1em" fill="#9c9c9c" font-family="Monaco" text-anchor="middle" x="608" y="486.0">0.3</text></g><g class="tick"><line stroke="#a8a8a8" stroke-width="1" x1="0" x2="0" y1="0" y2="482.0" /><text dy="1em" fill="#9c9c9c" font-family="Monaco" text-anchor="middle" x="0" y="486.0">0</text></g></g><g class="axis left"><g class="tick"><line stroke="#eee" stroke-width="1" x1="-4" x2="608.0" y1="454.1" y2="454.1" /><text dy="0.32em" fill="#9c9c9c" font-family="Monaco" text-anchor="end" x="-8" y="454.1">Norway</text></g><g class="tick"><line stroke="#eee" stroke-width="1" x1="-4" x2="608.0" y1="406.3" y2="406.3" /><text dy="0.32em" fill="#9c9c9c" font-family="Monaco" text-anchor="end" x="-8" y="406.3">Australia</text></g><g class="tick"><line stroke="#eee" stroke-width="1" x1="-4" x2="608.0" y1="358.5" y2="358.5" /><text dy="0.32em" fill="#9c9c9c" font-family="Monaco" text-anchor="end" x="-8" y="358.5">Switzerland</text></g><g class="tick"><line stroke="#eee" stroke-width="1" x1="-4" x2="608.0" y1="310.7" y2="310.7" /><text dy="0.32em" fill="#9c9c9c" font-family="Monaco" text-anchor="end" x="-8" y="310.7">Denmark</text></g><g class="tick"><line stroke="#eee" stroke-width="1" x1="-4" x2="608.0" y1="262.9" y2="262.9" /><text dy="0.32em" fill="#9c9c9c" font-family="Monaco" text-anchor="end" x="-8" y="262.9">Netherlands</text></g><g class="tick"><line stroke="#eee" stroke-width="1" x1="-4" x2="608.0" y1="215.1" y2="215.1" /><text dy="0.32em" fill="#9c9c9c" font-family="Monaco" text-anchor="end" x="-8" y="215.1">Germany</text></g><g class="tick"><line stroke="#eee" stroke-width="1" x1="-4" x2="608.0" y1="167.3" y2="167.3" /><text dy="0.32em" fill="#9c9c9c" font-family="Monaco" text-anchor="end" x="-8" y="167.3">Ireland</text></g><g class="tick"><line stroke="#eee" stroke-width="1" x1="-4" x2="608.0" y1="119.5" y2="119.5" /><text dy="0.32em" fill="#9c9c9c" font-family="Monaco" text-anchor="end" x="-8" y="119.5">United States</text></g><g class="tick"><line stroke="#eee" stroke-width="1" x1="-4" x2="608.0" y1="71.7" y2="71.7" /><text dy="0.32em" fill="#9c9c9c" font-family="Monaco" text-anchor="end" x="-8" y="71.7">Canada</text></g><g class="tick"><line stroke="#eee" stroke-width="1" x1="-4" x2="608.0" y1="23.9" y2="23.9" /><text dy="0.32em" fill="#9c9c9c" font-family="Monaco" text-anchor="end" x="-8" y="23.9">New Zealand</text></g></g><g><g class="series bars"><rect fill="#e41a1c" height="43.02" width="318.1866666666666680166978647" x="0" y="2.39" /><rect fill="#e41a1c" height="43.02" width="261.4400000000000072001663890" x="0" y="50.19" /><rect fill="#e41a1c" height="43.02" width="567.4666666666667206679145844" x="0" y="97.99" /><rect fill="#e41a1c" height="43.02" width="229.0133333333333398584841234" x="0" y="145.79" /><rect fill="#e41a1c" height="43.02" width="83.09333333333333682091392804" x="0" y="193.59" /><rect fill="#e41a1c" height="43.02" width="125.6533333333333324333125347" x="0" y="241.39" /><rect fill="#e41a1c" height="43.02" width="97.28000000000000202504679693" x="0" y="289.19" /><rect fill="#e41a1c" height="43.02" width="56.74666666666666784794396487" x="0" y="336.99" /><rect fill="#e41a1c" height="43.02" width="222.9333333333333344583593316" x="0" y="384.79" /><rect fill="#e41a1c" height="43.02" width="135.7866666666666747668538543" x="0" y="432.59" /></g></g></g></g></g></g></svg>