<?xml version="1.0" standalone="no"?>
<!DOCTYPE svg PUBLIC "-//W3C//DTD SVG 1.1//EN"
"http://www.w3.org/Graphics/SVG/1.1/DTD/svg11.dtd">
<svg height="600" version="1.1" width="800" xmlns="http://www.w3.org/2000/svg"><g><rect fill="#f9f9f9" height="600" width="800" x="0" y="0" /><g transform="translate(40 40)"><g transform="translate(112 0)"><text fill="#333" font-family="Monaco" font-size="16" x="0" y="0">Data from CSV reader</text></g><g transform="translate(0 20)"><g transform="translate(112 0)"><g class="axis bottom"><text dy="1em" fill="#eee" font-family="Monaco" text-anchor="middle" transform="" x="304.0" y="508.0" /><g class="tick"><line stroke="#a8a8a8" stroke-width="1" x1="0.0" x2="0.0" y1="0" y2="482.0" /><text dy="1em" fill="#9c9c9c" font-family="Monaco" text-anchor="middle" x="0.0" y="486.0">0.0</text></g><g class="tick"><line stroke="#eee" stroke-width="1" x1="152.0" x2="152.0" y1="0" y2="482.0" /><text dy="1em" fill="#9c9c9c" font-family="Monaco" text-anchor="middle" x="152.0" y="486.0">0.07</text></g><g class="tick"><line stroke="#eee" stroke-width="1" x1="304.0" x2="304.0" y1="0" y2="482.0" /><text dy="1em" fill="#9c9c9c" font-family="Monaco" text-anchor="middle" x="304.0" y="486.0">0.14</text></g><g class="tick"><line stroke="#eee" stroke-width="1" x1="456.0" x2="456.0" y1="0" y2="482.0" /><text dy="1em" fill="#9c9c9c" font-family="Monaco" text-anchor="middle" x="456.0" y="486.0">0.21000000000000002</text></g><g class="tick"><line stroke="#eee" stroke-width="1" x1="608.0" x2="608.0" y1="0" y2="482.0" /><text dy="1em" fill="#9c9c9c" font-family="Monaco" text-anchor="middle" x="608.0" y="486.0">0.28</text></g></g><g class="axis left"><text dy="" fill="#eee" font-family="Monaco" text-anchor="middle" transform="rotate(270 -112 239)" x="-112" y="239.0" /><g class="tick"><line stroke="#eee" stroke-width="1" x1="-4" x2="608.0" y1="454.1" y2="454.1" /><text dy="0.32em" fill="#9c9c9c" font-family="Monaco" text-anchor="end" x="-8" y="454.1">New Zealand</text></g><g class="tick"><line stroke="#eee" stroke-width="1" x1="-4" x2="608.0" y1="406.3" y2="406.3" /><text dy="0.32em" fill="#9c9c9c" font-family="Monaco" text-anchor="end" x="-8" y="406.3">Canada</text></g><g class="tick"><line stroke="#eee" stroke-width="1" x1="-4" x2="608.0" y1="358.5" y2="358.5" /><text dy="0.32em" fill="#9c9c9c" font-family="Monaco" text-anchor="end" x="-8" y="358.5">United States</text></g><g class="tick"><line stroke="#eee" stroke-width="1" x1="-4" x2="608.0" y1="310.70000000000005" y2="310.70000000000005" /><text dy="0.32em" fill="#9c9c9c" font-family="Monaco" text-anchor="end" x="-8" y="310.70000000000005">Ireland</text></g><g class="tick"><line stroke="#eee" stroke-width="1" x1="-4" x2="608.0" y1="262.90000000000003" y2="262.90000000000003" /><text dy="0.32em" fill="#9c9c9c" font-family="Monaco" text-anchor="end" x="-8" y="262.90000000000003">Germany</text></g><g class="tick"><line stroke="#eee" stroke-width="1" x1="-4" x2="608.0" y1="215.1" y2="215.1" /><text dy="0.32em" fill="#9c9c9c" font-family="Monaco" text-anchor="end" x="-8" y="215.1">Netherlands</text></g><g class="tick"><line stroke="#eee" stroke-width="1" x1="-4" x2="608.0" y1="167.30000000000004" y2="167.30000000000004" /><text dy="0.32em" fill="#9c9c9c" font-family="Monaco" text-anchor="end" x="-8" y="167.30000000000004">Denmark</text></g><g class="tick"><line stroke="#eee" stroke-width="1" x1="-4" x2="608.0" y1="119.50000000000003" y2="119.50000000000003" /><text dy="0.32em" fill="#9c9c9c" font-family="Monaco" text-anchor="end" x="-8" y="119.50000000000003">Switzerland</text></g><g class="tick"><line stroke="#eee" stroke-width="1" x1="-4" x2="608.0" y1="71.70000000000002" y2="71.70000000000002" /><text dy="0.32em" fill="#9c9c9c" font-family="Monaco" text-anchor="end" x="-8" y="71.70000000000002">Australia</text></g><g class="tick"><line stroke="#eee" stroke-width="1" x1="-4" x2="608.0" y1="23.900000000000013" y2="23.900000000000013" /><text dy="0.32em" fill="#9c9c9c" font-family="Monaco" text-anchor="end" x="-8" y="23.900000000000013">Norway</text></g></g><g><g class="series bars"><rect fill="#d190b6" height="43.02000000000004" width="340.91428571428565" x="0" y="432.59" /><rect fill="#d190b6" height="43.02000000000004" width="280.1142857142857" x="0" y="384.78999999999996" /><rect fill="#d190b6" height="43.01999999999998" width="608.0" x="0" y="336.99" /><rect fill="#d190b6" height="43.02000000000004" width="245.37142857142854" x="0" y="289.19" /><rect fill="#d190b6" height="43.02000000000004" width="89.02857142857141" x="0" y="241.39" /><rect fill="#d190b6" height="43.01999999999998" width="134.62857142857143" x="0" y="193.59000000000003" /><rect fill="#d190b6" height="43.02000000000004" width="104.22857142857141" x="0" y="145.79000000000002" /><rect fill="#d190b6" height="43.020000000000024" width="60.8" x="0" y="97.99000000000002" /><rect fill="#d190b6" height="43.02000000000001" width="238.85714285714286" x="0" y="50.19000000000001" /><rect fill="#d190b6" height="43.02000000000001" width="145.48571428571427" x="0" y="2.39" /></g></g></g></g></g></g></svg>