<?xml version="1.0" standalone="no"?>
<!DOCTYPE svg PUBLIC "-//W3C//DTD SVG 1.1//EN"
"http://www.w3.org/Graphics/SVG/1.1/DTD/svg11.dtd">
<svg height="600" version="1.1" width="800" xmlns="http://www.w3.org/2000/svg"><g><rect fill="#f9f9f9" height="600" width="800" x="0" y="0" /><g transform="translate(40 40)"><g transform="translate(142 0)"><text fill="#333" font-family="Monaco" font-size="16" x="0" y="0">Data from CSV reader</text></g><g transform="translate(0 20)"><g transform="translate(142 0)"><g class="axis bottom"><text dy="1em" fill="#666" font-family="Monaco" text-anchor="middle" transform="" x="289.0" y="486.0">None</text><g class="tick"><line stroke="#eee" stroke-width="1" x1="192.6666666666666666666666666" x2="192.6666666666666666666666666" y1="0" y2="452.0" /><text dy="1em" fill="#9c9c9c" font-family="Monaco" text-anchor="middle" x="192.6666666666666666666666666" y="456.0">0.1</text></g><g class="tick"><line stroke="#eee" stroke-width="1" x1="385.3333333333333333333333334" x2="385.3333333333333333333333334" y1="0" y2="452.0" /><text dy="1em" fill="#9c9c9c" font-family="Monaco" text-anchor="middle" x="385.3333333333333333333333334" y="456.0">0.2</text></g><g class="tick"><line stroke="#eee" stroke-width="1" x1="578" x2="578" y1="0" y2="452.0" /><text dy="1em" fill="#9c9c9c" font-family="Monaco" text-anchor="middle" x="578" y="456.0">0.3</text></g><g class="tick"><line stroke="#a8a8a8" stroke-width="1" x1="0" x2="0" y1="0" y2="452.0" /><text dy="1em" fill="#9c9c9c" font-family="Monaco" text-anchor="middle" x="0" y="456.0">0</text></g></g><g class="axis left"><text dy="" fill="#666" font-family="Monaco" text-anchor="middle" transform="rotate(270 -120 224)" x="-120" y="224.0">None</text><g class="tick"><line stroke="#eee" stroke-width="1" x1="-4" x2="578.0" y1="425.6" y2="425.6" /><text dy="0.32em" fill="#9c9c9c" font-family="Monaco" text-anchor="end" x="-8" y="425.6">Norway</text></g><g class="tick"><line stroke="#eee" stroke-width="1" x1="-4" x2="578.0" y1="380.8" y2="380.8" /><text dy="0.32em" fill="#9c9c9c" font-family="Monaco" text-anchor="end" x="-8" y="380.8">Australia</text></g><g class="tick"><line stroke="#eee" stroke-width="1" x1="-4" x2="578.0" y1="336.0" y2="336.0" /><text dy="0.32em" fill="#9c9c9c" font-family="Monaco" text-anchor="end" x="-8" y="336.0">Switzerland</text></g><g class="tick"><line stroke="#eee" stroke-width="1" x1="-4" x2="578.0" y1="291.2" y2="291.2" /><text dy="0.32em" fill="#9c9c9c" font-family="Monaco" text-anchor="end" x="-8" y="291.2">Denmark</text></g><g class="tick"><line stroke="#eee" stroke-width="1" x1="-4" x2="578.0" y1="246.4" y2="246.4" /><text dy="0.32em" fill="#9c9c9c" font-family="Monaco" text-anchor="end" x="-8" y="246.4">Netherlands</text></g><g class="tick"><line stroke="#eee" stroke-width="1" x1="-4" x2="578.0" y1="201.6" y2="201.6" /><text dy="0.32em" fill="#9c9c9c" font-family="Monaco" text-anchor="end" x="-8" y="201.6">Germany</text></g><g class="tick"><line stroke="#eee" stroke-width="1" x1="-4" x2="578.0" y1="156.8" y2="156.8" /><text dy="0.32em" fill="#9c9c9c" font-family="Monaco" text-anchor="end" x="-8" y="156.8">Ireland</text></g><g class="tick"><line stroke="#eee" stroke-width="1" x1="-4" x2="578.0" y1="112.0" y2="112.0" /><text dy="0.32em" fill="#9c9c9c" font-family="Monaco" text-anchor="end" x="-8" y="112.0">United States</text></g><g class="tick"><line stroke="#eee" stroke-width="1" x1="-4" x2="578.0" y1="67.2" y2="67.2" /><text dy="0.32em" fill="#9c9c9c" font-family="Monaco" text-anchor="end" x="-8" y="67.2">Canada</text></g><g class="tick"><line stroke="#eee" stroke-width="1" x1="-4" x2="578.0" y1="22.4" y2="22.4" /><text dy="0.32em" fill="#9c9c9c" font-family="Monaco" text-anchor="end" x="-8" y="22.4">New Zealand</text></g></g><g><g class="series bars"><rect fill="#d190b6" height="40.32" width="302.4866666666666679500844832" x="0" y="2.24" /><rect fill="#d190b6" height="40.32" width="248.5400000000000068448950211" x="0" y="47.04" /><rect fill="#d190b6" height="40.32" width="539.4666666666667180033793253" x="0" y="91.84" /><rect fill="#d190b6" height="40.32" width="217.7133333333333395365194462" x="0" y="136.64" /><rect fill="#d190b6" height="40.32" width="78.99333333333333664882935923" x="0" y="181.44" /><rect fill="#d190b6" height="40.32" width="119.4533333333333324777214557" x="0" y="226.24" /><rect fill="#d190b6" height="40.32" width="92.48000000000000192512672471" x="0" y="271.04" /><rect fill="#d190b6" height="40.32" width="53.94666666666666778965725608" x="0" y="315.84" /><rect fill="#d190b6" height="40.32" width="211.9333333333333344028481803" x="0" y="360.64" /><rect fill="#d190b6" height="40.32" width="129.0866666666666743671735654" x="0" y="405.44" /></g></g></g></g></g></g></svg>