<?xml version="1.0" standalone="no"?>
<!DOCTYPE svg PUBLIC "-//W3C//DTD SVG 1.1//EN"
"http://www.w3.org/Graphics/SVG/1.1/DTD/svg11.dtd">
<svg height="600" version="1.1" width="1600" xmlns="http://www.w3.org/2000/svg"><g><rect fill="#f9f9f9" height="600" width="1600" x="0" y="0" /><g><g transform="translate(0 0)"><g><rect fill="#f9f9f9" height="600.0" width="800.0" x="0" y="0" /><g transform="translate(40 40)"><g transform="translate(32 0)"><text fill="#333" font-family="Monaco" font-size="16" x="0" y="0">Dots</text></g><g transform="translate(0 20)"><g transform="translate(32 0)"><g class="axis bottom"><text dy="1em" fill="#666" font-family="Monaco" text-anchor="middle" transform="" x="344.0" y="508.0" /><g class="tick"><line stroke="#eee" stroke-width="1" x1="172.00" x2="172.00" y1="0" y2="482.0" /><text dy="1em" fill="#9c9c9c" font-family="Monaco" text-anchor="middle" x="172.00" y="486.0">2</text></g><g class="tick"><line stroke="#eee" stroke-width="1" x1="344.0" x2="344.0" y1="0" y2="482.0" /><text dy="1em" fill="#9c9c9c" font-family="Monaco" text-anchor="middle" x="344.0" y="486.0">4</text></g><g class="tick"><line stroke="#eee" stroke-width="1" x1="516.00" x2="516.00" y1="0" y2="482.0" /><text dy="1em" fill="#9c9c9c" font-family="Monaco" text-anchor="middle" x="516.00" y="486.0">6</text></g><g class="tick"><line stroke="#eee" stroke-width="1" x1="688" x2="688" y1="0" y2="482.0" /><text dy="1em" fill="#9c9c9c" font-family="Monaco" text-anchor="middle" x="688" y="486.0">8</text></g><g class="tick"><line stroke="#a8a8a8" stroke-width="1" x1="0" x2="0" y1="0" y2="482.0" /><text dy="1em" fill="#9c9c9c" font-family="Monaco" text-anchor="middle" x="0" y="486.0">0</text></g></g><g class="axis left"><text dy="" fill="#666" font-family="Monaco" text-anchor="middle" transform="rotate(270 -32 239)" x="-32" y="239.0" /><g class="tick"><line stroke="#eee" stroke-width="1" x1="-4" x2="688.0" y1="478.0" y2="478.0" /><text dy="0.32em" fill="#9c9c9c" font-family="Monaco" text-anchor="end" x="-8" y="478.0">3.0</text></g><g class="tick"><line stroke="#eee" stroke-width="1" x1="-4" x2="688.0" y1="358.50" y2="358.50" /><text dy="0.32em" fill="#9c9c9c" font-family="Monaco" text-anchor="end" x="-8" y="358.50">4.5</text></g><g class="tick"><line stroke="#eee" stroke-width="1" x1="-4" x2="688.0" y1="239.0" y2="239.0" /><text dy="0.32em" fill="#9c9c9c" font-family="Monaco" text-anchor="end" x="-8" y="239.0">6.0</text></g><g class="tick"><line stroke="#eee" stroke-width="1" x1="-4" x2="688.0" y1="119.50" y2="119.50" /><text dy="0.32em" fill="#9c9c9c" font-family="Monaco" text-anchor="end" x="-8" y="119.50">7.5</text></g><g class="tick"><line stroke="#eee" stroke-width="1" x1="-4" x2="688.0" y1="0.0" y2="0.0" /><text dy="0.32em" fill="#9c9c9c" font-family="Monaco" text-anchor="end" x="-8" y="0.0">9.0</text></g></g><g><g class="series dots"><circle cx="0" cy="478" fill="#d190b6" r="3" /><circle cx="344.0" cy="318.6666666666666666666666667" fill="#d190b6" r="3" /><circle cx="602.000" cy="0" fill="#d190b6" r="3" /><circle cx="688" cy="398.3333333333333333333333333" fill="#d190b6" r="3" /></g></g></g></g></g></g></g><g transform="translate(800 0)"><g><rect fill="#f9f9f9" height="600.0" width="800.0" x="0" y="0" /><g transform="translate(40 40)"><g transform="translate(24 0)"><text fill="#333" font-family="Monaco" font-size="16" x="0" y="0">Lines</text></g><g transform="translate(0 20)"><g transform="translate(24 0)"><g class="axis bottom"><text dy="1em" fill="#666" font-family="Monaco" text-anchor="middle" transform="" x="348.0" y="508.0" /><g class="tick"><line stroke="#eee" stroke-width="1" x1="0.00" x2="0.00" y1="0" y2="482.0" /><text dy="1em" fill="#9c9c9c" font-family="Monaco" text-anchor="middle" x="0.00" y="486.0">3.00</text></g><g class="tick"><line stroke="#eee" stroke-width="1" x1="174.00" x2="174.00" y1="0" y2="482.0" /><text dy="1em" fill="#9c9c9c" font-family="Monaco" text-anchor="middle" x="174.00" y="486.0">4.25</text></g><g class="tick"><line stroke="#eee" stroke-width="1" x1="348.00" x2="348.00" y1="0" y2="482.0" /><text dy="1em" fill="#9c9c9c" font-family="Monaco" text-anchor="middle" x="348.00" y="486.0">5.50</text></g><g class="tick"><line stroke="#eee" stroke-width="1" x1="522.00" x2="522.00" y1="0" y2="482.0" /><text dy="1em" fill="#9c9c9c" font-family="Monaco" text-anchor="middle" x="522.00" y="486.0">6.75</text></g><g class="tick"><line stroke="#eee" stroke-width="1" x1="696.00" x2="696.00" y1="0" y2="482.0" /><text dy="1em" fill="#9c9c9c" font-family="Monaco" text-anchor="middle" x="696.00" y="486.0">8.00</text></g></g><g class="axis left"><text dy="" fill="#666" font-family="Monaco" text-anchor="middle" transform="rotate(270 -24 239)" x="-24" y="239.0" /><g class="tick"><line stroke="#eee" stroke-width="1" x1="-4" x2="696.0" y1="478" y2="478" /><text dy="0.32em" fill="#9c9c9c" font-family="Monaco" text-anchor="end" x="-8" y="478">2</text></g><g class="tick"><line stroke="#eee" stroke-width="1" x1="-4" x2="696.0" y1="358.50" y2="358.50" /><text dy="0.32em" fill="#9c9c9c" font-family="Monaco" text-anchor="end" x="-8" y="358.50">4</text></g><g class="tick"><line stroke="#eee" stroke-width="1" x1="-4" x2="696.0" y1="239.0" y2="239.0" /><text dy="0.32em" fill="#9c9c9c" font-family="Monaco" text-anchor="end" x="-8" y="239.0">6</text></g><g class="tick"><line stroke="#eee" stroke-width="1" x1="-4" x2="696.0" y1="119.50" y2="119.50" /><text dy="0.32em" fill="#9c9c9c" font-family="Monaco" text-anchor="end" x="-8" y="119.50">8</text></g><g class="tick"><line stroke="#eee" stroke-width="1" x1="-4" x2="696.0" y1="0" y2="0" /><text dy="0.32em" fill="#9c9c9c" font-family="Monaco" text-anchor="end" x="-8" y="0">10</text></g></g><g><g class="series lines"><path d="M 0 358.50 L 278.4 239.0 L 556.8 0 L 696 478" fill="none" stroke="#d190b6" stroke-width="2" /></g></g></g></g></g></g></g></g></g></svg>