<?xml version="1.0" standalone="no"?>
<!DOCTYPE svg PUBLIC "-//W3C//DTD SVG 1.1//EN"
"http://www.w3.org/Graphics/SVG/1.1/DTD/svg11.dtd">
<svg height="600" version="1.1" width="800" xmlns="http://www.w3.org/2000/svg"><g><rect fill="#f9f9f9" height="600" width="800" x="0" y="0" /><g transform="translate(40 40)"><g transform="translate(56 0)"><text fill="#333" font-family="Monaco" font-size="16" x="0" y="0">Columns</text><g transform="translate(0 20)"><g transform="translate(0 0)"><rect fill="#d190b6" height="10" width="10" x="0" y="-10" /><text fill="#666" font-family="Monaco" font-size="14" x="14" y="0">Hello</text></g><g transform="translate(86 0)"><rect fill="#51b2e5" height="10" width="10" x="0" y="-10" /><text fill="#666" font-family="Monaco" font-size="14" x="14" y="0">World</text></g><g transform="translate(172 0)"><rect fill="#d365ba" height="10" width="10" x="0" y="-10" /><text fill="#666" font-family="Monaco" font-size="14" x="14" y="0">Goodbye</text></g><g transform="translate(274 0)"><rect fill="#168dd9" height="10" width="10" x="0" y="-10" /><text fill="#666" font-family="Monaco" font-size="14" x="14" y="0">Yellow</text></g></g></g><g transform="translate(0 38)"><g transform="translate(56 0)"><g class="axis bottom"><g class="tick"><line stroke="#eee" stroke-width="1" x1="221.3333333333333333333333333" x2="221.3333333333333333333333333" y1="0" y2="464.0" /><text dy="1em" fill="#9c9c9c" font-family="Monaco" text-anchor="middle" x="221.3333333333333333333333333" y="468.0">2.5</text></g><g class="tick"><line stroke="#eee" stroke-width="1" x1="442.6666666666666666666666667" x2="442.6666666666666666666666667" y1="0" y2="464.0" /><text dy="1em" fill="#9c9c9c" font-family="Monaco" text-anchor="middle" x="442.6666666666666666666666667" y="468.0">5</text></g><g class="tick"><line stroke="#eee" stroke-width="1" x1="664" x2="664" y1="0" y2="464.0" /><text dy="1em" fill="#9c9c9c" font-family="Monaco" text-anchor="middle" x="664" y="468.0">7.5</text></g><g class="tick"><line stroke="#a8a8a8" stroke-width="1" x1="0" x2="0" y1="0" y2="464.0" /><text dy="1em" fill="#9c9c9c" font-family="Monaco" text-anchor="middle" x="0" y="468.0">0</text></g></g><g class="axis left"><g class="tick"><line stroke="#eee" stroke-width="1" x1="-4" x2="664.0" y1="383.3333333333333333333333334" y2="383.3333333333333333333333334" /><text dy="0.32em" fill="#9c9c9c" font-family="Monaco" text-anchor="end" x="-8" y="383.3333333333333333333333334">first</text></g><g class="tick"><line stroke="#eee" stroke-width="1" x1="-4" x2="664.0" y1="230.0000000000000000000000000" y2="230.0000000000000000000000000" /><text dy="0.32em" fill="#9c9c9c" font-family="Monaco" text-anchor="end" x="-8" y="230.0000000000000000000000000">second</text></g><g class="tick"><line stroke="#eee" stroke-width="1" x1="-4" x2="664.0" y1="76.66666666666666666666666675" y2="76.66666666666666666666666675" /><text dy="0.32em" fill="#9c9c9c" font-family="Monaco" text-anchor="end" x="-8" y="76.66666666666666666666666675">third</text></g></g><g><g class="series grouped-bars"><rect fill="#168dd9" height="45.0000000000000000000000000" width="354.1333333333333333333333333" x="0" y="100.6666666666666666666666667" /><rect fill="#d365ba" height="44.99999999999999999999999997" width="265.6" x="0" y="54.66666666666666666666666676" /><rect fill="#d190b6" height="44.99999999999999999999999996" width="619.7333333333333333333333333" x="0" y="8.6666666666666666666666668" /><rect fill="#d365ba" height="68.0000000000000000000000000" width="354.1333333333333333333333333" x="0" y="231.0000000000000000000000000" /><rect fill="#d190b6" height="67.9999999999999999999999999" width="619.7333333333333333333333333" x="0" y="162.0000000000000000000000001" /><rect fill="#51b2e5" height="67.9999999999999999999999999" width="442.6666666666666666666666667" x="0" y="384.3333333333333333333333334" /><rect fill="#d190b6" height="68.0000000000000000000000000" width="88.53333333333333333333333331" x="0" y="315.3333333333333333333333334" /></g></g></g></g></g></g></svg>