<?xml version="1.0" standalone="no"?>
<!DOCTYPE svg PUBLIC "-//W3C//DTD SVG 1.1//EN"
"http://www.w3.org/Graphics/SVG/1.1/DTD/svg11.dtd">
<svg height="1200" version="1.1" width="1600" xmlns="http://www.w3.org/2000/svg"><g><rect fill="#f9f9f9" height="1200" width="1600" x="0" y="0" /><g><g transform="translate(0 0)"><g><rect fill="#f9f9f9" height="600.0" width="800.0" x="0" y="0" /><g transform="translate(40 40)"><g transform="translate(24 0)"><text fill="#333" font-family="Monaco" font-size="16" x="0" y="0">First</text></g><g transform="translate(0 20)"><g transform="translate(24 0)"><g class="axis bottom"><g class="tick"><line stroke="#eee" stroke-width="1" x1="174.00" x2="174.00" y1="0" y2="482.0" /><text dy="1em" fill="#9c9c9c" font-family="Monaco" text-anchor="middle" x="174.00" y="486.0">2.5</text></g><g class="tick"><line stroke="#eee" stroke-width="1" x1="348.0" x2="348.0" y1="0" y2="482.0" /><text dy="1em" fill="#9c9c9c" font-family="Monaco" text-anchor="middle" x="348.0" y="486.0">5</text></g><g class="tick"><line stroke="#eee" stroke-width="1" x1="522.00" x2="522.00" y1="0" y2="482.0" /><text dy="1em" fill="#9c9c9c" font-family="Monaco" text-anchor="middle" x="522.00" y="486.0">7.5</text></g><g class="tick"><line stroke="#eee" stroke-width="1" x1="696" x2="696" y1="0" y2="482.0" /><text dy="1em" fill="#9c9c9c" font-family="Monaco" text-anchor="middle" x="696" y="486.0">10</text></g><g class="tick"><line stroke="#a8a8a8" stroke-width="1" x1="0" x2="0" y1="0" y2="482.0" /><text dy="1em" fill="#9c9c9c" font-family="Monaco" text-anchor="middle" x="0" y="486.0">0</text></g></g><g class="axis left"><g class="tick"><line stroke="#eee" stroke-width="1" x1="-4" x2="696.0" y1="478" y2="478" /><text dy="0.32em" fill="#9c9c9c" font-family="Monaco" text-anchor="end" x="-8" y="478">2</text></g><g class="tick"><line stroke="#eee" stroke-width="1" x1="-4" x2="696.0" y1="358.50" y2="358.50" /><text dy="0.32em" fill="#9c9c9c" font-family="Monaco" text-anchor="end" x="-8" y="358.50">4</text></g><g class="tick"><line stroke="#eee" stroke-width="1" x1="-4" x2="696.0" y1="239.0" y2="239.0" /><text dy="0.32em" fill="#9c9c9c" font-family="Monaco" text-anchor="end" x="-8" y="239.0">6</text></g><g class="tick"><line stroke="#eee" stroke-width="1" x1="-4" x2="696.0" y1="119.50" y2="119.50" /><text dy="0.32em" fill="#9c9c9c" font-family="Monaco" text-anchor="end" x="-8" y="119.50">8</text></g><g class="tick"><line stroke="#eee" stroke-width="1" x1="-4" x2="696.0" y1="0" y2="0" /><text dy="0.32em" fill="#9c9c9c" font-family="Monaco" text-anchor="end" x="-8" y="0">10</text></g></g><g><g class="series lines"><path d="M 0 418.250 L 278.4 298.750 L 487.2 59.750 L 556.8 358.50" fill="none" stroke="#e41a1c" stroke-width="2" /></g></g></g></g></g></g></g><g transform="translate(800 0)"><g><rect fill="#f9f9f9" height="600.0" width="800.0" x="0" y="0" /><g transform="translate(40 40)"><g transform="translate(24 0)"><text fill="#333" font-family="Monaco" font-size="16" x="0" y="0">Second</text></g><g transform="translate(0 20)"><g transform="translate(24 0)"><g class="axis bottom"><g class="tick"><line stroke="#eee" stroke-width="1" x1="174.00" x2="174.00" y1="0" y2="482.0" /><text dy="1em" fill="#9c9c9c" font-family="Monaco" text-anchor="middle" x="174.00" y="486.0">2.5</text></g><g class="tick"><line stroke="#eee" stroke-width="1" x1="348.0" x2="348.0" y1="0" y2="482.0" /><text dy="1em" fill="#9c9c9c" font-family="Monaco" text-anchor="middle" x="348.0" y="486.0">5</text></g><g class="tick"><line stroke="#eee" stroke-width="1" x1="522.00" x2="522.00" y1="0" y2="482.0" /><text dy="1em" fill="#9c9c9c" font-family="Monaco" text-anchor="middle" x="522.00" y="486.0">7.5</text></g><g class="tick"><line stroke="#eee" stroke-width="1" x1="696" x2="696" y1="0" y2="482.0" /><text dy="1em" fill="#9c9c9c" font-family="Monaco" text-anchor="middle" x="696" y="486.0">10</text></g><g class="tick"><line stroke="#a8a8a8" stroke-width="1" x1="0" x2="0" y1="0" y2="482.0" /><text dy="1em" fill="#9c9c9c" font-family="Monaco" text-anchor="middle" x="0" y="486.0">0</text></g></g><g class="axis left"><g class="tick"><line stroke="#eee" stroke-width="1" x1="-4" x2="696.0" y1="478" y2="478" /><text dy="0.32em" fill="#9c9c9c" font-family="Monaco" text-anchor="end" x="-8" y="478">2</text></g><g class="tick"><line stroke="#eee" stroke-width="1" x1="-4" x2="696.0" y1="358.50" y2="358.50" /><text dy="0.32em" fill="#9c9c9c" font-family="Monaco" text-anchor="end" x="-8" y="358.50">4</text></g><g class="tick"><line stroke="#eee" stroke-width="1" x1="-4" x2="696.0" y1="239.0" y2="239.0" /><text dy="0.32em" fill="#9c9c9c" font-family="Monaco" text-anchor="end" x="-8" y="239.0">6</text></g><g class="tick"><line stroke="#eee" stroke-width="1" x1="-4" x2="696.0" y1="119.50" y2="119.50" /><text dy="0.32em" fill="#9c9c9c" font-family="Monaco" text-anchor="end" x="-8" y="119.50">8</text></g><g class="tick"><line stroke="#eee" stroke-width="1" x1="-4" x2="696.0" y1="0" y2="0" /><text dy="0.32em" fill="#9c9c9c" font-family="Monaco" text-anchor="end" x="-8" y="0">10</text></g></g><g><g class="series lines"><path d="M 208.8 358.50 L 208.8 358.50 L 348.0 239.0 L 487.2 0 L 556.8 478" fill="none" stroke="#e41a1c" stroke-width="2" /></g></g></g></g></g></g></g><g transform="translate(0 600)"><g><rect fill="#f9f9f9" height="600.0" width="800.0" x="0" y="0" /><g transform="translate(40 40)"><g transform="translate(24 0)"><text fill="#333" font-family="Monaco" font-size="16" x="0" y="0">Third</text></g><g transform="translate(0 20)"><g transform="translate(24 0)"><g class="axis bottom"><g class="tick"><line stroke="#eee" stroke-width="1" x1="174.00" x2="174.00" y1="0" y2="482.0" /><text dy="1em" fill="#9c9c9c" font-family="Monaco" text-anchor="middle" x="174.00" y="486.0">2.5</text></g><g class="tick"><line stroke="#eee" stroke-width="1" x1="348.0" x2="348.0" y1="0" y2="482.0" /><text dy="1em" fill="#9c9c9c" font-family="Monaco" text-anchor="middle" x="348.0" y="486.0">5</text></g><g class="tick"><line stroke="#eee" stroke-width="1" x1="522.00" x2="522.00" y1="0" y2="482.0" /><text dy="1em" fill="#9c9c9c" font-family="Monaco" text-anchor="middle" x="522.00" y="486.0">7.5</text></g><g class="tick"><line stroke="#eee" stroke-width="1" x1="696" x2="696" y1="0" y2="482.0" /><text dy="1em" fill="#9c9c9c" font-family="Monaco" text-anchor="middle" x="696" y="486.0">10</text></g><g class="tick"><line stroke="#a8a8a8" stroke-width="1" x1="0" x2="0" y1="0" y2="482.0" /><text dy="1em" fill="#9c9c9c" font-family="Monaco" text-anchor="middle" x="0" y="486.0">0</text></g></g><g class="axis left"><g class="tick"><line stroke="#eee" stroke-width="1" x1="-4" x2="696.0" y1="478" y2="478" /><text dy="0.32em" fill="#9c9c9c" font-family="Monaco" text-anchor="end" x="-8" y="478">2</text></g><g class="tick"><line stroke="#eee" stroke-width="1" x1="-4" x2="696.0" y1="358.50" y2="358.50" /><text dy="0.32em" fill="#9c9c9c" font-family="Monaco" text-anchor="end" x="-8" y="358.50">4</text></g><g class="tick"><line stroke="#eee" stroke-width="1" x1="-4" x2="696.0" y1="239.0" y2="239.0" /><text dy="0.32em" fill="#9c9c9c" font-family="Monaco" text-anchor="end" x="-8" y="239.0">6</text></g><g class="tick"><line stroke="#eee" stroke-width="1" x1="-4" x2="696.0" y1="119.50" y2="119.50" /><text dy="0.32em" fill="#9c9c9c" font-family="Monaco" text-anchor="end" x="-8" y="119.50">8</text></g><g class="tick"><line stroke="#eee" stroke-width="1" x1="-4" x2="696.0" y1="0" y2="0" /><text dy="0.32em" fill="#9c9c9c" font-family="Monaco" text-anchor="end" x="-8" y="0">10</text></g></g><g><g class="series lines"><path d="M 139.2 358.50 L 208.8 298.750 L 417.6 478 L 556.8 418.250 L 696 298.750" fill="none" stroke="#e41a1c" stroke-width="2" /></g></g></g></g></g></g></g></g></g></svg>