<?xml version="1.0" standalone="no"?>
<!DOCTYPE svg PUBLIC "-//W3C//DTD SVG 1.1//EN"
"http://www.w3.org/Graphics/SVG/1.1/DTD/svg11.dtd">
<svg height="1200" version="1.1" width="1600" xmlns="http://www.w3.org/2000/svg"><g><rect fill="#f9f9f9" height="1200" width="1600" x="0" y="0" /><g><g transform="translate(0 0)"><g><rect fill="#f9f9f9" height="600.0" width="800.0" x="0" y="0" /><g transform="translate(40 40)"><g transform="translate(40 0)"><text fill="#333" font-family="Monaco" font-size="16" x="0" y="0">First</text></g><g transform="translate(0 20)"><g transform="translate(40 0)"><g class="axis bottom"><text dy="1em" fill="#666" font-family="Monaco" text-anchor="middle" transform="" x="340.0" y="508.0" /><g class="tick"><line stroke="#eee" stroke-width="1" x1="170.00" x2="170.00" y1="0" y2="482.0" /><text dy="1em" fill="#9c9c9c" font-family="Monaco" text-anchor="middle" x="170.00" y="486.0">2</text></g><g class="tick"><line stroke="#eee" stroke-width="1" x1="340.0" x2="340.0" y1="0" y2="482.0" /><text dy="1em" fill="#9c9c9c" font-family="Monaco" text-anchor="middle" x="340.0" y="486.0">4</text></g><g class="tick"><line stroke="#eee" stroke-width="1" x1="510.00" x2="510.00" y1="0" y2="482.0" /><text dy="1em" fill="#9c9c9c" font-family="Monaco" text-anchor="middle" x="510.00" y="486.0">6</text></g><g class="tick"><line stroke="#eee" stroke-width="1" x1="680" x2="680" y1="0" y2="482.0" /><text dy="1em" fill="#9c9c9c" font-family="Monaco" text-anchor="middle" x="680" y="486.0">8</text></g><g class="tick"><line stroke="#a8a8a8" stroke-width="1" x1="0" x2="0" y1="0" y2="482.0" /><text dy="1em" fill="#9c9c9c" font-family="Monaco" text-anchor="middle" x="0" y="486.0">0</text></g></g><g class="axis left"><text dy="" fill="#666" font-family="Monaco" text-anchor="middle" transform="rotate(270 -40 239)" x="-40" y="239.0" /><g class="tick"><line stroke="#eee" stroke-width="1" x1="-4" x2="680.0" y1="478.00" y2="478.00" /><text dy="0.32em" fill="#9c9c9c" font-family="Monaco" text-anchor="end" x="-8" y="478.00">2.00</text></g><g class="tick"><line stroke="#eee" stroke-width="1" x1="-4" x2="680.0" y1="358.50" y2="358.50" /><text dy="0.32em" fill="#9c9c9c" font-family="Monaco" text-anchor="end" x="-8" y="358.50">2.75</text></g><g class="tick"><line stroke="#eee" stroke-width="1" x1="-4" x2="680.0" y1="239.00" y2="239.00" /><text dy="0.32em" fill="#9c9c9c" font-family="Monaco" text-anchor="end" x="-8" y="239.00">3.50</text></g><g class="tick"><line stroke="#eee" stroke-width="1" x1="-4" x2="680.0" y1="119.50" y2="119.50" /><text dy="0.32em" fill="#9c9c9c" font-family="Monaco" text-anchor="end" x="-8" y="119.50">4.25</text></g><g class="tick"><line stroke="#eee" stroke-width="1" x1="-4" x2="680.0" y1="0.00" y2="0.00" /><text dy="0.32em" fill="#9c9c9c" font-family="Monaco" text-anchor="end" x="-8" y="0.00">5.00</text></g></g><g><g class="series lines"><path d="M 0 318.6666666666666666666666667 L 340.0 0 L 595.000 -637.333333333333333333333333 L 680 159.3333333333333333333333333" fill="none" stroke="#d190b6" stroke-width="2" /></g></g></g></g></g></g></g><g transform="translate(800 0)"><g><rect fill="#f9f9f9" height="600.0" width="800.0" x="0" y="0" /><g transform="translate(40 40)"><g transform="translate(40 0)"><text fill="#333" font-family="Monaco" font-size="16" x="0" y="0">Second</text></g><g transform="translate(0 20)"><g transform="translate(40 0)"><g class="axis bottom"><text dy="1em" fill="#666" font-family="Monaco" text-anchor="middle" transform="" x="340.0" y="508.0" /><g class="tick"><line stroke="#eee" stroke-width="1" x1="170.00" x2="170.00" y1="0" y2="482.0" /><text dy="1em" fill="#9c9c9c" font-family="Monaco" text-anchor="middle" x="170.00" y="486.0">2</text></g><g class="tick"><line stroke="#eee" stroke-width="1" x1="340.0" x2="340.0" y1="0" y2="482.0" /><text dy="1em" fill="#9c9c9c" font-family="Monaco" text-anchor="middle" x="340.0" y="486.0">4</text></g><g class="tick"><line stroke="#eee" stroke-width="1" x1="510.00" x2="510.00" y1="0" y2="482.0" /><text dy="1em" fill="#9c9c9c" font-family="Monaco" text-anchor="middle" x="510.00" y="486.0">6</text></g><g class="tick"><line stroke="#eee" stroke-width="1" x1="680" x2="680" y1="0" y2="482.0" /><text dy="1em" fill="#9c9c9c" font-family="Monaco" text-anchor="middle" x="680" y="486.0">8</text></g><g class="tick"><line stroke="#a8a8a8" stroke-width="1" x1="0" x2="0" y1="0" y2="482.0" /><text dy="1em" fill="#9c9c9c" font-family="Monaco" text-anchor="middle" x="0" y="486.0">0</text></g></g><g class="axis left"><text dy="" fill="#666" font-family="Monaco" text-anchor="middle" transform="rotate(270 -40 239)" x="-40" y="239.0" /><g class="tick"><line stroke="#eee" stroke-width="1" x1="-4" x2="680.0" y1="478.00" y2="478.00" /><text dy="0.32em" fill="#9c9c9c" font-family="Monaco" text-anchor="end" x="-8" y="478.00">2.00</text></g><g class="tick"><line stroke="#eee" stroke-width="1" x1="-4" x2="680.0" y1="358.50" y2="358.50" /><text dy="0.32em" fill="#9c9c9c" font-family="Monaco" text-anchor="end" x="-8" y="358.50">2.75</text></g><g class="tick"><line stroke="#eee" stroke-width="1" x1="-4" x2="680.0" y1="239.00" y2="239.00" /><text dy="0.32em" fill="#9c9c9c" font-family="Monaco" text-anchor="end" x="-8" y="239.00">3.50</text></g><g class="tick"><line stroke="#eee" stroke-width="1" x1="-4" x2="680.0" y1="119.50" y2="119.50" /><text dy="0.32em" fill="#9c9c9c" font-family="Monaco" text-anchor="end" x="-8" y="119.50">4.25</text></g><g class="tick"><line stroke="#eee" stroke-width="1" x1="-4" x2="680.0" y1="0.00" y2="0.00" /><text dy="0.32em" fill="#9c9c9c" font-family="Monaco" text-anchor="end" x="-8" y="0.00">5.00</text></g></g><g><g class="series lines"><path d="M 255.000 159.3333333333333333333333333 L 255.000 159.3333333333333333333333333 L 425.000 -159.3333333333333333333333332 L 595.000 -796.666666666666666666666667 L 680 478" fill="none" stroke="#d190b6" stroke-width="2" /></g></g></g></g></g></g></g><g transform="translate(0 600)"><g><rect fill="#f9f9f9" height="600.0" width="800.0" x="0" y="0" /><g transform="translate(40 40)"><g transform="translate(40 0)"><text fill="#333" font-family="Monaco" font-size="16" x="0" y="0">Third</text></g><g transform="translate(0 20)"><g transform="translate(40 0)"><g class="axis bottom"><text dy="1em" fill="#666" font-family="Monaco" text-anchor="middle" transform="" x="340.0" y="508.0" /><g class="tick"><line stroke="#eee" stroke-width="1" x1="170.00" x2="170.00" y1="0" y2="482.0" /><text dy="1em" fill="#9c9c9c" font-family="Monaco" text-anchor="middle" x="170.00" y="486.0">2</text></g><g class="tick"><line stroke="#eee" stroke-width="1" x1="340.0" x2="340.0" y1="0" y2="482.0" /><text dy="1em" fill="#9c9c9c" font-family="Monaco" text-anchor="middle" x="340.0" y="486.0">4</text></g><g class="tick"><line stroke="#eee" stroke-width="1" x1="510.00" x2="510.00" y1="0" y2="482.0" /><text dy="1em" fill="#9c9c9c" font-family="Monaco" text-anchor="middle" x="510.00" y="486.0">6</text></g><g class="tick"><line stroke="#eee" stroke-width="1" x1="680" x2="680" y1="0" y2="482.0" /><text dy="1em" fill="#9c9c9c" font-family="Monaco" text-anchor="middle" x="680" y="486.0">8</text></g><g class="tick"><line stroke="#a8a8a8" stroke-width="1" x1="0" x2="0" y1="0" y2="482.0" /><text dy="1em" fill="#9c9c9c" font-family="Monaco" text-anchor="middle" x="0" y="486.0">0</text></g></g><g class="axis left"><text dy="" fill="#666" font-family="Monaco" text-anchor="middle" transform="rotate(270 -40 239)" x="-40" y="239.0" /><g class="tick"><line stroke="#eee" stroke-width="1" x1="-4" x2="680.0" y1="478.00" y2="478.00" /><text dy="0.32em" fill="#9c9c9c" font-family="Monaco" text-anchor="end" x="-8" y="478.00">2.00</text></g><g class="tick"><line stroke="#eee" stroke-width="1" x1="-4" x2="680.0" y1="358.50" y2="358.50" /><text dy="0.32em" fill="#9c9c9c" font-family="Monaco" text-anchor="end" x="-8" y="358.50">2.75</text></g><g class="tick"><line stroke="#eee" stroke-width="1" x1="-4" x2="680.0" y1="239.00" y2="239.00" /><text dy="0.32em" fill="#9c9c9c" font-family="Monaco" text-anchor="end" x="-8" y="239.00">3.50</text></g><g class="tick"><line stroke="#eee" stroke-width="1" x1="-4" x2="680.0" y1="119.50" y2="119.50" /><text dy="0.32em" fill="#9c9c9c" font-family="Monaco" text-anchor="end" x="-8" y="119.50">4.25</text></g><g class="tick"><line stroke="#eee" stroke-width="1" x1="-4" x2="680.0" y1="0.00" y2="0.00" /><text dy="0.32em" fill="#9c9c9c" font-family="Monaco" text-anchor="end" x="-8" y="0.00">5.00</text></g></g><g><g class="series lines"><path d="M 170.00 159.3333333333333333333333333 L 255.000 0 L 510.00 478 L 680 318.6666666666666666666666667 L 850.00 0" fill="none" stroke="#d190b6" stroke-width="2" /></g></g></g></g></g></g></g></g></g></svg>