<?xml version="1.0" standalone="no"?>
<!DOCTYPE svg PUBLIC "-//W3C//DTD SVG 1.1//EN"
"http://www.w3.org/Graphics/SVG/1.1/DTD/svg11.dtd">
<svg height="1200" version="1.1" width="1600" xmlns="http://www.w3.org/2000/svg"><g><rect fill="#f9f9f9" height="1200" width="1600" x="0" y="0" /><g><g transform="translate(0 0)"><g><rect fill="#f9f9f9" height="600.0" width="800.0" x="0" y="0" /><g transform="translate(40 40)"><g transform="translate(54 0)"><text fill="#333" font-family="Monaco" font-size="16" x="0" y="0">First</text></g><g transform="translate(0 20)"><g transform="translate(54 0)"><g class="axis bottom"><text dy="1em" fill="#666" font-family="Monaco" text-anchor="middle" transform="" x="333.0" y="486.0">None</text><g class="tick"><line stroke="#eee" stroke-width="1" x1="166.50" x2="166.50" y1="0" y2="452.0" /><text dy="1em" fill="#9c9c9c" font-family="Monaco" text-anchor="middle" x="166.50" y="456.0">2.5</text></g><g class="tick"><line stroke="#eee" stroke-width="1" x1="333.0" x2="333.0" y1="0" y2="452.0" /><text dy="1em" fill="#9c9c9c" font-family="Monaco" text-anchor="middle" x="333.0" y="456.0">5</text></g><g class="tick"><line stroke="#eee" stroke-width="1" x1="499.50" x2="499.50" y1="0" y2="452.0" /><text dy="1em" fill="#9c9c9c" font-family="Monaco" text-anchor="middle" x="499.50" y="456.0">7.5</text></g><g class="tick"><line stroke="#eee" stroke-width="1" x1="666" x2="666" y1="0" y2="452.0" /><text dy="1em" fill="#9c9c9c" font-family="Monaco" text-anchor="middle" x="666" y="456.0">10</text></g><g class="tick"><line stroke="#a8a8a8" stroke-width="1" x1="0" x2="0" y1="0" y2="452.0" /><text dy="1em" fill="#9c9c9c" font-family="Monaco" text-anchor="middle" x="0" y="456.0">0</text></g></g><g class="axis left"><text dy="" fill="#666" font-family="Monaco" text-anchor="middle" transform="rotate(270 -32 224)" x="-32" y="224.0">None</text><g class="tick"><line stroke="#eee" stroke-width="1" x1="-4" x2="666.0" y1="448" y2="448" /><text dy="0.32em" fill="#9c9c9c" font-family="Monaco" text-anchor="end" x="-8" y="448">2</text></g><g class="tick"><line stroke="#eee" stroke-width="1" x1="-4" x2="666.0" y1="336.00" y2="336.00" /><text dy="0.32em" fill="#9c9c9c" font-family="Monaco" text-anchor="end" x="-8" y="336.00">4</text></g><g class="tick"><line stroke="#eee" stroke-width="1" x1="-4" x2="666.0" y1="224.0" y2="224.0" /><text dy="0.32em" fill="#9c9c9c" font-family="Monaco" text-anchor="end" x="-8" y="224.0">6</text></g><g class="tick"><line stroke="#eee" stroke-width="1" x1="-4" x2="666.0" y1="112.00" y2="112.00" /><text dy="0.32em" fill="#9c9c9c" font-family="Monaco" text-anchor="end" x="-8" y="112.00">8</text></g><g class="tick"><line stroke="#eee" stroke-width="1" x1="-4" x2="666.0" y1="0" y2="0" /><text dy="0.32em" fill="#9c9c9c" font-family="Monaco" text-anchor="end" x="-8" y="0">10</text></g></g><g><g class="series lines"><path d="M 0 392.000 L 266.4 280.000 L 466.2 56.000 L 532.8 336.00" fill="none" stroke="#d190b6" stroke-width="2" /></g></g></g></g></g></g></g><g transform="translate(800 0)"><g><rect fill="#f9f9f9" height="600.0" width="800.0" x="0" y="0" /><g transform="translate(40 40)"><g transform="translate(54 0)"><text fill="#333" font-family="Monaco" font-size="16" x="0" y="0">Second</text></g><g transform="translate(0 20)"><g transform="translate(54 0)"><g class="axis bottom"><text dy="1em" fill="#666" font-family="Monaco" text-anchor="middle" transform="" x="333.0" y="486.0">None</text><g class="tick"><line stroke="#eee" stroke-width="1" x1="166.50" x2="166.50" y1="0" y2="452.0" /><text dy="1em" fill="#9c9c9c" font-family="Monaco" text-anchor="middle" x="166.50" y="456.0">2.5</text></g><g class="tick"><line stroke="#eee" stroke-width="1" x1="333.0" x2="333.0" y1="0" y2="452.0" /><text dy="1em" fill="#9c9c9c" font-family="Monaco" text-anchor="middle" x="333.0" y="456.0">5</text></g><g class="tick"><line stroke="#eee" stroke-width="1" x1="499.50" x2="499.50" y1="0" y2="452.0" /><text dy="1em" fill="#9c9c9c" font-family="Monaco" text-anchor="middle" x="499.50" y="456.0">7.5</text></g><g class="tick"><line stroke="#eee" stroke-width="1" x1="666" x2="666" y1="0" y2="452.0" /><text dy="1em" fill="#9c9c9c" font-family="Monaco" text-anchor="middle" x="666" y="456.0">10</text></g><g class="tick"><line stroke="#a8a8a8" stroke-width="1" x1="0" x2="0" y1="0" y2="452.0" /><text dy="1em" fill="#9c9c9c" font-family="Monaco" text-anchor="middle" x="0" y="456.0">0</text></g></g><g class="axis left"><text dy="" fill="#666" font-family="Monaco" text-anchor="middle" transform="rotate(270 -32 224)" x="-32" y="224.0">None</text><g class="tick"><line stroke="#eee" stroke-width="1" x1="-4" x2="666.0" y1="448" y2="448" /><text dy="0.32em" fill="#9c9c9c" font-family="Monaco" text-anchor="end" x="-8" y="448">2</text></g><g class="tick"><line stroke="#eee" stroke-width="1" x1="-4" x2="666.0" y1="336.00" y2="336.00" /><text dy="0.32em" fill="#9c9c9c" font-family="Monaco" text-anchor="end" x="-8" y="336.00">4</text></g><g class="tick"><line stroke="#eee" stroke-width="1" x1="-4" x2="666.0" y1="224.0" y2="224.0" /><text dy="0.32em" fill="#9c9c9c" font-family="Monaco" text-anchor="end" x="-8" y="224.0">6</text></g><g class="tick"><line stroke="#eee" stroke-width="1" x1="-4" x2="666.0" y1="112.00" y2="112.00" /><text dy="0.32em" fill="#9c9c9c" font-family="Monaco" text-anchor="end" x="-8" y="112.00">8</text></g><g class="tick"><line stroke="#eee" stroke-width="1" x1="-4" x2="666.0" y1="0" y2="0" /><text dy="0.32em" fill="#9c9c9c" font-family="Monaco" text-anchor="end" x="-8" y="0">10</text></g></g><g><g class="series lines"><path d="M 199.8 336.00 L 199.8 336.00 L 333.0 224.0 L 466.2 0 L 532.8 448" fill="none" stroke="#d190b6" stroke-width="2" /></g></g></g></g></g></g></g><g transform="translate(0 600)"><g><rect fill="#f9f9f9" height="600.0" width="800.0" x="0" y="0" /><g transform="translate(40 40)"><g transform="translate(54 0)"><text fill="#333" font-family="Monaco" font-size="16" x="0" y="0">Third</text></g><g transform="translate(0 20)"><g transform="translate(54 0)"><g class="axis bottom"><text dy="1em" fill="#666" font-family="Monaco" text-anchor="middle" transform="" x="333.0" y="486.0">None</text><g class="tick"><line stroke="#eee" stroke-width="1" x1="166.50" x2="166.50" y1="0" y2="452.0" /><text dy="1em" fill="#9c9c9c" font-family="Monaco" text-anchor="middle" x="166.50" y="456.0">2.5</text></g><g class="tick"><line stroke="#eee" stroke-width="1" x1="333.0" x2="333.0" y1="0" y2="452.0" /><text dy="1em" fill="#9c9c9c" font-family="Monaco" text-anchor="middle" x="333.0" y="456.0">5</text></g><g class="tick"><line stroke="#eee" stroke-width="1" x1="499.50" x2="499.50" y1="0" y2="452.0" /><text dy="1em" fill="#9c9c9c" font-family="Monaco" text-anchor="middle" x="499.50" y="456.0">7.5</text></g><g class="tick"><line stroke="#eee" stroke-width="1" x1="666" x2="666" y1="0" y2="452.0" /><text dy="1em" fill="#9c9c9c" font-family="Monaco" text-anchor="middle" x="666" y="456.0">10</text></g><g class="tick"><line stroke="#a8a8a8" stroke-width="1" x1="0" x2="0" y1="0" y2="452.0" /><text dy="1em" fill="#9c9c9c" font-family="Monaco" text-anchor="middle" x="0" y="456.0">0</text></g></g><g class="axis left"><text dy="" fill="#666" font-family="Monaco" text-anchor="middle" transform="rotate(270 -32 224)" x="-32" y="224.0">None</text><g class="tick"><line stroke="#eee" stroke-width="1" x1="-4" x2="666.0" y1="448" y2="448" /><text dy="0.32em" fill="#9c9c9c" font-family="Monaco" text-anchor="end" x="-8" y="448">2</text></g><g class="tick"><line stroke="#eee" stroke-width="1" x1="-4" x2="666.0" y1="336.00" y2="336.00" /><text dy="0.32em" fill="#9c9c9c" font-family="Monaco" text-anchor="end" x="-8" y="336.00">4</text></g><g class="tick"><line stroke="#eee" stroke-width="1" x1="-4" x2="666.0" y1="224.0" y2="224.0" /><text dy="0.32em" fill="#9c9c9c" font-family="Monaco" text-anchor="end" x="-8" y="224.0">6</text></g><g class="tick"><line stroke="#eee" stroke-width="1" x1="-4" x2="666.0" y1="112.00" y2="112.00" /><text dy="0.32em" fill="#9c9c9c" font-family="Monaco" text-anchor="end" x="-8" y="112.00">8</text></g><g class="tick"><line stroke="#eee" stroke-width="1" x1="-4" x2="666.0" y1="0" y2="0" /><text dy="0.32em" fill="#9c9c9c" font-family="Monaco" text-anchor="end" x="-8" y="0">10</text></g></g><g><g class="series lines"><path d="M 133.2 336.00 L 199.8 280.000 L 399.6 448 L 532.8 392.000 L 666 280.000" fill="none" stroke="#d190b6" stroke-width="2" /></g></g></g></g></g></g></g></g></g></svg>