<?xml version="1.0" standalone="no"?>
<!DOCTYPE svg PUBLIC "-//W3C//DTD SVG 1.1//EN"
"http://www.w3.org/Graphics/SVG/1.1/DTD/svg11.dtd">
<svg height="600" version="1.1" width="800" xmlns="http://www.w3.org/2000/svg"><g><rect fill="#f9f9f9" height="600" width="800" x="0" y="0" /><g transform="translate(40 40)"><g transform="translate(32 0)"><text fill="#333" font-family="Monaco" font-size="16" x="0" y="0">Mixed shapes</text><g transform="translate(0 20)"><g transform="translate(0 0)"><rect fill="#d190b6" height="10" width="10" x="0" y="-10" /><text fill="#666" font-family="Monaco" font-size="14" x="14" y="0">Unnamed series</text></g><g transform="translate(158 0)"><rect fill="#51b2e5" height="10" width="10" x="0" y="-10" /><text fill="#666" font-family="Monaco" font-size="14" x="14" y="0">Unnamed series</text></g><g transform="translate(316 0)"><rect fill="#d365ba" height="10" width="10" x="0" y="-10" /><text fill="#666" font-family="Monaco" font-size="14" x="14" y="0">Unnamed series</text></g></g></g><g transform="translate(0 38)"><g transform="translate(32 0)"><g class="axis bottom"><g class="tick"><line stroke="#eee" stroke-width="1" x1="86" x2="86" y1="0" y2="464.0" /><text dy="1em" fill="#9c9c9c" font-family="Monaco" text-anchor="middle" x="86" y="468.0">Hello</text></g><g class="tick"><line stroke="#eee" stroke-width="1" x1="258" x2="258" y1="0" y2="464.0" /><text dy="1em" fill="#9c9c9c" font-family="Monaco" text-anchor="middle" x="258" y="468.0">How</text></g><g class="tick"><line stroke="#eee" stroke-width="1" x1="430" x2="430" y1="0" y2="464.0" /><text dy="1em" fill="#9c9c9c" font-family="Monaco" text-anchor="middle" x="430" y="468.0">Are</text></g><g class="tick"><line stroke="#eee" stroke-width="1" x1="602" x2="602" y1="0" y2="464.0" /><text dy="1em" fill="#9c9c9c" font-family="Monaco" text-anchor="middle" x="602" y="468.0">You</text></g></g><g class="axis left"><g class="tick"><line stroke="#eee" stroke-width="1" x1="-4" x2="688.0" y1="345.00" y2="345.00" /><text dy="0.32em" fill="#9c9c9c" font-family="Monaco" text-anchor="end" x="-8" y="345.00">2.5</text></g><g class="tick"><line stroke="#eee" stroke-width="1" x1="-4" x2="688.0" y1="230.0" y2="230.0" /><text dy="0.32em" fill="#9c9c9c" font-family="Monaco" text-anchor="end" x="-8" y="230.0">5</text></g><g class="tick"><line stroke="#eee" stroke-width="1" x1="-4" x2="688.0" y1="115.00" y2="115.00" /><text dy="0.32em" fill="#9c9c9c" font-family="Monaco" text-anchor="end" x="-8" y="115.00">7.5</text></g><g class="tick"><line stroke="#eee" stroke-width="1" x1="-4" x2="688.0" y1="0" y2="0" /><text dy="0.32em" fill="#9c9c9c" font-family="Monaco" text-anchor="end" x="-8" y="0">10</text></g><g class="tick"><line stroke="#a8a8a8" stroke-width="1" x1="-4" x2="688.0" y1="460" y2="460" /><text dy="0.32em" fill="#9c9c9c" font-family="Monaco" text-anchor="end" x="-8" y="460">0</text></g></g><g><g class="series columns"><rect fill="#d190b6" height="138.0" width="154.8" x="8.6" y="322.0" /><rect fill="#d190b6" height="230.0" width="154.8" x="180.6" y="230.0" /><rect fill="#d190b6" height="414.0" width="154.8" x="352.6" y="46.0" /><rect fill="#d190b6" height="184.0" width="154.8" x="524.6" y="276.0" /></g><g class="series lines"><path d="M 86 414.0 L 258 230.0 L 430 276.0 L 602 322.0" fill="none" stroke="#51b2e5" stroke-width="2" /></g><g class="series dots"><circle cx="86" cy="322.0" fill="#d365ba" r="3" /><circle cx="258" cy="230.0" fill="#d365ba" r="3" /><circle cx="430" cy="46.0" fill="#d365ba" r="3" /><circle cx="602" cy="276.0" fill="#d365ba" r="3" /></g></g></g></g></g></g></svg>