<?xml version="1.0" standalone="no"?>
<!DOCTYPE svg PUBLIC "-//W3C//DTD SVG 1.1//EN"
"http://www.w3.org/Graphics/SVG/1.1/DTD/svg11.dtd">
<svg height="600" version="1.1" width="800" xmlns="http://www.w3.org/2000/svg"><g><rect fill="#f9f9f9" height="600" width="800" x="0" y="0" /><g transform="translate(40 40)"><g transform="translate(40 0)"><text fill="#333" font-family="Monaco" font-size="16" x="0" y="0">Mixed shapes</text><g transform="translate(0 20)"><g transform="translate(0 0)"><rect fill="#d190b6" height="10" width="10" x="0" y="-10" /><text fill="#666" font-family="Monaco" font-size="14" x="14" y="0">Series 0</text></g><g transform="translate(110 0)"><rect fill="#51b2e5" height="10" width="10" x="0" y="-10" /><text fill="#666" font-family="Monaco" font-size="14" x="14" y="0">Series 1</text></g><g transform="translate(220 0)"><rect fill="#d365ba" height="10" width="10" x="0" y="-10" /><text fill="#666" font-family="Monaco" font-size="14" x="14" y="0">Series 2</text></g></g></g><g transform="translate(0 38)"><g transform="translate(40 0)"><g class="axis bottom"><text dy="1em" fill="#666" font-family="Monaco" text-anchor="middle" transform="" x="340.0" y="490.0" /><g class="tick"><line stroke="#eee" stroke-width="1" x1="85.0" x2="85.0" y1="0" y2="464.0" /><text dy="1em" fill="#9c9c9c" font-family="Monaco" text-anchor="middle" x="85.0" y="468.0">Hello</text></g><g class="tick"><line stroke="#eee" stroke-width="1" x1="255.0" x2="255.0" y1="0" y2="464.0" /><text dy="1em" fill="#9c9c9c" font-family="Monaco" text-anchor="middle" x="255.0" y="468.0">How</text></g><g class="tick"><line stroke="#eee" stroke-width="1" x1="425.0" x2="425.0" y1="0" y2="464.0" /><text dy="1em" fill="#9c9c9c" font-family="Monaco" text-anchor="middle" x="425.0" y="468.0">Are</text></g><g class="tick"><line stroke="#eee" stroke-width="1" x1="595.0" x2="595.0" y1="0" y2="464.0" /><text dy="1em" fill="#9c9c9c" font-family="Monaco" text-anchor="middle" x="595.0" y="468.0">You</text></g></g><g class="axis left"><text dy="" fill="#666" font-family="Monaco" text-anchor="middle" transform="rotate(270 -40 230)" x="-40" y="230.0" /><g class="tick"><line stroke="#eee" stroke-width="1" x1="-4" x2="680.0" y1="345.0" y2="345.0" /><text dy="0.32em" fill="#9c9c9c" font-family="Monaco" text-anchor="end" x="-8" y="345.0">2.25</text></g><g class="tick"><line stroke="#eee" stroke-width="1" x1="-4" x2="680.0" y1="230.0" y2="230.0" /><text dy="0.32em" fill="#9c9c9c" font-family="Monaco" text-anchor="end" x="-8" y="230.0">4.5</text></g><g class="tick"><line stroke="#eee" stroke-width="1" x1="-4" x2="680.0" y1="115.0" y2="115.0" /><text dy="0.32em" fill="#9c9c9c" font-family="Monaco" text-anchor="end" x="-8" y="115.0">6.75</text></g><g class="tick"><line stroke="#eee" stroke-width="1" x1="-4" x2="680.0" y1="0.0" y2="0.0" /><text dy="0.32em" fill="#9c9c9c" font-family="Monaco" text-anchor="end" x="-8" y="0.0">9.0</text></g><g class="tick"><line stroke="#a8a8a8" stroke-width="1" x1="-4" x2="680.0" y1="460.0" y2="460.0" /><text dy="0.32em" fill="#9c9c9c" font-family="Monaco" text-anchor="end" x="-8" y="460.0">0.0</text></g></g><g><g class="series columns"><rect fill="#d190b6" height="153.33333333333331" width="153.0" x="8.5" y="306.6666666666667" /><rect fill="#d190b6" height="255.55555555555557" width="153.0" x="178.5" y="204.44444444444443" /><rect fill="#d190b6" height="460.0" width="153.0" x="348.5" y="0.0" /><rect fill="#d190b6" height="204.44444444444443" width="153.0" x="518.5" y="255.55555555555557" /></g><g class="series lines"><path d="M 85.0 408.8888888888889 L 255.0 204.44444444444443 L 425.0 255.55555555555557 L 595.0 306.6666666666667" fill="none" stroke="#51b2e5" stroke-width="2" /></g><g class="series dots"><circle cx="85.0" cy="306.6666666666667" fill="#d365ba" r="3" /><circle cx="255.0" cy="204.44444444444443" fill="#d365ba" r="3" /><circle cx="425.0" cy="0.0" fill="#d365ba" r="3" /><circle cx="595.0" cy="255.55555555555557" fill="#d365ba" r="3" /></g></g></g></g></g></g></svg>