<?xml version="1.0" standalone="no"?>
<!DOCTYPE svg PUBLIC "-//W3C//DTD SVG 1.1//EN"
"http://www.w3.org/Graphics/SVG/1.1/DTD/svg11.dtd">
<svg height="600" version="1.1" width="800" xmlns="http://www.w3.org/2000/svg"><g><rect fill="#f9f9f9" height="600" width="800" x="0" y="0" /><g transform="translate(40 40)"><g transform="translate(40 0)"><text fill="#333" font-family="Monaco" font-size="16" x="0" y="0">Mixed shapes</text><g transform="translate(0 20)"><g transform="translate(0 0)"><rect fill="#d190b6" height="10" width="10" x="0" y="-10" /><text fill="#666" font-family="Monaco" font-size="14" x="14" y="0">None</text></g><g transform="translate(78 0)"><rect fill="#51b2e5" height="10" width="10" x="0" y="-10" /><text fill="#666" font-family="Monaco" font-size="14" x="14" y="0">None</text></g><g transform="translate(156 0)"><rect fill="#d365ba" height="10" width="10" x="0" y="-10" /><text fill="#666" font-family="Monaco" font-size="14" x="14" y="0">None</text></g></g></g><g transform="translate(0 38)"><g transform="translate(40 0)"><g class="axis bottom"><text dy="1em" fill="#666" font-family="Monaco" text-anchor="middle" transform="" x="340.0" y="490.0" /><g class="tick"><line stroke="#eee" stroke-width="1" x1="85" x2="85" y1="0" y2="464.0" /><text dy="1em" fill="#9c9c9c" font-family="Monaco" text-anchor="middle" x="85" y="468.0">Hello</text></g><g class="tick"><line stroke="#eee" stroke-width="1" x1="255" x2="255" y1="0" y2="464.0" /><text dy="1em" fill="#9c9c9c" font-family="Monaco" text-anchor="middle" x="255" y="468.0">How</text></g><g class="tick"><line stroke="#eee" stroke-width="1" x1="425" x2="425" y1="0" y2="464.0" /><text dy="1em" fill="#9c9c9c" font-family="Monaco" text-anchor="middle" x="425" y="468.0">Are</text></g><g class="tick"><line stroke="#eee" stroke-width="1" x1="595" x2="595" y1="0" y2="464.0" /><text dy="1em" fill="#9c9c9c" font-family="Monaco" text-anchor="middle" x="595" y="468.0">You</text></g></g><g class="axis left"><text dy="" fill="#666" font-family="Monaco" text-anchor="middle" transform="rotate(270 -40 230)" x="-40" y="230.0" /><g class="tick"><line stroke="#eee" stroke-width="1" x1="-4" x2="680.0" y1="345.00" y2="345.00" /><text dy="0.32em" fill="#9c9c9c" font-family="Monaco" text-anchor="end" x="-8" y="345.00">1.25</text></g><g class="tick"><line stroke="#eee" stroke-width="1" x1="-4" x2="680.0" y1="230.00" y2="230.00" /><text dy="0.32em" fill="#9c9c9c" font-family="Monaco" text-anchor="end" x="-8" y="230.00">2.50</text></g><g class="tick"><line stroke="#eee" stroke-width="1" x1="-4" x2="680.0" y1="115.00" y2="115.00" /><text dy="0.32em" fill="#9c9c9c" font-family="Monaco" text-anchor="end" x="-8" y="115.00">3.75</text></g><g class="tick"><line stroke="#eee" stroke-width="1" x1="-4" x2="680.0" y1="0.00" y2="0.00" /><text dy="0.32em" fill="#9c9c9c" font-family="Monaco" text-anchor="end" x="-8" y="0.00">5.00</text></g><g class="tick"><line stroke="#a8a8a8" stroke-width="1" x1="-4" x2="680.0" y1="460.00" y2="460.00" /><text dy="0.32em" fill="#9c9c9c" font-family="Monaco" text-anchor="end" x="-8" y="460.00">0.00</text></g></g><g><g class="series columns"><rect fill="#d190b6" height="276.0" width="153.0" x="8.5" y="184.0" /><rect fill="#d190b6" height="460" width="153.0" x="178.5" y="0" /><rect fill="#d190b6" height="828.0" width="153.0" x="348.5" y="-368.0" /><rect fill="#d190b6" height="368.0" width="153.0" x="518.5" y="92.0" /></g><g class="series lines"><path d="M 85 368.0 L 255 0 L 425 92.0 L 595 184.0" fill="none" stroke="#51b2e5" stroke-width="2" /></g><g class="series dots"><circle cx="85" cy="184.0" fill="#d365ba" r="3" /><circle cx="255" cy="0" fill="#d365ba" r="3" /><circle cx="425" cy="-368.0" fill="#d365ba" r="3" /><circle cx="595" cy="92.0" fill="#d365ba" r="3" /></g></g></g></g></g></g></svg>