<?xml version="1.0" standalone="no"?>
<!DOCTYPE svg PUBLIC "-//W3C//DTD SVG 1.1//EN"
"http://www.w3.org/Graphics/SVG/1.1/DTD/svg11.dtd">
<svg height="600" version="1.1" width="800" xmlns="http://www.w3.org/2000/svg"><g><rect fill="#f9f9f9" height="600" width="800" x="0" y="0" /><g transform="translate(40 40)"><g transform="translate(62 0)"><text fill="#333" font-family="Monaco" font-size="16" x="0" y="0">Mixed shapes</text><g transform="translate(0 20)"><g transform="translate(0 0)"><rect fill="#d190b6" height="10" width="10" x="0" y="-10" /><text fill="#666" font-family="Monaco" font-size="14" x="14" y="0">None</text></g><g transform="translate(78 0)"><rect fill="#51b2e5" height="10" width="10" x="0" y="-10" /><text fill="#666" font-family="Monaco" font-size="14" x="14" y="0">None</text></g><g transform="translate(156 0)"><rect fill="#d365ba" height="10" width="10" x="0" y="-10" /><text fill="#666" font-family="Monaco" font-size="14" x="14" y="0">None</text></g></g></g><g transform="translate(0 38)"><g transform="translate(62 0)"><g class="axis bottom"><text dy="1em" fill="#666" font-family="Monaco" text-anchor="middle" transform="" x="329.0" y="468.0">None</text><g class="tick"><line stroke="#eee" stroke-width="1" x1="82.25" x2="82.25" y1="0" y2="434.0" /><text dy="1em" fill="#9c9c9c" font-family="Monaco" text-anchor="middle" x="82.25" y="438.0">Hello</text></g><g class="tick"><line stroke="#eee" stroke-width="1" x1="246.75" x2="246.75" y1="0" y2="434.0" /><text dy="1em" fill="#9c9c9c" font-family="Monaco" text-anchor="middle" x="246.75" y="438.0">How</text></g><g class="tick"><line stroke="#eee" stroke-width="1" x1="411.25" x2="411.25" y1="0" y2="434.0" /><text dy="1em" fill="#9c9c9c" font-family="Monaco" text-anchor="middle" x="411.25" y="438.0">Are</text></g><g class="tick"><line stroke="#eee" stroke-width="1" x1="575.75" x2="575.75" y1="0" y2="434.0" /><text dy="1em" fill="#9c9c9c" font-family="Monaco" text-anchor="middle" x="575.75" y="438.0">You</text></g></g><g class="axis left"><text dy="" fill="#666" font-family="Monaco" text-anchor="middle" transform="rotate(270 -40 215)" x="-40" y="215.0">None</text><g class="tick"><line stroke="#eee" stroke-width="1" x1="-4" x2="658.0" y1="322.50" y2="322.50" /><text dy="0.32em" fill="#9c9c9c" font-family="Monaco" text-anchor="end" x="-8" y="322.50">2.5</text></g><g class="tick"><line stroke="#eee" stroke-width="1" x1="-4" x2="658.0" y1="215.0" y2="215.0" /><text dy="0.32em" fill="#9c9c9c" font-family="Monaco" text-anchor="end" x="-8" y="215.0">5</text></g><g class="tick"><line stroke="#eee" stroke-width="1" x1="-4" x2="658.0" y1="107.50" y2="107.50" /><text dy="0.32em" fill="#9c9c9c" font-family="Monaco" text-anchor="end" x="-8" y="107.50">7.5</text></g><g class="tick"><line stroke="#eee" stroke-width="1" x1="-4" x2="658.0" y1="0" y2="0" /><text dy="0.32em" fill="#9c9c9c" font-family="Monaco" text-anchor="end" x="-8" y="0">10</text></g><g class="tick"><line stroke="#a8a8a8" stroke-width="1" x1="-4" x2="658.0" y1="430" y2="430" /><text dy="0.32em" fill="#9c9c9c" font-family="Monaco" text-anchor="end" x="-8" y="430">0</text></g></g><g><g class="series columns"><rect fill="#d190b6" height="129.0" width="148.050" x="8.225" y="301.0" /><rect fill="#d190b6" height="215.0" width="148.050" x="172.725" y="215.0" /><rect fill="#d190b6" height="387.0" width="148.050" x="337.225" y="43.0" /><rect fill="#d190b6" height="172.0" width="148.050" x="501.725" y="258.0" /></g><g class="series lines"><path d="M 82.25 387.0 L 246.75 215.0 L 411.25 258.0 L 575.75 301.0" fill="none" stroke="#51b2e5" stroke-width="2" /></g><g class="series dots"><circle cx="82.25" cy="301.0" fill="#d365ba" r="3" /><circle cx="246.75" cy="215.0" fill="#d365ba" r="3" /><circle cx="411.25" cy="43.0" fill="#d365ba" r="3" /><circle cx="575.75" cy="258.0" fill="#d365ba" r="3" /></g></g></g></g></g></g></svg>