<?xml version="1.0" standalone="no"?>
<!DOCTYPE svg PUBLIC "-//W3C//DTD SVG 1.1//EN"
"http://www.w3.org/Graphics/SVG/1.1/DTD/svg11.dtd">
<svg height="600" version="1.1" width="800" xmlns="http://www.w3.org/2000/svg"><g><rect fill="#f9f9f9" height="600" width="800" x="0" y="0" /><g transform="translate(40 40)"><g transform="translate(24 0)"><text fill="#333" font-family="Monaco" font-size="16" x="0" y="0">Multiple series</text><g transform="translate(0 20)"><g transform="translate(0 0)"><rect fill="#e41a1c" height="10" width="10" x="0" y="-10" /><text fill="#666" font-family="Monaco" font-size="14" x="14" y="0">Unnamed series</text></g><g transform="translate(158 0)"><rect fill="#377eb8" height="10" width="10" x="0" y="-10" /><text fill="#666" font-family="Monaco" font-size="14" x="14" y="0">Unnamed series</text></g></g></g><g transform="translate(0 38)"><g transform="translate(24 0)"><g class="axis bottom"><g class="tick"><line stroke="#eee" stroke-width="1" x1="174.00" x2="174.00" y1="0" y2="464.0" /><text dy="1em" fill="#9c9c9c" font-family="Monaco" text-anchor="middle" x="174.00" y="468.0">2</text></g><g class="tick"><line stroke="#eee" stroke-width="1" x1="348.0" x2="348.0" y1="0" y2="464.0" /><text dy="1em" fill="#9c9c9c" font-family="Monaco" text-anchor="middle" x="348.0" y="468.0">4</text></g><g class="tick"><line stroke="#eee" stroke-width="1" x1="522.00" x2="522.00" y1="0" y2="464.0" /><text dy="1em" fill="#9c9c9c" font-family="Monaco" text-anchor="middle" x="522.00" y="468.0">6</text></g><g class="tick"><line stroke="#eee" stroke-width="1" x1="696" x2="696" y1="0" y2="464.0" /><text dy="1em" fill="#9c9c9c" font-family="Monaco" text-anchor="middle" x="696" y="468.0">8</text></g><g class="tick"><line stroke="#a8a8a8" stroke-width="1" x1="0" x2="0" y1="0" y2="464.0" /><text dy="1em" fill="#9c9c9c" font-family="Monaco" text-anchor="middle" x="0" y="468.0">0</text></g></g><g class="axis left"><g class="tick"><line stroke="#eee" stroke-width="1" x1="-4" x2="696.0" y1="460" y2="460" /><text dy="0.32em" fill="#9c9c9c" font-family="Monaco" text-anchor="end" x="-8" y="460">2</text></g><g class="tick"><line stroke="#eee" stroke-width="1" x1="-4" x2="696.0" y1="345.00" y2="345.00" /><text dy="0.32em" fill="#9c9c9c" font-family="Monaco" text-anchor="end" x="-8" y="345.00">4</text></g><g class="tick"><line stroke="#eee" stroke-width="1" x1="-4" x2="696.0" y1="230.0" y2="230.0" /><text dy="0.32em" fill="#9c9c9c" font-family="Monaco" text-anchor="end" x="-8" y="230.0">6</text></g><g class="tick"><line stroke="#eee" stroke-width="1" x1="-4" x2="696.0" y1="115.00" y2="115.00" /><text dy="0.32em" fill="#9c9c9c" font-family="Monaco" text-anchor="end" x="-8" y="115.00">8</text></g><g class="tick"><line stroke="#eee" stroke-width="1" x1="-4" x2="696.0" y1="0" y2="0" /><text dy="0.32em" fill="#9c9c9c" font-family="Monaco" text-anchor="end" x="-8" y="0">10</text></g></g><g><g class="series dots"><circle cx="0" cy="402.500" fill="#e41a1c" r="3" /><circle cx="348.0" cy="287.500" fill="#e41a1c" r="3" /><circle cx="609.000" cy="57.500" fill="#e41a1c" r="3" /><circle cx="696" cy="345.00" fill="#e41a1c" r="3" /></g><g class="series dots"><circle cx="174.00" cy="345.00" fill="#377eb8" r="3" /><circle cx="609.000" cy="402.500" fill="#377eb8" r="3" /><circle cx="522.00" cy="460" fill="#377eb8" r="3" /><circle cx="435.000" cy="57.500" fill="#377eb8" r="3" /></g></g></g></g></g></g></svg>