<?xml version="1.0" standalone="no"?>
<!DOCTYPE svg PUBLIC "-//W3C//DTD SVG 1.1//EN"
"http://www.w3.org/Graphics/SVG/1.1/DTD/svg11.dtd">
<svg height="600" version="1.1" width="800" xmlns="http://www.w3.org/2000/svg"><g><rect fill="#f9f9f9" height="600" width="800" x="0" y="0" /><g transform="translate(40 40)"><g transform="translate(40 0)"><text fill="#333" font-family="Monaco" font-size="16" x="0" y="0">Multiple series</text><g transform="translate(0 20)"><g transform="translate(0 0)"><rect height="10" width="10" x="0" y="-10" /><text fill="#666" font-family="Monaco" font-size="14" x="14" y="0">Series 0</text></g><g transform="translate(110 0)"><rect height="10" width="10" x="0" y="-10" /><text fill="#666" font-family="Monaco" font-size="14" x="14" y="0">Series 1</text></g></g></g><g transform="translate(0 38)"><g transform="translate(40 0)"><g class="axis bottom"><text dy="1em" fill="#666" font-family="Monaco" text-anchor="middle" transform="" x="340.0" y="490.0" /><g class="tick"><line stroke="#eee" stroke-width="1" x1="170.00" x2="170.00" y1="0" y2="464.0" /><text dy="1em" fill="#9c9c9c" font-family="Monaco" text-anchor="middle" x="170.00" y="468.0">1.75</text></g><g class="tick"><line stroke="#eee" stroke-width="1" x1="340.00" x2="340.00" y1="0" y2="464.0" /><text dy="1em" fill="#9c9c9c" font-family="Monaco" text-anchor="middle" x="340.00" y="468.0">3.50</text></g><g class="tick"><line stroke="#eee" stroke-width="1" x1="510.00" x2="510.00" y1="0" y2="464.0" /><text dy="1em" fill="#9c9c9c" font-family="Monaco" text-anchor="middle" x="510.00" y="468.0">5.25</text></g><g class="tick"><line stroke="#eee" stroke-width="1" x1="680.00" x2="680.00" y1="0" y2="464.0" /><text dy="1em" fill="#9c9c9c" font-family="Monaco" text-anchor="middle" x="680.00" y="468.0">7.00</text></g><g class="tick"><line stroke="#a8a8a8" stroke-width="1" x1="0.00" x2="0.00" y1="0" y2="464.0" /><text dy="1em" fill="#9c9c9c" font-family="Monaco" text-anchor="middle" x="0.00" y="468.0">0.00</text></g></g><g class="axis left"><text dy="" fill="#666" font-family="Monaco" text-anchor="middle" transform="rotate(270 -40 230)" x="-40" y="230.0" /><g class="tick"><line stroke="#eee" stroke-width="1" x1="-4" x2="680.0" y1="460.00" y2="460.00" /><text dy="0.32em" fill="#9c9c9c" font-family="Monaco" text-anchor="end" x="-8" y="460.00">2.00</text></g><g class="tick"><line stroke="#eee" stroke-width="1" x1="-4" x2="680.0" y1="345.00" y2="345.00" /><text dy="0.32em" fill="#9c9c9c" font-family="Monaco" text-anchor="end" x="-8" y="345.00">3.75</text></g><g class="tick"><line stroke="#eee" stroke-width="1" x1="-4" x2="680.0" y1="230.00" y2="230.00" /><text dy="0.32em" fill="#9c9c9c" font-family="Monaco" text-anchor="end" x="-8" y="230.00">5.50</text></g><g class="tick"><line stroke="#eee" stroke-width="1" x1="-4" x2="680.0" y1="115.00" y2="115.00" /><text dy="0.32em" fill="#9c9c9c" font-family="Monaco" text-anchor="end" x="-8" y="115.00">7.25</text></g><g class="tick"><line stroke="#eee" stroke-width="1" x1="-4" x2="680.0" y1="0.00" y2="0.00" /><text dy="0.32em" fill="#9c9c9c" font-family="Monaco" text-anchor="end" x="-8" y="0.00">9.00</text></g></g><g><g class="series dots"><circle cx="0" cy="394.2857142857142857142857143" fill="#d190b6" r="3" /><circle cx="388.5714285714285714285714286" cy="262.8571428571428571428571428" fill="#d190b6" r="3" /><circle cx="680" cy="0" fill="#d190b6" r="3" /><circle cx="777.1428571428571428571428572" cy="328.5714285714285714285714286" fill="#d190b6" r="3" /></g><g class="series dots"><circle cx="194.2857142857142857142857143" cy="328.5714285714285714285714286" fill="#51b2e5" r="3" /><circle cx="680" cy="394.2857142857142857142857143" fill="#51b2e5" r="3" /><circle cx="582.8571428571428571428571428" cy="460" fill="#51b2e5" r="3" /><circle cx="485.7142857142857142857142857" cy="0" fill="#51b2e5" r="3" /></g></g></g></g></g></g></svg>