<?xml version="1.0" standalone="no"?>
<!DOCTYPE svg PUBLIC "-//W3C//DTD SVG 1.1//EN"
"http://www.w3.org/Graphics/SVG/1.1/DTD/svg11.dtd">
<svg height="600" version="1.1" width="800" xmlns="http://www.w3.org/2000/svg"><g><rect fill="#f9f9f9" height="600" width="800" x="0" y="0" /><g transform="translate(40 40)"><g transform="translate(40 0)"><text fill="#333" font-family="Monaco" font-size="16" x="0" y="0">Multiple series</text><g transform="translate(0 20)"><g transform="translate(0 0)"><rect fill="#d190b6" height="10" width="10" x="0" y="-10" /><text fill="#666" font-family="Monaco" font-size="14" x="14" y="0">Series 0</text></g><g transform="translate(110 0)"><rect fill="#51b2e5" height="10" width="10" x="0" y="-10" /><text fill="#666" font-family="Monaco" font-size="14" x="14" y="0">Series 1</text></g></g></g><g transform="translate(0 38)"><g transform="translate(40 0)"><g class="axis bottom"><text dy="1em" fill="#666" font-family="Monaco" text-anchor="middle" transform="" x="340.0" y="490.0" /><g class="tick"><line stroke="#eee" stroke-width="1" x1="170.0" x2="170.0" y1="0" y2="464.0" /><text dy="1em" fill="#9c9c9c" font-family="Monaco" text-anchor="middle" x="170.0" y="468.0">2.0</text></g><g class="tick"><line stroke="#eee" stroke-width="1" x1="340.0" x2="340.0" y1="0" y2="464.0" /><text dy="1em" fill="#9c9c9c" font-family="Monaco" text-anchor="middle" x="340.0" y="468.0">4.0</text></g><g class="tick"><line stroke="#eee" stroke-width="1" x1="510.0" x2="510.0" y1="0" y2="464.0" /><text dy="1em" fill="#9c9c9c" font-family="Monaco" text-anchor="middle" x="510.0" y="468.0">6.0</text></g><g class="tick"><line stroke="#eee" stroke-width="1" x1="680.0" x2="680.0" y1="0" y2="464.0" /><text dy="1em" fill="#9c9c9c" font-family="Monaco" text-anchor="middle" x="680.0" y="468.0">8.0</text></g><g class="tick"><line stroke="#a8a8a8" stroke-width="1" x1="0.0" x2="0.0" y1="0" y2="464.0" /><text dy="1em" fill="#9c9c9c" font-family="Monaco" text-anchor="middle" x="0.0" y="468.0">0.0</text></g></g><g class="axis left"><text dy="" fill="#666" font-family="Monaco" text-anchor="middle" transform="rotate(270 -40 230)" x="-40" y="230.0" /><g class="tick"><line stroke="#eee" stroke-width="1" x1="-4" x2="680.0" y1="460.0" y2="460.0" /><text dy="0.32em" fill="#9c9c9c" font-family="Monaco" text-anchor="end" x="-8" y="460.0">2.0</text></g><g class="tick"><line stroke="#eee" stroke-width="1" x1="-4" x2="680.0" y1="345.0" y2="345.0" /><text dy="0.32em" fill="#9c9c9c" font-family="Monaco" text-anchor="end" x="-8" y="345.0">3.75</text></g><g class="tick"><line stroke="#eee" stroke-width="1" x1="-4" x2="680.0" y1="230.0" y2="230.0" /><text dy="0.32em" fill="#9c9c9c" font-family="Monaco" text-anchor="end" x="-8" y="230.0">5.5</text></g><g class="tick"><line stroke="#eee" stroke-width="1" x1="-4" x2="680.0" y1="115.0" y2="115.0" /><text dy="0.32em" fill="#9c9c9c" font-family="Monaco" text-anchor="end" x="-8" y="115.0">7.25</text></g><g class="tick"><line stroke="#eee" stroke-width="1" x1="-4" x2="680.0" y1="0.0" y2="0.0" /><text dy="0.32em" fill="#9c9c9c" font-family="Monaco" text-anchor="end" x="-8" y="0.0">9.0</text></g></g><g><g class="series dots"><circle cx="0.0" cy="394.2857142857143" fill="#d190b6" r="3" /><circle cx="340.0" cy="262.8571428571429" fill="#d190b6" r="3" /><circle cx="595.0" cy="0.0" fill="#d190b6" r="3" /><circle cx="680.0" cy="328.57142857142856" fill="#d190b6" r="3" /></g><g class="series dots"><circle cx="170.0" cy="328.57142857142856" fill="#51b2e5" r="3" /><circle cx="595.0" cy="394.2857142857143" fill="#51b2e5" r="3" /><circle cx="510.0" cy="460.0" fill="#51b2e5" r="3" /><circle cx="425.0" cy="0.0" fill="#51b2e5" r="3" /></g></g></g></g></g></g></svg>