<?xml version="1.0" standalone="no"?>
<!DOCTYPE svg PUBLIC "-//W3C//DTD SVG 1.1//EN"
"http://www.w3.org/Graphics/SVG/1.1/DTD/svg11.dtd">
<svg height="600" version="1.1" width="800" xmlns="http://www.w3.org/2000/svg"><g><rect fill="#f9f9f9" height="600" width="800" x="0" y="0" /><g transform="translate(40 40)"><g transform="translate(54 0)"><text fill="#333" font-family="Monaco" font-size="16" x="0" y="0">Multiple series</text><g transform="translate(0 20)"><g transform="translate(0 0)"><rect fill="#d190b6" height="10" width="10" x="0" y="-10" /><text fill="#666" font-family="Monaco" font-size="14" x="14" y="0">None</text></g><g transform="translate(78 0)"><rect fill="#51b2e5" height="10" width="10" x="0" y="-10" /><text fill="#666" font-family="Monaco" font-size="14" x="14" y="0">None</text></g></g></g><g transform="translate(0 38)"><g transform="translate(54 0)"><g class="axis bottom"><text dy="1em" fill="#666" font-family="Monaco" text-anchor="middle" transform="" x="333.0" y="468.0">None</text><g class="tick"><line stroke="#eee" stroke-width="1" x1="166.50" x2="166.50" y1="0" y2="434.0" /><text dy="1em" fill="#9c9c9c" font-family="Monaco" text-anchor="middle" x="166.50" y="438.0">2</text></g><g class="tick"><line stroke="#eee" stroke-width="1" x1="333.0" x2="333.0" y1="0" y2="434.0" /><text dy="1em" fill="#9c9c9c" font-family="Monaco" text-anchor="middle" x="333.0" y="438.0">4</text></g><g class="tick"><line stroke="#eee" stroke-width="1" x1="499.50" x2="499.50" y1="0" y2="434.0" /><text dy="1em" fill="#9c9c9c" font-family="Monaco" text-anchor="middle" x="499.50" y="438.0">6</text></g><g class="tick"><line stroke="#eee" stroke-width="1" x1="666" x2="666" y1="0" y2="434.0" /><text dy="1em" fill="#9c9c9c" font-family="Monaco" text-anchor="middle" x="666" y="438.0">8</text></g><g class="tick"><line stroke="#a8a8a8" stroke-width="1" x1="0" x2="0" y1="0" y2="434.0" /><text dy="1em" fill="#9c9c9c" font-family="Monaco" text-anchor="middle" x="0" y="438.0">0</text></g></g><g class="axis left"><text dy="" fill="#666" font-family="Monaco" text-anchor="middle" transform="rotate(270 -32 215)" x="-32" y="215.0">None</text><g class="tick"><line stroke="#eee" stroke-width="1" x1="-4" x2="666.0" y1="430" y2="430" /><text dy="0.32em" fill="#9c9c9c" font-family="Monaco" text-anchor="end" x="-8" y="430">2</text></g><g class="tick"><line stroke="#eee" stroke-width="1" x1="-4" x2="666.0" y1="322.50" y2="322.50" /><text dy="0.32em" fill="#9c9c9c" font-family="Monaco" text-anchor="end" x="-8" y="322.50">4</text></g><g class="tick"><line stroke="#eee" stroke-width="1" x1="-4" x2="666.0" y1="215.0" y2="215.0" /><text dy="0.32em" fill="#9c9c9c" font-family="Monaco" text-anchor="end" x="-8" y="215.0">6</text></g><g class="tick"><line stroke="#eee" stroke-width="1" x1="-4" x2="666.0" y1="107.50" y2="107.50" /><text dy="0.32em" fill="#9c9c9c" font-family="Monaco" text-anchor="end" x="-8" y="107.50">8</text></g><g class="tick"><line stroke="#eee" stroke-width="1" x1="-4" x2="666.0" y1="0" y2="0" /><text dy="0.32em" fill="#9c9c9c" font-family="Monaco" text-anchor="end" x="-8" y="0">10</text></g></g><g><g class="series dots"><circle cx="0" cy="376.250" fill="#d190b6" r="3" /><circle cx="333.0" cy="268.750" fill="#d190b6" r="3" /><circle cx="582.750" cy="53.750" fill="#d190b6" r="3" /><circle cx="666" cy="322.50" fill="#d190b6" r="3" /></g><g class="series dots"><circle cx="166.50" cy="322.50" fill="#51b2e5" r="3" /><circle cx="582.750" cy="376.250" fill="#51b2e5" r="3" /><circle cx="499.50" cy="430" fill="#51b2e5" r="3" /><circle cx="416.250" cy="53.750" fill="#51b2e5" r="3" /></g></g></g></g></g></g></svg>