<?xml version="1.0" standalone="no"?>
<!DOCTYPE svg PUBLIC "-//W3C//DTD SVG 1.1//EN"
"http://www.w3.org/Graphics/SVG/1.1/DTD/svg11.dtd">
<svg height="600" version="1.1" width="800" xmlns="http://www.w3.org/2000/svg"><g><rect fill="#f9f9f9" height="600" width="800" x="0" y="0" /><g transform="translate(40 40)"><g transform="translate(62 0)"><text fill="#333" font-family="Monaco" font-size="16" x="0" y="0">Simple pairs</text></g><g transform="translate(0 20)"><g transform="translate(62 0)"><g class="axis bottom"><text dy="1em" fill="#666" font-family="Monaco" text-anchor="middle" transform="" x="329.0" y="486.0">None</text><g class="tick"><line stroke="#eee" stroke-width="1" x1="164.50" x2="164.50" y1="0" y2="452.0" /><text dy="1em" fill="#9c9c9c" font-family="Monaco" text-anchor="middle" x="164.50" y="456.0">2</text></g><g class="tick"><line stroke="#eee" stroke-width="1" x1="329.0" x2="329.0" y1="0" y2="452.0" /><text dy="1em" fill="#9c9c9c" font-family="Monaco" text-anchor="middle" x="329.0" y="456.0">4</text></g><g class="tick"><line stroke="#eee" stroke-width="1" x1="493.50" x2="493.50" y1="0" y2="452.0" /><text dy="1em" fill="#9c9c9c" font-family="Monaco" text-anchor="middle" x="493.50" y="456.0">6</text></g><g class="tick"><line stroke="#eee" stroke-width="1" x1="658" x2="658" y1="0" y2="452.0" /><text dy="1em" fill="#9c9c9c" font-family="Monaco" text-anchor="middle" x="658" y="456.0">8</text></g><g class="tick"><line stroke="#a8a8a8" stroke-width="1" x1="0" x2="0" y1="0" y2="452.0" /><text dy="1em" fill="#9c9c9c" font-family="Monaco" text-anchor="middle" x="0" y="456.0">0</text></g></g><g class="axis left"><text dy="" fill="#666" font-family="Monaco" text-anchor="middle" transform="rotate(270 -40 224)" x="-40" y="224.0">None</text><g class="tick"><line stroke="#eee" stroke-width="1" x1="-4" x2="658.0" y1="448" y2="448" /><text dy="0.32em" fill="#9c9c9c" font-family="Monaco" text-anchor="end" x="-8" y="448">2.5</text></g><g class="tick"><line stroke="#eee" stroke-width="1" x1="-4" x2="658.0" y1="298.6666666666666666666666667" y2="298.6666666666666666666666667" /><text dy="0.32em" fill="#9c9c9c" font-family="Monaco" text-anchor="end" x="-8" y="298.6666666666666666666666667">5</text></g><g class="tick"><line stroke="#eee" stroke-width="1" x1="-4" x2="658.0" y1="149.3333333333333333333333333" y2="149.3333333333333333333333333" /><text dy="0.32em" fill="#9c9c9c" font-family="Monaco" text-anchor="end" x="-8" y="149.3333333333333333333333333">7.5</text></g><g class="tick"><line stroke="#eee" stroke-width="1" x1="-4" x2="658.0" y1="0" y2="0" /><text dy="0.32em" fill="#9c9c9c" font-family="Monaco" text-anchor="end" x="-8" y="0">10</text></g></g><g><g class="series dots"><circle cx="0" cy="418.1333333333333333333333333" fill="#d190b6" r="3" /><circle cx="329.0" cy="298.6666666666666666666666667" fill="#d190b6" r="3" /><circle cx="575.750" cy="59.7333333333333333333333333" fill="#d190b6" r="3" /><circle cx="658" cy="358.4" fill="#d190b6" r="3" /></g></g></g></g></g></g></svg>