<?xml version="1.0" standalone="no"?>
<!DOCTYPE svg PUBLIC "-//W3C//DTD SVG 1.1//EN"
"http://www.w3.org/Graphics/SVG/1.1/DTD/svg11.dtd">
<svg height="600" version="1.1" width="800" xmlns="http://www.w3.org/2000/svg"><g><rect fill="#f9f9f9" height="600" width="800" x="0" y="0" /><g transform="translate(40 40)"><g transform="translate(32 0)"><text fill="#333" font-family="Monaco" font-size="16" x="0" y="0">Temporal</text></g><g transform="translate(0 20)"><g transform="translate(32 0)"><g class="axis bottom"><g class="tick"><line stroke="#eee" stroke-width="1" x1="0.0" x2="0.0" y1="0" y2="482.0" /><text dy="1em" fill="#9c9c9c" font-family="Monaco" text-anchor="middle" x="0.0" y="486.0">2014-01</text></g><g class="tick"><line stroke="#eee" stroke-width="1" x1="136.54385964912282" x2="136.54385964912282" y1="0" y2="482.0" /><text dy="1em" fill="#9c9c9c" font-family="Monaco" text-anchor="middle" x="136.54385964912282" y="486.0">2014-07</text></g><g class="tick"><line stroke="#eee" stroke-width="1" x1="275.35087719298247" x2="275.35087719298247" y1="0" y2="482.0" /><text dy="1em" fill="#9c9c9c" font-family="Monaco" text-anchor="middle" x="275.35087719298247" y="486.0">2015-01</text></g><g class="tick"><line stroke="#eee" stroke-width="1" x1="411.89473684210526" x2="411.89473684210526" y1="0" y2="482.0" /><text dy="1em" fill="#9c9c9c" font-family="Monaco" text-anchor="middle" x="411.89473684210526" y="486.0">2015-07</text></g><g class="tick"><line stroke="#eee" stroke-width="1" x1="550.7017543859649" x2="550.7017543859649" y1="0" y2="482.0" /><text dy="1em" fill="#9c9c9c" font-family="Monaco" text-anchor="middle" x="550.7017543859649" y="486.0">2016-01</text></g><g class="tick"><line stroke="#eee" stroke-width="1" x1="688.0" x2="688.0" y1="0" y2="482.0" /><text dy="1em" fill="#9c9c9c" font-family="Monaco" text-anchor="middle" x="688.0" y="486.0">2016-07</text></g></g><g class="axis left"><g class="tick"><line stroke="#eee" stroke-width="1" x1="-4" x2="688.0" y1="478" y2="478" /><text dy="0.32em" fill="#9c9c9c" font-family="Monaco" text-anchor="end" x="-8" y="478">2.5</text></g><g class="tick"><line stroke="#eee" stroke-width="1" x1="-4" x2="688.0" y1="318.6666666666666666666666667" y2="318.6666666666666666666666667" /><text dy="0.32em" fill="#9c9c9c" font-family="Monaco" text-anchor="end" x="-8" y="318.6666666666666666666666667">5</text></g><g class="tick"><line stroke="#eee" stroke-width="1" x1="-4" x2="688.0" y1="159.3333333333333333333333333" y2="159.3333333333333333333333333" /><text dy="0.32em" fill="#9c9c9c" font-family="Monaco" text-anchor="end" x="-8" y="159.3333333333333333333333333">7.5</text></g><g class="tick"><line stroke="#eee" stroke-width="1" x1="-4" x2="688.0" y1="0" y2="0" /><text dy="0.32em" fill="#9c9c9c" font-family="Monaco" text-anchor="end" x="-8" y="0">10</text></g></g><g><g class="series lines"><path d="M 275.35087719298247 446.1333333333333333333333333 L 319.859649122807 318.6666666666666666666666667 L 389.2631578947368 63.7333333333333333333333333 L 458.66666666666663 382.4" fill="none" stroke="#e41a1c" stroke-width="2" /></g></g></g></g></g></g></svg>