<?xml version="1.0" standalone="no"?>
<!DOCTYPE svg PUBLIC "-//W3C//DTD SVG 1.1//EN"
"http://www.w3.org/Graphics/SVG/1.1/DTD/svg11.dtd">
<svg height="600" version="1.1" width="800" xmlns="http://www.w3.org/2000/svg"><g><rect fill="#f9f9f9" height="600" width="800" x="0" y="0" /><g transform="translate(40 40)"><g transform="translate(48 0)"><text fill="#333" font-family="Monaco" font-size="16" x="0" y="0">Well that was easy</text></g><g transform="translate(0 18)"><g transform="translate(48 0)"><g class="axis bottom"><g class="tick"><line stroke="#a8a8a8" stroke-width="1" x1="0.0" x2="0.0" y1="0" y2="492.0" /><text dy="1em" fill="#9c9c9c" font-family="Monaco" text-anchor="middle" x="0.0" y="496.0">0.0</text></g><g class="tick"><line stroke="#eee" stroke-width="1" x1="168.0" x2="168.0" y1="0" y2="492.0" /><text dy="1em" fill="#9c9c9c" font-family="Monaco" text-anchor="middle" x="168.0" y="496.0">62.5</text></g><g class="tick"><line stroke="#eee" stroke-width="1" x1="336.0" x2="336.0" y1="0" y2="492.0" /><text dy="1em" fill="#9c9c9c" font-family="Monaco" text-anchor="middle" x="336.0" y="496.0">125.0</text></g><g class="tick"><line stroke="#eee" stroke-width="1" x1="504.0" x2="504.0" y1="0" y2="492.0" /><text dy="1em" fill="#9c9c9c" font-family="Monaco" text-anchor="middle" x="504.0" y="496.0">187.5</text></g><g class="tick"><line stroke="#eee" stroke-width="1" x1="672.0" x2="672.0" y1="0" y2="492.0" /><text dy="1em" fill="#9c9c9c" font-family="Monaco" text-anchor="middle" x="672.0" y="496.0">250.0</text></g></g><g class="axis left"><g class="tick"><line stroke="#a8a8a8" stroke-width="1" x1="-4" x2="672.0" y1="488.0" y2="488.0" /><text dy="0.32em" fill="#9c9c9c" font-family="Monaco" text-anchor="end" x="-8" y="488.0">0.0</text></g><g class="tick"><line stroke="#eee" stroke-width="1" x1="-4" x2="672.0" y1="366.0" y2="366.0" /><text dy="0.32em" fill="#9c9c9c" font-family="Monaco" text-anchor="end" x="-8" y="366.0">61.25</text></g><g class="tick"><line stroke="#eee" stroke-width="1" x1="-4" x2="672.0" y1="244.0" y2="244.0" /><text dy="0.32em" fill="#9c9c9c" font-family="Monaco" text-anchor="end" x="-8" y="244.0">122.5</text></g><g class="tick"><line stroke="#eee" stroke-width="1" x1="-4" x2="672.0" y1="122.0" y2="122.0" /><text dy="0.32em" fill="#9c9c9c" font-family="Monaco" text-anchor="end" x="-8" y="122.0">183.75</text></g><g class="tick"><line stroke="#eee" stroke-width="1" x1="-4" x2="672.0" y1="0.0" y2="0.0" /><text dy="0.32em" fill="#9c9c9c" font-family="Monaco" text-anchor="end" x="-8" y="0.0">245.0</text></g></g><g><g class="series dots"><circle cx="306.432" cy="83.65714285714284" fill="rgb(114, 203, 150)" r="3" /><circle cx="499.968" cy="113.53469387755104" fill="rgb(186, 188, 150)" r="3" /><circle cx="532.224" cy="165.3224489795918" fill="rgb(198, 162, 150)" r="3" /><circle cx="196.224" cy="272.8816326530612" fill="rgb(73, 108, 150)" r="3" /><circle cx="209.664" cy="209.14285714285717" fill="rgb(78, 140, 150)" r="3" /><circle cx="0.0" cy="91.62448979591841" fill="rgb(0, 199, 150)" r="3" /><circle cx="454.27200000000005" cy="336.6204081632653" fill="rgb(169, 76, 150)" r="3" /><circle cx="134.4" cy="452.1469387755102" fill="rgb(50, 18, 150)" r="3" /><circle cx="83.328" cy="302.75918367346935" fill="rgb(31, 93, 150)" r="3" /><circle cx="69.88799999999999" cy="386.41632653061225" fill="rgb(26, 51, 150)" r="3" /><circle cx="540.288" cy="43.82040816326531" fill="rgb(201, 223, 150)" r="3" /><circle cx="172.032" cy="173.28979591836736" fill="rgb(64, 158, 150)" r="3" /><circle cx="72.576" cy="480.0326530612245" fill="rgb(27, 4, 150)" r="3" /><circle cx="43.008" cy="368.48979591836735" fill="rgb(16, 60, 150)" r="3" /><circle cx="260.736" cy="83.65714285714284" fill="rgb(97, 203, 150)" r="3" /><circle cx="580.608" cy="0.0" fill="rgb(216, 245, 150)" r="3" /><circle cx="427.392" cy="11.951020408163231" fill="rgb(159, 239, 150)" r="3" /><circle cx="497.28" cy="101.5836734693878" fill="rgb(185, 194, 150)" r="3" /><circle cx="287.616" cy="199.18367346938777" fill="rgb(107, 145, 150)" r="3" /><circle cx="80.64" cy="29.877551020408134" fill="rgb(30, 230, 150)" r="3" /><circle cx="43.008" cy="83.65714285714284" fill="rgb(16, 203, 150)" r="3" /><circle cx="462.33599999999996" cy="207.15102040816328" fill="rgb(172, 141, 150)" r="3" /><circle cx="389.76" cy="404.34285714285716" fill="rgb(145, 42, 150)" r="3" /><circle cx="604.8000000000001" cy="438.2040816326531" fill="rgb(225, 25, 150)" r="3" /><circle cx="628.9920000000001" cy="254.9551020408163" fill="rgb(234, 117, 150)" r="3" /><circle cx="553.728" cy="468.0816326530612" fill="rgb(206, 10, 150)" r="3" /><circle cx="556.4159999999999" cy="181.25714285714287" fill="rgb(207, 154, 150)" r="3" /><circle cx="88.70400000000001" cy="193.2081632653061" fill="rgb(33, 148, 150)" r="3" /><circle cx="325.248" cy="260.930612244898" fill="rgb(121, 114, 150)" r="3" /><circle cx="392.448" cy="77.68163265306123" fill="rgb(146, 206, 150)" r="3" /><circle cx="354.81600000000003" cy="79.67346938775506" fill="rgb(132, 205, 150)" r="3" /><circle cx="626.3040000000001" cy="436.2122448979592" fill="rgb(233, 26, 150)" r="3" /><circle cx="59.135999999999996" cy="115.52653061224487" fill="rgb(22, 187, 150)" r="3" /><circle cx="145.152" cy="272.8816326530612" fill="rgb(54, 108, 150)" r="3" /><circle cx="341.376" cy="145.40408163265306" fill="rgb(127, 172, 150)" r="3" /><circle cx="373.63200000000006" cy="39.83673469387753" fill="rgb(139, 225, 150)" r="3" /><circle cx="672.0" cy="308.734693877551" fill="rgb(250, 90, 150)" r="3" /><circle cx="419.328" cy="378.44897959183675" fill="rgb(156, 55, 150)" r="3" /><circle cx="220.416" cy="177.27346938775514" fill="rgb(82, 156, 150)" r="3" /><circle cx="427.392" cy="302.75918367346935" fill="rgb(159, 93, 150)" r="3" /><circle cx="67.2" cy="428.2448979591837" fill="rgb(25, 30, 150)" r="3" /><circle cx="446.208" cy="318.6938775510204" fill="rgb(166, 85, 150)" r="3" /><circle cx="524.16" cy="322.67755102040815" fill="rgb(195, 83, 150)" r="3" /><circle cx="416.64" cy="165.3224489795918" fill="rgb(155, 162, 150)" r="3" /><circle cx="86.016" cy="123.49387755102043" fill="rgb(32, 183, 150)" r="3" /><circle cx="575.232" cy="360.52244897959184" fill="rgb(214, 64, 150)" r="3" /><circle cx="16.128" cy="147.3959183673469" fill="rgb(6, 171, 150)" r="3" /><circle cx="634.3679999999999" cy="252.96326530612245" fill="rgb(236, 118, 150)" r="3" /><circle cx="72.576" cy="87.64081632653063" fill="rgb(27, 201, 150)" r="3" /><circle cx="430.08" cy="334.62857142857143" fill="rgb(160, 77, 150)" r="3" /><circle cx="64.512" cy="450.1551020408163" fill="rgb(24, 19, 150)" r="3" /><circle cx="397.82399999999996" cy="440.19591836734696" fill="rgb(148, 24, 150)" r="3" /><circle cx="577.92" cy="225.07755102040818" fill="rgb(215, 132, 150)" r="3" /><circle cx="266.112" cy="115.52653061224487" fill="rgb(99, 187, 150)" r="3" /><circle cx="212.352" cy="364.50612244897957" fill="rgb(79, 62, 150)" r="3" /><circle cx="43.008" cy="21.910204081632628" fill="rgb(16, 234, 150)" r="3" /><circle cx="491.904" cy="133.45306122448977" fill="rgb(183, 178, 150)" r="3" /><circle cx="263.42400000000004" cy="5.975510204081672" fill="rgb(98, 242, 150)" r="3" /><circle cx="585.984" cy="49.79591836734693" fill="rgb(218, 220, 150)" r="3" /><circle cx="491.904" cy="396.37551020408165" fill="rgb(183, 46, 150)" r="3" /><circle cx="292.992" cy="460.1142857142857" fill="rgb(109, 14, 150)" r="3" /><circle cx="314.49600000000004" cy="193.2081632653061" fill="rgb(117, 148, 150)" r="3" /><circle cx="268.8" cy="165.3224489795918" fill="rgb(100, 162, 150)" r="3" /><circle cx="610.176" cy="187.23265306122454" fill="rgb(227, 151, 150)" r="3" /><circle cx="599.424" cy="33.86122448979597" fill="rgb(223, 228, 150)" r="3" /><circle cx="440.832" cy="101.5836734693878" fill="rgb(164, 194, 150)" r="3" /><circle cx="5.376" cy="410.31836734693877" fill="rgb(2, 39, 150)" r="3" /><circle cx="357.504" cy="464.0979591836735" fill="rgb(133, 12, 150)" r="3" /><circle cx="344.064" cy="231.0530612244898" fill="rgb(128, 129, 150)" r="3" /><circle cx="72.576" cy="97.59999999999997" fill="rgb(27, 196, 150)" r="3" /><circle cx="505.344" cy="470.0734693877551" fill="rgb(188, 9, 150)" r="3" /><circle cx="548.352" cy="446.1714285714286" fill="rgb(204, 21, 150)" r="3" /><circle cx="249.984" cy="217.11020408163267" fill="rgb(93, 136, 150)" r="3" /><circle cx="478.464" cy="376.45714285714286" fill="rgb(178, 56, 150)" r="3" /><circle cx="177.40800000000002" cy="280.8489795918367" fill="rgb(66, 104, 150)" r="3" /><circle cx="459.648" cy="334.62857142857143" fill="rgb(171, 77, 150)" r="3" /><circle cx="18.816" cy="248.9795918367347" fill="rgb(7, 120, 150)" r="3" /><circle cx="376.32000000000005" cy="117.51836734693876" fill="rgb(140, 186, 150)" r="3" /><circle cx="628.9920000000001" cy="482.0244897959184" fill="rgb(234, 3, 150)" r="3" /><circle cx="252.672" cy="31.869387755102025" fill="rgb(94, 229, 150)" r="3" /><circle cx="610.176" cy="153.37142857142857" fill="rgb(227, 168, 150)" r="3" /><circle cx="217.728" cy="153.37142857142857" fill="rgb(81, 168, 150)" r="3" /><circle cx="279.55199999999996" cy="478.0408163265306" fill="rgb(104, 5, 150)" r="3" /><circle cx="255.36" cy="464.0979591836735" fill="rgb(95, 12, 150)" r="3" /><circle cx="462.33599999999996" cy="39.83673469387753" fill="rgb(172, 225, 150)" r="3" /><circle cx="594.048" cy="151.37959183673468" fill="rgb(221, 169, 150)" r="3" /><circle cx="408.57599999999996" cy="199.18367346938777" fill="rgb(152, 145, 150)" r="3" /><circle cx="231.16799999999998" cy="298.7755102040816" fill="rgb(86, 95, 150)" r="3" /><circle cx="86.016" cy="256.9469387755102" fill="rgb(32, 116, 150)" r="3" /><circle cx="69.88799999999999" cy="468.0816326530612" fill="rgb(26, 10, 150)" r="3" /><circle cx="120.96" cy="440.19591836734696" fill="rgb(45, 24, 150)" r="3" /><circle cx="37.632" cy="85.64897959183673" fill="rgb(14, 202, 150)" r="3" /><circle cx="131.71200000000002" cy="462.1061224489796" fill="rgb(49, 13, 150)" r="3" /><circle cx="591.36" cy="342.59591836734694" fill="rgb(220, 73, 150)" r="3" /><circle cx="231.16799999999998" cy="444.1795918367347" fill="rgb(86, 22, 150)" r="3" /><circle cx="327.936" cy="179.26530612244898" fill="rgb(122, 155, 150)" r="3" /><circle cx="521.472" cy="83.65714285714284" fill="rgb(194, 203, 150)" r="3" /><circle cx="48.38399999999999" cy="482.0244897959184" fill="rgb(18, 3, 150)" r="3" /><circle cx="8.064" cy="19.918367346938794" fill="rgb(3, 235, 150)" r="3" /><circle cx="131.71200000000002" cy="402.35102040816327" fill="rgb(49, 43, 150)" r="3" /></g></g></g></g></g></g></svg>