<?xml version="1.0" standalone="no"?>
<!DOCTYPE svg PUBLIC "-//W3C//DTD SVG 1.1//EN"
"http://www.w3.org/Graphics/SVG/1.1/DTD/svg11.dtd">
<svg height="600" version="1.1" width="800" xmlns="http://www.w3.org/2000/svg"><g><rect fill="#f9f9f9" height="600" width="800" x="0" y="0" /><g transform="translate(40 40)"><g transform="translate(40 0)"><text fill="#333" font-family="Monaco" font-size="16" x="0" y="0">Well that was easy</text></g><g transform="translate(0 18)"><g transform="translate(40 0)"><g class="axis bottom"><g class="tick"><line stroke="#a8a8a8" stroke-width="1" x1="0.0" x2="0.0" y1="0" y2="492.0" /><text dy="1em" fill="#9c9c9c" font-family="Monaco" text-anchor="middle" x="0.0" y="496.0">0.0</text></g><g class="tick"><line stroke="#eee" stroke-width="1" x1="170.0" x2="170.0" y1="0" y2="492.0" /><text dy="1em" fill="#9c9c9c" font-family="Monaco" text-anchor="middle" x="170.0" y="496.0">62.5</text></g><g class="tick"><line stroke="#eee" stroke-width="1" x1="340.0" x2="340.0" y1="0" y2="492.0" /><text dy="1em" fill="#9c9c9c" font-family="Monaco" text-anchor="middle" x="340.0" y="496.0">125.0</text></g><g class="tick"><line stroke="#eee" stroke-width="1" x1="510.0" x2="510.0" y1="0" y2="492.0" /><text dy="1em" fill="#9c9c9c" font-family="Monaco" text-anchor="middle" x="510.0" y="496.0">187.5</text></g><g class="tick"><line stroke="#eee" stroke-width="1" x1="680.0" x2="680.0" y1="0" y2="492.0" /><text dy="1em" fill="#9c9c9c" font-family="Monaco" text-anchor="middle" x="680.0" y="496.0">250.0</text></g></g><g class="axis left"><g class="tick"><line stroke="#a8a8a8" stroke-width="1" x1="-4" x2="680.0" y1="488.0" y2="488.0" /><text dy="0.32em" fill="#9c9c9c" font-family="Monaco" text-anchor="end" x="-8" y="488.0">0.0</text></g><g class="tick"><line stroke="#eee" stroke-width="1" x1="-4" x2="680.0" y1="366.0" y2="366.0" /><text dy="0.32em" fill="#9c9c9c" font-family="Monaco" text-anchor="end" x="-8" y="366.0">59.0</text></g><g class="tick"><line stroke="#eee" stroke-width="1" x1="-4" x2="680.0" y1="244.0" y2="244.0" /><text dy="0.32em" fill="#9c9c9c" font-family="Monaco" text-anchor="end" x="-8" y="244.0">118.0</text></g><g class="tick"><line stroke="#eee" stroke-width="1" x1="-4" x2="680.0" y1="122.0" y2="122.0" /><text dy="0.32em" fill="#9c9c9c" font-family="Monaco" text-anchor="end" x="-8" y="122.0">177.0</text></g><g class="tick"><line stroke="#eee" stroke-width="1" x1="-4" x2="680.0" y1="0.0" y2="0.0" /><text dy="0.32em" fill="#9c9c9c" font-family="Monaco" text-anchor="end" x="-8" y="0.0">236.0</text></g></g><g><g class="series dots"><circle cx="481.44" cy="159.22033898305085" fill="rgb(177, 159, 150)" r="3" /><circle cx="206.72" cy="0.0" fill="rgb(76, 236, 150)" r="3" /><circle cx="467.84" cy="361.864406779661" fill="rgb(172, 61, 150)" r="3" /><circle cx="242.07999999999998" cy="281.22033898305085" fill="rgb(89, 100, 150)" r="3" /><circle cx="647.36" cy="378.4067796610169" fill="rgb(238, 53, 150)" r="3" /><circle cx="204.0" cy="413.5593220338983" fill="rgb(75, 36, 150)" r="3" /><circle cx="209.44" cy="353.5932203389831" fill="rgb(77, 65, 150)" r="3" /><circle cx="116.96" cy="39.28813559322032" fill="rgb(43, 217, 150)" r="3" /><circle cx="206.72" cy="382.54237288135596" fill="rgb(76, 51, 150)" r="3" /><circle cx="32.64" cy="444.5762711864407" fill="rgb(12, 21, 150)" r="3" /><circle cx="609.28" cy="239.86440677966104" fill="rgb(224, 120, 150)" r="3" /><circle cx="386.23999999999995" cy="117.86440677966101" fill="rgb(142, 179, 150)" r="3" /><circle cx="187.68" cy="105.45762711864404" fill="rgb(69, 185, 150)" r="3" /><circle cx="334.56" cy="353.5932203389831" fill="rgb(123, 65, 150)" r="3" /><circle cx="359.04" cy="155.08474576271186" fill="rgb(132, 161, 150)" r="3" /><circle cx="342.72" cy="41.35593220338984" fill="rgb(126, 216, 150)" r="3" /><circle cx="40.8" cy="401.1525423728814" fill="rgb(15, 42, 150)" r="3" /><circle cx="310.08" cy="297.7627118644068" fill="rgb(114, 92, 150)" r="3" /><circle cx="165.92" cy="289.49152542372883" fill="rgb(61, 96, 150)" r="3" /><circle cx="631.0400000000001" cy="33.08474576271186" fill="rgb(232, 220, 150)" r="3" /><circle cx="228.48000000000002" cy="136.47457627118644" fill="rgb(84, 170, 150)" r="3" /><circle cx="320.96" cy="18.610169491525426" fill="rgb(118, 227, 150)" r="3" /><circle cx="231.20000000000002" cy="407.35593220338984" fill="rgb(85, 39, 150)" r="3" /><circle cx="291.04" cy="167.49152542372877" fill="rgb(107, 155, 150)" r="3" /><circle cx="323.68" cy="155.08474576271186" fill="rgb(119, 161, 150)" r="3" /><circle cx="402.56" cy="252.27118644067798" fill="rgb(148, 114, 150)" r="3" /><circle cx="565.76" cy="217.11864406779665" fill="rgb(208, 131, 150)" r="3" /><circle cx="508.64" cy="198.50847457627123" fill="rgb(187, 140, 150)" r="3" /><circle cx="560.3199999999999" cy="22.745762711864415" fill="rgb(206, 225, 150)" r="3" /><circle cx="269.28000000000003" cy="4.13559322033899" fill="rgb(99, 234, 150)" r="3" /><circle cx="680.0" cy="33.08474576271186" fill="rgb(250, 220, 150)" r="3" /><circle cx="21.76" cy="481.79661016949154" fill="rgb(8, 3, 150)" r="3" /><circle cx="391.67999999999995" cy="45.491525423728774" fill="rgb(144, 214, 150)" r="3" /><circle cx="182.24" cy="454.91525423728814" fill="rgb(67, 16, 150)" r="3" /><circle cx="78.88000000000001" cy="322.5762711864407" fill="rgb(29, 80, 150)" r="3" /><circle cx="106.08" cy="463.1864406779661" fill="rgb(39, 12, 150)" r="3" /><circle cx="598.4" cy="299.8305084745763" fill="rgb(220, 91, 150)" r="3" /><circle cx="84.32" cy="339.1186440677966" fill="rgb(31, 72, 150)" r="3" /><circle cx="350.88" cy="419.7627118644068" fill="rgb(129, 33, 150)" r="3" /><circle cx="473.28" cy="477.66101694915255" fill="rgb(174, 5, 150)" r="3" /><circle cx="334.56" cy="41.35593220338984" fill="rgb(123, 216, 150)" r="3" /><circle cx="527.6800000000001" cy="372.20338983050846" fill="rgb(194, 56, 150)" r="3" /><circle cx="0.0" cy="436.3050847457627" fill="rgb(0, 25, 150)" r="3" /><circle cx="522.24" cy="374.271186440678" fill="rgb(192, 55, 150)" r="3" /><circle cx="573.92" cy="233.66101694915253" fill="rgb(211, 123, 150)" r="3" /><circle cx="35.36" cy="159.22033898305085" fill="rgb(13, 159, 150)" r="3" /><circle cx="198.55999999999997" cy="475.59322033898303" fill="rgb(73, 6, 150)" r="3" /><circle cx="353.6" cy="351.52542372881356" fill="rgb(130, 66, 150)" r="3" /><circle cx="378.08000000000004" cy="235.72881355932205" fill="rgb(139, 122, 150)" r="3" /><circle cx="51.68" cy="394.9491525423729" fill="rgb(19, 45, 150)" r="3" /><circle cx="54.4" cy="103.38983050847457" fill="rgb(20, 186, 150)" r="3" /><circle cx="184.96" cy="167.49152542372877" fill="rgb(68, 155, 150)" r="3" /><circle cx="193.11999999999998" cy="384.6101694915254" fill="rgb(71, 50, 150)" r="3" /><circle cx="204.0" cy="444.5762711864407" fill="rgb(75, 21, 150)" r="3" /><circle cx="473.28" cy="334.98305084745766" fill="rgb(174, 74, 150)" r="3" /><circle cx="402.56" cy="167.49152542372877" fill="rgb(148, 155, 150)" r="3" /><circle cx="633.76" cy="103.38983050847457" fill="rgb(233, 186, 150)" r="3" /><circle cx="522.24" cy="43.42372881355931" fill="rgb(192, 215, 150)" r="3" /><circle cx="541.28" cy="28.94915254237287" fill="rgb(199, 222, 150)" r="3" /><circle cx="244.79999999999998" cy="169.5593220338983" fill="rgb(90, 154, 150)" r="3" /><circle cx="209.44" cy="35.152542372881385" fill="rgb(77, 219, 150)" r="3" /><circle cx="573.92" cy="202.64406779661016" fill="rgb(211, 138, 150)" r="3" /><circle cx="598.4" cy="115.79661016949154" fill="rgb(220, 180, 150)" r="3" /><circle cx="0.0" cy="341.1864406779661" fill="rgb(0, 71, 150)" r="3" /><circle cx="497.76" cy="132.3389830508475" fill="rgb(183, 172, 150)" r="3" /><circle cx="364.48" cy="330.8474576271186" fill="rgb(134, 76, 150)" r="3" /><circle cx="125.12" cy="279.1525423728814" fill="rgb(46, 101, 150)" r="3" /><circle cx="184.96" cy="134.40677966101697" fill="rgb(68, 171, 150)" r="3" /><circle cx="293.76" cy="119.93220338983053" fill="rgb(108, 178, 150)" r="3" /><circle cx="394.4" cy="235.72881355932205" fill="rgb(145, 122, 150)" r="3" /><circle cx="538.5600000000001" cy="161.28813559322032" fill="rgb(198, 158, 150)" r="3" /><circle cx="511.36" cy="386.6779661016949" fill="rgb(188, 49, 150)" r="3" /><circle cx="609.28" cy="281.22033898305085" fill="rgb(224, 100, 150)" r="3" /><circle cx="57.120000000000005" cy="76.50847457627123" fill="rgb(21, 199, 150)" r="3" /><circle cx="573.92" cy="122.0" fill="rgb(211, 177, 150)" r="3" /><circle cx="258.4" cy="349.45762711864404" fill="rgb(95, 67, 150)" r="3" /><circle cx="652.8" cy="343.25423728813564" fill="rgb(240, 70, 150)" r="3" /><circle cx="16.32" cy="407.35593220338984" fill="rgb(6, 39, 150)" r="3" /><circle cx="233.92" cy="43.42372881355931" fill="rgb(86, 215, 150)" r="3" /><circle cx="340.0" cy="117.86440677966101" fill="rgb(125, 179, 150)" r="3" /><circle cx="554.88" cy="262.6101694915254" fill="rgb(204, 109, 150)" r="3" /><circle cx="108.8" cy="134.40677966101697" fill="rgb(40, 171, 150)" r="3" /><circle cx="212.16" cy="12.40677966101697" fill="rgb(78, 230, 150)" r="3" /><circle cx="535.84" cy="299.8305084745763" fill="rgb(197, 91, 150)" r="3" /><circle cx="486.88" cy="225.38983050847457" fill="rgb(179, 127, 150)" r="3" /><circle cx="130.56" cy="291.5593220338983" fill="rgb(48, 95, 150)" r="3" /><circle cx="484.15999999999997" cy="196.4406779661017" fill="rgb(178, 141, 150)" r="3" /><circle cx="190.4" cy="285.35593220338984" fill="rgb(70, 98, 150)" r="3" /><circle cx="503.2" cy="349.45762711864404" fill="rgb(185, 67, 150)" r="3" /><circle cx="266.56" cy="417.6949152542373" fill="rgb(98, 34, 150)" r="3" /><circle cx="334.56" cy="318.4406779661017" fill="rgb(123, 82, 150)" r="3" /><circle cx="187.68" cy="246.0677966101695" fill="rgb(69, 117, 150)" r="3" /><circle cx="508.64" cy="399.08474576271186" fill="rgb(187, 43, 150)" r="3" /><circle cx="484.15999999999997" cy="254.33898305084745" fill="rgb(178, 113, 150)" r="3" /><circle cx="478.71999999999997" cy="376.33898305084745" fill="rgb(176, 54, 150)" r="3" /><circle cx="89.76" cy="444.5762711864407" fill="rgb(33, 21, 150)" r="3" /><circle cx="81.6" cy="417.6949152542373" fill="rgb(30, 34, 150)" r="3" /><circle cx="546.72" cy="49.627118644067764" fill="rgb(201, 212, 150)" r="3" /><circle cx="369.92" cy="217.11864406779665" fill="rgb(136, 131, 150)" r="3" /><circle cx="598.4" cy="469.3898305084746" fill="rgb(220, 9, 150)" r="3" /></g></g></g></g></g></g></svg>