<?xml version="1.0" standalone="no"?>
<!DOCTYPE svg PUBLIC "-//W3C//DTD SVG 1.1//EN"
"http://www.w3.org/Graphics/SVG/1.1/DTD/svg11.dtd">
<svg height="600" version="1.1" width="600" xmlns="http://www.w3.org/2000/svg"><g transform="translate(30 30)"><g transform="translate(32 0)"><text fill="#333" font-family="Monaco" font-size="16" x="0" y="0">Example chart</text></g><g transform="translate(0 18)"><g transform="translate(32 0)"><g class="axis bottom"><g class="tick"><line stroke="#a8a8a8" stroke-width="1" x1="0.0" x2="0.0" y1="0" y2="512.0" /><text dy="1em" fill="#9c9c9c" font-family="Monaco" text-anchor="middle" x="0.0" y="516.0">0.0</text></g><g class="tick"><line stroke="#eee" stroke-width="1" x1="127.0" x2="127.0" y1="0" y2="512.0" /><text dy="1em" fill="#9c9c9c" font-family="Monaco" text-anchor="middle" x="127.0" y="516.0">2.0</text></g><g class="tick"><line stroke="#eee" stroke-width="1" x1="254.0" x2="254.0" y1="0" y2="512.0" /><text dy="1em" fill="#9c9c9c" font-family="Monaco" text-anchor="middle" x="254.0" y="516.0">4.0</text></g><g class="tick"><line stroke="#eee" stroke-width="1" x1="381.0" x2="381.0" y1="0" y2="512.0" /><text dy="1em" fill="#9c9c9c" font-family="Monaco" text-anchor="middle" x="381.0" y="516.0">6.0</text></g><g class="tick"><line stroke="#eee" stroke-width="1" x1="508.0" x2="508.0" y1="0" y2="512.0" /><text dy="1em" fill="#9c9c9c" font-family="Monaco" text-anchor="middle" x="508.0" y="516.0">8.0</text></g></g><g class="axis left"><g class="tick"><line stroke="#a8a8a8" stroke-width="1" x1="-4" x2="508.0" y1="508.0" y2="508.0" /><text dy="0.32em" fill="#9c9c9c" font-family="Monaco" text-anchor="end" x="-8" y="508.0">0.0</text></g><g class="tick"><line stroke="#eee" stroke-width="1" x1="-4" x2="508.0" y1="381.0" y2="381.0" /><text dy="0.32em" fill="#9c9c9c" font-family="Monaco" text-anchor="end" x="-8" y="381.0">2.25</text></g><g class="tick"><line stroke="#eee" stroke-width="1" x1="-4" x2="508.0" y1="254.0" y2="254.0" /><text dy="0.32em" fill="#9c9c9c" font-family="Monaco" text-anchor="end" x="-8" y="254.0">4.5</text></g><g class="tick"><line stroke="#eee" stroke-width="1" x1="-4" x2="508.0" y1="127.0" y2="127.0" /><text dy="0.32em" fill="#9c9c9c" font-family="Monaco" text-anchor="end" x="-8" y="127.0">6.75</text></g><g class="tick"><line stroke="#eee" stroke-width="1" x1="-4" x2="508.0" y1="0.0" y2="0.0" /><text dy="0.32em" fill="#9c9c9c" font-family="Monaco" text-anchor="end" x="-8" y="0.0">9.0</text></g></g><g><g class="series lines"><path d="M 0.0 338.6666666666667 L 254.0 225.77777777777777 L 444.5 0.0 L 508.0 282.22222222222223" fill="none" stroke="#d190b6" stroke-width="2" /></g><g class="series dots"><circle cx="0.0" cy="338.6666666666667" fill="#51b2e5" r="3" /><circle cx="254.0" cy="225.77777777777777" fill="#51b2e5" r="3" /><circle cx="444.5" cy="0.0" fill="#51b2e5" r="3" /><circle cx="508.0" cy="282.22222222222223" fill="#51b2e5" r="3" /></g></g></g></g></g></svg>