<?xml version="1.0" standalone="no"?>
<!DOCTYPE svg PUBLIC "-//W3C//DTD SVG 1.1//EN"
"http://www.w3.org/Graphics/SVG/1.1/DTD/svg11.dtd">
<svg height="600" version="1.1" width="600" xmlns="http://www.w3.org/2000/svg"><g transform="translate(30 30)"><g><text fill="#333" font-family="Monaco" font-size="16px" x="0" y="0">Example chart</text></g><g transform="translate(0 20)"><g transform="translate(32 0)"><g class="axis bottom"><g class="tick"><line stroke="#a8a8a8" stroke-width="1px" x1="0.0" x2="0.0" y1="0" y2="510.0" /><text dy="1em" fill="#9c9c9c" font-family="Monaco" text-anchor="middle" x="0.0" y="514.0">0.0</text></g><g class="tick"><line stroke="#eee" stroke-width="1px" x1="127.0" x2="127.0" y1="0" y2="510.0" /><text dy="1em" fill="#9c9c9c" font-family="Monaco" text-anchor="middle" x="127.0" y="514.0">2.0</text></g><g class="tick"><line stroke="#eee" stroke-width="1px" x1="254.0" x2="254.0" y1="0" y2="510.0" /><text dy="1em" fill="#9c9c9c" font-family="Monaco" text-anchor="middle" x="254.0" y="514.0">4.0</text></g><g class="tick"><line stroke="#eee" stroke-width="1px" x1="381.0" x2="381.0" y1="0" y2="510.0" /><text dy="1em" fill="#9c9c9c" font-family="Monaco" text-anchor="middle" x="381.0" y="514.0">6.0</text></g><g class="tick"><line stroke="#eee" stroke-width="1px" x1="508.0" x2="508.0" y1="0" y2="510.0" /><text dy="1em" fill="#9c9c9c" font-family="Monaco" text-anchor="middle" x="508.0" y="514.0">8.0</text></g></g><g class="axis left"><g class="tick"><line stroke="#a8a8a8" stroke-width="1px" x1="-4" x2="508.0" y1="506.0" y2="506.0" /><text dy="0.32em" fill="#9c9c9c" font-family="Monaco" text-anchor="end" x="-8" y="506.0">0.0</text></g><g class="tick"><line stroke="#eee" stroke-width="1px" x1="-4" x2="508.0" y1="379.5" y2="379.5" /><text dy="0.32em" fill="#9c9c9c" font-family="Monaco" text-anchor="end" x="-8" y="379.5">2.25</text></g><g class="tick"><line stroke="#eee" stroke-width="1px" x1="-4" x2="508.0" y1="253.0" y2="253.0" /><text dy="0.32em" fill="#9c9c9c" font-family="Monaco" text-anchor="end" x="-8" y="253.0">4.5</text></g><g class="tick"><line stroke="#eee" stroke-width="1px" x1="-4" x2="508.0" y1="126.5" y2="126.5" /><text dy="0.32em" fill="#9c9c9c" font-family="Monaco" text-anchor="end" x="-8" y="126.5">6.75</text></g><g class="tick"><line stroke="#eee" stroke-width="1px" x1="-4" x2="508.0" y1="0.0" y2="0.0" /><text dy="0.32em" fill="#9c9c9c" font-family="Monaco" text-anchor="end" x="-8" y="0.0">9.0</text></g></g><g><g class="series lines"><path d="M 0.0 337.33333333333337 L 254.0 224.88888888888886 L 444.5 0.0 L 508.0 281.1111111111111" fill="none" stroke="#d190b6" stroke-width="2" /></g><g class="series dots"><circle cx="0.0" cy="337.33333333333337" fill="#51b2e5" r="3" /><circle cx="254.0" cy="224.88888888888886" fill="#51b2e5" r="3" /><circle cx="444.5" cy="0.0" fill="#51b2e5" r="3" /><circle cx="508.0" cy="281.1111111111111" fill="#51b2e5" r="3" /></g></g></g></g></g></svg>