<?xml version="1.0" standalone="no"?>
<!DOCTYPE svg PUBLIC "-//W3C//DTD SVG 1.1//EN"
"http://www.w3.org/Graphics/SVG/1.1/DTD/svg11.dtd">
<svg height="600" version="1.1" width="600" xmlns="http://www.w3.org/2000/svg"><g transform="translate(30 30)"><g><g class="axis bottom"><g class="tick"><line stroke="#a8a8a8" stroke-width="1px" x1="0.0" x2="0.0" y1="0" y2="544.0" /><text dy="1em" fill="#9c9c9c" text-anchor="middle" x="0.0" y="548.0">0.0</text></g><g class="tick"><line stroke="#eee" stroke-width="1px" x1="135.0" x2="135.0" y1="0" y2="544.0" /><text dy="1em" fill="#9c9c9c" text-anchor="middle" x="135.0" y="548.0">2.0</text></g><g class="tick"><line stroke="#eee" stroke-width="1px" x1="270.0" x2="270.0" y1="0" y2="544.0" /><text dy="1em" fill="#9c9c9c" text-anchor="middle" x="270.0" y="548.0">4.0</text></g><g class="tick"><line stroke="#eee" stroke-width="1px" x1="405.0" x2="405.0" y1="0" y2="544.0" /><text dy="1em" fill="#9c9c9c" text-anchor="middle" x="405.0" y="548.0">6.0</text></g><g class="tick"><line stroke="#eee" stroke-width="1px" x1="540.0" x2="540.0" y1="0" y2="544.0" /><text dy="1em" fill="#9c9c9c" text-anchor="middle" x="540.0" y="548.0">8.0</text></g></g><g class="axis left"><g class="tick"><line stroke="#a8a8a8" stroke-width="1px" x1="-4" x2="540.0" y1="540.0" y2="540.0" /><text dy="0.32em" fill="#9c9c9c" text-anchor="end" x="-8" y="540.0">0.0</text></g><g class="tick"><line stroke="#eee" stroke-width="1px" x1="-4" x2="540.0" y1="405.0" y2="405.0" /><text dy="0.32em" fill="#9c9c9c" text-anchor="end" x="-8" y="405.0">2.25</text></g><g class="tick"><line stroke="#eee" stroke-width="1px" x1="-4" x2="540.0" y1="270.0" y2="270.0" /><text dy="0.32em" fill="#9c9c9c" text-anchor="end" x="-8" y="270.0">4.5</text></g><g class="tick"><line stroke="#eee" stroke-width="1px" x1="-4" x2="540.0" y1="135.0" y2="135.0" /><text dy="0.32em" fill="#9c9c9c" text-anchor="end" x="-8" y="135.0">6.75</text></g><g class="tick"><line stroke="#eee" stroke-width="1px" x1="-4" x2="540.0" y1="0.0" y2="0.0" /><text dy="0.32em" fill="#9c9c9c" text-anchor="end" x="-8" y="0.0">9.0</text></g></g></g><g><g class="series lines"><path d="M 0.0 360.0 L 270.0 240.0 L 472.5 0.0 L 540.0 300.0" fill="none" stroke="blue" stroke-width="2px" /></g><g class="series dots"><circle cx="0.0" cy="360.0" fill="red" r="3" /><circle cx="270.0" cy="240.0" fill="red" r="3" /><circle cx="472.5" cy="0.0" fill="red" r="3" /><circle cx="540.0" cy="300.0" fill="red" r="3" /></g></g></g></svg>