<?xml version="1.0" standalone="no"?>
<!DOCTYPE svg PUBLIC "-//W3C//DTD SVG 1.1//EN"
"http://www.w3.org/Graphics/SVG/1.1/DTD/svg11.dtd">
<svg height="600" version="1.1" width="800" xmlns="http://www.w3.org/2000/svg"><g><rect fill="#f9f9f9" height="600" width="800" x="0" y="0" /><g transform="translate(40 40)"><g transform="translate(40 0)"><text fill="#333" font-family="Monaco" font-size="16" x="0" y="0">Well that was easy</text></g><g transform="translate(0 18)"><g transform="translate(40 0)"><g class="axis bottom"><g class="tick"><line stroke="#a8a8a8" stroke-width="1" x1="0.0" x2="0.0" y1="0" y2="492.0" /><text dy="1em" fill="#9c9c9c" font-family="Monaco" text-anchor="middle" x="0.0" y="496.0">0.0</text></g><g class="tick"><line stroke="#eee" stroke-width="1" x1="170.0" x2="170.0" y1="0" y2="492.0" /><text dy="1em" fill="#9c9c9c" font-family="Monaco" text-anchor="middle" x="170.0" y="496.0">61.75</text></g><g class="tick"><line stroke="#eee" stroke-width="1" x1="340.0" x2="340.0" y1="0" y2="492.0" /><text dy="1em" fill="#9c9c9c" font-family="Monaco" text-anchor="middle" x="340.0" y="496.0">123.5</text></g><g class="tick"><line stroke="#eee" stroke-width="1" x1="510.0" x2="510.0" y1="0" y2="492.0" /><text dy="1em" fill="#9c9c9c" font-family="Monaco" text-anchor="middle" x="510.0" y="496.0">185.25</text></g><g class="tick"><line stroke="#eee" stroke-width="1" x1="680.0" x2="680.0" y1="0" y2="492.0" /><text dy="1em" fill="#9c9c9c" font-family="Monaco" text-anchor="middle" x="680.0" y="496.0">247.0</text></g></g><g class="axis left"><g class="tick"><line stroke="#a8a8a8" stroke-width="1" x1="-4" x2="680.0" y1="488.0" y2="488.0" /><text dy="0.32em" fill="#9c9c9c" font-family="Monaco" text-anchor="end" x="-8" y="488.0">0.0</text></g><g class="tick"><line stroke="#eee" stroke-width="1" x1="-4" x2="680.0" y1="366.0" y2="366.0" /><text dy="0.32em" fill="#9c9c9c" font-family="Monaco" text-anchor="end" x="-8" y="366.0">62.5</text></g><g class="tick"><line stroke="#eee" stroke-width="1" x1="-4" x2="680.0" y1="244.0" y2="244.0" /><text dy="0.32em" fill="#9c9c9c" font-family="Monaco" text-anchor="end" x="-8" y="244.0">125.0</text></g><g class="tick"><line stroke="#eee" stroke-width="1" x1="-4" x2="680.0" y1="122.0" y2="122.0" /><text dy="0.32em" fill="#9c9c9c" font-family="Monaco" text-anchor="end" x="-8" y="122.0">187.5</text></g><g class="tick"><line stroke="#eee" stroke-width="1" x1="-4" x2="680.0" y1="0.0" y2="0.0" /><text dy="0.32em" fill="#9c9c9c" font-family="Monaco" text-anchor="end" x="-8" y="0.0">250.0</text></g></g><g><g class="series dots"><circle cx="611.174089068826" cy="50.75200000000001" fill="rgb(222, 224, 150)" r="3" /><circle cx="652.4696356275304" cy="150.30400000000003" fill="rgb(237, 173, 150)" r="3" /><circle cx="542.3481781376518" cy="87.84000000000003" fill="rgb(197, 205, 150)" r="3" /><circle cx="140.40485829959513" cy="25.376000000000033" fill="rgb(51, 237, 150)" r="3" /><circle cx="572.6315789473684" cy="366.976" fill="rgb(208, 62, 150)" r="3" /><circle cx="104.61538461538463" cy="21.472000000000037" fill="rgb(38, 239, 150)" r="3" /><circle cx="393.6842105263158" cy="132.736" fill="rgb(143, 182, 150)" r="3" /><circle cx="514.8178137651822" cy="158.11199999999997" fill="rgb(187, 169, 150)" r="3" /><circle cx="154.17004048582996" cy="83.93600000000004" fill="rgb(56, 207, 150)" r="3" /><circle cx="156.92307692307693" cy="1.9519999999999982" fill="rgb(57, 249, 150)" r="3" /><circle cx="602.914979757085" cy="33.18399999999997" fill="rgb(219, 233, 150)" r="3" /><circle cx="203.7246963562753" cy="331.84000000000003" fill="rgb(74, 80, 150)" r="3" /><circle cx="528.582995951417" cy="419.68" fill="rgb(192, 35, 150)" r="3" /><circle cx="55.06072874493927" cy="85.88800000000003" fill="rgb(20, 206, 150)" r="3" /><circle cx="589.1497975708502" cy="421.632" fill="rgb(214, 34, 150)" r="3" /><circle cx="616.6801619433198" cy="450.912" fill="rgb(224, 19, 150)" r="3" /><circle cx="90.8502024291498" cy="460.672" fill="rgb(33, 14, 150)" r="3" /><circle cx="476.27530364372467" cy="162.01599999999996" fill="rgb(173, 167, 150)" r="3" /><circle cx="445.9919028340081" cy="173.728" fill="rgb(162, 161, 150)" r="3" /><circle cx="112.87449392712551" cy="25.376000000000033" fill="rgb(41, 237, 150)" r="3" /><circle cx="558.8663967611336" cy="464.576" fill="rgb(203, 12, 150)" r="3" /><circle cx="145.91093117408906" cy="81.98400000000004" fill="rgb(53, 208, 150)" r="3" /><circle cx="393.6842105263158" cy="445.056" fill="rgb(143, 22, 150)" r="3" /><circle cx="556.1133603238866" cy="329.88800000000003" fill="rgb(202, 81, 150)" r="3" /><circle cx="407.4493927125506" cy="433.344" fill="rgb(148, 28, 150)" r="3" /><circle cx="407.4493927125506" cy="478.24" fill="rgb(148, 5, 150)" r="3" /><circle cx="357.89473684210526" cy="160.06399999999996" fill="rgb(130, 168, 150)" r="3" /><circle cx="313.84615384615387" cy="234.23999999999998" fill="rgb(114, 130, 150)" r="3" /><circle cx="523.0769230769231" cy="298.656" fill="rgb(190, 97, 150)" r="3" /><circle cx="126.63967611336032" cy="148.35200000000003" fill="rgb(46, 174, 150)" r="3" /><circle cx="390.9311740890688" cy="68.32" fill="rgb(142, 215, 150)" r="3" /><circle cx="360.64777327935224" cy="394.304" fill="rgb(131, 48, 150)" r="3" /><circle cx="437.7327935222672" cy="185.44" fill="rgb(159, 155, 150)" r="3" /><circle cx="245.02024291497978" cy="341.6" fill="rgb(89, 75, 150)" r="3" /><circle cx="234.00809716599187" cy="40.99199999999996" fill="rgb(85, 229, 150)" r="3" /><circle cx="479.02834008097165" cy="220.57599999999996" fill="rgb(174, 137, 150)" r="3" /><circle cx="79.83805668016194" cy="437.248" fill="rgb(29, 26, 150)" r="3" /><circle cx="134.8987854251012" cy="0.0" fill="rgb(49, 250, 150)" r="3" /><circle cx="680.0" cy="366.976" fill="rgb(247, 62, 150)" r="3" /><circle cx="302.83400809716596" cy="81.98400000000004" fill="rgb(110, 208, 150)" r="3" /><circle cx="382.67206477732793" cy="468.48" fill="rgb(139, 10, 150)" r="3" /><circle cx="677.246963562753" cy="376.736" fill="rgb(246, 57, 150)" r="3" /><circle cx="52.307692307692314" cy="83.93600000000004" fill="rgb(19, 207, 150)" r="3" /><circle cx="308.3400809716599" cy="1.9519999999999982" fill="rgb(112, 249, 150)" r="3" /><circle cx="85.34412955465586" cy="214.71999999999997" fill="rgb(31, 140, 150)" r="3" /><circle cx="633.1983805668016" cy="415.776" fill="rgb(230, 37, 150)" r="3" /><circle cx="60.56680161943319" cy="329.88800000000003" fill="rgb(22, 81, 150)" r="3" /><circle cx="311.0931174089069" cy="404.064" fill="rgb(113, 43, 150)" r="3" /><circle cx="657.9757085020243" cy="197.152" fill="rgb(239, 149, 150)" r="3" /><circle cx="74.33198380566802" cy="312.32" fill="rgb(27, 90, 150)" r="3" /><circle cx="385.4251012145749" cy="450.912" fill="rgb(140, 19, 150)" r="3" /><circle cx="88.09716599190284" cy="249.856" fill="rgb(32, 122, 150)" r="3" /><circle cx="531.336032388664" cy="99.55199999999996" fill="rgb(193, 199, 150)" r="3" /><circle cx="272.5506072874494" cy="66.368" fill="rgb(99, 216, 150)" r="3" /><circle cx="492.79352226720647" cy="105.40799999999996" fill="rgb(179, 196, 150)" r="3" /><circle cx="415.7085020242915" cy="486.048" fill="rgb(151, 1, 150)" r="3" /><circle cx="454.251012145749" cy="201.05600000000004" fill="rgb(165, 147, 150)" r="3" /><circle cx="646.9635627530364" cy="163.96799999999996" fill="rgb(235, 166, 150)" r="3" /><circle cx="99.10931174089067" cy="11.711999999999989" fill="rgb(36, 244, 150)" r="3" /><circle cx="176.19433198380568" cy="101.50399999999996" fill="rgb(64, 198, 150)" r="3" /><circle cx="134.8987854251012" cy="204.96000000000004" fill="rgb(49, 145, 150)" r="3" /><circle cx="22.02429149797571" cy="232.28799999999998" fill="rgb(8, 131, 150)" r="3" /><circle cx="462.51012145748984" cy="9.759999999999991" fill="rgb(168, 245, 150)" r="3" /><circle cx="253.27935222672065" cy="460.672" fill="rgb(92, 14, 150)" r="3" /><circle cx="5.506072874493928" cy="187.392" fill="rgb(2, 154, 150)" r="3" /><circle cx="162.42914979757086" cy="76.12799999999999" fill="rgb(59, 211, 150)" r="3" /><circle cx="101.86234817813765" cy="5.8559999999999945" fill="rgb(37, 247, 150)" r="3" /><circle cx="371.65991902834014" cy="7.807999999999993" fill="rgb(135, 246, 150)" r="3" /><circle cx="468.01619433198374" cy="286.944" fill="rgb(170, 103, 150)" r="3" /><circle cx="200.97165991902835" cy="101.50399999999996" fill="rgb(73, 198, 150)" r="3" /><circle cx="187.2064777327935" cy="60.512" fill="rgb(68, 219, 150)" r="3" /><circle cx="355.14170040485834" cy="257.664" fill="rgb(129, 118, 150)" r="3" /><circle cx="151.41700404858298" cy="58.56" fill="rgb(55, 220, 150)" r="3" /><circle cx="203.7246963562753" cy="85.88800000000003" fill="rgb(74, 206, 150)" r="3" /><circle cx="451.49797570850205" cy="409.92" fill="rgb(164, 40, 150)" r="3" /><circle cx="261.53846153846155" cy="468.48" fill="rgb(95, 10, 150)" r="3" /><circle cx="338.6234817813765" cy="419.68" fill="rgb(123, 35, 150)" r="3" /><circle cx="556.1133603238866" cy="351.36" fill="rgb(202, 70, 150)" r="3" /><circle cx="291.8218623481781" cy="124.928" fill="rgb(106, 186, 150)" r="3" /><circle cx="85.34412955465586" cy="11.711999999999989" fill="rgb(31, 244, 150)" r="3" /><circle cx="561.6194331983805" cy="423.584" fill="rgb(204, 33, 150)" r="3" /><circle cx="140.40485829959513" cy="292.79999999999995" fill="rgb(51, 100, 150)" r="3" /><circle cx="231.25506072874492" cy="310.368" fill="rgb(84, 91, 150)" r="3" /><circle cx="159.67611336032388" cy="462.624" fill="rgb(58, 13, 150)" r="3" /><circle cx="220.24291497975707" cy="5.8559999999999945" fill="rgb(80, 247, 150)" r="3" /><circle cx="129.39271255060729" cy="255.71200000000002" fill="rgb(47, 119, 150)" r="3" /><circle cx="465.2631578947369" cy="464.576" fill="rgb(169, 12, 150)" r="3" /><circle cx="608.421052631579" cy="29.28000000000003" fill="rgb(221, 235, 150)" r="3" /><circle cx="490.04048582995955" cy="142.49600000000004" fill="rgb(178, 177, 150)" r="3" /><circle cx="368.9068825910931" cy="95.64799999999997" fill="rgb(134, 201, 150)" r="3" /><circle cx="167.93522267206478" cy="265.472" fill="rgb(61, 114, 150)" r="3" /><circle cx="313.84615384615387" cy="44.89599999999996" fill="rgb(114, 227, 150)" r="3" /><circle cx="71.57894736842105" cy="152.25600000000003" fill="rgb(26, 172, 150)" r="3" /><circle cx="121.13360323886639" cy="124.928" fill="rgb(44, 186, 150)" r="3" /><circle cx="49.55465587044534" cy="427.488" fill="rgb(18, 31, 150)" r="3" /><circle cx="341.37651821862346" cy="298.656" fill="rgb(124, 97, 150)" r="3" /><circle cx="432.2267206477733" cy="42.94399999999996" fill="rgb(157, 228, 150)" r="3" /><circle cx="338.6234817813765" cy="42.94399999999996" fill="rgb(123, 228, 150)" r="3" /><circle cx="178.94736842105263" cy="122.976" fill="rgb(65, 187, 150)" r="3" /><circle cx="407.4493927125506" cy="107.36000000000001" fill="rgb(148, 195, 150)" r="3" /></g></g></g></g></g></g></svg>