<?xml version="1.0" standalone="no"?>
<!DOCTYPE svg PUBLIC "-//W3C//DTD SVG 1.1//EN"
"http://www.w3.org/Graphics/SVG/1.1/DTD/svg11.dtd">
<svg height="600" version="1.1" width="600" xmlns="http://www.w3.org/2000/svg"><g transform="translate(30 30)"><g transform="translate(32 0)"><g class="axis bottom"><g class="tick"><line stroke="#a8a8a8" stroke-width="1px" x1="0.0" x2="0.0" y1="0" y2="530.0" /><text dy="1em" fill="#9c9c9c" font-family="Monaco" text-anchor="middle" x="0.0" y="534.0">0.0</text></g><g class="tick"><line stroke="#eee" stroke-width="1px" x1="127.0" x2="127.0" y1="0" y2="530.0" /><text dy="1em" fill="#9c9c9c" font-family="Monaco" text-anchor="middle" x="127.0" y="534.0">2.0</text></g><g class="tick"><line stroke="#eee" stroke-width="1px" x1="254.0" x2="254.0" y1="0" y2="530.0" /><text dy="1em" fill="#9c9c9c" font-family="Monaco" text-anchor="middle" x="254.0" y="534.0">4.0</text></g><g class="tick"><line stroke="#eee" stroke-width="1px" x1="381.0" x2="381.0" y1="0" y2="530.0" /><text dy="1em" fill="#9c9c9c" font-family="Monaco" text-anchor="middle" x="381.0" y="534.0">6.0</text></g><g class="tick"><line stroke="#eee" stroke-width="1px" x1="508.0" x2="508.0" y1="0" y2="530.0" /><text dy="1em" fill="#9c9c9c" font-family="Monaco" text-anchor="middle" x="508.0" y="534.0">8.0</text></g></g><g class="axis left"><g class="tick"><line stroke="#a8a8a8" stroke-width="1px" x1="-4" x2="508.0" y1="526.0" y2="526.0" /><text dy="0.32em" fill="#9c9c9c" font-family="Monaco" text-anchor="end" x="-8" y="526.0">0.0</text></g><g class="tick"><line stroke="#eee" stroke-width="1px" x1="-4" x2="508.0" y1="394.5" y2="394.5" /><text dy="0.32em" fill="#9c9c9c" font-family="Monaco" text-anchor="end" x="-8" y="394.5">2.25</text></g><g class="tick"><line stroke="#eee" stroke-width="1px" x1="-4" x2="508.0" y1="263.0" y2="263.0" /><text dy="0.32em" fill="#9c9c9c" font-family="Monaco" text-anchor="end" x="-8" y="263.0">4.5</text></g><g class="tick"><line stroke="#eee" stroke-width="1px" x1="-4" x2="508.0" y1="131.5" y2="131.5" /><text dy="0.32em" fill="#9c9c9c" font-family="Monaco" text-anchor="end" x="-8" y="131.5">6.75</text></g><g class="tick"><line stroke="#eee" stroke-width="1px" x1="-4" x2="508.0" y1="0.0" y2="0.0" /><text dy="0.32em" fill="#9c9c9c" font-family="Monaco" text-anchor="end" x="-8" y="0.0">9.0</text></g></g><g><g class="series lines"><path d="M 0.0 350.6666666666667 L 254.0 233.77777777777777 L 444.5 0.0 L 508.0 292.22222222222223" fill="none" stroke="blue" stroke-width="2px" /></g><g class="series dots"><circle cx="0.0" cy="350.6666666666667" fill="red" r="3" /><circle cx="254.0" cy="233.77777777777777" fill="red" r="3" /><circle cx="444.5" cy="0.0" fill="red" r="3" /><circle cx="508.0" cy="292.22222222222223" fill="red" r="3" /></g></g></g></g></svg>