<?xml version="1.0" standalone="no"?>
<!DOCTYPE svg PUBLIC "-//W3C//DTD SVG 1.1//EN"
"http://www.w3.org/Graphics/SVG/1.1/DTD/svg11.dtd">
<svg height="400" version="1.1" width="800" xmlns="http://www.w3.org/2000/svg"><g><rect fill="#f9f9f9" height="400" width="800" x="0" y="0" /><g transform="translate(40 40)"><g transform="translate(32 0)"><text fill="#333" font-family="Monaco" font-size="16" x="0" y="0">Example chart</text></g><g transform="translate(0 18)"><g transform="translate(32 0)"><g class="axis bottom"><g class="tick"><line stroke="#a8a8a8" stroke-width="1" x1="0.0" x2="0.0" y1="0" y2="292.0" /><text dy="1em" fill="#9c9c9c" font-family="Monaco" text-anchor="middle" x="0.0" y="296.0">0.0</text></g><g class="tick"><line stroke="#eee" stroke-width="1" x1="172.0" x2="172.0" y1="0" y2="292.0" /><text dy="1em" fill="#9c9c9c" font-family="Monaco" text-anchor="middle" x="172.0" y="296.0">2.0</text></g><g class="tick"><line stroke="#eee" stroke-width="1" x1="344.0" x2="344.0" y1="0" y2="292.0" /><text dy="1em" fill="#9c9c9c" font-family="Monaco" text-anchor="middle" x="344.0" y="296.0">4.0</text></g><g class="tick"><line stroke="#eee" stroke-width="1" x1="516.0" x2="516.0" y1="0" y2="292.0" /><text dy="1em" fill="#9c9c9c" font-family="Monaco" text-anchor="middle" x="516.0" y="296.0">6.0</text></g><g class="tick"><line stroke="#eee" stroke-width="1" x1="688.0" x2="688.0" y1="0" y2="292.0" /><text dy="1em" fill="#9c9c9c" font-family="Monaco" text-anchor="middle" x="688.0" y="296.0">8.0</text></g></g><g class="axis left"><g class="tick"><line stroke="#a8a8a8" stroke-width="1" x1="-4" x2="688.0" y1="288.0" y2="288.0" /><text dy="0.32em" fill="#9c9c9c" font-family="Monaco" text-anchor="end" x="-8" y="288.0">0.0</text></g><g class="tick"><line stroke="#eee" stroke-width="1" x1="-4" x2="688.0" y1="216.0" y2="216.0" /><text dy="0.32em" fill="#9c9c9c" font-family="Monaco" text-anchor="end" x="-8" y="216.0">2.25</text></g><g class="tick"><line stroke="#eee" stroke-width="1" x1="-4" x2="688.0" y1="144.0" y2="144.0" /><text dy="0.32em" fill="#9c9c9c" font-family="Monaco" text-anchor="end" x="-8" y="144.0">4.5</text></g><g class="tick"><line stroke="#eee" stroke-width="1" x1="-4" x2="688.0" y1="72.0" y2="72.0" /><text dy="0.32em" fill="#9c9c9c" font-family="Monaco" text-anchor="end" x="-8" y="72.0">6.75</text></g><g class="tick"><line stroke="#eee" stroke-width="1" x1="-4" x2="688.0" y1="0.0" y2="0.0" /><text dy="0.32em" fill="#9c9c9c" font-family="Monaco" text-anchor="end" x="-8" y="0.0">9.0</text></g></g><g><g class="series lines"><path d="M 0.0 192.0 L 344.0 128.0 L 602.0 0.0 L 688.0 160.0" fill="none" stroke="#d190b6" stroke-width="2" /></g><g class="series dots"><circle cx="0.0" cy="192.0" fill="#51b2e5" r="3" /><circle cx="344.0" cy="128.0" fill="#51b2e5" r="3" /><circle cx="602.0" cy="0.0" fill="#51b2e5" r="3" /><circle cx="688.0" cy="160.0" fill="#51b2e5" r="3" /></g></g></g></g></g></g></svg>